<svg width="150" height="123" viewBox="0 0 150 123" fill="none" xmlns="http://www.w3.org/2000/svg">
<rect width="150" height="71" rx="12" fill="white"/>
<rect x="53" y="37" width="44" height="28" rx="6" fill="#27B2C7" fill-opacity="0.1"/>
<g clip-path="url(#clip0_156_155)">
<path d="M68.7776 48.2222C68.2823 47.2212 67.3 44.7402 68.7 44.0875C68.9081 44.0009 69.1374 43.978 69.3585 44.022C69.5796 44.0659 69.7827 44.1746 69.9419 44.3342L72.8352 47.4259C72.8899 47.4796 72.9335 47.5436 72.9634 47.6141C72.9933 47.6846 73.0091 47.7603 73.0098 47.837C73.0105 47.9136 72.996 47.9896 72.9673 48.0606C72.9386 48.1317 72.8962 48.1964 72.8425 48.251C72.7888 48.3057 72.7249 48.3492 72.6544 48.3792C72.5838 48.4091 72.5081 48.4249 72.4315 48.4256C72.3549 48.4263 72.2789 48.4118 72.2078 48.3831C72.1368 48.3544 72.0721 48.312 72.0174 48.2583L69.1667 45.2133C69.2361 47.4166 70.5334 49.0633 71.9906 50.7194C72.1024 50.8269 72.167 50.9745 72.1701 51.1296C72.1731 51.2847 72.1144 51.4347 72.0069 51.5466C71.8994 51.6584 71.7518 51.723 71.5967 51.7261C71.4416 51.7291 71.2916 51.6704 71.1797 51.5629C70.2222 50.5709 69.4131 49.4457 68.7776 48.2222V48.2222ZM78.5029 53.45C78.4234 53.3629 78.3242 53.2963 78.2135 53.2557C78.1028 53.215 77.984 53.2017 77.8671 53.2167C77.1904 53.3075 76.502 53.2498 75.8499 53.0475C75.7501 53.018 75.6441 53.0163 75.5433 53.0424C75.4425 53.0684 75.3507 53.1214 75.2777 53.1957C74.4062 54.5117 77.1875 54.4283 77.793 54.409L80.9914 57.8151C81.0439 57.8709 81.1069 57.9159 81.1768 57.9474C81.2467 57.9789 81.3221 57.9963 81.3987 57.9987C81.4753 58.001 81.5517 57.9883 81.6234 57.9611C81.6951 57.934 81.7607 57.893 81.8165 57.8405C81.8724 57.7879 81.9173 57.7249 81.9488 57.6551C81.9803 57.5852 81.9978 57.5098 82.0001 57.4332C82.0025 57.3565 81.9897 57.2802 81.9626 57.2085C81.9354 57.1368 81.8944 57.0712 81.8419 57.0153L78.5029 53.45ZM76.75 52.1667C77.133 52.1672 77.5124 52.0922 77.8663 51.9458C78.2203 51.7995 78.5419 51.5847 78.8127 51.3138L81.8291 48.2968C81.8833 48.2427 81.9264 48.1784 81.9557 48.1076C81.9851 48.0368 82.0003 47.9609 82.0003 47.8842C82.0004 47.8076 81.9853 47.7317 81.9561 47.6609C81.9268 47.59 81.8838 47.5257 81.8297 47.4714C81.7755 47.4172 81.7112 47.3741 81.6404 47.3448C81.5696 47.3154 81.4937 47.3002 81.4171 47.3002C81.3404 47.3001 81.2645 47.3152 81.1937 47.3444C81.1229 47.3737 81.0585 47.4167 81.0042 47.4708L77.9878 50.4878C77.7317 50.7418 77.4033 50.9103 77.0476 50.9705C76.692 51.0306 76.3264 50.9794 76.001 50.8238L80.0791 46.7457C80.1348 46.6919 80.1792 46.6276 80.2098 46.5564C80.2404 46.4852 80.2565 46.4087 80.2571 46.3312C80.2578 46.2538 80.2431 46.177 80.2137 46.1053C80.1844 46.0336 80.1411 45.9685 80.0863 45.9137C80.0315 45.8589 79.9664 45.8156 79.8947 45.7863C79.823 45.7569 79.7462 45.7422 79.6688 45.7429C79.5913 45.7435 79.5148 45.7596 79.4436 45.7902C79.3724 45.8208 79.3081 45.8652 79.2542 45.9209L75.175 49.999C75.0194 49.6736 74.9682 49.308 75.0283 48.9524C75.0885 48.5967 75.2571 48.2683 75.511 48.0122L78.5292 44.9957C78.6354 44.8857 78.6942 44.7384 78.6929 44.5854C78.6916 44.4325 78.6302 44.2862 78.5221 44.178C78.4139 44.0699 78.2676 44.0085 78.1147 44.0072C77.9617 44.0059 77.8144 44.0647 77.7043 44.1709L74.6873 47.1873C74.2129 47.6633 73.9171 48.2883 73.8496 48.9569C73.7821 49.6256 73.9472 50.2971 74.3169 50.8583L68.1709 57.0043C68.0647 57.1143 68.0059 57.2616 68.0072 57.4146C68.0085 57.5675 68.0699 57.7138 68.178 57.822C68.2862 57.9301 68.4325 57.9915 68.5854 57.9928C68.7384 57.9941 68.8857 57.9353 68.9957 57.8291L75.1417 51.6831C75.6188 51.9985 76.1781 52.1666 76.75 52.1667V52.1667Z" fill="#27B2C7"/>
</g>
<rect x="6" y="6" width="44" height="59" rx="6" fill="#27B2C7" fill-opacity="0.1"/>
<path fill-rule="evenodd" clip-rule="evenodd" d="M28.0793 28.2223C28.3127 27.9926 28.6873 27.9926 28.9208 28.2223L35.6708 34.8623C35.907 35.0946 35.9101 35.4745 35.6778 35.7108C35.4454 35.947 35.0655 35.9501 34.8293 35.7177L34 34.902V40.5C34 40.7761 33.7762 41 33.5 41H23.5C23.2239 41 23 40.7761 23 40.5V34.902L22.1708 35.7177C21.9346 35.9501 21.5547 35.947 21.3223 35.7108C21.0899 35.4745 21.093 35.0946 21.3293 34.8623L28.0793 28.2223ZM28.5 29.4916L33 33.9183V40H31V36.5C31 36.2239 30.7762 36 30.5 36H27.5C27.2239 36 27 36.2239 27 36.5V40H24V33.9183L28.5 29.4916ZM28 40H30V37H28V40Z" fill="#27B2C7"/>
<rect x="100" y="37" width="44" height="28" rx="6" fill="#27B2C7" fill-opacity="0.1"/>
<g clip-path="url(#clip1_156_155)">
<path d="M128.417 56.8333C128.175 56.8333 127.88 56.7126 127.568 56.5848C127.184 56.4279 126.749 56.25 126.278 56.25C125.806 56.25 125.371 56.4279 124.987 56.5848C124.675 56.7126 124.38 56.8333 124.139 56.8333C123.897 56.8333 123.602 56.7126 123.29 56.5848C122.906 56.4279 122.471 56.25 121.999 56.25C121.528 56.25 121.093 56.4279 120.709 56.5848C120.483 56.6776 120.266 56.7662 120.072 56.8082L122.26 51.8668L126.452 53.7778C126.68 53.8822 126.923 53.9342 127.165 53.9342C127.436 53.9342 127.706 53.8694 127.956 53.7411C128.431 53.4967 128.763 53.0533 128.866 52.526C129.512 49.2039 127.933 45.9571 125.023 44.6306C122.029 43.265 118.449 44.2077 116.512 46.8735C116.192 47.3145 116.087 47.871 116.227 48.4007C116.363 48.9175 116.715 49.3387 117.194 49.5568L121.199 51.3827L118.912 56.5446C118.554 56.3993 118.153 56.25 117.722 56.25C117.25 56.25 116.815 56.4279 116.431 56.5848C116.119 56.7126 115.825 56.8333 115.583 56.8333C115.261 56.8333 114.999 57.0947 114.999 57.4167C114.999 57.7387 115.261 58 115.583 58C116.054 58 116.489 57.8221 116.873 57.6652C117.185 57.5374 117.48 57.4167 117.722 57.4167C117.964 57.4167 118.258 57.5374 118.571 57.6652C118.954 57.8221 119.39 58 119.861 58C120.332 58 120.767 57.8221 121.151 57.6652C121.463 57.5374 121.758 57.4167 122 57.4167C122.242 57.4167 122.537 57.5374 122.849 57.6652C123.233 57.8221 123.668 58 124.139 58C124.61 58 125.046 57.8221 125.429 57.6652C125.741 57.5374 126.037 57.4167 126.278 57.4167C126.52 57.4167 126.815 57.5374 127.127 57.6652C127.511 57.8221 127.946 58 128.417 58C128.739 58 129.001 57.7387 129.001 57.4167C129.001 57.0947 128.739 56.8333 128.417 56.8333H128.417ZM117.355 48.1032C117.305 47.9142 117.342 47.7158 117.456 47.5589C119.042 45.3767 122.087 44.5734 124.54 45.6917C126.956 46.7936 128.264 49.5119 127.721 52.3026C127.675 52.5412 127.514 52.6555 127.423 52.7027C127.269 52.7821 127.092 52.7873 126.937 52.7156L117.678 48.4957C117.46 48.3966 117.382 48.2076 117.355 48.1037V48.1032Z" fill="#27B2C7"/>
</g>
<rect x="100" y="6" width="44" height="28" rx="6" fill="#27B2C7" fill-opacity="0.1"/>
<g clip-path="url(#clip2_156_155)">
<path d="M128.615 17.1586C128.452 16.9529 128.244 16.7868 128.008 16.6727C127.772 16.5586 127.513 16.4996 127.25 16.5H116.75C112.869 17.1067 116.379 22.2114 118.403 23.1156L117.364 26.2323C117.34 26.3051 117.331 26.3819 117.336 26.4584C117.342 26.5349 117.362 26.6096 117.396 26.6782C117.431 26.7468 117.478 26.8079 117.536 26.8581C117.594 26.9083 117.662 26.9466 117.734 26.9708C117.807 26.995 117.884 27.0047 117.96 26.9992C118.037 26.9937 118.112 26.9732 118.18 26.9389C118.249 26.9045 118.31 26.857 118.36 26.799C118.41 26.7411 118.449 26.6738 118.473 26.601L119.465 23.6167C120.092 23.8541 120.749 24.0027 121.417 24.0583V26.4167C121.417 26.5714 121.478 26.7198 121.588 26.8291C121.697 26.9385 121.846 27 122 27C122.155 27 122.303 26.9385 122.413 26.8291C122.522 26.7198 122.584 26.5714 122.584 26.4167V24.0583C123.251 24.0025 123.908 23.8537 124.535 23.6161L125.53 26.601C125.554 26.6738 125.592 26.7411 125.643 26.799C125.693 26.857 125.754 26.9045 125.823 26.9389C125.891 26.9732 125.966 26.9937 126.042 26.9992C126.119 27.0047 126.196 26.995 126.268 26.9708C126.341 26.9466 126.409 26.9083 126.467 26.8581C126.524 26.8079 126.572 26.7468 126.606 26.6782C126.641 26.6096 126.661 26.5349 126.667 26.4584C126.672 26.3819 126.663 26.3051 126.638 26.2323L125.599 23.1144C127.255 22.2458 129.946 19.0667 128.615 17.1586ZM127.817 18.3923C126.368 24.375 117.629 24.375 116.182 18.3923C116.159 18.306 116.157 18.2157 116.175 18.1283C116.193 18.041 116.231 17.959 116.286 17.8888C116.341 17.8185 116.412 17.7619 116.492 17.7234C116.573 17.6849 116.661 17.6655 116.75 17.6667H127.25C127.339 17.6658 127.427 17.6854 127.508 17.724C127.588 17.7627 127.658 17.8193 127.713 17.8895C127.768 17.9597 127.806 18.0415 127.824 18.1287C127.842 18.2159 127.84 18.3061 127.817 18.3923V18.3923ZM121.417 14.75V13.5833C121.417 13.4286 121.478 13.2803 121.588 13.1709C121.697 13.0615 121.846 13 122 13C122.155 13 122.303 13.0615 122.413 13.1709C122.522 13.2803 122.584 13.4286 122.584 13.5833V14.75C122.584 14.9047 122.522 15.0531 122.413 15.1625C122.303 15.2719 122.155 15.3333 122 15.3333C121.846 15.3333 121.697 15.2719 121.588 15.1625C121.478 15.0531 121.417 14.9047 121.417 14.75ZM123.75 14.75V13.5833C123.75 13.4286 123.812 13.2803 123.921 13.1709C124.03 13.0615 124.179 13 124.334 13C124.488 13 124.637 13.0615 124.746 13.1709C124.855 13.2803 124.917 13.4286 124.917 13.5833V14.75C124.917 14.9047 124.855 15.0531 124.746 15.1625C124.637 15.2719 124.488 15.3333 124.334 15.3333C124.179 15.3333 124.03 15.2719 123.921 15.1625C123.812 15.0531 123.75 14.9047 123.75 14.75ZM119.084 14.75V13.5833C119.084 13.4286 119.145 13.2803 119.254 13.1709C119.364 13.0615 119.512 13 119.667 13C119.822 13 119.97 13.0615 120.079 13.1709C120.189 13.2803 120.25 13.4286 120.25 13.5833V14.75C120.25 14.9047 120.189 15.0531 120.079 15.1625C119.97 15.2719 119.822 15.3333 119.667 15.3333C119.512 15.3333 119.364 15.2719 119.254 15.1625C119.145 15.0531 119.084 14.9047 119.084 14.75Z" fill="#27B2C7"/>
</g>
<rect x="53" y="6" width="44" height="28" rx="6" fill="#27B2C7" fill-opacity="0.1"/>
<g clip-path="url(#clip3_156_155)">
<path d="M79.0833 16.5H75.5833C75.0506 16.502 74.5287 16.6501 74.0745 16.9284C73.6202 17.2066 73.2511 17.6043 73.0073 18.0779C72.6576 17.8124 72.2308 17.668 71.7917 17.6667C71.2502 17.6667 70.7309 17.8818 70.348 18.2647C69.9651 18.6475 69.75 19.1669 69.75 19.7083C69.7517 20.0117 69.8217 20.3107 69.9547 20.5833H69.1667V14.75C69.1667 14.5953 69.1052 14.4469 68.9958 14.3375C68.8864 14.2281 68.738 14.1667 68.5833 14.1667C68.4286 14.1667 68.2803 14.2281 68.1709 14.3375C68.0615 14.4469 68 14.5953 68 14.75V25.25C68 25.4047 68.0615 25.5531 68.1709 25.6625C68.2803 25.7719 68.4286 25.8333 68.5833 25.8333C68.738 25.8333 68.8864 25.7719 68.9958 25.6625C69.1052 25.5531 69.1667 25.4047 69.1667 25.25V24.0833H80.8333V25.25C80.8333 25.4047 80.8948 25.5531 81.0042 25.6625C81.1136 25.7719 81.262 25.8333 81.4167 25.8333C81.5714 25.8333 81.7197 25.7719 81.8291 25.6625C81.9385 25.5531 82 25.4047 82 25.25V19.4167C81.9991 18.6434 81.6915 17.9021 81.1447 17.3553C80.5979 16.8085 79.8566 16.5009 79.0833 16.5V16.5ZM73.8333 19.4167C73.8333 18.9525 74.0177 18.5074 74.3459 18.1792C74.6741 17.851 75.1192 17.6667 75.5833 17.6667H79.0833C79.5475 17.6667 79.9926 17.851 80.3208 18.1792C80.649 18.5074 80.8333 18.9525 80.8333 19.4167V20.5833H73.8333V19.4167ZM70.9167 19.7083C70.9167 19.5353 70.968 19.3661 71.0641 19.2222C71.1603 19.0783 71.2969 18.9662 71.4568 18.8999C71.6167 18.8337 71.7926 18.8164 71.9624 18.8501C72.1321 18.8839 72.288 18.9672 72.4104 19.0896C72.5328 19.212 72.6161 19.3679 72.6499 19.5376C72.6836 19.7074 72.6663 19.8833 72.6001 20.0432C72.5338 20.2031 72.4217 20.3397 72.2778 20.4359C72.1339 20.532 71.9647 20.5833 71.7917 20.5833C71.5596 20.5833 71.337 20.4911 71.1729 20.3271C71.0089 20.163 70.9167 19.9404 70.9167 19.7083ZM69.1667 22.9167V21.75H80.8333V22.9167H69.1667Z" fill="#27B2C7"/>
</g>
<g filter="url(#filter0_d_156_155)">
<rect x="8" y="61" width="134" height="62" rx="12" fill="white"/>
<path d="M41.223 76.666C41.3255 76.4196 41.6745 76.4196 41.777 76.666L43.4134 80.6004C43.4566 80.7043 43.5543 80.7752 43.6664 80.7842L47.914 81.1248C48.18 81.1461 48.2878 81.478 48.0852 81.6516L44.849 84.4237C44.7636 84.4969 44.7263 84.6118 44.7524 84.7212L45.7411 88.866C45.803 89.1256 45.5206 89.3308 45.2929 89.1917L41.6564 86.9705C41.5604 86.9119 41.4396 86.9119 41.3436 86.9705L37.7072 89.1917C37.4795 89.3308 37.1971 89.1256 37.259 88.866L38.2477 84.7212C38.2738 84.6118 38.2365 84.4969 38.1511 84.4237L34.9149 81.6516C34.7122 81.478 34.8201 81.1461 35.0861 81.1248L39.3336 80.7842C39.4457 80.7752 39.5434 80.7043 39.5866 80.6004L41.223 76.666Z" fill="#27B2C7"/>
<path d="M58.223 76.666C58.3255 76.4196 58.6745 76.4196 58.777 76.666L60.4134 80.6004C60.4566 80.7043 60.5543 80.7752 60.6664 80.7842L64.914 81.1248C65.18 81.1461 65.2878 81.478 65.0852 81.6516L61.849 84.4237C61.7636 84.4969 61.7263 84.6118 61.7524 84.7212L62.7411 88.866C62.803 89.1256 62.5206 89.3308 62.2929 89.1917L58.6564 86.9705C58.5604 86.9119 58.4396 86.9119 58.3436 86.9705L54.7072 89.1917C54.4795 89.3308 54.1971 89.1256 54.259 88.866L55.2477 84.7212C55.2738 84.6118 55.2365 84.4969 55.1511 84.4237L51.9149 81.6516C51.7122 81.478 51.8201 81.1461 52.0861 81.1248L56.3336 80.7842C56.4457 80.7752 56.5434 80.7043 56.5866 80.6004L58.223 76.666Z" fill="#27B2C7"/>
<path d="M75.223 76.666C75.3255 76.4196 75.6745 76.4196 75.777 76.666L77.4134 80.6004C77.4566 80.7043 77.5543 80.7752 77.6664 80.7842L81.914 81.1248C82.18 81.1461 82.2878 81.478 82.0852 81.6516L78.849 84.4237C78.7636 84.4969 78.7263 84.6118 78.7524 84.7212L79.7411 88.866C79.803 89.1256 79.5206 89.3308 79.2929 89.1917L75.6564 86.9705C75.5604 86.9119 75.4396 86.9119 75.3436 86.9705L71.7072 89.1917C71.4795 89.3308 71.1971 89.1256 71.259 88.866L72.2477 84.7212C72.2738 84.6118 72.2365 84.4969 72.1511 84.4237L68.9149 81.6516C68.7122 81.478 68.8201 81.1461 69.0861 81.1248L73.3336 80.7842C73.4457 80.7752 73.5434 80.7043 73.5866 80.6004L75.223 76.666Z" fill="#27B2C7"/>
<path d="M92.223 76.666C92.3255 76.4196 92.6745 76.4196 92.777 76.666L94.4134 80.6004C94.4566 80.7043 94.5543 80.7752 94.6664 80.7842L98.914 81.1248C99.18 81.1461 99.2878 81.478 99.0852 81.6516L95.849 84.4237C95.7636 84.4969 95.7263 84.6118 95.7524 84.7212L96.7411 88.866C96.803 89.1256 96.5206 89.3308 96.2929 89.1917L92.6564 86.9705C92.5604 86.9119 92.4396 86.9119 92.3436 86.9705L88.7072 89.1917C88.4795 89.3308 88.1971 89.1256 88.259 88.866L89.2477 84.7212C89.2738 84.6118 89.2365 84.4969 89.1511 84.4237L85.9149 81.6516C85.7122 81.478 85.8201 81.1461 86.0861 81.1248L90.3336 80.7842C90.4457 80.7752 90.5434 80.7043 90.5866 80.6004L92.223 76.666Z" fill="#27B2C7"/>
<path d="M109.223 76.666C109.326 76.4196 109.675 76.4196 109.777 76.666L111.413 80.6004C111.457 80.7043 111.554 80.7752 111.666 80.7842L115.914 81.1248C116.18 81.1461 116.288 81.478 116.085 81.6516L112.849 84.4237C112.764 84.4969 112.726 84.6118 112.752 84.7212L113.741 88.866C113.803 89.1256 113.521 89.3308 113.293 89.1917L109.656 86.9705C109.56 86.9119 109.44 86.9119 109.344 86.9705L105.707 89.1917C105.479 89.3308 105.197 89.1256 105.259 88.866L106.248 84.7212C106.274 84.6118 106.236 84.4969 106.151 84.4237L102.915 81.6516C102.712 81.478 102.82 81.1461 103.086 81.1248L107.334 80.7842C107.446 80.7752 107.543 80.7043 107.587 80.6004L109.223 76.666Z" fill="#27B2C7"/>
<path d="M28.54 106L25.92 99H27.52L30.24 106H28.54ZM23.08 106L25.8 99H27.4L24.78 106H23.08ZM24.36 104.67V103.25H28.97V104.67H24.36ZM31.9976 106L33.8276 101H35.4376L33.4076 106H31.9976ZM31.8576 106L29.8276 101H31.4376L33.2676 106H31.8576ZM38.2742 106.12C37.7542 106.12 37.2942 106.01 36.8942 105.79C36.4942 105.57 36.1809 105.263 35.9542 104.87C35.7276 104.477 35.6142 104.02 35.6142 103.5C35.6142 102.98 35.7276 102.523 35.9542 102.13C36.1809 101.737 36.4942 101.43 36.8942 101.21C37.3009 100.99 37.7642 100.88 38.2842 100.88C38.7642 100.88 39.1942 100.993 39.5742 101.22C39.9542 101.447 40.2542 101.787 40.4742 102.24C40.7009 102.687 40.8142 103.24 40.8142 103.9H39.2542C39.2609 103.507 39.2276 103.177 39.1542 102.91C39.0876 102.637 38.9776 102.433 38.8242 102.3C38.6709 102.16 38.4709 102.09 38.2242 102.09C38.0042 102.09 37.8176 102.147 37.6642 102.26C37.5176 102.373 37.4076 102.54 37.3342 102.76C37.2676 102.973 37.2342 103.243 37.2342 103.57C37.2342 103.863 37.2842 104.103 37.3842 104.29C37.4842 104.47 37.6142 104.603 37.7742 104.69C37.9409 104.777 38.1209 104.82 38.3142 104.82C38.5542 104.82 38.7542 104.767 38.9142 104.66C39.0809 104.553 39.1942 104.417 39.2542 104.25L40.6742 104.73C40.5409 105.05 40.3509 105.313 40.1042 105.52C39.8642 105.727 39.5842 105.88 39.2642 105.98C38.9509 106.073 38.6209 106.12 38.2742 106.12ZM36.6142 103.9L36.6242 102.84H40.0742V103.9H36.6142ZM42.6678 103.41C42.6678 102.87 42.7745 102.42 42.9878 102.06C43.2078 101.7 43.4811 101.43 43.8078 101.25C44.1411 101.07 44.4878 100.98 44.8478 100.98V102.5C44.5411 102.5 44.2511 102.533 43.9778 102.6C43.7111 102.667 43.4945 102.77 43.3278 102.91C43.1611 103.043 43.0778 103.217 43.0778 103.43L42.6678 103.41ZM41.5178 106V101H43.0778V106H41.5178ZM48.4822 106L48.4422 103.51C48.4422 103.243 48.4189 103.013 48.3722 102.82C48.3255 102.62 48.2389 102.467 48.1122 102.36C47.9855 102.247 47.7989 102.19 47.5522 102.19C47.3789 102.19 47.2289 102.23 47.1022 102.31C46.9755 102.383 46.8555 102.503 46.7422 102.67L45.3522 102.22C45.4789 101.973 45.6389 101.75 45.8322 101.55C46.0322 101.343 46.2755 101.18 46.5622 101.06C46.8555 100.94 47.1989 100.88 47.5922 100.88C48.1055 100.88 48.5422 100.973 48.9022 101.16C49.2622 101.347 49.5322 101.617 49.7122 101.97C49.8989 102.317 49.9922 102.73 49.9922 103.21V106H48.4822ZM47.1422 106.12C46.5555 106.12 46.0989 105.99 45.7722 105.73C45.4455 105.463 45.2822 105.083 45.2822 104.59C45.2822 104.063 45.4522 103.67 45.7922 103.41C46.1322 103.15 46.6089 103.02 47.2222 103.02H48.6722L48.6822 104.03H47.7922C47.4655 104.03 47.2289 104.077 47.0822 104.17C46.9355 104.257 46.8622 104.383 46.8622 104.55C46.8622 104.67 46.9155 104.767 47.0222 104.84C47.1289 104.907 47.2789 104.94 47.4722 104.94C47.6589 104.94 47.8222 104.897 47.9622 104.81C48.1022 104.723 48.2122 104.61 48.2922 104.47C48.3722 104.33 48.4122 104.177 48.4122 104.01L48.8622 103.91C48.8622 104.61 48.7189 105.153 48.4322 105.54C48.1455 105.927 47.7155 106.12 47.1422 106.12ZM53.3016 108.14C52.895 108.14 52.5383 108.113 52.2316 108.06C51.9316 108.007 51.675 107.937 51.4616 107.85C51.2483 107.763 51.0716 107.667 50.9316 107.56L51.5416 106.32C51.6483 106.367 51.775 106.423 51.9216 106.49C52.0683 106.563 52.2483 106.627 52.4616 106.68C52.675 106.733 52.9316 106.76 53.2316 106.76C53.465 106.76 53.6716 106.713 53.8516 106.62C54.0383 106.533 54.1816 106.393 54.2816 106.2C54.3883 106.013 54.4416 105.777 54.4416 105.49V101H56.0016V105.43C56.0016 105.99 55.895 106.473 55.6816 106.88C55.4683 107.287 55.1616 107.597 54.7616 107.81C54.3616 108.03 53.875 108.14 53.3016 108.14ZM52.9416 105.81C52.475 105.81 52.0716 105.717 51.7316 105.53C51.3983 105.337 51.1383 105.063 50.9516 104.71C50.7716 104.357 50.6816 103.937 50.6816 103.45C50.6816 102.917 50.7716 102.46 50.9516 102.08C51.1383 101.7 51.3983 101.407 51.7316 101.2C52.0716 100.987 52.475 100.88 52.9416 100.88C53.3283 100.88 53.6616 100.987 53.9416 101.2C54.2283 101.407 54.4483 101.703 54.6016 102.09C54.755 102.477 54.8316 102.94 54.8316 103.48C54.8316 103.96 54.755 104.373 54.6016 104.72C54.4483 105.067 54.2283 105.337 53.9416 105.53C53.6616 105.717 53.3283 105.81 52.9416 105.81ZM53.4016 104.51C53.6016 104.51 53.7716 104.463 53.9116 104.37C54.0583 104.27 54.1683 104.137 54.2416 103.97C54.3216 103.803 54.3616 103.613 54.3616 103.4C54.3616 103.173 54.3216 102.977 54.2416 102.81C54.1616 102.643 54.0483 102.513 53.9016 102.42C53.7616 102.327 53.5916 102.28 53.3916 102.28C53.1983 102.28 53.025 102.327 52.8716 102.42C52.725 102.513 52.6083 102.643 52.5216 102.81C52.4416 102.977 52.3983 103.173 52.3916 103.4C52.3983 103.613 52.4416 103.803 52.5216 103.97C52.6083 104.137 52.7283 104.27 52.8816 104.37C53.035 104.463 53.2083 104.51 53.4016 104.51ZM59.3875 106.12C58.8675 106.12 58.4075 106.01 58.0075 105.79C57.6075 105.57 57.2942 105.263 57.0675 104.87C56.8408 104.477 56.7275 104.02 56.7275 103.5C56.7275 102.98 56.8408 102.523 57.0675 102.13C57.2942 101.737 57.6075 101.43 58.0075 101.21C58.4142 100.99 58.8775 100.88 59.3975 100.88C59.8775 100.88 60.3075 100.993 60.6875 101.22C61.0675 101.447 61.3675 101.787 61.5875 102.24C61.8142 102.687 61.9275 103.24 61.9275 103.9H60.3675C60.3742 103.507 60.3408 103.177 60.2675 102.91C60.2008 102.637 60.0908 102.433 59.9375 102.3C59.7842 102.16 59.5842 102.09 59.3375 102.09C59.1175 102.09 58.9308 102.147 58.7775 102.26C58.6308 102.373 58.5208 102.54 58.4475 102.76C58.3808 102.973 58.3475 103.243 58.3475 103.57C58.3475 103.863 58.3975 104.103 58.4975 104.29C58.5975 104.47 58.7275 104.603 58.8875 104.69C59.0542 104.777 59.2342 104.82 59.4275 104.82C59.6675 104.82 59.8675 104.767 60.0275 104.66C60.1942 104.553 60.3075 104.417 60.3675 104.25L61.7875 104.73C61.6542 105.05 61.4642 105.313 61.2175 105.52C60.9775 105.727 60.6975 105.88 60.3775 105.98C60.0642 106.073 59.7342 106.12 59.3875 106.12ZM57.7275 103.9L57.7375 102.84H61.1875V103.9H57.7275ZM67.4148 106.12C67.0682 106.12 66.7182 106.06 66.3648 105.94C66.0115 105.82 65.6948 105.647 65.4148 105.42C65.1415 105.193 64.9482 104.913 64.8348 104.58L66.3548 104.22C66.4548 104.393 66.5882 104.523 66.7548 104.61C66.9282 104.69 67.1115 104.73 67.3048 104.73C67.5982 104.73 67.8348 104.643 68.0148 104.47C68.2015 104.29 68.2948 104.05 68.2948 103.75C68.2948 103.477 68.2048 103.247 68.0248 103.06C67.8515 102.867 67.6115 102.77 67.3048 102.77C67.1182 102.77 66.9515 102.813 66.8048 102.9C66.6648 102.987 66.5615 103.09 66.4948 103.21L65.0448 102.89L65.5048 99H69.5648V100.46H65.7648L65.5048 99.05H67.0948L66.4748 103.07L65.7048 102.89C65.7582 102.777 65.8448 102.647 65.9648 102.5C66.0848 102.347 66.2382 102.2 66.4248 102.06C66.6182 101.913 66.8415 101.793 67.0948 101.7C67.3548 101.607 67.6482 101.563 67.9748 101.57C68.3348 101.577 68.6648 101.67 68.9648 101.85C69.2715 102.03 69.5148 102.277 69.6948 102.59C69.8748 102.897 69.9648 103.253 69.9648 103.66C69.9648 104.147 69.8548 104.577 69.6348 104.95C69.4148 105.317 69.1148 105.603 68.7348 105.81C68.3548 106.017 67.9148 106.12 67.4148 106.12ZM70.8247 103.68V102.36H73.8247V103.68H70.8247ZM77.4277 106.12C77.0877 106.12 76.761 106.077 76.4477 105.99C76.141 105.897 75.861 105.773 75.6077 105.62C75.361 105.46 75.1577 105.283 74.9977 105.09C74.8377 104.89 74.7377 104.677 74.6977 104.45L76.2877 104C76.361 104.193 76.4877 104.363 76.6677 104.51C76.8543 104.65 77.0877 104.723 77.3677 104.73C77.641 104.737 77.8677 104.673 78.0477 104.54C78.2343 104.407 78.3277 104.233 78.3277 104.02C78.3277 103.853 78.261 103.707 78.1277 103.58C78.001 103.453 77.8177 103.357 77.5777 103.29L76.5877 103.04C76.241 102.953 75.9377 102.817 75.6777 102.63C75.4243 102.443 75.2243 102.217 75.0777 101.95C74.9377 101.677 74.8677 101.367 74.8677 101.02C74.8677 100.347 75.091 99.8233 75.5377 99.45C75.9843 99.07 76.6143 98.88 77.4277 98.88C77.8743 98.88 78.2643 98.9433 78.5977 99.07C78.931 99.19 79.2143 99.37 79.4477 99.61C79.6877 99.85 79.8777 100.15 80.0177 100.51L78.4377 100.98C78.3843 100.8 78.2677 100.637 78.0877 100.49C77.9143 100.343 77.6877 100.27 77.4077 100.27C77.1277 100.27 76.9077 100.333 76.7477 100.46C76.5943 100.587 76.5177 100.77 76.5177 101.01C76.5177 101.177 76.581 101.317 76.7077 101.43C76.8343 101.537 77.0077 101.617 77.2277 101.67L78.2177 101.92C78.7843 102.06 79.2243 102.323 79.5377 102.71C79.8577 103.09 80.0177 103.523 80.0177 104.01C80.0177 104.45 79.9143 104.827 79.7077 105.14C79.5077 105.453 79.2143 105.697 78.8277 105.87C78.441 106.037 77.9743 106.12 77.4277 106.12ZM83.133 106.12C82.5397 106.12 82.0964 105.98 81.803 105.7C81.5164 105.413 81.373 105.007 81.373 104.48V99.44H82.933V104.09C82.933 104.29 82.9697 104.437 83.043 104.53C83.1164 104.623 83.2297 104.67 83.383 104.67C83.443 104.67 83.513 104.657 83.593 104.63C83.673 104.597 83.7464 104.557 83.813 104.51L84.353 105.65C84.193 105.783 83.9997 105.897 83.773 105.99C83.553 106.077 83.3397 106.12 83.133 106.12ZM80.593 102.31V101H84.073V102.31H80.593ZM88.0134 106L87.9734 103.51C87.9734 103.243 87.9501 103.013 87.9034 102.82C87.8568 102.62 87.7701 102.467 87.6434 102.36C87.5168 102.247 87.3301 102.19 87.0834 102.19C86.9101 102.19 86.7601 102.23 86.6334 102.31C86.5068 102.383 86.3868 102.503 86.2734 102.67L84.8834 102.22C85.0101 101.973 85.1701 101.75 85.3634 101.55C85.5634 101.343 85.8068 101.18 86.0934 101.06C86.3868 100.94 86.7301 100.88 87.1234 100.88C87.6368 100.88 88.0734 100.973 88.4334 101.16C88.7934 101.347 89.0634 101.617 89.2434 101.97C89.4301 102.317 89.5234 102.73 89.5234 103.21V106H88.0134ZM86.6734 106.12C86.0868 106.12 85.6301 105.99 85.3034 105.73C84.9768 105.463 84.8134 105.083 84.8134 104.59C84.8134 104.063 84.9834 103.67 85.3234 103.41C85.6634 103.15 86.1401 103.02 86.7534 103.02H88.2034L88.2134 104.03H87.3234C86.9968 104.03 86.7601 104.077 86.6134 104.17C86.4668 104.257 86.3934 104.383 86.3934 104.55C86.3934 104.67 86.4468 104.767 86.5534 104.84C86.6601 104.907 86.8101 104.94 87.0034 104.94C87.1901 104.94 87.3534 104.897 87.4934 104.81C87.6334 104.723 87.7434 104.61 87.8234 104.47C87.9034 104.33 87.9434 104.177 87.9434 104.01L88.3934 103.91C88.3934 104.61 88.2501 105.153 87.9634 105.54C87.6768 105.927 87.2468 106.12 86.6734 106.12ZM91.6229 103.41C91.6229 102.87 91.7296 102.42 91.9429 102.06C92.1629 101.7 92.4362 101.43 92.7629 101.25C93.0962 101.07 93.4429 100.98 93.8029 100.98V102.5C93.4962 102.5 93.2062 102.533 92.9329 102.6C92.6662 102.667 92.4496 102.77 92.2829 102.91C92.1162 103.043 92.0329 103.217 92.0329 103.43L91.6229 103.41ZM90.4729 106V101H92.0329V106H90.4729ZM98.371 103.65V102.17H99.671C99.8577 102.17 100.024 102.133 100.171 102.06C100.318 101.987 100.431 101.887 100.511 101.76C100.598 101.627 100.641 101.48 100.641 101.32C100.641 101.073 100.548 100.87 100.361 100.71C100.181 100.55 99.941 100.47 99.641 100.47H98.371V99L99.721 98.99C100.228 98.9833 100.678 99.08 101.071 99.28C101.464 99.48 101.771 99.7567 101.991 100.11C102.218 100.463 102.331 100.867 102.331 101.32C102.331 101.773 102.218 102.177 101.991 102.53C101.764 102.883 101.451 103.16 101.051 103.36C100.658 103.553 100.204 103.65 99.691 103.65H98.371ZM96.971 106V99H98.581V106H96.971ZM100.771 106L99.191 103.22L100.401 102.33L102.611 106H100.771ZM106.324 106L106.284 103.51C106.284 103.243 106.261 103.013 106.214 102.82C106.167 102.62 106.081 102.467 105.954 102.36C105.827 102.247 105.641 102.19 105.394 102.19C105.221 102.19 105.071 102.23 104.944 102.31C104.817 102.383 104.697 102.503 104.584 102.67L103.194 102.22C103.321 101.973 103.481 101.75 103.674 101.55C103.874 101.343 104.117 101.18 104.404 101.06C104.697 100.94 105.041 100.88 105.434 100.88C105.947 100.88 106.384 100.973 106.744 101.16C107.104 101.347 107.374 101.617 107.554 101.97C107.741 102.317 107.834 102.73 107.834 103.21V106H106.324ZM104.984 106.12C104.397 106.12 103.941 105.99 103.614 105.73C103.287 105.463 103.124 105.083 103.124 104.59C103.124 104.063 103.294 103.67 103.634 103.41C103.974 103.15 104.451 103.02 105.064 103.02H106.514L106.524 104.03H105.634C105.307 104.03 105.071 104.077 104.924 104.17C104.777 104.257 104.704 104.383 104.704 104.55C104.704 104.67 104.757 104.767 104.864 104.84C104.971 104.907 105.121 104.94 105.314 104.94C105.501 104.94 105.664 104.897 105.804 104.81C105.944 104.723 106.054 104.61 106.134 104.47C106.214 104.33 106.254 104.177 106.254 104.01L106.704 103.91C106.704 104.61 106.561 105.153 106.274 105.54C105.987 105.927 105.557 106.12 104.984 106.12ZM111.033 106.12C110.44 106.12 109.997 105.98 109.703 105.7C109.417 105.413 109.273 105.007 109.273 104.48V99.44H110.833V104.09C110.833 104.29 110.87 104.437 110.943 104.53C111.017 104.623 111.13 104.67 111.283 104.67C111.343 104.67 111.413 104.657 111.493 104.63C111.573 104.597 111.647 104.557 111.713 104.51L112.253 105.65C112.093 105.783 111.9 105.897 111.673 105.99C111.453 106.077 111.24 106.12 111.033 106.12ZM108.493 102.31V101H111.973V102.31H108.493ZM113.024 106V101H114.584V106H113.024ZM113.804 100.36C113.57 100.36 113.364 100.273 113.184 100.1C113.01 99.92 112.924 99.7133 112.924 99.48C112.924 99.2333 113.01 99.0267 113.184 98.86C113.364 98.6867 113.57 98.6 113.804 98.6C114.044 98.6 114.25 98.6867 114.424 98.86C114.597 99.0267 114.684 99.2333 114.684 99.48C114.684 99.7133 114.597 99.92 114.424 100.1C114.25 100.273 114.044 100.36 113.804 100.36ZM115.698 106V101H117.168L117.258 101.92V106H115.698ZM118.918 106V103.44L120.478 103.14V106H118.918ZM118.918 103.44C118.918 103.173 118.888 102.963 118.828 102.81C118.768 102.65 118.681 102.533 118.568 102.46C118.461 102.387 118.328 102.347 118.168 102.34C117.868 102.333 117.641 102.417 117.488 102.59C117.334 102.757 117.258 103.013 117.258 103.36H116.788C116.788 102.833 116.868 102.387 117.028 102.02C117.188 101.647 117.404 101.363 117.678 101.17C117.958 100.977 118.281 100.88 118.648 100.88C119.254 100.88 119.711 101.063 120.018 101.43C120.324 101.797 120.478 102.367 120.478 103.14L118.918 103.44ZM123.79 108.14C123.383 108.14 123.027 108.113 122.72 108.06C122.42 108.007 122.163 107.937 121.95 107.85C121.737 107.763 121.56 107.667 121.42 107.56L122.03 106.32C122.137 106.367 122.263 106.423 122.41 106.49C122.557 106.563 122.737 106.627 122.95 106.68C123.163 106.733 123.42 106.76 123.72 106.76C123.953 106.76 124.16 106.713 124.34 106.62C124.527 106.533 124.67 106.393 124.77 106.2C124.877 106.013 124.93 105.777 124.93 105.49V101H126.49V105.43C126.49 105.99 126.383 106.473 126.17 106.88C125.957 107.287 125.65 107.597 125.25 107.81C124.85 108.03 124.363 108.14 123.79 108.14ZM123.43 105.81C122.963 105.81 122.56 105.717 122.22 105.53C121.887 105.337 121.627 105.063 121.44 104.71C121.26 104.357 121.17 103.937 121.17 103.45C121.17 102.917 121.26 102.46 121.44 102.08C121.627 101.7 121.887 101.407 122.22 101.2C122.56 100.987 122.963 100.88 123.43 100.88C123.817 100.88 124.15 100.987 124.43 101.2C124.717 101.407 124.937 101.703 125.09 102.09C125.243 102.477 125.32 102.94 125.32 103.48C125.32 103.96 125.243 104.373 125.09 104.72C124.937 105.067 124.717 105.337 124.43 105.53C124.15 105.717 123.817 105.81 123.43 105.81ZM123.89 104.51C124.09 104.51 124.26 104.463 124.4 104.37C124.547 104.27 124.657 104.137 124.73 103.97C124.81 103.803 124.85 103.613 124.85 103.4C124.85 103.173 124.81 102.977 124.73 102.81C124.65 102.643 124.537 102.513 124.39 102.42C124.25 102.327 124.08 102.28 123.88 102.28C123.687 102.28 123.513 102.327 123.36 102.42C123.213 102.513 123.097 102.643 123.01 102.81C122.93 102.977 122.887 103.173 122.88 103.4C122.887 103.613 122.93 103.803 123.01 103.97C123.097 104.137 123.217 104.27 123.37 104.37C123.523 104.463 123.697 104.51 123.89 104.51Z" fill="black"/>
</g>
<defs>
<filter id="filter0_d_156_155" x="3" y="51" width="144" height="72" filterUnits="userSpaceOnUse" color-interpolation-filters="sRGB">
<feFlood flood-opacity="0" result="BackgroundImageFix"/>
<feColorMatrix in="SourceAlpha" type="matrix" values="0 0 0 0 0 0 0 0 0 0 0 0 0 0 0 0 0 0 127 0" result="hardAlpha"/>
<feOffset dy="-5"/>
<feGaussianBlur stdDeviation="2.5"/>
<feComposite in2="hardAlpha" operator="out"/>
<feColorMatrix type="matrix" values="0 0 0 0 0 0 0 0 0 0 0 0 0 0 0 0 0 0 0.05 0"/>
<feBlend mode="normal" in2="BackgroundImageFix" result="effect1_dropShadow_156_155"/>
<feBlend mode="normal" in="SourceGraphic" in2="effect1_dropShadow_156_155" result="shape"/>
</filter>
<clipPath id="clip0_156_155">
<rect width="14" height="14" fill="white" transform="translate(68 44)"/>
</clipPath>
<clipPath id="clip1_156_155">
<rect width="14" height="14" fill="white" transform="translate(115 44)"/>
</clipPath>
<clipPath id="clip2_156_155">
<rect width="14" height="14" fill="white" transform="translate(115 13)"/>
</clipPath>
<clipPath id="clip3_156_155">
<rect width="14" height="14" fill="white" transform="translate(68 13)"/>
</clipPath>
</defs>
</svg>
