<svg width="211" height="106" viewBox="0 0 211 106" fill="none" xmlns="http://www.w3.org/2000/svg">
<g clip-path="url(#clip0_156_219)">
<rect y="44" width="154" height="62" rx="12" fill="white"/>
<path fill-rule="evenodd" clip-rule="evenodd" d="M24.5 63L14.5 63C13.6716 63 13 63.6716 13 64.5V69.5C13 70.3285 13.6716 71 14.5 71H19.5C19.6326 71 19.7598 71.0527 19.8536 71.1465L22 73.2929V71.5C22 71.2239 22.2239 71 22.5 71H24.5C25.3284 71 26 70.3285 26 69.5V64.5C26 63.6716 25.3284 63 24.5 63ZM14.5 62L24.5 62C25.8807 62 27 63.1193 27 64.5V69.5C27 70.8807 25.8807 72 24.5 72H23V74.5C23 74.7022 22.8782 74.8845 22.6913 74.9619C22.5045 75.0393 22.2894 74.9965 22.1464 74.8536L19.2929 72H14.5C13.1193 72 12 70.8807 12 69.5V64.5C12 63.1193 13.1193 62 14.5 62Z" fill="#C8102E"/>
<path d="M15.97 88.12C15.25 88.12 14.6133 87.9667 14.06 87.66C13.5133 87.3467 13.0833 86.92 12.77 86.38C12.4567 85.8333 12.3 85.2067 12.3 84.5C12.3 83.7933 12.4567 83.17 12.77 82.63C13.0833 82.0833 13.5133 81.6567 14.06 81.35C14.6133 81.0367 15.25 80.88 15.97 80.88C16.4167 80.88 16.82 80.9467 17.18 81.08C17.5467 81.2067 17.8667 81.3833 18.14 81.61C18.4133 81.8367 18.64 82.0967 18.82 82.39L17.49 83.19C17.39 83.03 17.2567 82.8867 17.09 82.76C16.93 82.6333 16.7533 82.5367 16.56 82.47C16.3667 82.3967 16.17 82.36 15.97 82.36C15.5767 82.36 15.2267 82.45 14.92 82.63C14.62 82.81 14.3833 83.0633 14.21 83.39C14.0367 83.71 13.95 84.08 13.95 84.5C13.95 84.92 14.0333 85.2933 14.2 85.62C14.3667 85.94 14.6067 86.1933 14.92 86.38C15.2333 86.5667 15.5967 86.66 16.01 86.66C16.3233 86.66 16.6 86.6 16.84 86.48C17.08 86.36 17.27 86.1933 17.41 85.98C17.55 85.7667 17.62 85.5167 17.62 85.23L19.15 84.97C19.15 85.65 19.0133 86.2267 18.74 86.7C18.4667 87.1667 18.0933 87.52 17.62 87.76C17.1467 88 16.5967 88.12 15.97 88.12ZM16.02 85.4V84.16H19.15V85.11L18.25 85.4H16.02ZM21.0135 85.41C21.0135 84.87 21.1202 84.42 21.3335 84.06C21.5535 83.7 21.8268 83.43 22.1535 83.25C22.4868 83.07 22.8335 82.98 23.1935 82.98V84.5C22.8868 84.5 22.5968 84.5333 22.3235 84.6C22.0568 84.6667 21.8402 84.77 21.6735 84.91C21.5068 85.0433 21.4235 85.2167 21.4235 85.43L21.0135 85.41ZM19.8635 88V83H21.4235V88H19.8635ZM26.2879 88.12C25.7679 88.12 25.3079 88.01 24.9079 87.79C24.5079 87.57 24.1946 87.2633 23.9679 86.87C23.7412 86.4767 23.6279 86.02 23.6279 85.5C23.6279 84.98 23.7412 84.5233 23.9679 84.13C24.1946 83.7367 24.5079 83.43 24.9079 83.21C25.3146 82.99 25.7779 82.88 26.2979 82.88C26.7779 82.88 27.2079 82.9933 27.5879 83.22C27.9679 83.4467 28.2679 83.7867 28.4879 84.24C28.7146 84.6867 28.8279 85.24 28.8279 85.9H27.2679C27.2746 85.5067 27.2412 85.1767 27.1679 84.91C27.1012 84.6367 26.9912 84.4333 26.8379 84.3C26.6846 84.16 26.4846 84.09 26.2379 84.09C26.0179 84.09 25.8312 84.1467 25.6779 84.26C25.5312 84.3733 25.4212 84.54 25.3479 84.76C25.2812 84.9733 25.2479 85.2433 25.2479 85.57C25.2479 85.8633 25.2979 86.1033 25.3979 86.29C25.4979 86.47 25.6279 86.6033 25.7879 86.69C25.9546 86.7767 26.1346 86.82 26.3279 86.82C26.5679 86.82 26.7679 86.7667 26.9279 86.66C27.0946 86.5533 27.2079 86.4167 27.2679 86.25L28.6879 86.73C28.5546 87.05 28.3646 87.3133 28.1179 87.52C27.8779 87.7267 27.5979 87.88 27.2779 87.98C26.9646 88.0733 26.6346 88.12 26.2879 88.12ZM24.6279 85.9L24.6379 84.84H28.0879V85.9H24.6279ZM32.5115 88L32.4715 85.51C32.4715 85.2433 32.4482 85.0133 32.4015 84.82C32.3548 84.62 32.2682 84.4667 32.1415 84.36C32.0148 84.2467 31.8282 84.19 31.5815 84.19C31.4082 84.19 31.2582 84.23 31.1315 84.31C31.0048 84.3833 30.8848 84.5033 30.7715 84.67L29.3815 84.22C29.5082 83.9733 29.6682 83.75 29.8615 83.55C30.0615 83.3433 30.3048 83.18 30.5915 83.06C30.8848 82.94 31.2282 82.88 31.6215 82.88C32.1348 82.88 32.5715 82.9733 32.9315 83.16C33.2915 83.3467 33.5615 83.6167 33.7415 83.97C33.9282 84.3167 34.0215 84.73 34.0215 85.21V88H32.5115ZM31.1715 88.12C30.5848 88.12 30.1282 87.99 29.8015 87.73C29.4748 87.4633 29.3115 87.0833 29.3115 86.59C29.3115 86.0633 29.4815 85.67 29.8215 85.41C30.1615 85.15 30.6382 85.02 31.2515 85.02H32.7015L32.7115 86.03H31.8215C31.4948 86.03 31.2582 86.0767 31.1115 86.17C30.9648 86.2567 30.8915 86.3833 30.8915 86.55C30.8915 86.67 30.9448 86.7667 31.0515 86.84C31.1582 86.9067 31.3082 86.94 31.5015 86.94C31.6882 86.94 31.8515 86.8967 31.9915 86.81C32.1315 86.7233 32.2415 86.61 32.3215 86.47C32.4015 86.33 32.4415 86.1767 32.4415 86.01L32.8915 85.91C32.8915 86.61 32.7482 87.1533 32.4615 87.54C32.1748 87.9267 31.7448 88.12 31.1715 88.12ZM37.2209 88.12C36.6276 88.12 36.1843 87.98 35.8909 87.7C35.6043 87.4133 35.4609 87.0067 35.4609 86.48V81.44H37.0209V86.09C37.0209 86.29 37.0576 86.4367 37.1309 86.53C37.2043 86.6233 37.3176 86.67 37.4709 86.67C37.5309 86.67 37.6009 86.6567 37.6809 86.63C37.7609 86.5967 37.8343 86.5567 37.9009 86.51L38.4409 87.65C38.2809 87.7833 38.0876 87.8967 37.8609 87.99C37.6409 88.0767 37.4276 88.12 37.2209 88.12ZM34.6809 84.31V83H38.1609V84.31H34.6809ZM46.2151 88L47.8551 83H49.4451L47.7351 88H46.2151ZM42.9251 88L44.4851 83H45.8151L44.2851 88H42.9251ZM42.7551 88L41.0551 83H42.6451L44.1951 88H42.7551ZM46.2051 88L44.6951 83H46.0251L47.5751 88H46.2051ZM52.353 88.12C51.8264 88.12 51.3597 88.01 50.953 87.79C50.553 87.5633 50.2364 87.2533 50.003 86.86C49.7764 86.4667 49.663 86.0133 49.663 85.5C49.663 84.9867 49.7764 84.5333 50.003 84.14C50.2297 83.7467 50.543 83.44 50.943 83.22C51.3497 82.9933 51.8097 82.88 52.323 82.88C52.8497 82.88 53.313 82.9933 53.713 83.22C54.1197 83.44 54.4364 83.7467 54.663 84.14C54.8897 84.5333 55.003 84.9867 55.003 85.5C55.003 86.0133 54.8897 86.4667 54.663 86.86C54.4364 87.2533 54.123 87.5633 53.723 87.79C53.3297 88.01 52.873 88.12 52.353 88.12ZM52.343 86.64C52.5497 86.64 52.7264 86.5933 52.873 86.5C53.0264 86.4 53.1464 86.2667 53.233 86.1C53.3197 85.9267 53.363 85.7267 53.363 85.5C53.363 85.2733 53.3164 85.0767 53.223 84.91C53.1364 84.7367 53.0164 84.6033 52.863 84.51C52.7097 84.41 52.533 84.36 52.333 84.36C52.133 84.36 51.9564 84.41 51.803 84.51C51.6497 84.6033 51.5297 84.7367 51.443 84.91C51.3564 85.0767 51.313 85.2733 51.313 85.5C51.313 85.72 51.3564 85.9167 51.443 86.09C51.5297 86.2633 51.6497 86.4 51.803 86.5C51.963 86.5933 52.143 86.64 52.343 86.64ZM56.951 85.41C56.951 84.87 57.0577 84.42 57.271 84.06C57.491 83.7 57.7643 83.43 58.091 83.25C58.4243 83.07 58.771 82.98 59.131 82.98V84.5C58.8243 84.5 58.5343 84.5333 58.261 84.6C57.9943 84.6667 57.7777 84.77 57.611 84.91C57.4443 85.0433 57.361 85.2167 57.361 85.43L56.951 85.41ZM55.801 88V83H57.361V88H55.801ZM61.2654 86.89L60.3454 85.81L62.8554 83H64.6854L61.2654 86.89ZM59.7854 88V81H61.3454V88H59.7854ZM63.0054 88L61.4554 85.79L62.4754 84.72L64.8154 88H63.0054ZM70.2144 88.12C69.6877 88.12 69.221 88.01 68.8144 87.79C68.4144 87.5633 68.0977 87.2533 67.8644 86.86C67.6377 86.4667 67.5244 86.0133 67.5244 85.5C67.5244 84.9867 67.6377 84.5333 67.8644 84.14C68.091 83.7467 68.4044 83.44 68.8044 83.22C69.211 82.9933 69.671 82.88 70.1844 82.88C70.711 82.88 71.1744 82.9933 71.5744 83.22C71.981 83.44 72.2977 83.7467 72.5244 84.14C72.751 84.5333 72.8644 84.9867 72.8644 85.5C72.8644 86.0133 72.751 86.4667 72.5244 86.86C72.2977 87.2533 71.9844 87.5633 71.5844 87.79C71.191 88.01 70.7344 88.12 70.2144 88.12ZM70.2044 86.64C70.411 86.64 70.5877 86.5933 70.7344 86.5C70.8877 86.4 71.0077 86.2667 71.0944 86.1C71.181 85.9267 71.2244 85.7267 71.2244 85.5C71.2244 85.2733 71.1777 85.0767 71.0844 84.91C70.9977 84.7367 70.8777 84.6033 70.7244 84.51C70.571 84.41 70.3944 84.36 70.1944 84.36C69.9944 84.36 69.8177 84.41 69.6644 84.51C69.511 84.6033 69.391 84.7367 69.3044 84.91C69.2177 85.0767 69.1744 85.2733 69.1744 85.5C69.1744 85.72 69.2177 85.9167 69.3044 86.09C69.391 86.2633 69.511 86.4 69.6644 86.5C69.8244 86.5933 70.0044 86.64 70.2044 86.64ZM73.6623 88V83H75.1323L75.2223 83.92V88H73.6623ZM76.8823 88V85.44L78.4423 85.14V88H76.8823ZM76.8823 85.44C76.8823 85.1733 76.8523 84.9633 76.7923 84.81C76.7323 84.65 76.6457 84.5333 76.5323 84.46C76.4257 84.3867 76.2923 84.3467 76.1323 84.34C75.8323 84.3333 75.6057 84.4167 75.4523 84.59C75.299 84.7567 75.2223 85.0133 75.2223 85.36H74.7523C74.7523 84.8333 74.8323 84.3867 74.9923 84.02C75.1523 83.6467 75.369 83.3633 75.6423 83.17C75.9223 82.9767 76.2457 82.88 76.6123 82.88C77.219 82.88 77.6757 83.0633 77.9823 83.43C78.289 83.7967 78.4423 84.3667 78.4423 85.14L76.8823 85.44ZM83.9885 88.12C83.3952 88.12 82.9518 87.98 82.6585 87.7C82.3718 87.4133 82.2285 87.0067 82.2285 86.48V81.44H83.7885V86.09C83.7885 86.29 83.8252 86.4367 83.8985 86.53C83.9718 86.6233 84.0852 86.67 84.2385 86.67C84.2985 86.67 84.3685 86.6567 84.4485 86.63C84.5285 86.5967 84.6018 86.5567 84.6685 86.51L85.2085 87.65C85.0485 87.7833 84.8552 87.8967 84.6285 87.99C84.4085 88.0767 84.1952 88.12 83.9885 88.12ZM81.4485 84.31V83H84.9285V84.31H81.4485ZM85.9089 88L85.8889 80.97H87.4489L87.4689 88H85.9089ZM89.1289 88V85.44L90.6889 85.14V88H89.1289ZM89.1289 85.44C89.1289 85.1733 89.0989 84.9633 89.0389 84.81C88.9789 84.65 88.8922 84.5333 88.7789 84.46C88.6656 84.3867 88.5322 84.3467 88.3789 84.34C88.0789 84.3333 87.8522 84.4167 87.6989 84.59C87.5456 84.7567 87.4689 85.0133 87.4689 85.36H86.9989C86.9989 84.8333 87.0756 84.3867 87.2289 84.02C87.3889 83.6467 87.6089 83.3633 87.8889 83.17C88.1689 82.9767 88.4889 82.88 88.8489 82.88C89.4622 82.88 89.9222 83.0633 90.2289 83.43C90.5356 83.7967 90.6889 84.3667 90.6889 85.14L89.1289 85.44ZM91.7309 88V83H93.2909V88H91.7309ZM92.5109 82.36C92.2775 82.36 92.0709 82.2733 91.8909 82.1C91.7175 81.92 91.6309 81.7133 91.6309 81.48C91.6309 81.2333 91.7175 81.0267 91.8909 80.86C92.0709 80.6867 92.2775 80.6 92.5109 80.6C92.7509 80.6 92.9575 80.6867 93.1309 80.86C93.3042 81.0267 93.3909 81.2333 93.3909 81.48C93.3909 81.7133 93.3042 81.92 93.1309 82.1C92.9575 82.2733 92.7509 82.36 92.5109 82.36ZM96.2845 88.12C95.9579 88.12 95.6512 88.0733 95.3645 87.98C95.0845 87.8867 94.8379 87.7533 94.6245 87.58C94.4179 87.4 94.2645 87.1833 94.1645 86.93L95.4545 86.39C95.5412 86.5567 95.6612 86.68 95.8145 86.76C95.9679 86.84 96.1245 86.88 96.2845 86.88C96.4445 86.88 96.5712 86.8533 96.6645 86.8C96.7579 86.7467 96.8045 86.67 96.8045 86.57C96.8045 86.4633 96.7545 86.38 96.6545 86.32C96.5612 86.26 96.4279 86.2067 96.2545 86.16L95.8145 86.06C95.3479 85.94 94.9879 85.74 94.7345 85.46C94.4879 85.18 94.3645 84.8567 94.3645 84.49C94.3645 83.9767 94.5412 83.58 94.8945 83.3C95.2479 83.02 95.7379 82.88 96.3645 82.88C96.7245 82.88 97.0379 82.93 97.3045 83.03C97.5779 83.1233 97.8045 83.2567 97.9845 83.43C98.1712 83.5967 98.3045 83.79 98.3845 84.01L97.1445 84.53C97.0979 84.3967 97.0012 84.2967 96.8545 84.23C96.7079 84.1567 96.5512 84.12 96.3845 84.12C96.2445 84.12 96.1345 84.1533 96.0545 84.22C95.9745 84.28 95.9345 84.36 95.9345 84.46C95.9345 84.54 95.9812 84.61 96.0745 84.67C96.1679 84.7233 96.3079 84.7733 96.4945 84.82L97.0245 84.95C97.3379 85.03 97.6012 85.1533 97.8145 85.32C98.0279 85.48 98.1879 85.67 98.2945 85.89C98.4079 86.1033 98.4645 86.3333 98.4645 86.58C98.4645 86.9 98.3712 87.1767 98.1845 87.41C97.9979 87.6367 97.7412 87.8133 97.4145 87.94C97.0945 88.06 96.7179 88.12 96.2845 88.12ZM101.514 88V81H103.074V88H101.514ZM107.072 88L107.032 85.51C107.032 85.2433 107.009 85.0133 106.962 84.82C106.915 84.62 106.829 84.4667 106.702 84.36C106.575 84.2467 106.389 84.19 106.142 84.19C105.969 84.19 105.819 84.23 105.692 84.31C105.565 84.3833 105.445 84.5033 105.332 84.67L103.942 84.22C104.069 83.9733 104.229 83.75 104.422 83.55C104.622 83.3433 104.865 83.18 105.152 83.06C105.445 82.94 105.789 82.88 106.182 82.88C106.695 82.88 107.132 82.9733 107.492 83.16C107.852 83.3467 108.122 83.6167 108.302 83.97C108.489 84.3167 108.582 84.73 108.582 85.21V88H107.072ZM105.732 88.12C105.145 88.12 104.689 87.99 104.362 87.73C104.035 87.4633 103.872 87.0833 103.872 86.59C103.872 86.0633 104.042 85.67 104.382 85.41C104.722 85.15 105.199 85.02 105.812 85.02H107.262L107.272 86.03H106.382C106.055 86.03 105.819 86.0767 105.672 86.17C105.525 86.2567 105.452 86.3833 105.452 86.55C105.452 86.67 105.505 86.7667 105.612 86.84C105.719 86.9067 105.869 86.94 106.062 86.94C106.249 86.94 106.412 86.8967 106.552 86.81C106.692 86.7233 106.802 86.61 106.882 86.47C106.962 86.33 107.002 86.1767 107.002 86.01L107.452 85.91C107.452 86.61 107.309 87.1533 107.022 87.54C106.735 87.9267 106.305 88.12 105.732 88.12ZM109.531 88V81H111.091V87.07L111.011 88H109.531ZM112.511 88.12C112.098 88.12 111.751 88.0167 111.471 87.81C111.191 87.5967 110.981 87.2933 110.841 86.9C110.701 86.5067 110.631 86.04 110.631 85.5C110.631 84.9533 110.701 84.4867 110.841 84.1C110.981 83.7067 111.191 83.4067 111.471 83.2C111.751 82.9867 112.098 82.88 112.511 82.88C112.978 82.88 113.381 82.9867 113.721 83.2C114.061 83.4067 114.321 83.7067 114.501 84.1C114.681 84.4867 114.771 84.9533 114.771 85.5C114.771 86.04 114.681 86.5067 114.501 86.9C114.321 87.2933 114.061 87.5967 113.721 87.81C113.381 88.0167 112.978 88.12 112.511 88.12ZM112.111 86.68C112.311 86.68 112.488 86.63 112.641 86.53C112.795 86.43 112.918 86.2933 113.011 86.12C113.105 85.94 113.151 85.7333 113.151 85.5C113.151 85.2667 113.108 85.0633 113.021 84.89C112.935 84.71 112.811 84.57 112.651 84.47C112.498 84.37 112.321 84.32 112.121 84.32C111.921 84.32 111.741 84.37 111.581 84.47C111.428 84.57 111.308 84.71 111.221 84.89C111.135 85.07 111.091 85.2733 111.091 85.5C111.091 85.7333 111.135 85.94 111.221 86.12C111.308 86.2933 111.428 86.43 111.581 86.53C111.735 86.63 111.911 86.68 112.111 86.68ZM115.868 85.61L115.748 81H117.478L117.358 85.61H115.868ZM116.618 88.16C116.364 88.16 116.148 88.07 115.968 87.89C115.788 87.7033 115.698 87.4867 115.698 87.24C115.698 86.9933 115.788 86.78 115.968 86.6C116.148 86.4133 116.364 86.32 116.618 86.32C116.864 86.32 117.078 86.4133 117.258 86.6C117.438 86.78 117.528 86.9933 117.528 87.24C117.528 87.4867 117.438 87.7033 117.258 87.89C117.078 88.07 116.864 88.16 116.618 88.16Z" fill="black"/>
<g filter="url(#filter0_d_156_219)">
<rect x="57" width="154" height="72" rx="12" fill="white"/>
<rect x="63" y="21" width="68" height="45" rx="8" fill="#C8102E" fill-opacity="0.15"/>
<path fill-rule="evenodd" clip-rule="evenodd" d="M96.5 36.875C94.498 36.875 92.875 38.498 92.875 40.5C92.875 42.1529 93.9812 43.5474 95.4937 43.9835C94.2997 44.129 93.2756 44.5513 92.5041 45.3117C91.5222 46.2794 91.025 47.72 91.025 49.5999C91.025 49.8623 91.2377 50.0749 91.5 50.0749C91.7624 50.0749 91.975 49.8623 91.975 49.5999C91.975 47.8799 92.4279 46.7206 93.1709 45.9883C93.9154 45.2546 95.0267 44.875 96.5 44.875C97.9732 44.875 99.0846 45.2546 99.8291 45.9883C100.572 46.7206 101.025 47.8799 101.025 49.5999C101.025 49.8623 101.238 50.0749 101.5 50.0749C101.762 50.075 101.975 49.8623 101.975 49.6C101.975 47.72 101.478 46.2794 100.496 45.3117C99.7244 44.5513 98.7003 44.129 97.5063 43.9835C99.0187 43.5474 100.125 42.1529 100.125 40.5C100.125 38.498 98.502 36.875 96.5 36.875ZM93.825 40.5C93.825 39.0226 95.0226 37.825 96.5 37.825C97.9774 37.825 99.175 39.0226 99.175 40.5C99.175 41.9774 97.9774 43.175 96.5 43.175C95.0226 43.175 93.825 41.9774 93.825 40.5Z" fill="#C8102E"/>
<rect x="137" y="21" width="68" height="45" rx="8" fill="#C8102E" fill-opacity="0.15"/>
<path fill-rule="evenodd" clip-rule="evenodd" d="M171.5 36.875C169.498 36.875 167.875 38.498 167.875 40.5C167.875 42.1529 168.981 43.5474 170.494 43.9835C169.3 44.129 168.276 44.5513 167.504 45.3117C166.522 46.2794 166.025 47.72 166.025 49.5999C166.025 49.8623 166.238 50.0749 166.5 50.0749C166.762 50.0749 166.975 49.8623 166.975 49.5999C166.975 47.8799 167.428 46.7206 168.171 45.9883C168.915 45.2546 170.027 44.875 171.5 44.875C172.973 44.875 174.085 45.2546 174.829 45.9883C175.572 46.7206 176.025 47.8799 176.025 49.5999C176.025 49.8623 176.238 50.0749 176.5 50.0749C176.762 50.075 176.975 49.8623 176.975 49.6C176.975 47.72 176.478 46.2794 175.496 45.3117C174.724 44.5513 173.7 44.129 172.506 43.9835C174.019 43.5474 175.125 42.1529 175.125 40.5C175.125 38.498 173.502 36.875 171.5 36.875ZM168.825 40.5C168.825 39.0226 170.023 37.825 171.5 37.825C172.977 37.825 174.175 39.0226 174.175 40.5C174.175 41.9774 172.977 43.175 171.5 43.175C170.023 43.175 168.825 41.9774 168.825 40.5Z" fill="#C8102E"/>
<path d="M68.98 16.12C68.26 16.12 67.6233 15.9667 67.07 15.66C66.5167 15.3467 66.0833 14.92 65.77 14.38C65.4567 13.8333 65.3 13.21 65.3 12.51C65.3 11.8033 65.4567 11.18 65.77 10.64C66.0833 10.0933 66.5133 9.66667 67.06 9.36C67.6133 9.04667 68.2467 8.89 68.96 8.89C69.6733 8.89 70.3033 9.04667 70.85 9.36C71.4033 9.66667 71.8367 10.0933 72.15 10.64C72.4633 11.18 72.62 11.8033 72.62 12.51C72.62 13.21 72.4633 13.8333 72.15 14.38C71.8433 14.92 71.4167 15.3467 70.87 15.66C70.3233 15.9667 69.6933 16.12 68.98 16.12ZM68.98 14.64C69.3733 14.64 69.72 14.55 70.02 14.37C70.32 14.19 70.5533 13.94 70.72 13.62C70.8867 13.2933 70.97 12.9233 70.97 12.51C70.97 12.09 70.8833 11.72 70.71 11.4C70.5367 11.0733 70.3 10.82 70 10.64C69.7 10.4533 69.3533 10.36 68.96 10.36C68.5667 10.36 68.22 10.4533 67.92 10.64C67.62 10.82 67.3833 11.0733 67.21 11.4C67.0367 11.72 66.95 12.09 66.95 12.51C66.95 12.9233 67.0367 13.2933 67.21 13.62C67.3833 13.94 67.6233 14.19 67.93 14.37C68.2367 14.55 68.5867 14.64 68.98 14.64ZM73.9299 16V10.54C73.9299 9.99333 74.0733 9.56333 74.3599 9.25C74.6466 8.93667 75.0866 8.78 75.6799 8.78C75.8999 8.78 76.1299 8.82 76.3699 8.9C76.6099 8.97333 76.8166 9.06 76.9899 9.16L76.4099 10.26C76.3299 10.2067 76.2499 10.17 76.1699 10.15C76.0899 10.1233 76.0166 10.11 75.9499 10.11C75.7899 10.11 75.6733 10.1667 75.5999 10.28C75.5266 10.3867 75.4899 10.5667 75.4899 10.82V16H73.9299ZM73.1399 12.23V11H76.6199V12.23H73.1399ZM77.9729 16V10.54C77.9729 9.99333 78.1162 9.56333 78.4029 9.25C78.6896 8.93667 79.1296 8.78 79.7229 8.78C79.9429 8.78 80.1729 8.82 80.4129 8.9C80.6529 8.97333 80.8596 9.06 81.0329 9.16L80.4529 10.26C80.3729 10.2067 80.2929 10.17 80.2129 10.15C80.1329 10.1233 80.0596 10.11 79.9929 10.11C79.8329 10.11 79.7162 10.1667 79.6429 10.28C79.5696 10.3867 79.5329 10.5667 79.5329 10.82V16H77.9729ZM77.1829 12.23V11H80.6629V12.23H77.1829ZM81.6059 16V11H83.1659V16H81.6059ZM82.3859 10.36C82.1525 10.36 81.9459 10.2733 81.7659 10.1C81.5925 9.92 81.5059 9.71333 81.5059 9.48C81.5059 9.23333 81.5925 9.02667 81.7659 8.86C81.9459 8.68667 82.1525 8.6 82.3859 8.6C82.6259 8.6 82.8325 8.68667 83.0059 8.86C83.1792 9.02667 83.2659 9.23333 83.2659 9.48C83.2659 9.71333 83.1792 9.92 83.0059 10.1C82.8325 10.2733 82.6259 10.36 82.3859 10.36ZM86.7695 16.12C86.2362 16.12 85.7595 16.01 85.3395 15.79C84.9262 15.5633 84.6029 15.2533 84.3695 14.86C84.1362 14.46 84.0195 14.0067 84.0195 13.5C84.0195 12.9867 84.1362 12.5333 84.3695 12.14C84.6029 11.7467 84.9229 11.44 85.3295 11.22C85.7429 10.9933 86.2162 10.88 86.7495 10.88C87.2629 10.88 87.7329 11.01 88.1595 11.27C88.5862 11.53 88.8929 11.9067 89.0795 12.4L87.5995 12.9C87.5262 12.74 87.4029 12.61 87.2295 12.51C87.0629 12.4033 86.8762 12.35 86.6695 12.35C86.4629 12.35 86.2795 12.4 86.1195 12.5C85.9662 12.5933 85.8429 12.7267 85.7495 12.9C85.6629 13.0733 85.6195 13.2733 85.6195 13.5C85.6195 13.7267 85.6629 13.9267 85.7495 14.1C85.8429 14.2667 85.9695 14.4 86.1295 14.5C86.2962 14.6 86.4829 14.65 86.6895 14.65C86.8962 14.65 87.0829 14.5967 87.2495 14.49C87.4162 14.3833 87.5395 14.2433 87.6195 14.07L89.0995 14.57C88.9062 15.07 88.5962 15.4533 88.1695 15.72C87.7495 15.9867 87.2829 16.12 86.7695 16.12ZM92.198 16.12C91.678 16.12 91.218 16.01 90.818 15.79C90.418 15.57 90.1047 15.2633 89.878 14.87C89.6514 14.4767 89.538 14.02 89.538 13.5C89.538 12.98 89.6514 12.5233 89.878 12.13C90.1047 11.7367 90.418 11.43 90.818 11.21C91.2247 10.99 91.688 10.88 92.208 10.88C92.688 10.88 93.118 10.9933 93.498 11.22C93.878 11.4467 94.178 11.7867 94.398 12.24C94.6247 12.6867 94.738 13.24 94.738 13.9H93.178C93.1847 13.5067 93.1514 13.1767 93.078 12.91C93.0114 12.6367 92.9014 12.4333 92.748 12.3C92.5947 12.16 92.3947 12.09 92.148 12.09C91.928 12.09 91.7414 12.1467 91.588 12.26C91.4414 12.3733 91.3314 12.54 91.258 12.76C91.1914 12.9733 91.158 13.2433 91.158 13.57C91.158 13.8633 91.208 14.1033 91.308 14.29C91.408 14.47 91.538 14.6033 91.698 14.69C91.8647 14.7767 92.0447 14.82 92.238 14.82C92.478 14.82 92.678 14.7667 92.838 14.66C93.0047 14.5533 93.118 14.4167 93.178 14.25L94.598 14.73C94.4647 15.05 94.2747 15.3133 94.028 15.52C93.788 15.7267 93.508 15.88 93.188 15.98C92.8747 16.0733 92.5447 16.12 92.198 16.12ZM90.538 13.9L90.548 12.84H93.998V13.9H90.538ZM102.475 16V9H104.085V16H102.475ZM97.9554 16V8.99L99.5654 9V16.01L97.9554 16ZM99.0954 13.17V11.69H103.335V13.17H99.0954ZM107.746 16.12C107.219 16.12 106.752 16.01 106.346 15.79C105.946 15.5633 105.629 15.2533 105.396 14.86C105.169 14.4667 105.056 14.0133 105.056 13.5C105.056 12.9867 105.169 12.5333 105.396 12.14C105.622 11.7467 105.936 11.44 106.336 11.22C106.742 10.9933 107.202 10.88 107.716 10.88C108.242 10.88 108.706 10.9933 109.106 11.22C109.512 11.44 109.829 11.7467 110.056 12.14C110.282 12.5333 110.396 12.9867 110.396 13.5C110.396 14.0133 110.282 14.4667 110.056 14.86C109.829 15.2533 109.516 15.5633 109.116 15.79C108.722 16.01 108.266 16.12 107.746 16.12ZM107.736 14.64C107.942 14.64 108.119 14.5933 108.266 14.5C108.419 14.4 108.539 14.2667 108.626 14.1C108.712 13.9267 108.756 13.7267 108.756 13.5C108.756 13.2733 108.709 13.0767 108.616 12.91C108.529 12.7367 108.409 12.6033 108.256 12.51C108.102 12.41 107.926 12.36 107.726 12.36C107.526 12.36 107.349 12.41 107.196 12.51C107.042 12.6033 106.922 12.7367 106.836 12.91C106.749 13.0767 106.706 13.2733 106.706 13.5C106.706 13.72 106.749 13.9167 106.836 14.09C106.922 14.2633 107.042 14.4 107.196 14.5C107.356 14.5933 107.536 14.64 107.736 14.64ZM114.434 16L114.344 15.08V11H115.904V16H114.434ZM111.124 13.86V11H112.684V13.56L111.124 13.86ZM112.684 13.56C112.684 13.82 112.714 14.03 112.774 14.19C112.834 14.35 112.92 14.4667 113.034 14.54C113.147 14.6133 113.28 14.6533 113.434 14.66C113.734 14.66 113.96 14.5767 114.114 14.41C114.267 14.2367 114.344 13.98 114.344 13.64H114.814C114.814 14.1667 114.734 14.6167 114.574 14.99C114.414 15.3567 114.194 15.6367 113.914 15.83C113.64 16.0233 113.324 16.12 112.964 16.12C112.357 16.12 111.897 15.9367 111.584 15.57C111.277 15.1967 111.124 14.6267 111.124 13.86L112.684 13.56ZM118.076 13.41C118.076 12.87 118.183 12.42 118.396 12.06C118.616 11.7 118.889 11.43 119.216 11.25C119.549 11.07 119.896 10.98 120.256 10.98V12.5C119.949 12.5 119.659 12.5333 119.386 12.6C119.119 12.6667 118.903 12.77 118.736 12.91C118.569 13.0433 118.486 13.2167 118.486 13.43L118.076 13.41ZM116.926 16V11H118.486V16H116.926ZM122.79 16.12C122.464 16.12 122.157 16.0733 121.87 15.98C121.59 15.8867 121.344 15.7533 121.13 15.58C120.924 15.4 120.77 15.1833 120.67 14.93L121.96 14.39C122.047 14.5567 122.167 14.68 122.32 14.76C122.474 14.84 122.63 14.88 122.79 14.88C122.95 14.88 123.077 14.8533 123.17 14.8C123.264 14.7467 123.31 14.67 123.31 14.57C123.31 14.4633 123.26 14.38 123.16 14.32C123.067 14.26 122.934 14.2067 122.76 14.16L122.32 14.06C121.854 13.94 121.494 13.74 121.24 13.46C120.994 13.18 120.87 12.8567 120.87 12.49C120.87 11.9767 121.047 11.58 121.4 11.3C121.754 11.02 122.244 10.88 122.87 10.88C123.23 10.88 123.544 10.93 123.81 11.03C124.084 11.1233 124.31 11.2567 124.49 11.43C124.677 11.5967 124.81 11.79 124.89 12.01L123.65 12.53C123.604 12.3967 123.507 12.2967 123.36 12.23C123.214 12.1567 123.057 12.12 122.89 12.12C122.75 12.12 122.64 12.1533 122.56 12.22C122.48 12.28 122.44 12.36 122.44 12.46C122.44 12.54 122.487 12.61 122.58 12.67C122.674 12.7233 122.814 12.7733 123 12.82L123.53 12.95C123.844 13.03 124.107 13.1533 124.32 13.32C124.534 13.48 124.694 13.67 124.8 13.89C124.914 14.1033 124.97 14.3333 124.97 14.58C124.97 14.9 124.877 15.1767 124.69 15.41C124.504 15.6367 124.247 15.8133 123.92 15.94C123.6 16.06 123.224 16.12 122.79 16.12Z" fill="black"/>
<path d="M187.975 8.88C188.468 8.88 188.875 8.97333 189.195 9.16C189.515 9.34 189.771 9.58667 189.965 9.9C190.165 10.2133 190.305 10.5767 190.385 10.99C190.471 11.3967 190.515 11.83 190.515 12.29C190.515 12.89 190.451 13.4267 190.325 13.9C190.198 14.3733 190.018 14.7767 189.785 15.11C189.551 15.4367 189.268 15.6867 188.935 15.86C188.608 16.0333 188.235 16.12 187.815 16.12C187.468 16.12 187.121 16.0667 186.775 15.96C186.435 15.8467 186.128 15.6933 185.855 15.5L186.325 14.9C186.538 15.0467 186.768 15.1633 187.015 15.25C187.268 15.33 187.508 15.37 187.735 15.37C188.415 15.37 188.931 15.0833 189.285 14.51C189.645 13.9367 189.801 13.07 189.755 11.91L189.935 12.08C189.775 12.4867 189.518 12.81 189.165 13.05C188.811 13.29 188.395 13.41 187.915 13.41C187.461 13.41 187.061 13.3133 186.715 13.12C186.368 12.92 186.095 12.65 185.895 12.31C185.701 11.97 185.605 11.5767 185.605 11.13C185.605 10.69 185.705 10.3033 185.905 9.97C186.105 9.63 186.381 9.36333 186.735 9.17C187.095 8.97667 187.508 8.88 187.975 8.88ZM187.975 9.62C187.681 9.62 187.418 9.68667 187.185 9.82C186.951 9.94667 186.768 10.1267 186.635 10.36C186.508 10.5867 186.445 10.85 186.445 11.15C186.445 11.45 186.508 11.7167 186.635 11.95C186.768 12.1767 186.951 12.3567 187.185 12.49C187.418 12.6167 187.681 12.68 187.975 12.68C188.281 12.68 188.548 12.6167 188.775 12.49C189.008 12.3567 189.188 12.1767 189.315 11.95C189.448 11.7167 189.515 11.45 189.515 11.15C189.515 10.85 189.448 10.5867 189.315 10.36C189.188 10.1267 189.008 9.94667 188.775 9.82C188.548 9.68667 188.281 9.62 187.975 9.62ZM192.229 12.09C192.075 12.09 191.942 12.0367 191.829 11.93C191.722 11.8233 191.669 11.6933 191.669 11.54C191.669 11.3867 191.722 11.2567 191.829 11.15C191.942 11.0367 192.075 10.98 192.229 10.98C192.375 10.98 192.502 11.0367 192.609 11.15C192.722 11.2567 192.779 11.3867 192.779 11.54C192.779 11.6933 192.722 11.8233 192.609 11.93C192.502 12.0367 192.375 12.09 192.229 12.09ZM192.239 16.02C192.085 16.02 191.955 15.9667 191.849 15.86C191.742 15.7467 191.689 15.6133 191.689 15.46C191.689 15.3067 191.742 15.1767 191.849 15.07C191.955 14.9633 192.085 14.91 192.239 14.91C192.392 14.91 192.522 14.9633 192.629 15.07C192.742 15.1767 192.799 15.3067 192.799 15.46C192.799 15.6133 192.742 15.7467 192.629 15.86C192.522 15.9667 192.392 16.02 192.239 16.02ZM195.658 16L195.668 9.45L195.738 9H196.498L196.478 16H195.658ZM194.098 10.8V10.03C194.238 10.0367 194.405 9.99 194.598 9.89C194.791 9.79 194.991 9.66 195.198 9.5C195.405 9.34 195.585 9.17333 195.738 9L196.258 9.57C196.038 9.80333 195.808 10.0133 195.568 10.2C195.328 10.3867 195.085 10.5367 194.838 10.65C194.591 10.7567 194.345 10.8067 194.098 10.8ZM198.449 16L201.909 9.52L202.699 9.7L199.379 16H198.449ZM198.049 9.77V9H202.699V9.7L202.049 9.77H198.049Z" fill="black"/>
</g>
</g>
<defs>
<filter id="filter0_d_156_219" x="47" y="0" width="164" height="82" filterUnits="userSpaceOnUse" color-interpolation-filters="sRGB">
<feFlood flood-opacity="0" result="BackgroundImageFix"/>
<feColorMatrix in="SourceAlpha" type="matrix" values="0 0 0 0 0 0 0 0 0 0 0 0 0 0 0 0 0 0 127 0" result="hardAlpha"/>
<feOffset dx="-5" dy="5"/>
<feGaussianBlur stdDeviation="2.5"/>
<feComposite in2="hardAlpha" operator="out"/>
<feColorMatrix type="matrix" values="0 0 0 0 0 0 0 0 0 0 0 0 0 0 0 0 0 0 0.05 0"/>
<feBlend mode="normal" in2="BackgroundImageFix" result="effect1_dropShadow_156_219"/>
<feBlend mode="normal" in="SourceGraphic" in2="effect1_dropShadow_156_219" result="shape"/>
</filter>
<clipPath id="clip0_156_219">
<rect width="211" height="106" fill="white"/>
</clipPath>
</defs>
</svg>
