<svg width="171" height="128" viewBox="0 0 171 128" fill="none" xmlns="http://www.w3.org/2000/svg">
<g clip-path="url(#clip0_157_458)">
<rect y="33" width="101" height="95" rx="12" fill="white"/>
<rect x="10" y="75" width="53" height="8" rx="4" fill="#ADDFE7"/>
<path d="M15.2545 81.075C14.9912 81.075 14.7578 81.02 14.5545 80.91C14.3545 80.7967 14.1978 80.6417 14.0845 80.445C13.9712 80.245 13.9145 80.015 13.9145 79.755H14.3395C14.3395 79.9383 14.3778 80.1017 14.4545 80.245C14.5345 80.385 14.6445 80.495 14.7845 80.575C14.9245 80.6517 15.0845 80.69 15.2645 80.69C15.4478 80.69 15.6095 80.6517 15.7495 80.575C15.8928 80.495 16.0028 80.385 16.0795 80.245C16.1595 80.1017 16.1995 79.9383 16.1995 79.755H16.6195C16.6195 80.015 16.5628 80.245 16.4495 80.445C16.3362 80.6417 16.1762 80.7967 15.9695 80.91C15.7628 81.02 15.5245 81.075 15.2545 81.075ZM13.9145 79.755V77.5H14.3395V79.755H13.9145ZM16.1995 79.755V77.5H16.6195V79.755H16.1995ZM17.4097 82V78.5H17.7847L17.8097 78.96V82H17.4097ZM18.6547 81.06C18.4447 81.06 18.2597 81.005 18.0997 80.895C17.943 80.785 17.8213 80.6317 17.7347 80.435C17.648 80.235 17.6047 80.0067 17.6047 79.75C17.6047 79.49 17.648 79.2617 17.7347 79.065C17.8213 78.8683 17.943 78.715 18.0997 78.605C18.2597 78.495 18.4447 78.44 18.6547 78.44C18.878 78.44 19.0747 78.495 19.2447 78.605C19.4147 78.715 19.5463 78.8683 19.6397 79.065C19.7363 79.2617 19.7847 79.49 19.7847 79.75C19.7847 80.0067 19.7363 80.235 19.6397 80.435C19.5463 80.6317 19.4147 80.785 19.2447 80.895C19.0747 81.005 18.878 81.06 18.6547 81.06ZM18.5647 80.695C18.7213 80.695 18.8597 80.655 18.9797 80.575C19.103 80.495 19.1997 80.3833 19.2697 80.24C19.343 80.0967 19.3797 79.9333 19.3797 79.75C19.3797 79.5667 19.3447 79.4033 19.2747 79.26C19.208 79.1167 19.113 79.005 18.9897 78.925C18.8663 78.845 18.7263 78.805 18.5697 78.805C18.423 78.805 18.2913 78.845 18.1747 78.925C18.0613 79.005 17.9713 79.1167 17.9047 79.26C17.8413 79.4033 17.8097 79.5667 17.8097 79.75C17.8097 79.9333 17.8413 80.0967 17.9047 80.24C17.9713 80.3833 18.0613 80.495 18.1747 80.575C18.288 80.655 18.418 80.695 18.5647 80.695ZM22.1888 81L22.1688 80.535V77.5H22.5688V81H22.1888ZM21.3238 81.06C21.1004 81.06 20.9038 81.005 20.7338 80.895C20.5638 80.785 20.4304 80.6317 20.3338 80.435C20.2404 80.235 20.1938 80.0067 20.1938 79.75C20.1938 79.49 20.2404 79.2617 20.3338 79.065C20.4304 78.8683 20.5638 78.715 20.7338 78.605C20.9038 78.495 21.1004 78.44 21.3238 78.44C21.5338 78.44 21.7171 78.495 21.8738 78.605C22.0338 78.715 22.1571 78.8683 22.2438 79.065C22.3304 79.2617 22.3738 79.49 22.3738 79.75C22.3738 80.0067 22.3304 80.235 22.2438 80.435C22.1571 80.6317 22.0338 80.785 21.8738 80.895C21.7171 81.005 21.5338 81.06 21.3238 81.06ZM21.4138 80.695C21.5604 80.695 21.6904 80.655 21.8038 80.575C21.9171 80.495 22.0054 80.3833 22.0688 80.24C22.1354 80.0967 22.1688 79.9333 22.1688 79.75C22.1688 79.5667 22.1354 79.4033 22.0688 79.26C22.0054 79.1167 21.9171 79.005 21.8038 78.925C21.6904 78.845 21.5588 78.805 21.4088 78.805C21.2521 78.805 21.1121 78.845 20.9888 78.925C20.8688 79.005 20.7738 79.1167 20.7038 79.26C20.6338 79.4033 20.5988 79.5667 20.5988 79.75C20.5988 79.9333 20.6338 80.0967 20.7038 80.24C20.7738 80.3833 20.8704 80.495 20.9938 80.575C21.1171 80.655 21.2571 80.695 21.4138 80.695ZM24.8335 81L24.7935 79.68C24.7868 79.4833 24.7618 79.3217 24.7185 79.195C24.6751 79.065 24.6085 78.9683 24.5185 78.905C24.4285 78.8383 24.3085 78.805 24.1585 78.805C24.0151 78.805 23.8901 78.8333 23.7835 78.89C23.6801 78.9467 23.5951 79.035 23.5285 79.155L23.1735 79.01C23.2368 78.8933 23.3151 78.7933 23.4085 78.71C23.5018 78.6233 23.6118 78.5567 23.7385 78.51C23.8651 78.4633 24.0068 78.44 24.1635 78.44C24.3935 78.44 24.5851 78.485 24.7385 78.575C24.8918 78.665 25.0051 78.8 25.0785 78.98C25.1551 79.1567 25.1935 79.3783 25.1935 79.645V81H24.8335ZM24.0735 81.06C23.7768 81.06 23.5451 80.9933 23.3785 80.86C23.2151 80.7233 23.1335 80.535 23.1335 80.295C23.1335 80.0417 23.2168 79.8483 23.3835 79.715C23.5535 79.5783 23.7901 79.51 24.0935 79.51H24.9735V79.845H24.1835C23.9501 79.845 23.7835 79.8833 23.6835 79.96C23.5868 80.0367 23.5385 80.1467 23.5385 80.29C23.5385 80.42 23.5868 80.5233 23.6835 80.6C23.7801 80.6733 23.9151 80.71 24.0885 80.71C24.2351 80.71 24.3618 80.6767 24.4685 80.61C24.5751 80.5433 24.6568 80.4533 24.7135 80.34C24.7701 80.2233 24.7985 80.0917 24.7985 79.945H25.0435C25.0435 80.285 24.9601 80.5567 24.7935 80.76C24.6268 80.96 24.3868 81.06 24.0735 81.06ZM26.8171 81.06C26.5737 81.06 26.3854 80.9967 26.2521 80.87C26.1187 80.7433 26.0521 80.565 26.0521 80.335V77.72H26.4521V80.295C26.4521 80.4217 26.4854 80.52 26.5521 80.59C26.6221 80.6567 26.7187 80.69 26.8421 80.69C26.8821 80.69 26.9204 80.685 26.9571 80.675C26.9971 80.6617 27.0487 80.6317 27.1121 80.585L27.2671 80.91C27.1804 80.9667 27.1021 81.005 27.0321 81.025C26.9621 81.0483 26.8904 81.06 26.8171 81.06ZM25.6171 78.855V78.5H27.2021V78.855H25.6171ZM28.8559 81.06C28.6125 81.06 28.3975 81.005 28.2109 80.895C28.0275 80.7817 27.8825 80.6267 27.7759 80.43C27.6692 80.2333 27.6159 80.0067 27.6159 79.75C27.6159 79.4933 27.6675 79.2667 27.7709 79.07C27.8775 78.8733 28.0242 78.72 28.2109 78.61C28.3975 78.4967 28.6092 78.44 28.8459 78.44C29.0792 78.44 29.2809 78.4983 29.4509 78.615C29.6209 78.7283 29.7525 78.8883 29.8459 79.095C29.9392 79.3017 29.9859 79.545 29.9859 79.825H29.5859C29.5859 79.6117 29.5575 79.43 29.5009 79.28C29.4442 79.1267 29.3609 79.0083 29.2509 78.925C29.1409 78.8417 29.0042 78.8 28.8409 78.8C28.6775 78.8 28.5342 78.84 28.4109 78.92C28.2909 78.9967 28.1975 79.1067 28.1309 79.25C28.0642 79.3933 28.0309 79.5617 28.0309 79.755C28.0309 79.945 28.0675 80.11 28.1409 80.25C28.2142 80.3867 28.3142 80.495 28.4409 80.575C28.5675 80.6517 28.7125 80.69 28.8759 80.69C29.0525 80.69 29.2009 80.6483 29.3209 80.565C29.4409 80.4817 29.5342 80.3733 29.6009 80.24L29.9559 80.415C29.8892 80.545 29.8025 80.6583 29.6959 80.755C29.5925 80.8517 29.4709 80.9267 29.3309 80.98C29.1909 81.0333 29.0325 81.06 28.8559 81.06ZM27.8859 79.825V79.48H29.7409V79.825H27.8859ZM32.3548 81L32.3348 80.535V77.5H32.7348V81H32.3548ZM31.4898 81.06C31.2665 81.06 31.0698 81.005 30.8998 80.895C30.7298 80.785 30.5965 80.6317 30.4998 80.435C30.4065 80.235 30.3598 80.0067 30.3598 79.75C30.3598 79.49 30.4065 79.2617 30.4998 79.065C30.5965 78.8683 30.7298 78.715 30.8998 78.605C31.0698 78.495 31.2665 78.44 31.4898 78.44C31.6998 78.44 31.8831 78.495 32.0398 78.605C32.1998 78.715 32.3231 78.8683 32.4098 79.065C32.4965 79.2617 32.5398 79.49 32.5398 79.75C32.5398 80.0067 32.4965 80.235 32.4098 80.435C32.3231 80.6317 32.1998 80.785 32.0398 80.895C31.8831 81.005 31.6998 81.06 31.4898 81.06ZM31.5798 80.695C31.7265 80.695 31.8565 80.655 31.9698 80.575C32.0831 80.495 32.1715 80.3833 32.2348 80.24C32.3015 80.0967 32.3348 79.9333 32.3348 79.75C32.3348 79.5667 32.3015 79.4033 32.2348 79.26C32.1715 79.1167 32.0831 79.005 31.9698 78.925C31.8565 78.845 31.7248 78.805 31.5748 78.805C31.4181 78.805 31.2781 78.845 31.1548 78.925C31.0348 79.005 30.9398 79.1167 30.8698 79.26C30.7998 79.4033 30.7648 79.5667 30.7648 79.75C30.7648 79.9333 30.7998 80.0967 30.8698 80.24C30.9398 80.3833 31.0365 80.495 31.1598 80.575C31.2831 80.655 31.4231 80.695 31.5798 80.695ZM36.2348 81L36.1948 79.68C36.1882 79.4833 36.1632 79.3217 36.1198 79.195C36.0765 79.065 36.0098 78.9683 35.9198 78.905C35.8298 78.8383 35.7098 78.805 35.5598 78.805C35.4165 78.805 35.2915 78.8333 35.1848 78.89C35.0815 78.9467 34.9965 79.035 34.9298 79.155L34.5748 79.01C34.6382 78.8933 34.7165 78.7933 34.8098 78.71C34.9032 78.6233 35.0132 78.5567 35.1398 78.51C35.2665 78.4633 35.4082 78.44 35.5648 78.44C35.7948 78.44 35.9865 78.485 36.1398 78.575C36.2932 78.665 36.4065 78.8 36.4798 78.98C36.5565 79.1567 36.5948 79.3783 36.5948 79.645V81H36.2348ZM35.4748 81.06C35.1782 81.06 34.9465 80.9933 34.7798 80.86C34.6165 80.7233 34.5348 80.535 34.5348 80.295C34.5348 80.0417 34.6182 79.8483 34.7848 79.715C34.9548 79.5783 35.1915 79.51 35.4948 79.51H36.3748V79.845H35.5848C35.3515 79.845 35.1848 79.8833 35.0848 79.96C34.9882 80.0367 34.9398 80.1467 34.9398 80.29C34.9398 80.42 34.9882 80.5233 35.0848 80.6C35.1815 80.6733 35.3165 80.71 35.4898 80.71C35.6365 80.71 35.7632 80.6767 35.8698 80.61C35.9765 80.5433 36.0582 80.4533 36.1148 80.34C36.1715 80.2233 36.1998 80.0917 36.1998 79.945H36.4448C36.4448 80.285 36.3615 80.5567 36.1948 80.76C36.0282 80.96 35.7882 81.06 35.4748 81.06ZM40.7338 81L41.5788 78.5H41.9838L41.1338 81H40.7338ZM39.0338 81L39.8788 78.5H40.2538L39.4188 81H39.0338ZM39.0138 81L38.1638 78.5H38.5688L39.4038 81H39.0138ZM40.7338 81L39.8988 78.5H40.2788L41.1138 81H40.7338ZM43.4311 81.06C43.1877 81.06 42.9727 81.005 42.7861 80.895C42.6027 80.7817 42.4577 80.6267 42.3511 80.43C42.2444 80.2333 42.1911 80.0067 42.1911 79.75C42.1911 79.4933 42.2427 79.2667 42.3461 79.07C42.4527 78.8733 42.5994 78.72 42.7861 78.61C42.9727 78.4967 43.1844 78.44 43.4211 78.44C43.6544 78.44 43.8561 78.4983 44.0261 78.615C44.1961 78.7283 44.3277 78.8883 44.4211 79.095C44.5144 79.3017 44.5611 79.545 44.5611 79.825H44.1611C44.1611 79.6117 44.1327 79.43 44.0761 79.28C44.0194 79.1267 43.9361 79.0083 43.8261 78.925C43.7161 78.8417 43.5794 78.8 43.4161 78.8C43.2527 78.8 43.1094 78.84 42.9861 78.92C42.8661 78.9967 42.7727 79.1067 42.7061 79.25C42.6394 79.3933 42.6061 79.5617 42.6061 79.755C42.6061 79.945 42.6427 80.11 42.7161 80.25C42.7894 80.3867 42.8894 80.495 43.0161 80.575C43.1427 80.6517 43.2877 80.69 43.4511 80.69C43.6277 80.69 43.7761 80.6483 43.8961 80.565C44.0161 80.4817 44.1094 80.3733 44.1761 80.24L44.5311 80.415C44.4644 80.545 44.3777 80.6583 44.2711 80.755C44.1677 80.8517 44.0461 80.9267 43.9061 80.98C43.7661 81.0333 43.6077 81.06 43.4311 81.06ZM42.4611 79.825V79.48H44.3161V79.825H42.4611ZM46.185 81.06C45.9416 81.06 45.7266 81.005 45.54 80.895C45.3566 80.7817 45.2116 80.6267 45.105 80.43C44.9983 80.2333 44.945 80.0067 44.945 79.75C44.945 79.4933 44.9966 79.2667 45.1 79.07C45.2066 78.8733 45.3533 78.72 45.54 78.61C45.7266 78.4967 45.9383 78.44 46.175 78.44C46.4083 78.44 46.61 78.4983 46.78 78.615C46.95 78.7283 47.0816 78.8883 47.175 79.095C47.2683 79.3017 47.315 79.545 47.315 79.825H46.915C46.915 79.6117 46.8866 79.43 46.83 79.28C46.7733 79.1267 46.69 79.0083 46.58 78.925C46.47 78.8417 46.3333 78.8 46.17 78.8C46.0066 78.8 45.8633 78.84 45.74 78.92C45.62 78.9967 45.5266 79.1067 45.46 79.25C45.3933 79.3933 45.36 79.5617 45.36 79.755C45.36 79.945 45.3966 80.11 45.47 80.25C45.5433 80.3867 45.6433 80.495 45.77 80.575C45.8966 80.6517 46.0416 80.69 46.205 80.69C46.3816 80.69 46.53 80.6483 46.65 80.565C46.77 80.4817 46.8633 80.3733 46.93 80.24L47.285 80.415C47.2183 80.545 47.1316 80.6583 47.025 80.755C46.9216 80.8517 46.8 80.9267 46.66 80.98C46.52 81.0333 46.3616 81.06 46.185 81.06ZM45.215 79.825V79.48H47.07V79.825H45.215ZM48.2239 80.195L47.9689 79.92L49.2989 78.5H49.8039L48.2239 80.195ZM47.8339 81V77.5H48.2339V81H47.8339ZM49.4089 81L48.4589 79.565L48.7189 79.285L49.9039 81H49.4089ZM53.061 81L53.021 79.68C53.0143 79.4833 52.9893 79.3217 52.946 79.195C52.9027 79.065 52.836 78.9683 52.746 78.905C52.656 78.8383 52.536 78.805 52.386 78.805C52.2427 78.805 52.1177 78.8333 52.011 78.89C51.9077 78.9467 51.8227 79.035 51.756 79.155L51.401 79.01C51.4643 78.8933 51.5427 78.7933 51.636 78.71C51.7293 78.6233 51.8393 78.5567 51.966 78.51C52.0927 78.4633 52.2343 78.44 52.391 78.44C52.621 78.44 52.8127 78.485 52.966 78.575C53.1193 78.665 53.2327 78.8 53.306 78.98C53.3827 79.1567 53.421 79.3783 53.421 79.645V81H53.061ZM52.301 81.06C52.0043 81.06 51.7727 80.9933 51.606 80.86C51.4427 80.7233 51.361 80.535 51.361 80.295C51.361 80.0417 51.4443 79.8483 51.611 79.715C51.781 79.5783 52.0177 79.51 52.321 79.51H53.201V79.845H52.411C52.1777 79.845 52.011 79.8833 51.911 79.96C51.8143 80.0367 51.766 80.1467 51.766 80.29C51.766 80.42 51.8143 80.5233 51.911 80.6C52.0077 80.6733 52.1427 80.71 52.316 80.71C52.4627 80.71 52.5893 80.6767 52.696 80.61C52.8027 80.5433 52.8843 80.4533 52.941 80.34C52.9977 80.2233 53.026 80.0917 53.026 79.945H53.271C53.271 80.285 53.1877 80.5567 53.021 80.76C52.8543 80.96 52.6143 81.06 52.301 81.06ZM55.0546 82.06C54.8946 82.06 54.7479 82.0433 54.6146 82.01C54.4846 81.98 54.3729 81.945 54.2796 81.905C54.1896 81.8683 54.1246 81.8367 54.0846 81.81L54.2346 81.485C54.2779 81.5083 54.3396 81.5367 54.4196 81.57C54.4996 81.6067 54.5929 81.6367 54.6996 81.66C54.8096 81.6867 54.9263 81.7 55.0496 81.7C55.2096 81.7 55.3529 81.6667 55.4796 81.6C55.6096 81.5367 55.7096 81.435 55.7796 81.295C55.8529 81.1583 55.8896 80.9817 55.8896 80.765V78.5H56.2896V80.76C56.2896 81.0467 56.2363 81.2867 56.1296 81.48C56.0229 81.6733 55.8763 81.8183 55.6896 81.915C55.5029 82.0117 55.2913 82.06 55.0546 82.06ZM55.0396 80.98C54.8163 80.98 54.6196 80.9267 54.4496 80.82C54.2796 80.7133 54.1463 80.565 54.0496 80.375C53.9563 80.1817 53.9096 79.9617 53.9096 79.715C53.9096 79.4617 53.9563 79.24 54.0496 79.05C54.1463 78.8567 54.2796 78.7067 54.4496 78.6C54.6196 78.4933 54.8163 78.44 55.0396 78.44C55.2496 78.44 55.4329 78.4933 55.5896 78.6C55.7463 78.7067 55.8679 78.8567 55.9546 79.05C56.0446 79.24 56.0896 79.4617 56.0896 79.715C56.0896 79.965 56.0446 80.185 55.9546 80.375C55.8679 80.565 55.7463 80.7133 55.5896 80.82C55.4329 80.9267 55.2496 80.98 55.0396 80.98ZM55.1346 80.635C55.2813 80.635 55.4113 80.595 55.5246 80.515C55.6379 80.435 55.7263 80.3267 55.7896 80.19C55.8529 80.05 55.8846 79.8883 55.8846 79.705C55.8846 79.5283 55.8513 79.3717 55.7846 79.235C55.7213 79.095 55.6329 78.9867 55.5196 78.91C55.4096 78.83 55.2796 78.79 55.1296 78.79C54.9729 78.79 54.8329 78.83 54.7096 78.91C54.5896 78.9867 54.4946 79.095 54.4246 79.235C54.3579 79.3717 54.3246 79.5283 54.3246 79.705C54.3246 79.8883 54.3596 80.05 54.4296 80.19C54.4996 80.3267 54.5946 80.435 54.7146 80.515C54.8379 80.595 54.9779 80.635 55.1346 80.635ZM58.0457 81.06C57.8024 81.06 57.5857 81.005 57.3957 80.895C57.2057 80.7817 57.0574 80.6267 56.9507 80.43C56.844 80.2333 56.7907 80.0067 56.7907 79.75C56.7907 79.4933 56.8424 79.2667 56.9457 79.07C57.0524 78.8733 57.2007 78.72 57.3907 78.61C57.5807 78.4967 57.7957 78.44 58.0357 78.44C58.2824 78.44 58.499 78.4967 58.6857 78.61C58.8757 78.72 59.0224 78.8733 59.1257 79.07C59.2324 79.2667 59.2857 79.4933 59.2857 79.75C59.2857 80.0067 59.2324 80.2333 59.1257 80.43C59.0224 80.6267 58.8774 80.7817 58.6907 80.895C58.504 81.005 58.289 81.06 58.0457 81.06ZM58.0457 80.68C58.209 80.68 58.3524 80.6417 58.4757 80.565C58.599 80.485 58.6957 80.375 58.7657 80.235C58.8357 80.095 58.8707 79.9333 58.8707 79.75C58.8707 79.5667 58.834 79.405 58.7607 79.265C58.6907 79.125 58.5924 79.0167 58.4657 78.94C58.3424 78.86 58.199 78.82 58.0357 78.82C57.8724 78.82 57.729 78.86 57.6057 78.94C57.4824 79.0167 57.384 79.125 57.3107 79.265C57.2407 79.405 57.2057 79.5667 57.2057 79.75C57.2057 79.9333 57.2407 80.095 57.3107 80.235C57.384 80.375 57.484 80.485 57.6107 80.565C57.7374 80.6417 57.8824 80.68 58.0457 80.68Z" fill="black"/>
<path d="M12.47 71.15C12.0833 71.15 11.7433 71.0867 11.45 70.96C11.1633 70.8333 10.92 70.67 10.72 70.47C10.5267 70.2633 10.3767 70.05 10.27 69.83C10.17 69.6033 10.11 69.3933 10.09 69.2L11.53 68.72C11.5833 69.0267 11.69 69.2633 11.85 69.43C12.0167 69.59 12.23 69.67 12.49 69.67C12.6767 69.67 12.8467 69.63 13 69.55C13.1533 69.4633 13.2767 69.3333 13.37 69.16C13.4633 68.98 13.51 68.7533 13.51 68.48V64H15.12V68.9C15.12 69.24 15.0567 69.55 14.93 69.83C14.8033 70.1033 14.6233 70.34 14.39 70.54C14.1567 70.7333 13.8767 70.8833 13.55 70.99C13.2233 71.0967 12.8633 71.15 12.47 71.15ZM19.1931 71L19.1531 68.51C19.1531 68.2433 19.1298 68.0133 19.0831 67.82C19.0365 67.62 18.9498 67.4667 18.8231 67.36C18.6965 67.2467 18.5098 67.19 18.2631 67.19C18.0898 67.19 17.9398 67.23 17.8131 67.31C17.6865 67.3833 17.5665 67.5033 17.4531 67.67L16.0631 67.22C16.1898 66.9733 16.3498 66.75 16.5431 66.55C16.7431 66.3433 16.9865 66.18 17.2731 66.06C17.5665 65.94 17.9098 65.88 18.3031 65.88C18.8165 65.88 19.2531 65.9733 19.6131 66.16C19.9731 66.3467 20.2431 66.6167 20.4231 66.97C20.6098 67.3167 20.7031 67.73 20.7031 68.21V71H19.1931ZM17.8531 71.12C17.2665 71.12 16.8098 70.99 16.4831 70.73C16.1565 70.4633 15.9931 70.0833 15.9931 69.59C15.9931 69.0633 16.1631 68.67 16.5031 68.41C16.8431 68.15 17.3198 68.02 17.9331 68.02H19.3831L19.3931 69.03H18.5031C18.1765 69.03 17.9398 69.0767 17.7931 69.17C17.6465 69.2567 17.5731 69.3833 17.5731 69.55C17.5731 69.67 17.6265 69.7667 17.7331 69.84C17.8398 69.9067 17.9898 69.94 18.1831 69.94C18.3698 69.94 18.5331 69.8967 18.6731 69.81C18.8131 69.7233 18.9231 69.61 19.0031 69.47C19.0831 69.33 19.1231 69.1767 19.1231 69.01L19.5731 68.91C19.5731 69.61 19.4298 70.1533 19.1431 70.54C18.8565 70.9267 18.4265 71.12 17.8531 71.12ZM21.6526 71V66H23.1226L23.2126 66.92V71H21.6526ZM24.8726 71V68.44L26.4326 68.14V71H24.8726ZM24.8726 68.44C24.8726 68.1733 24.8426 67.9633 24.7826 67.81C24.7226 67.65 24.6359 67.5333 24.5226 67.46C24.4159 67.3867 24.2826 67.3467 24.1226 67.34C23.8226 67.3333 23.5959 67.4167 23.4426 67.59C23.2892 67.7567 23.2126 68.0133 23.2126 68.36H22.7426C22.7426 67.8333 22.8226 67.3867 22.9826 67.02C23.1426 66.6467 23.3592 66.3633 23.6326 66.17C23.9126 65.9767 24.2359 65.88 24.6026 65.88C25.2092 65.88 25.6659 66.0633 25.9726 66.43C26.2792 66.7967 26.4326 67.3667 26.4326 68.14L24.8726 68.44ZM29.825 71.12C29.305 71.12 28.845 71.01 28.445 70.79C28.045 70.57 27.7317 70.2633 27.505 69.87C27.2783 69.4767 27.165 69.02 27.165 68.5C27.165 67.98 27.2783 67.5233 27.505 67.13C27.7317 66.7367 28.045 66.43 28.445 66.21C28.8517 65.99 29.315 65.88 29.835 65.88C30.315 65.88 30.745 65.9933 31.125 66.22C31.505 66.4467 31.805 66.7867 32.025 67.24C32.2517 67.6867 32.365 68.24 32.365 68.9H30.805C30.8117 68.5067 30.7783 68.1767 30.705 67.91C30.6383 67.6367 30.5283 67.4333 30.375 67.3C30.2217 67.16 30.0217 67.09 29.775 67.09C29.555 67.09 29.3683 67.1467 29.215 67.26C29.0683 67.3733 28.9583 67.54 28.885 67.76C28.8183 67.9733 28.785 68.2433 28.785 68.57C28.785 68.8633 28.835 69.1033 28.935 69.29C29.035 69.47 29.165 69.6033 29.325 69.69C29.4917 69.7767 29.6717 69.82 29.865 69.82C30.105 69.82 30.305 69.7667 30.465 69.66C30.6317 69.5533 30.745 69.4167 30.805 69.25L32.225 69.73C32.0917 70.05 31.9017 70.3133 31.655 70.52C31.415 70.7267 31.135 70.88 30.815 70.98C30.5017 71.0733 30.1717 71.12 29.825 71.12ZM28.165 68.9L28.175 67.84H31.625V68.9H28.165ZM37.9823 71.12C37.6423 71.12 37.3157 71.0767 37.0023 70.99C36.6957 70.8967 36.4157 70.7733 36.1623 70.62C35.9157 70.46 35.7123 70.2833 35.5523 70.09C35.3923 69.89 35.2923 69.6767 35.2523 69.45L36.8423 69C36.9157 69.1933 37.0423 69.3633 37.2223 69.51C37.409 69.65 37.6423 69.7233 37.9223 69.73C38.1957 69.7367 38.4223 69.6733 38.6023 69.54C38.789 69.4067 38.8823 69.2333 38.8823 69.02C38.8823 68.8533 38.8157 68.7067 38.6823 68.58C38.5557 68.4533 38.3723 68.3567 38.1323 68.29L37.1423 68.04C36.7957 67.9533 36.4923 67.8167 36.2323 67.63C35.979 67.4433 35.779 67.2167 35.6323 66.95C35.4923 66.6767 35.4223 66.3667 35.4223 66.02C35.4223 65.3467 35.6457 64.8233 36.0923 64.45C36.539 64.07 37.169 63.88 37.9823 63.88C38.429 63.88 38.819 63.9433 39.1523 64.07C39.4857 64.19 39.769 64.37 40.0023 64.61C40.2423 64.85 40.4323 65.15 40.5723 65.51L38.9923 65.98C38.939 65.8 38.8223 65.6367 38.6423 65.49C38.469 65.3433 38.2423 65.27 37.9623 65.27C37.6823 65.27 37.4623 65.3333 37.3023 65.46C37.149 65.5867 37.0723 65.77 37.0723 66.01C37.0723 66.1767 37.1357 66.3167 37.2623 66.43C37.389 66.5367 37.5623 66.6167 37.7823 66.67L38.7723 66.92C39.339 67.06 39.779 67.3233 40.0923 67.71C40.4123 68.09 40.5723 68.5233 40.5723 69.01C40.5723 69.45 40.469 69.8267 40.2623 70.14C40.0623 70.4533 39.769 70.6967 39.3823 70.87C38.9957 71.0367 38.529 71.12 37.9823 71.12ZM41.4377 71V66H42.9077L42.9977 66.92V71H41.4377ZM44.6577 71V68.44L46.2177 68.14V71H44.6577ZM47.8777 71V68.44L49.4377 68.14V71H47.8777ZM44.6577 68.44C44.6577 68.1733 44.6277 67.9633 44.5677 67.81C44.5077 67.65 44.4211 67.5333 44.3077 67.46C44.2011 67.3867 44.0677 67.3467 43.9077 67.34C43.6077 67.3333 43.3811 67.4167 43.2277 67.59C43.0744 67.7567 42.9977 68.0133 42.9977 68.36H42.5277C42.5277 67.8333 42.6077 67.3867 42.7677 67.02C42.9277 66.6467 43.1444 66.3633 43.4177 66.17C43.6977 65.9767 44.0211 65.88 44.3877 65.88C44.9944 65.88 45.4511 66.0633 45.7577 66.43C46.0644 66.7967 46.2177 67.3667 46.2177 68.14L44.6577 68.44ZM47.8777 68.44C47.8777 68.1733 47.8477 67.9633 47.7877 67.81C47.7277 67.65 47.6411 67.5333 47.5277 67.46C47.4211 67.3867 47.2877 67.3467 47.1277 67.34C46.8344 67.3333 46.6077 67.4167 46.4477 67.59C46.2944 67.7567 46.2177 68.0133 46.2177 68.36H45.7577C45.7577 67.8333 45.8344 67.3867 45.9877 67.02C46.1477 66.6467 46.3644 66.3633 46.6377 66.17C46.9177 65.9767 47.2411 65.88 47.6077 65.88C48.2144 65.88 48.6711 66.0633 48.9777 66.43C49.2911 66.7967 49.4444 67.3667 49.4377 68.14L47.8777 68.44ZM50.473 71V66H52.033V71H50.473ZM51.253 65.36C51.0197 65.36 50.813 65.2733 50.633 65.1C50.4597 64.92 50.373 64.7133 50.373 64.48C50.373 64.2333 50.4597 64.0267 50.633 63.86C50.813 63.6867 51.0197 63.6 51.253 63.6C51.493 63.6 51.6997 63.6867 51.873 63.86C52.0464 64.0267 52.133 64.2333 52.133 64.48C52.133 64.7133 52.0464 64.92 51.873 65.1C51.6997 65.2733 51.493 65.36 51.253 65.36ZM55.3967 71.12C54.8034 71.12 54.3601 70.98 54.0667 70.7C53.7801 70.4133 53.6367 70.0067 53.6367 69.48V64.44H55.1967V69.09C55.1967 69.29 55.2334 69.4367 55.3067 69.53C55.3801 69.6233 55.4934 69.67 55.6467 69.67C55.7067 69.67 55.7767 69.6567 55.8567 69.63C55.9367 69.5967 56.0101 69.5567 56.0767 69.51L56.6167 70.65C56.4567 70.7833 56.2634 70.8967 56.0367 70.99C55.8167 71.0767 55.6034 71.12 55.3967 71.12ZM52.8567 67.31V66H56.3367V67.31H52.8567ZM57.3171 71L57.2971 63.97H58.8571L58.8771 71H57.3171ZM60.5371 71V68.44L62.0971 68.14V71H60.5371ZM60.5371 68.44C60.5371 68.1733 60.5071 67.9633 60.4471 67.81C60.3871 67.65 60.3004 67.5333 60.1871 67.46C60.0738 67.3867 59.9404 67.3467 59.7871 67.34C59.4871 67.3333 59.2604 67.4167 59.1071 67.59C58.9538 67.7567 58.8771 68.0133 58.8771 68.36H58.4071C58.4071 67.8333 58.4838 67.3867 58.6371 67.02C58.7971 66.6467 59.0171 66.3633 59.2971 66.17C59.5771 65.9767 59.8971 65.88 60.2571 65.88C60.8704 65.88 61.3304 66.0633 61.6371 66.43C61.9438 66.7967 62.0971 67.3667 62.0971 68.14L60.5371 68.44Z" fill="black"/>
<path fill-rule="evenodd" clip-rule="evenodd" d="M17.5 43.875C15.498 43.875 13.875 45.498 13.875 47.5C13.875 49.1529 14.9812 50.5474 16.4937 50.9835C15.2997 51.129 14.2756 51.5513 13.5041 52.3117C12.5222 53.2794 12.025 54.72 12.025 56.5999C12.025 56.8623 12.2377 57.0749 12.5 57.0749C12.7624 57.0749 12.975 56.8623 12.975 56.5999C12.975 54.8799 13.4279 53.7206 14.1709 52.9883C14.9154 52.2546 16.0267 51.875 17.5 51.875C18.9732 51.875 20.0846 52.2546 20.8291 52.9883C21.5721 53.7206 22.025 54.8799 22.025 56.5999C22.025 56.8623 22.2376 57.0749 22.5 57.0749C22.7623 57.075 22.975 56.8623 22.975 56.6C22.975 54.72 22.4778 53.2794 21.4959 52.3117C20.7244 51.5513 19.7003 51.129 18.5063 50.9835C20.0187 50.5474 21.125 49.1529 21.125 47.5C21.125 45.498 19.502 43.875 17.5 43.875ZM14.825 47.5C14.825 46.0226 16.0226 44.825 17.5 44.825C18.9774 44.825 20.175 46.0226 20.175 47.5C20.175 48.9774 18.9774 50.175 17.5 50.175C16.0226 50.175 14.825 48.9774 14.825 47.5Z" fill="#00A4CA"/>
<rect x="10" y="93" width="25" height="25" rx="6" fill="#00A4CA" fill-opacity="0.1"/>
<g clip-path="url(#clip1_157_458)">
<path d="M23.4167 100.417C23.4167 100.306 23.4606 100.2 23.5387 100.122C23.6168 100.044 23.7228 100 23.8333 100C24.938 100.001 25.9971 100.441 26.7783 101.222C27.5594 102.003 27.9988 103.062 28 104.167C28 104.277 27.9561 104.383 27.878 104.461C27.7998 104.539 27.6938 104.583 27.5833 104.583C27.4728 104.583 27.3668 104.539 27.2887 104.461C27.2106 104.383 27.1667 104.277 27.1667 104.167C27.1657 103.283 26.8142 102.436 26.1893 101.811C25.5644 101.186 24.7171 100.834 23.8333 100.833C23.7228 100.833 23.6168 100.789 23.5387 100.711C23.4606 100.633 23.4167 100.527 23.4167 100.417V100.417ZM23.8333 102.5C24.2754 102.5 24.6993 102.676 25.0118 102.988C25.3244 103.301 25.5 103.725 25.5 104.167C25.5 104.277 25.5439 104.383 25.622 104.461C25.7002 104.539 25.8062 104.583 25.9167 104.583C26.0272 104.583 26.1332 104.539 26.2113 104.461C26.2894 104.383 26.3333 104.277 26.3333 104.167C26.3327 103.504 26.0691 102.868 25.6004 102.4C25.1317 101.931 24.4962 101.667 23.8333 101.667C23.7228 101.667 23.6168 101.711 23.5387 101.789C23.4606 101.867 23.4167 101.973 23.4167 102.083C23.4167 102.194 23.4606 102.3 23.5387 102.378C23.6168 102.456 23.7228 102.5 23.8333 102.5V102.5ZM27.6221 106.975C27.8635 107.217 27.9991 107.545 27.9991 107.887C27.9991 108.229 27.8635 108.557 27.6221 108.799L27.2429 109.236C23.8304 112.503 15.5262 104.201 18.7429 100.777L19.2221 100.361C19.4645 100.126 19.7896 99.9963 20.127 99.9994C20.4644 100.003 20.787 100.138 21.025 100.377C21.0379 100.39 21.81 101.393 21.81 101.393C22.0391 101.634 22.1666 101.954 22.1661 102.286C22.1655 102.618 22.037 102.938 21.8071 103.177L21.3246 103.784C21.5916 104.433 21.9842 105.023 22.4798 105.519C22.9754 106.016 23.5642 106.41 24.2125 106.678L24.8229 106.192C25.0629 105.963 25.3821 105.834 25.7143 105.834C26.0465 105.833 26.3661 105.961 26.6067 106.19C26.6067 106.19 27.6092 106.962 27.6221 106.975ZM27.0487 107.58C27.0487 107.58 26.0517 106.813 26.0387 106.8C25.9529 106.715 25.8369 106.668 25.716 106.668C25.5952 106.668 25.4792 106.715 25.3933 106.8C25.3821 106.812 24.5417 107.482 24.5417 107.482C24.485 107.527 24.4176 107.556 24.3461 107.567C24.2746 107.578 24.2014 107.571 24.1337 107.545C23.2939 107.232 22.5311 106.743 21.897 106.11C21.2629 105.476 20.7722 104.714 20.4583 103.875C20.4305 103.806 20.4214 103.732 20.432 103.658C20.4427 103.585 20.4726 103.516 20.5187 103.458C20.5187 103.458 21.1883 102.617 21.1996 102.607C21.2847 102.521 21.3324 102.405 21.3324 102.284C21.3324 102.163 21.2847 102.047 21.1996 101.961C21.1867 101.949 20.4196 100.951 20.4196 100.951C20.3325 100.873 20.2188 100.831 20.1018 100.834C19.9848 100.837 19.8734 100.885 19.7904 100.967L19.3112 101.384C16.9604 104.21 24.1567 111.007 26.6337 108.667L27.0133 108.229C27.1023 108.147 27.1557 108.033 27.1623 107.912C27.1689 107.791 27.1282 107.672 27.0487 107.58V107.58Z" fill="#00A4CA"/>
</g>
<rect x="38" y="93" width="25" height="25" rx="6" fill="#00A4CA" fill-opacity="0.1"/>
<g clip-path="url(#clip2_157_458)">
<path d="M53.9167 100.417H48.0833C47.531 100.417 47.0015 100.637 46.6109 101.028C46.2204 101.418 46.0007 101.948 46 102.5V107.5C46.0007 108.052 46.2204 108.582 46.6109 108.972C47.0015 109.363 47.531 109.583 48.0833 109.583H53.9167C54.469 109.583 54.9985 109.363 55.3891 108.972C55.7796 108.582 55.9993 108.052 56 107.5V102.5C55.9993 101.948 55.7796 101.418 55.3891 101.028C54.9985 100.637 54.469 100.417 53.9167 100.417V100.417ZM48.0833 101.25H53.9167C54.1662 101.25 54.4098 101.326 54.6162 101.466C54.8227 101.606 54.9824 101.805 55.075 102.036L51.8842 105.228C51.6493 105.461 51.3314 105.593 51 105.593C50.6686 105.593 50.3507 105.461 50.1158 105.228L46.925 102.036C47.0176 101.805 47.1773 101.606 47.3838 101.466C47.5902 101.326 47.8338 101.25 48.0833 101.25V101.25ZM53.9167 108.75H48.0833C47.7518 108.75 47.4339 108.618 47.1994 108.384C46.965 108.149 46.8333 107.832 46.8333 107.5V103.125L49.5267 105.817C49.9178 106.207 50.4476 106.426 51 106.426C51.5524 106.426 52.0822 106.207 52.4733 105.817L55.1667 103.125V107.5C55.1667 107.832 55.035 108.149 54.8006 108.384C54.5661 108.618 54.2482 108.75 53.9167 108.75Z" fill="#00A4CA"/>
</g>
<rect x="66" y="93" width="25" height="25" rx="6" fill="#00A4CA" fill-opacity="0.1"/>
<g clip-path="url(#clip3_157_458)">
<path d="M81.5 101.25H76.5C75.1212 101.25 74 102.371 74 103.75V107.5C74 108.189 74.5608 108.75 75.25 108.75H82.75C83.4392 108.75 84 108.189 84 107.5V103.75C84 102.371 82.8787 101.25 81.5 101.25ZM74.8333 107.5V103.75C74.8333 102.831 75.5808 102.083 76.5 102.083C77.4192 102.083 78.1667 102.831 78.1667 103.75V107.5C78.1667 107.73 77.9796 107.917 77.75 107.917H75.25C75.0204 107.917 74.8333 107.73 74.8333 107.5ZM83.1667 107.5C83.1667 107.73 82.98 107.917 82.75 107.917H78.9283C78.9746 107.786 79 107.646 79 107.5V103.75C79 103.11 78.7583 102.526 78.3617 102.083H81.5C82.4192 102.083 83.1667 102.831 83.1667 103.75V107.5ZM82.3333 104.167V105C82.3333 105.23 82.1471 105.417 81.9167 105.417C81.6862 105.417 81.5 105.23 81.5 105V104.583H80.25C80.0196 104.583 79.8333 104.397 79.8333 104.167C79.8333 103.937 80.0196 103.75 80.25 103.75H81.9167C82.1471 103.75 82.3333 103.937 82.3333 104.167ZM77.3333 104.167C77.3333 104.397 77.1467 104.583 76.9167 104.583H76.0833C75.8533 104.583 75.6667 104.397 75.6667 104.167C75.6667 103.937 75.8533 103.75 76.0833 103.75H76.9167C77.1467 103.75 77.3333 103.937 77.3333 104.167Z" fill="#00A4CA"/>
</g>
<g filter="url(#filter0_d_157_458)">
<rect x="71" width="100" height="88" rx="12" fill="white"/>
<rect x="77" y="6" width="88" height="20" rx="6" fill="#00A4CA" fill-opacity="0.1"/>
<g clip-path="url(#clip4_157_458)">
<path d="M124.5 20.0833C124.615 20.0833 124.728 20.0491 124.824 19.985C124.92 19.9209 124.995 19.8298 125.039 19.7232C125.083 19.6166 125.095 19.4994 125.072 19.3862C125.05 19.2731 124.994 19.1692 124.912 19.0876L121.312 15.4878C120.765 14.9411 120.023 14.6339 119.25 14.6339C118.477 14.6339 117.735 14.9411 117.188 15.4878L115.921 16.7543C115.815 16.8643 115.756 17.0116 115.757 17.1646C115.759 17.3175 115.82 17.4638 115.928 17.572C116.036 17.6801 116.182 17.7415 116.335 17.7428C116.488 17.7441 116.636 17.6853 116.746 17.5791L118.013 16.3127C118.346 15.9943 118.789 15.8166 119.25 15.8166C119.711 15.8166 120.154 15.9943 120.487 16.3127L124.088 19.9124C124.197 20.0218 124.345 20.0833 124.5 20.0833Z" fill="#00A4CA"/>
<path d="M123.333 15.125C123.737 15.125 124.132 15.0052 124.468 14.7809C124.803 14.5566 125.065 14.2377 125.22 13.8646C125.374 13.4916 125.415 13.0811 125.336 12.685C125.257 12.289 125.063 11.9252 124.777 11.6396C124.491 11.3541 124.128 11.1597 123.732 11.0809C123.336 11.0021 122.925 11.0425 122.552 11.1971C122.179 11.3516 121.86 11.6133 121.636 11.949C121.411 12.2848 121.292 12.6795 121.292 13.0833C121.292 13.6248 121.507 14.1441 121.89 14.527C122.273 14.9099 122.792 15.125 123.333 15.125V15.125ZM123.333 12.2083C123.506 12.2083 123.676 12.2596 123.819 12.3558C123.963 12.4519 124.075 12.5886 124.142 12.7485C124.208 12.9084 124.225 13.0843 124.192 13.254C124.158 13.4238 124.074 13.5797 123.952 13.702C123.83 13.8244 123.674 13.9077 123.504 13.9415C123.334 13.9753 123.158 13.9579 122.998 13.8917C122.839 13.8255 122.702 13.7133 122.606 13.5694C122.51 13.4256 122.458 13.2564 122.458 13.0833C122.458 12.8513 122.551 12.6287 122.715 12.4646C122.879 12.3005 123.101 12.2083 123.333 12.2083V12.2083Z" fill="#00A4CA"/>
<path d="M127.417 18.3333C127.262 18.3333 127.114 18.3948 127.004 18.5042C126.895 18.6136 126.833 18.762 126.833 18.9167V20.0833C126.833 20.5475 126.649 20.9926 126.321 21.3208C125.993 21.649 125.547 21.8333 125.083 21.8333H123.917C123.762 21.8333 123.614 21.8948 123.504 22.0042C123.395 22.1136 123.333 22.262 123.333 22.4167C123.333 22.5714 123.395 22.7198 123.504 22.8292C123.614 22.9386 123.762 23 123.917 23H125.083C125.857 22.9991 126.598 22.6915 127.145 22.1447C127.691 21.5979 127.999 20.8566 128 20.0833V18.9167C128 18.762 127.939 18.6136 127.829 18.5042C127.72 18.3948 127.571 18.3333 127.417 18.3333Z" fill="#00A4CA"/>
<path d="M114.583 13.6667C114.738 13.6667 114.886 13.6052 114.996 13.4958C115.105 13.3864 115.167 13.238 115.167 13.0833V11.9167C115.167 11.4525 115.351 11.0074 115.679 10.6792C116.007 10.351 116.453 10.1667 116.917 10.1667H118.083C118.238 10.1667 118.386 10.1052 118.496 9.99581C118.605 9.88642 118.667 9.73804 118.667 9.58333C118.667 9.42862 118.605 9.28025 118.496 9.17085C118.386 9.06146 118.238 9 118.083 9H116.917C116.143 9.00093 115.402 9.30851 114.855 9.85529C114.309 10.4021 114.001 11.1434 114 11.9167V13.0833C114 13.238 114.061 13.3864 114.171 13.4958C114.28 13.6052 114.429 13.6667 114.583 13.6667Z" fill="#00A4CA"/>
<path d="M118.083 21.8333H116.917C116.453 21.8333 116.007 21.649 115.679 21.3208C115.351 20.9926 115.167 20.5475 115.167 20.0833V18.9167C115.167 18.762 115.105 18.6136 114.996 18.5042C114.886 18.3948 114.738 18.3333 114.583 18.3333C114.429 18.3333 114.28 18.3948 114.171 18.5042C114.061 18.6136 114 18.762 114 18.9167V20.0833C114.001 20.8566 114.309 21.5979 114.855 22.1447C115.402 22.6915 116.143 22.9991 116.917 23H118.083C118.238 23 118.386 22.9386 118.496 22.8292C118.605 22.7198 118.667 22.5714 118.667 22.4167C118.667 22.262 118.605 22.1136 118.496 22.0042C118.386 21.8948 118.238 21.8333 118.083 21.8333Z" fill="#00A4CA"/>
<path d="M125.083 9H123.917C123.762 9 123.614 9.06146 123.504 9.17085C123.395 9.28025 123.333 9.42862 123.333 9.58333C123.333 9.73804 123.395 9.88642 123.504 9.99581C123.614 10.1052 123.762 10.1667 123.917 10.1667H125.083C125.547 10.1667 125.993 10.351 126.321 10.6792C126.649 11.0074 126.833 11.4525 126.833 11.9167V13.0833C126.833 13.238 126.895 13.3864 127.004 13.4958C127.114 13.6052 127.262 13.6667 127.417 13.6667C127.571 13.6667 127.72 13.6052 127.829 13.4958C127.939 13.3864 128 13.238 128 13.0833V11.9167C127.999 11.1434 127.691 10.4021 127.145 9.85529C126.598 9.30851 125.857 9.00093 125.083 9V9Z" fill="#00A4CA"/>
</g>
<rect x="77" y="29" width="49" height="25" rx="6" fill="#00A4CA" fill-opacity="0.1"/>
<g clip-path="url(#clip5_157_458)">
<path d="M108.157 42.9695L107.049 38.9818C106.724 37.8136 106.018 36.7875 105.043 36.0666C104.068 35.3457 102.88 34.9714 101.668 35.0032C100.456 35.035 99.2889 35.471 98.353 36.242C97.4172 37.013 96.7659 38.0747 96.5027 39.2583L95.6446 43.1171C95.5498 43.5435 95.552 43.9857 95.651 44.4111C95.75 44.8365 95.9433 45.2343 96.2166 45.575C96.4899 45.9157 96.8362 46.1907 97.23 46.3796C97.6238 46.5686 98.0551 46.6667 98.4918 46.6667H99.1417C99.2756 47.326 99.6333 47.9188 100.154 48.3445C100.675 48.7703 101.327 49.0029 102 49.0029C102.673 49.0029 103.325 48.7703 103.846 48.3445C104.367 47.9188 104.724 47.326 104.858 46.6667H105.347C105.797 46.6667 106.24 46.5628 106.643 46.363C107.046 46.1632 107.397 45.873 107.669 45.5151C107.941 45.1571 108.127 44.7411 108.212 44.2995C108.297 43.8579 108.278 43.4027 108.158 42.9695H108.157ZM102 47.8333C101.639 47.8318 101.288 47.7189 100.994 47.5101C100.7 47.3013 100.478 47.0067 100.357 46.6667H103.643C103.522 47.0067 103.3 47.3013 103.006 47.5101C102.712 47.7189 102.361 47.8318 102 47.8333V47.8333ZM106.74 44.8087C106.578 45.0244 106.367 45.1991 106.125 45.3191C105.883 45.4391 105.617 45.5011 105.347 45.5H98.4918C98.2298 45.4999 97.9711 45.4411 97.7349 45.3277C97.4986 45.2143 97.2909 45.0493 97.1269 44.8448C96.963 44.6404 96.847 44.4018 96.7877 44.1466C96.7283 43.8913 96.727 43.626 96.7838 43.3702L97.6413 39.5109C97.848 38.5812 98.3596 37.7473 99.0947 37.1417C99.8298 36.5361 100.746 36.1936 101.698 36.1687C102.65 36.1437 103.583 36.4377 104.349 37.004C105.115 37.5703 105.67 38.3763 105.925 39.2939L107.033 43.2816C107.106 43.5414 107.118 43.8147 107.067 44.0798C107.016 44.3449 106.904 44.5945 106.74 44.8087V44.8087Z" fill="#00A4CA"/>
</g>
<rect x="77" y="57" width="49" height="25" rx="6" fill="#00A4CA" fill-opacity="0.1"/>
<g clip-path="url(#clip6_157_458)">
<path d="M108.827 68.3035C108.599 68.0754 108.231 68.0754 108.002 68.3035L107.682 68.6237L102.384 63.3259L102.705 63.0057C102.933 62.7776 102.933 62.4089 102.705 62.1808C102.477 61.9527 102.108 61.9527 101.88 62.1808L97.7965 66.2642C97.5684 66.4922 97.5684 66.8609 97.7965 67.089C97.9102 67.2027 98.0596 67.2599 98.2089 67.2599C98.3582 67.2599 98.5076 67.2027 98.6213 67.089L98.9602 66.7501L101.193 68.9825L95.1709 75.0042C94.9428 75.2323 94.9428 75.601 95.1709 75.8291C95.2847 75.9428 95.434 76 95.5833 76C95.7327 76 95.882 75.9428 95.9957 75.8291L102.017 69.8073L104.258 72.0479L103.92 72.3862C103.692 72.6143 103.692 72.983 103.92 73.2111C104.033 73.3248 104.183 73.382 104.332 73.382C104.481 73.382 104.631 73.3248 104.745 73.2111L108.828 69.1277C109.056 68.8997 109.056 68.531 108.828 68.3029L108.827 68.3035ZM103.526 69.6667L101.384 67.5247L103.158 65.7502L105.3 67.8922C104.84 68.3525 104.02 69.1727 103.526 69.6667ZM101.56 64.1507L102.334 64.9248L100.559 66.6993L99.7851 65.9252L101.56 64.1507V64.1507ZM104.351 70.4916C104.847 69.9963 105.666 69.1767 106.126 68.7171L106.857 69.4486L105.083 71.2231L104.351 70.4916V70.4916Z" fill="#00A4CA"/>
</g>
<rect x="129" y="29" width="36" height="53" rx="6" fill="#00A4CA" fill-opacity="0.1"/>
<g clip-path="url(#clip7_157_458)">
<path d="M151.083 49.1667H150.5V48.5833C150.5 48.2613 150.239 48 149.917 48C149.594 48 149.333 48.2613 149.333 48.5833V49.1667H144.667V48.5833C144.667 48.2613 144.406 48 144.083 48C143.761 48 143.5 48.2613 143.5 48.5833V49.1667H142.917C141.308 49.1667 140 50.4751 140 52.0833V59.0833C140 60.6916 141.308 62 142.917 62H151.083C152.692 62 154 60.6916 154 59.0833V52.0833C154 50.4751 152.692 49.1667 151.083 49.1667ZM142.917 50.3333H151.083C152.048 50.3333 152.833 51.1185 152.833 52.0833V52.6667H141.167V52.0833C141.167 51.1185 141.952 50.3333 142.917 50.3333ZM151.083 60.8333H142.917C141.952 60.8333 141.167 60.0482 141.167 59.0833V53.8333H152.833V59.0833C152.833 60.0482 152.048 60.8333 151.083 60.8333ZM151.083 56.1667C151.083 56.4887 150.823 56.75 150.5 56.75H143.5C143.177 56.75 142.917 56.4887 142.917 56.1667C142.917 55.8447 143.177 55.5833 143.5 55.5833H150.5C150.823 55.5833 151.083 55.8447 151.083 56.1667ZM147 58.5C147 58.822 146.739 59.0833 146.417 59.0833H143.5C143.177 59.0833 142.917 58.822 142.917 58.5C142.917 58.178 143.177 57.9167 143.5 57.9167H146.417C146.739 57.9167 147 58.178 147 58.5Z" fill="#00A4CA"/>
</g>
</g>
</g>
<defs>
<filter id="filter0_d_157_458" x="61" y="0" width="110" height="98" filterUnits="userSpaceOnUse" color-interpolation-filters="sRGB">
<feFlood flood-opacity="0" result="BackgroundImageFix"/>
<feColorMatrix in="SourceAlpha" type="matrix" values="0 0 0 0 0 0 0 0 0 0 0 0 0 0 0 0 0 0 127 0" result="hardAlpha"/>
<feOffset dx="-5" dy="5"/>
<feGaussianBlur stdDeviation="2.5"/>
<feComposite in2="hardAlpha" operator="out"/>
<feColorMatrix type="matrix" values="0 0 0 0 0 0 0 0 0 0 0 0 0 0 0 0 0 0 0.05 0"/>
<feBlend mode="normal" in2="BackgroundImageFix" result="effect1_dropShadow_157_458"/>
<feBlend mode="normal" in="SourceGraphic" in2="effect1_dropShadow_157_458" result="shape"/>
</filter>
<clipPath id="clip0_157_458">
<rect width="171" height="128" fill="white"/>
</clipPath>
<clipPath id="clip1_157_458">
<rect width="10" height="10" fill="white" transform="translate(18 100)"/>
</clipPath>
<clipPath id="clip2_157_458">
<rect width="10" height="10" fill="white" transform="translate(46 100)"/>
</clipPath>
<clipPath id="clip3_157_458">
<rect width="10" height="10" fill="white" transform="translate(74 100)"/>
</clipPath>
<clipPath id="clip4_157_458">
<rect width="14" height="14" fill="white" transform="translate(114 9)"/>
</clipPath>
<clipPath id="clip5_157_458">
<rect width="14" height="14" fill="white" transform="translate(95 35)"/>
</clipPath>
<clipPath id="clip6_157_458">
<rect width="14" height="14" fill="white" transform="translate(95 62)"/>
</clipPath>
<clipPath id="clip7_157_458">
<rect width="14" height="14" fill="white" transform="translate(140 48)"/>
</clipPath>
</defs>
</svg>
