<svg width="198" height="103" viewBox="0 0 198 103" fill="none" xmlns="http://www.w3.org/2000/svg">
<g clip-path="url(#clip0_157_376)">
<g filter="url(#filter0_d_157_376)">
<rect x="112" y="43" width="86" height="60" rx="12" fill="white"/>
<path d="M133.761 81V79.48C134.068 79.48 134.351 79.4333 134.611 79.34C134.871 79.24 135.098 79.1033 135.291 78.93C135.484 78.75 135.634 78.54 135.741 78.3C135.848 78.0533 135.901 77.7867 135.901 77.5C135.901 77.2133 135.848 76.95 135.741 76.71C135.634 76.4633 135.484 76.2533 135.291 76.08C135.098 75.9 134.871 75.7633 134.611 75.67C134.351 75.57 134.068 75.52 133.761 75.52V74C134.501 74 135.154 74.15 135.721 74.45C136.294 74.75 136.741 75.1633 137.061 75.69C137.381 76.21 137.541 76.8133 137.541 77.5C137.541 78.18 137.378 78.7833 137.051 79.31C136.731 79.8367 136.288 80.25 135.721 80.55C135.154 80.85 134.501 81 133.761 81ZM132.311 81V79.48H133.761V81H132.311ZM131.471 81V74H133.081V81H131.471ZM132.311 75.52V74H133.761V75.52H132.311ZM140.792 81.12C140.272 81.12 139.812 81.01 139.412 80.79C139.012 80.57 138.698 80.2633 138.472 79.87C138.245 79.4767 138.132 79.02 138.132 78.5C138.132 77.98 138.245 77.5233 138.472 77.13C138.698 76.7367 139.012 76.43 139.412 76.21C139.818 75.99 140.282 75.88 140.802 75.88C141.282 75.88 141.712 75.9933 142.092 76.22C142.472 76.4467 142.772 76.7867 142.992 77.24C143.218 77.6867 143.332 78.24 143.332 78.9H141.772C141.778 78.5067 141.745 78.1767 141.672 77.91C141.605 77.6367 141.495 77.4333 141.342 77.3C141.188 77.16 140.988 77.09 140.742 77.09C140.522 77.09 140.335 77.1467 140.182 77.26C140.035 77.3733 139.925 77.54 139.852 77.76C139.785 77.9733 139.752 78.2433 139.752 78.57C139.752 78.8633 139.802 79.1033 139.902 79.29C140.002 79.47 140.132 79.6033 140.292 79.69C140.458 79.7767 140.638 79.82 140.832 79.82C141.072 79.82 141.272 79.7667 141.432 79.66C141.598 79.5533 141.712 79.4167 141.772 79.25L143.192 79.73C143.058 80.05 142.868 80.3133 142.622 80.52C142.382 80.7267 142.102 80.88 141.782 80.98C141.468 81.0733 141.138 81.12 140.792 81.12ZM139.132 78.9L139.142 77.84H142.592V78.9H139.132ZM144.035 81V76H145.505L145.595 76.92V81H144.035ZM147.255 81V78.44L148.815 78.14V81H147.255ZM150.475 81V78.44L152.035 78.14V81H150.475ZM147.255 78.44C147.255 78.1733 147.225 77.9633 147.165 77.81C147.105 77.65 147.019 77.5333 146.905 77.46C146.799 77.3867 146.665 77.3467 146.505 77.34C146.205 77.3333 145.979 77.4167 145.825 77.59C145.672 77.7567 145.595 78.0133 145.595 78.36H145.125C145.125 77.8333 145.205 77.3867 145.365 77.02C145.525 76.6467 145.742 76.3633 146.015 76.17C146.295 75.9767 146.619 75.88 146.985 75.88C147.592 75.88 148.049 76.0633 148.355 76.43C148.662 76.7967 148.815 77.3667 148.815 78.14L147.255 78.44ZM150.475 78.44C150.475 78.1733 150.445 77.9633 150.385 77.81C150.325 77.65 150.239 77.5333 150.125 77.46C150.019 77.3867 149.885 77.3467 149.725 77.34C149.432 77.3333 149.205 77.4167 149.045 77.59C148.892 77.7567 148.815 78.0133 148.815 78.36H148.355C148.355 77.8333 148.432 77.3867 148.585 77.02C148.745 76.6467 148.962 76.3633 149.235 76.17C149.515 75.9767 149.839 75.88 150.205 75.88C150.812 75.88 151.269 76.0633 151.575 76.43C151.889 76.7967 152.042 77.3667 152.035 78.14L150.475 78.44ZM155.451 81.12C154.924 81.12 154.457 81.01 154.051 80.79C153.651 80.5633 153.334 80.2533 153.101 79.86C152.874 79.4667 152.761 79.0133 152.761 78.5C152.761 77.9867 152.874 77.5333 153.101 77.14C153.327 76.7467 153.641 76.44 154.041 76.22C154.447 75.9933 154.907 75.88 155.421 75.88C155.947 75.88 156.411 75.9933 156.811 76.22C157.217 76.44 157.534 76.7467 157.761 77.14C157.987 77.5333 158.101 77.9867 158.101 78.5C158.101 79.0133 157.987 79.4667 157.761 79.86C157.534 80.2533 157.221 80.5633 156.821 80.79C156.427 81.01 155.971 81.12 155.451 81.12ZM155.441 79.64C155.647 79.64 155.824 79.5933 155.971 79.5C156.124 79.4 156.244 79.2667 156.331 79.1C156.417 78.9267 156.461 78.7267 156.461 78.5C156.461 78.2733 156.414 78.0767 156.321 77.91C156.234 77.7367 156.114 77.6033 155.961 77.51C155.807 77.41 155.631 77.36 155.431 77.36C155.231 77.36 155.054 77.41 154.901 77.51C154.747 77.6033 154.627 77.7367 154.541 77.91C154.454 78.0767 154.411 78.2733 154.411 78.5C154.411 78.72 154.454 78.9167 154.541 79.09C154.627 79.2633 154.747 79.4 154.901 79.5C155.061 79.5933 155.241 79.64 155.441 79.64ZM163.702 81V79.48C164.009 79.48 164.292 79.4333 164.552 79.34C164.812 79.24 165.039 79.1033 165.232 78.93C165.426 78.75 165.576 78.54 165.682 78.3C165.789 78.0533 165.842 77.7867 165.842 77.5C165.842 77.2133 165.789 76.95 165.682 76.71C165.576 76.4633 165.426 76.2533 165.232 76.08C165.039 75.9 164.812 75.7633 164.552 75.67C164.292 75.57 164.009 75.52 163.702 75.52V74C164.442 74 165.096 74.15 165.662 74.45C166.236 74.75 166.682 75.1633 167.002 75.69C167.322 76.21 167.482 76.8133 167.482 77.5C167.482 78.18 167.319 78.7833 166.992 79.31C166.672 79.8367 166.229 80.25 165.662 80.55C165.096 80.85 164.442 81 163.702 81ZM162.252 81V79.48H163.702V81H162.252ZM161.412 81V74H163.022V81H161.412ZM162.252 75.52V74H163.702V75.52H162.252ZM171.273 81L171.233 78.51C171.233 78.2433 171.21 78.0133 171.163 77.82C171.117 77.62 171.03 77.4667 170.903 77.36C170.777 77.2467 170.59 77.19 170.343 77.19C170.17 77.19 170.02 77.23 169.893 77.31C169.767 77.3833 169.647 77.5033 169.533 77.67L168.143 77.22C168.27 76.9733 168.43 76.75 168.623 76.55C168.823 76.3433 169.067 76.18 169.353 76.06C169.647 75.94 169.99 75.88 170.383 75.88C170.897 75.88 171.333 75.9733 171.693 76.16C172.053 76.3467 172.323 76.6167 172.503 76.97C172.69 77.3167 172.783 77.73 172.783 78.21V81H171.273ZM169.933 81.12C169.347 81.12 168.89 80.99 168.563 80.73C168.237 80.4633 168.073 80.0833 168.073 79.59C168.073 79.0633 168.243 78.67 168.583 78.41C168.923 78.15 169.4 78.02 170.013 78.02H171.463L171.473 79.03H170.583C170.257 79.03 170.02 79.0767 169.873 79.17C169.727 79.2567 169.653 79.3833 169.653 79.55C169.653 79.67 169.707 79.7667 169.813 79.84C169.92 79.9067 170.07 79.94 170.263 79.94C170.45 79.94 170.613 79.8967 170.753 79.81C170.893 79.7233 171.003 79.61 171.083 79.47C171.163 79.33 171.203 79.1767 171.203 79.01L171.653 78.91C171.653 79.61 171.51 80.1533 171.223 80.54C170.937 80.9267 170.507 81.12 169.933 81.12ZM174.993 83.12C174.779 83.12 174.553 83.08 174.313 83C174.079 82.92 173.883 82.8333 173.723 82.74L174.303 81.47C174.396 81.5367 174.486 81.5867 174.573 81.62C174.666 81.6533 174.749 81.67 174.823 81.67C174.949 81.67 175.063 81.6367 175.163 81.57C175.263 81.51 175.343 81.41 175.403 81.27L175.993 79.88L177.463 76H179.193L176.983 81.3C176.836 81.66 176.683 81.9767 176.523 82.25C176.363 82.5233 176.163 82.7367 175.923 82.89C175.689 83.0433 175.379 83.12 174.993 83.12ZM175.583 81L173.243 76H174.973L176.543 79.88L177.073 81H175.583Z" fill="black"/>
<g clip-path="url(#clip1_157_376)">
<path fill-rule="evenodd" clip-rule="evenodd" d="M153.854 56.8535L154.654 56.0535C155.298 55.409 156.429 54.9617 157.552 54.8012C158.106 54.7222 158.629 54.7172 159.056 54.7812C159.499 54.8475 159.77 54.977 159.896 55.1036C160.023 55.2302 160.153 55.5012 160.219 55.9436C160.283 56.3709 160.278 56.8944 160.199 57.448C160.038 58.5714 159.591 59.7019 158.946 60.3464L154.5 64.7929L153.354 63.6465C153.158 63.4512 152.842 63.4512 152.646 63.6465C152.451 63.8417 152.451 64.1583 152.646 64.3536L154.146 65.8536C154.342 66.0488 154.658 66.0488 154.854 65.8536L155.401 65.3064L156.571 67.2572C156.65 67.3893 156.786 67.4774 156.939 67.4963C157.092 67.5151 157.245 67.4624 157.354 67.3536L159.354 65.3536C159.465 65.2423 159.517 65.0851 159.495 64.9293L159.03 61.6768L159.654 61.0535C160.509 60.1981 161.012 58.8285 161.189 57.5894C161.278 56.9618 161.289 56.3385 161.208 55.7955C161.129 55.2675 160.952 54.7448 160.604 54.3965C160.255 54.0481 159.733 53.8713 159.205 53.7923C158.662 53.7109 158.038 53.7216 157.41 53.8113C156.171 53.9883 154.802 54.491 153.946 55.3464L153.323 55.9697L150.071 55.505C149.915 55.4828 149.758 55.5352 149.646 55.6465L147.646 57.6465C147.538 57.7553 147.485 57.9083 147.504 58.0611C147.523 58.2139 147.611 58.3495 147.743 58.4288L149.694 59.5993L149.146 60.1465C149.053 60.2402 149 60.3674 149 60.5C149 60.6326 149.053 60.7598 149.146 60.8536L150.646 62.3536C150.842 62.5488 151.158 62.5488 151.354 62.3536C151.549 62.1583 151.549 61.8417 151.354 61.6465L150.207 60.5L150.854 59.8536L153.854 56.8535ZM157.099 66.1936L156.13 64.5775L158.146 62.5607L158.47 64.8232L157.099 66.1936ZM150.423 58.8704L152.439 56.8536L150.177 56.5303L148.806 57.9007L150.423 58.8704ZM149.354 63.3535C149.549 63.1583 149.549 62.8417 149.354 62.6464C149.158 62.4512 148.842 62.4512 148.646 62.6464L147.646 63.6464C147.451 63.8417 147.451 64.1583 147.646 64.3535C147.842 64.5488 148.158 64.5488 148.354 64.3535L149.354 63.3535ZM150.854 64.8536C151.049 64.6583 151.049 64.3417 150.854 64.1465C150.658 63.9512 150.342 63.9512 150.146 64.1465L148.146 66.1464C147.951 66.3417 147.951 66.6583 148.146 66.8535C148.342 67.0488 148.658 67.0488 148.854 66.8536L150.854 64.8536ZM152.354 66.3535C152.549 66.1583 152.549 65.8417 152.354 65.6464C152.158 65.4512 151.842 65.4512 151.646 65.6464L150.646 66.6464C150.451 66.8417 150.451 67.1583 150.646 67.3535C150.842 67.5488 151.158 67.5488 151.354 67.3535L152.354 66.3535ZM156.5 59.7488C157.19 59.7488 157.749 59.1897 157.749 58.5C157.749 57.8103 157.19 57.2512 156.5 57.2512C155.81 57.2512 155.251 57.8103 155.251 58.5C155.251 59.1897 155.81 59.7488 156.5 59.7488Z" fill="#64A69A"/>
</g>
<rect x="141" y="85" width="27" height="8" rx="4" fill="#F2D16B"/>
<path d="M146.893 91.06C146.653 91.06 146.452 91.015 146.288 90.925C146.125 90.8317 145.995 90.7067 145.898 90.55C145.802 90.3933 145.732 90.2133 145.688 90.01C145.648 89.8033 145.628 89.585 145.628 89.355C145.628 89.055 145.658 88.7867 145.718 88.55C145.782 88.3133 145.872 88.1133 145.988 87.95C146.105 87.7833 146.247 87.6567 146.413 87.57C146.58 87.4833 146.768 87.44 146.978 87.44C147.152 87.44 147.323 87.4683 147.493 87.525C147.667 87.5783 147.82 87.6533 147.953 87.75L147.718 88.05C147.612 87.9767 147.497 87.92 147.373 87.88C147.25 87.8367 147.132 87.815 147.018 87.815C146.678 87.815 146.42 87.9583 146.243 88.245C146.067 88.5317 145.988 88.9667 146.008 89.55L145.918 89.46C145.998 89.2567 146.127 89.0967 146.303 88.98C146.48 88.86 146.688 88.8 146.928 88.8C147.152 88.8 147.35 88.8483 147.523 88.945C147.7 89.0417 147.837 89.1767 147.933 89.35C148.033 89.52 148.083 89.715 148.083 89.935C148.083 90.1517 148.033 90.3467 147.933 90.52C147.833 90.69 147.693 90.8233 147.513 90.92C147.337 91.0133 147.13 91.06 146.893 91.06ZM146.893 90.69C147.043 90.69 147.175 90.6583 147.288 90.595C147.405 90.5283 147.495 90.4383 147.558 90.325C147.625 90.2083 147.658 90.075 147.658 89.925C147.658 89.775 147.625 89.6433 147.558 89.53C147.495 89.4133 147.405 89.3233 147.288 89.26C147.175 89.1967 147.043 89.165 146.893 89.165C146.747 89.165 146.615 89.1967 146.498 89.26C146.382 89.3233 146.29 89.4133 146.223 89.53C146.157 89.6433 146.123 89.775 146.123 89.925C146.123 90.075 146.157 90.2083 146.223 90.325C146.29 90.4383 146.382 90.5283 146.498 90.595C146.615 90.6583 146.747 90.69 146.893 90.69ZM152.091 91L152.936 88.5H153.341L152.491 91H152.091ZM150.391 91L151.236 88.5H151.611L150.776 91H150.391ZM150.371 91L149.521 88.5H149.926L150.761 91H150.371ZM152.091 91L151.256 88.5H151.636L152.471 91H152.091ZM154.788 91.06C154.545 91.06 154.33 91.005 154.143 90.895C153.96 90.7817 153.815 90.6267 153.708 90.43C153.601 90.2333 153.548 90.0067 153.548 89.75C153.548 89.4933 153.6 89.2667 153.703 89.07C153.81 88.8733 153.956 88.72 154.143 88.61C154.33 88.4967 154.541 88.44 154.778 88.44C155.011 88.44 155.213 88.4983 155.383 88.615C155.553 88.7283 155.685 88.8883 155.778 89.095C155.871 89.3017 155.918 89.545 155.918 89.825H155.518C155.518 89.6117 155.49 89.43 155.433 89.28C155.376 89.1267 155.293 89.0083 155.183 88.925C155.073 88.8417 154.936 88.8 154.773 88.8C154.61 88.8 154.466 88.84 154.343 88.92C154.223 88.9967 154.13 89.1067 154.063 89.25C153.996 89.3933 153.963 89.5617 153.963 89.755C153.963 89.945 154 90.11 154.073 90.25C154.146 90.3867 154.246 90.495 154.373 90.575C154.5 90.6517 154.645 90.69 154.808 90.69C154.985 90.69 155.133 90.6483 155.253 90.565C155.373 90.4817 155.466 90.3733 155.533 90.24L155.888 90.415C155.821 90.545 155.735 90.6583 155.628 90.755C155.525 90.8517 155.403 90.9267 155.263 90.98C155.123 91.0333 154.965 91.06 154.788 91.06ZM153.818 89.825V89.48H155.673V89.825H153.818ZM157.542 91.06C157.299 91.06 157.084 91.005 156.897 90.895C156.714 90.7817 156.569 90.6267 156.462 90.43C156.355 90.2333 156.302 90.0067 156.302 89.75C156.302 89.4933 156.354 89.2667 156.457 89.07C156.564 88.8733 156.71 88.72 156.897 88.61C157.084 88.4967 157.295 88.44 157.532 88.44C157.765 88.44 157.967 88.4983 158.137 88.615C158.307 88.7283 158.439 88.8883 158.532 89.095C158.625 89.3017 158.672 89.545 158.672 89.825H158.272C158.272 89.6117 158.244 89.43 158.187 89.28C158.13 89.1267 158.047 89.0083 157.937 88.925C157.827 88.8417 157.69 88.8 157.527 88.8C157.364 88.8 157.22 88.84 157.097 88.92C156.977 88.9967 156.884 89.1067 156.817 89.25C156.75 89.3933 156.717 89.5617 156.717 89.755C156.717 89.945 156.754 90.11 156.827 90.25C156.9 90.3867 157 90.495 157.127 90.575C157.254 90.6517 157.399 90.69 157.562 90.69C157.739 90.69 157.887 90.6483 158.007 90.565C158.127 90.4817 158.22 90.3733 158.287 90.24L158.642 90.415C158.575 90.545 158.489 90.6583 158.382 90.755C158.279 90.8517 158.157 90.9267 158.017 90.98C157.877 91.0333 157.719 91.06 157.542 91.06ZM156.572 89.825V89.48H158.427V89.825H156.572ZM159.581 90.195L159.326 89.92L160.656 88.5H161.161L159.581 90.195ZM159.191 91V87.5H159.591V91H159.191ZM160.766 91L159.816 89.565L160.076 89.285L161.261 91H160.766ZM162.493 91.06C162.309 91.06 162.149 91.0333 162.013 90.98C161.876 90.9233 161.761 90.85 161.668 90.76C161.578 90.67 161.513 90.5717 161.473 90.465L161.823 90.32C161.879 90.43 161.964 90.52 162.078 90.59C162.191 90.66 162.316 90.695 162.453 90.695C162.609 90.695 162.739 90.665 162.843 90.605C162.949 90.5417 163.003 90.455 163.003 90.345C163.003 90.2417 162.963 90.1583 162.883 90.095C162.806 90.0317 162.693 89.98 162.543 89.94L162.303 89.875C162.076 89.815 161.899 89.725 161.773 89.605C161.646 89.4817 161.583 89.3433 161.583 89.19C161.583 88.9533 161.659 88.77 161.813 88.64C161.969 88.5067 162.201 88.44 162.508 88.44C162.654 88.44 162.788 88.4617 162.908 88.505C163.028 88.5483 163.131 88.61 163.218 88.69C163.304 88.7667 163.368 88.8583 163.408 88.965L163.058 89.12C163.014 89.0067 162.943 88.9267 162.843 88.88C162.743 88.83 162.621 88.805 162.478 88.805C162.324 88.805 162.204 88.8367 162.118 88.9C162.031 88.9633 161.988 89.0533 161.988 89.17C161.988 89.2367 162.023 89.3 162.093 89.36C162.166 89.4167 162.273 89.4633 162.413 89.5L162.663 89.565C162.826 89.605 162.963 89.665 163.073 89.745C163.183 89.8217 163.266 89.91 163.323 90.01C163.379 90.11 163.408 90.2167 163.408 90.33C163.408 90.48 163.368 90.61 163.288 90.72C163.208 90.83 163.099 90.915 162.963 90.975C162.826 91.0317 162.669 91.06 162.493 91.06Z" fill="black"/>
</g>
<g filter="url(#filter1_d_157_376)">
<rect x="31" width="99" height="58" rx="12" fill="white"/>
<path d="M46.2 20V13H47.81V20H46.2ZM41.68 20V12.99L43.29 13V20.01L41.68 20ZM42.82 17.17V15.69H47.06V17.17H42.82ZM51.9802 20L51.9402 17.51C51.9402 17.2433 51.9169 17.0133 51.8702 16.82C51.8236 16.62 51.7369 16.4667 51.6102 16.36C51.4836 16.2467 51.2969 16.19 51.0502 16.19C50.8769 16.19 50.7269 16.23 50.6002 16.31C50.4736 16.3833 50.3536 16.5033 50.2402 16.67L48.8502 16.22C48.9769 15.9733 49.1369 15.75 49.3302 15.55C49.5302 15.3433 49.7736 15.18 50.0602 15.06C50.3536 14.94 50.6969 14.88 51.0902 14.88C51.6036 14.88 52.0402 14.9733 52.4002 15.16C52.7602 15.3467 53.0302 15.6167 53.2102 15.97C53.3969 16.3167 53.4902 16.73 53.4902 17.21V20H51.9802ZM50.6402 20.12C50.0536 20.12 49.5969 19.99 49.2702 19.73C48.9436 19.4633 48.7802 19.0833 48.7802 18.59C48.7802 18.0633 48.9502 17.67 49.2902 17.41C49.6302 17.15 50.1069 17.02 50.7202 17.02H52.1702L52.1802 18.03H51.2902C50.9636 18.03 50.7269 18.0767 50.5802 18.17C50.4336 18.2567 50.3602 18.3833 50.3602 18.55C50.3602 18.67 50.4136 18.7667 50.5202 18.84C50.6269 18.9067 50.7769 18.94 50.9702 18.94C51.1569 18.94 51.3202 18.8967 51.4602 18.81C51.6002 18.7233 51.7102 18.61 51.7902 18.47C51.8702 18.33 51.9102 18.1767 51.9102 18.01L52.3602 17.91C52.3602 18.61 52.2169 19.1533 51.9302 19.54C51.6436 19.9267 51.2136 20.12 50.6402 20.12ZM56.9297 20.12C56.3964 20.12 55.9197 20.01 55.4997 19.79C55.0864 19.5633 54.763 19.2533 54.5297 18.86C54.2964 18.46 54.1797 18.0067 54.1797 17.5C54.1797 16.9867 54.2964 16.5333 54.5297 16.14C54.763 15.7467 55.083 15.44 55.4897 15.22C55.903 14.9933 56.3764 14.88 56.9097 14.88C57.423 14.88 57.893 15.01 58.3197 15.27C58.7464 15.53 59.053 15.9067 59.2397 16.4L57.7597 16.9C57.6864 16.74 57.563 16.61 57.3897 16.51C57.223 16.4033 57.0364 16.35 56.8297 16.35C56.623 16.35 56.4397 16.4 56.2797 16.5C56.1264 16.5933 56.003 16.7267 55.9097 16.9C55.823 17.0733 55.7797 17.2733 55.7797 17.5C55.7797 17.7267 55.823 17.9267 55.9097 18.1C56.003 18.2667 56.1297 18.4 56.2897 18.5C56.4564 18.6 56.643 18.65 56.8497 18.65C57.0564 18.65 57.243 18.5967 57.4097 18.49C57.5764 18.3833 57.6997 18.2433 57.7797 18.07L59.2597 18.57C59.0664 19.07 58.7564 19.4533 58.3297 19.72C57.9097 19.9867 57.443 20.12 56.9297 20.12ZM61.3982 18.89L60.4782 17.81L62.9882 15H64.8182L61.3982 18.89ZM59.9182 20V13H61.4782V20H59.9182ZM63.1382 20L61.5882 17.79L62.6082 16.72L64.9482 20H63.1382ZM70.4472 20.12C70.1072 20.12 69.7805 20.0767 69.4672 19.99C69.1605 19.8967 68.8805 19.7733 68.6272 19.62C68.3805 19.46 68.1772 19.2833 68.0172 19.09C67.8572 18.89 67.7572 18.6767 67.7172 18.45L69.3072 18C69.3805 18.1933 69.5072 18.3633 69.6872 18.51C69.8739 18.65 70.1072 18.7233 70.3872 18.73C70.6605 18.7367 70.8872 18.6733 71.0672 18.54C71.2539 18.4067 71.3472 18.2333 71.3472 18.02C71.3472 17.8533 71.2805 17.7067 71.1472 17.58C71.0205 17.4533 70.8372 17.3567 70.5972 17.29L69.6072 17.04C69.2605 16.9533 68.9572 16.8167 68.6972 16.63C68.4439 16.4433 68.2439 16.2167 68.0972 15.95C67.9572 15.6767 67.8872 15.3667 67.8872 15.02C67.8872 14.3467 68.1105 13.8233 68.5572 13.45C69.0039 13.07 69.6339 12.88 70.4472 12.88C70.8939 12.88 71.2839 12.9433 71.6172 13.07C71.9505 13.19 72.2339 13.37 72.4672 13.61C72.7072 13.85 72.8972 14.15 73.0372 14.51L71.4572 14.98C71.4039 14.8 71.2872 14.6367 71.1072 14.49C70.9339 14.3433 70.7072 14.27 70.4272 14.27C70.1472 14.27 69.9272 14.3333 69.7672 14.46C69.6139 14.5867 69.5372 14.77 69.5372 15.01C69.5372 15.1767 69.6005 15.3167 69.7272 15.43C69.8539 15.5367 70.0272 15.6167 70.2472 15.67L71.2372 15.92C71.8039 16.06 72.2439 16.3233 72.5572 16.71C72.8772 17.09 73.0372 17.5233 73.0372 18.01C73.0372 18.45 72.9339 18.8267 72.7272 19.14C72.5272 19.4533 72.2339 19.6967 71.8472 19.87C71.4605 20.0367 70.9939 20.12 70.4472 20.12ZM76.3426 20.12C75.8226 20.12 75.3626 20.01 74.9626 19.79C74.5626 19.57 74.2492 19.2633 74.0226 18.87C73.7959 18.4767 73.6826 18.02 73.6826 17.5C73.6826 16.98 73.7959 16.5233 74.0226 16.13C74.2492 15.7367 74.5626 15.43 74.9626 15.21C75.3692 14.99 75.8326 14.88 76.3526 14.88C76.8326 14.88 77.2626 14.9933 77.6426 15.22C78.0226 15.4467 78.3226 15.7867 78.5426 16.24C78.7692 16.6867 78.8826 17.24 78.8826 17.9H77.3226C77.3292 17.5067 77.2959 17.1767 77.2226 16.91C77.1559 16.6367 77.0459 16.4333 76.8926 16.3C76.7392 16.16 76.5392 16.09 76.2926 16.09C76.0726 16.09 75.8859 16.1467 75.7326 16.26C75.5859 16.3733 75.4759 16.54 75.4026 16.76C75.3359 16.9733 75.3026 17.2433 75.3026 17.57C75.3026 17.8633 75.3526 18.1033 75.4526 18.29C75.5526 18.47 75.6826 18.6033 75.8426 18.69C76.0092 18.7767 76.1892 18.82 76.3826 18.82C76.6226 18.82 76.8226 18.7667 76.9826 18.66C77.1492 18.5533 77.2626 18.4167 77.3226 18.25L78.7426 18.73C78.6092 19.05 78.4192 19.3133 78.1726 19.52C77.9326 19.7267 77.6526 19.88 77.3326 19.98C77.0192 20.0733 76.6892 20.12 76.3426 20.12ZM74.6826 17.9L74.6926 16.84H78.1426V17.9H74.6826ZM81.4662 20.12C81.1395 20.12 80.8328 20.0733 80.5462 19.98C80.2662 19.8867 80.0195 19.7533 79.8062 19.58C79.5995 19.4 79.4462 19.1833 79.3462 18.93L80.6362 18.39C80.7228 18.5567 80.8428 18.68 80.9962 18.76C81.1495 18.84 81.3062 18.88 81.4662 18.88C81.6262 18.88 81.7528 18.8533 81.8462 18.8C81.9395 18.7467 81.9862 18.67 81.9862 18.57C81.9862 18.4633 81.9362 18.38 81.8362 18.32C81.7428 18.26 81.6095 18.2067 81.4362 18.16L80.9962 18.06C80.5295 17.94 80.1695 17.74 79.9162 17.46C79.6695 17.18 79.5462 16.8567 79.5462 16.49C79.5462 15.9767 79.7228 15.58 80.0762 15.3C80.4295 15.02 80.9195 14.88 81.5462 14.88C81.9062 14.88 82.2195 14.93 82.4862 15.03C82.7595 15.1233 82.9862 15.2567 83.1662 15.43C83.3528 15.5967 83.4862 15.79 83.5662 16.01L82.3262 16.53C82.2795 16.3967 82.1828 16.2967 82.0362 16.23C81.8895 16.1567 81.7328 16.12 81.5662 16.12C81.4262 16.12 81.3162 16.1533 81.2362 16.22C81.1562 16.28 81.1162 16.36 81.1162 16.46C81.1162 16.54 81.1628 16.61 81.2562 16.67C81.3495 16.7233 81.4895 16.7733 81.6762 16.82L82.2062 16.95C82.5195 17.03 82.7828 17.1533 82.9962 17.32C83.2095 17.48 83.3695 17.67 83.4762 17.89C83.5895 18.1033 83.6462 18.3333 83.6462 18.58C83.6462 18.9 83.5528 19.1767 83.3662 19.41C83.1795 19.6367 82.9228 19.8133 82.5962 19.94C82.2762 20.06 81.8995 20.12 81.4662 20.12ZM86.2123 20.12C85.8856 20.12 85.5789 20.0733 85.2923 19.98C85.0123 19.8867 84.7656 19.7533 84.5523 19.58C84.3456 19.4 84.1923 19.1833 84.0923 18.93L85.3823 18.39C85.4689 18.5567 85.5889 18.68 85.7423 18.76C85.8956 18.84 86.0523 18.88 86.2123 18.88C86.3723 18.88 86.4989 18.8533 86.5923 18.8C86.6856 18.7467 86.7323 18.67 86.7323 18.57C86.7323 18.4633 86.6823 18.38 86.5823 18.32C86.4889 18.26 86.3556 18.2067 86.1823 18.16L85.7423 18.06C85.2756 17.94 84.9156 17.74 84.6623 17.46C84.4156 17.18 84.2923 16.8567 84.2923 16.49C84.2923 15.9767 84.4689 15.58 84.8223 15.3C85.1756 15.02 85.6656 14.88 86.2923 14.88C86.6523 14.88 86.9656 14.93 87.2323 15.03C87.5056 15.1233 87.7323 15.2567 87.9123 15.43C88.0989 15.5967 88.2323 15.79 88.3123 16.01L87.0723 16.53C87.0256 16.3967 86.9289 16.2967 86.7823 16.23C86.6356 16.1567 86.4789 16.12 86.3123 16.12C86.1723 16.12 86.0623 16.1533 85.9823 16.22C85.9023 16.28 85.8623 16.36 85.8623 16.46C85.8623 16.54 85.9089 16.61 86.0023 16.67C86.0956 16.7233 86.2356 16.7733 86.4223 16.82L86.9523 16.95C87.2656 17.03 87.5289 17.1533 87.7423 17.32C87.9556 17.48 88.1156 17.67 88.2223 17.89C88.3356 18.1033 88.3923 18.3333 88.3923 18.58C88.3923 18.9 88.2989 19.1767 88.1123 19.41C87.9256 19.6367 87.6689 19.8133 87.3423 19.94C87.0223 20.06 86.6456 20.12 86.2123 20.12ZM89.1879 20V15H90.7479V20H89.1879ZM89.9679 14.36C89.7346 14.36 89.5279 14.2733 89.3479 14.1C89.1746 13.92 89.0879 13.7133 89.0879 13.48C89.0879 13.2333 89.1746 13.0267 89.3479 12.86C89.5279 12.6867 89.7346 12.6 89.9679 12.6C90.2079 12.6 90.4146 12.6867 90.5879 12.86C90.7612 13.0267 90.8479 13.2333 90.8479 13.48C90.8479 13.7133 90.7612 13.92 90.5879 14.1C90.4146 14.2733 90.2079 14.36 89.9679 14.36ZM94.3316 20.12C93.8049 20.12 93.3382 20.01 92.9316 19.79C92.5316 19.5633 92.2149 19.2533 91.9816 18.86C91.7549 18.4667 91.6416 18.0133 91.6416 17.5C91.6416 16.9867 91.7549 16.5333 91.9816 16.14C92.2082 15.7467 92.5216 15.44 92.9216 15.22C93.3282 14.9933 93.7882 14.88 94.3016 14.88C94.8282 14.88 95.2916 14.9933 95.6916 15.22C96.0982 15.44 96.4149 15.7467 96.6416 16.14C96.8682 16.5333 96.9816 16.9867 96.9816 17.5C96.9816 18.0133 96.8682 18.4667 96.6416 18.86C96.4149 19.2533 96.1016 19.5633 95.7016 19.79C95.3082 20.01 94.8516 20.12 94.3316 20.12ZM94.3216 18.64C94.5282 18.64 94.7049 18.5933 94.8516 18.5C95.0049 18.4 95.1249 18.2667 95.2116 18.1C95.2982 17.9267 95.3416 17.7267 95.3416 17.5C95.3416 17.2733 95.2949 17.0767 95.2016 16.91C95.1149 16.7367 94.9949 16.6033 94.8416 16.51C94.6882 16.41 94.5116 16.36 94.3116 16.36C94.1116 16.36 93.9349 16.41 93.7816 16.51C93.6282 16.6033 93.5082 16.7367 93.4216 16.91C93.3349 17.0767 93.2916 17.2733 93.2916 17.5C93.2916 17.72 93.3349 17.9167 93.4216 18.09C93.5082 18.2633 93.6282 18.4 93.7816 18.5C93.9416 18.5933 94.1216 18.64 94.3216 18.64ZM97.7795 20V15H99.2495L99.3395 15.92V20H97.7795ZM101 20V17.44L102.56 17.14V20H101ZM101 17.44C101 17.1733 100.97 16.9633 100.91 16.81C100.85 16.65 100.763 16.5333 100.65 16.46C100.543 16.3867 100.41 16.3467 100.25 16.34C99.9495 16.3333 99.7229 16.4167 99.5695 16.59C99.4162 16.7567 99.3395 17.0133 99.3395 17.36H98.8695C98.8695 16.8333 98.9495 16.3867 99.1095 16.02C99.2695 15.6467 99.4862 15.3633 99.7595 15.17C100.04 14.9767 100.363 14.88 100.73 14.88C101.336 14.88 101.793 15.0633 102.1 15.43C102.406 15.7967 102.56 16.3667 102.56 17.14L101 17.44Z" fill="black"/>
<path d="M108.85 10V3.86L109.01 3H110.38V10H108.85ZM107.41 5.4V3.94C107.59 3.95333 107.773 3.91333 107.96 3.82C108.153 3.72667 108.34 3.60333 108.52 3.45C108.707 3.29 108.87 3.13333 109.01 2.98L110.03 3.97C109.783 4.25 109.52 4.50667 109.24 4.74C108.96 4.96667 108.67 5.14333 108.37 5.27C108.07 5.39 107.75 5.43333 107.41 5.4Z" fill="#64A69A" fill-opacity="0.25"/>
<path d="M108.05 19.8L106.48 18.84C106.48 18.66 106.547 18.4533 106.68 18.22C106.813 17.98 106.997 17.7367 107.23 17.49C107.47 17.2433 107.74 17.0167 108.04 16.81L108.92 16.21C109.053 16.1233 109.187 16.0233 109.32 15.91C109.453 15.79 109.563 15.6633 109.65 15.53C109.737 15.39 109.78 15.25 109.78 15.11C109.78 14.9633 109.743 14.8333 109.67 14.72C109.603 14.6 109.5 14.51 109.36 14.45C109.227 14.3833 109.05 14.35 108.83 14.35C108.663 14.35 108.513 14.3867 108.38 14.46C108.253 14.5267 108.147 14.62 108.06 14.74C107.98 14.8533 107.92 14.98 107.88 15.12L106.22 14.84C106.287 14.4933 106.43 14.17 106.65 13.87C106.877 13.57 107.173 13.33 107.54 13.15C107.913 12.9633 108.34 12.87 108.82 12.87C109.367 12.87 109.833 12.9667 110.22 13.16C110.607 13.3467 110.903 13.6067 111.11 13.94C111.323 14.2733 111.43 14.66 111.43 15.1C111.43 15.5667 111.3 15.97 111.04 16.31C110.787 16.65 110.45 16.9633 110.03 17.25L109.26 17.78C109.073 17.9067 108.883 18.06 108.69 18.24C108.503 18.42 108.35 18.6367 108.23 18.89C108.11 19.1433 108.05 19.4467 108.05 19.8ZM106.48 20V18.84L107.67 18.59H111.51V20H106.48Z" fill="#64A69A"/>
<path d="M108.86 30.12C108.42 30.12 108.017 30.0533 107.65 29.92C107.29 29.7867 106.99 29.5933 106.75 29.34C106.517 29.08 106.363 28.7633 106.29 28.39L107.81 28.02C107.85 28.1 107.9 28.1967 107.96 28.31C108.027 28.4233 108.123 28.5233 108.25 28.61C108.377 28.69 108.547 28.73 108.76 28.73C109.04 28.73 109.26 28.6567 109.42 28.51C109.58 28.3567 109.66 28.1567 109.66 27.91C109.66 27.7633 109.623 27.6267 109.55 27.5C109.483 27.3667 109.357 27.2633 109.17 27.19C108.99 27.11 108.733 27.07 108.4 27.07H107.88V26.03H108.34C108.733 26.03 109.103 26.08 109.45 26.18C109.803 26.2733 110.117 26.4133 110.39 26.6C110.663 26.7867 110.877 27.0067 111.03 27.26C111.19 27.5133 111.27 27.8 111.27 28.12C111.27 28.5467 111.157 28.91 110.93 29.21C110.703 29.51 110.407 29.7367 110.04 29.89C109.673 30.0433 109.28 30.12 108.86 30.12ZM107.88 26.74V25.77H108.4C108.82 25.77 109.117 25.7 109.29 25.56C109.463 25.42 109.55 25.23 109.55 24.99C109.55 24.85 109.517 24.7267 109.45 24.62C109.383 24.5133 109.29 24.43 109.17 24.37C109.05 24.3033 108.913 24.27 108.76 24.27C108.647 24.27 108.53 24.29 108.41 24.33C108.29 24.37 108.18 24.44 108.08 24.54C107.98 24.64 107.903 24.7833 107.85 24.97L106.35 24.61C106.423 24.23 106.583 23.9133 106.83 23.66C107.083 23.4 107.383 23.2067 107.73 23.08C108.077 22.9467 108.433 22.88 108.8 22.88C109.24 22.88 109.637 22.9633 109.99 23.13C110.35 23.29 110.633 23.5167 110.84 23.81C111.053 24.0967 111.16 24.4333 111.16 24.82C111.16 25.1533 111.077 25.44 110.91 25.68C110.75 25.92 110.533 26.12 110.26 26.28C109.993 26.4333 109.693 26.55 109.36 26.63C109.027 26.7033 108.687 26.74 108.34 26.74H107.88Z" fill="#64A69A" fill-opacity="0.25"/>
<path d="M107.33 38.08L106.18 37.48L109.24 33L110.18 33.9L107.33 38.08ZM106.18 38.77V37.48L107.05 37.4H112.09V38.77H106.18ZM109.45 40V33.85L109.25 33H110.97V40H109.45Z" fill="#64A69A" fill-opacity="0.25"/>
<path d="M108.95 50.12C108.603 50.12 108.253 50.06 107.9 49.94C107.547 49.82 107.23 49.6467 106.95 49.42C106.677 49.1933 106.483 48.9133 106.37 48.58L107.89 48.22C107.99 48.3933 108.123 48.5233 108.29 48.61C108.463 48.69 108.647 48.73 108.84 48.73C109.133 48.73 109.37 48.6433 109.55 48.47C109.737 48.29 109.83 48.05 109.83 47.75C109.83 47.4767 109.74 47.2467 109.56 47.06C109.387 46.8667 109.147 46.77 108.84 46.77C108.653 46.77 108.487 46.8133 108.34 46.9C108.2 46.9867 108.097 47.09 108.03 47.21L106.58 46.89L107.04 43H111.1V44.46H107.3L107.04 43.05H108.63L108.01 47.07L107.24 46.89C107.293 46.7767 107.38 46.6467 107.5 46.5C107.62 46.3467 107.773 46.2 107.96 46.06C108.153 45.9133 108.377 45.7933 108.63 45.7C108.89 45.6067 109.183 45.5633 109.51 45.57C109.87 45.5767 110.2 45.67 110.5 45.85C110.807 46.03 111.05 46.2767 111.23 46.59C111.41 46.8967 111.5 47.2533 111.5 47.66C111.5 48.1467 111.39 48.5767 111.17 48.95C110.95 49.3167 110.65 49.6033 110.27 49.81C109.89 50.0167 109.45 50.12 108.95 50.12Z" fill="#64A69A" fill-opacity="0.25"/>
<path d="M109.96 58H106.5C106.4 57.6067 106.34 57.3433 106.34 56.89C106.34 56.3833 106.39 55.89 106.49 55.41C106.597 54.93 106.763 54.5 106.99 54.12C107.223 53.74 107.527 53.44 107.9 53.22C108.28 52.9933 108.74 52.88 109.28 52.88C109.66 52.88 110.027 52.9333 110.38 53.04C110.733 53.1467 111.053 53.3 111.34 53.5L110.56 54.68C110.353 54.54 110.133 54.44 109.9 54.38C109.667 54.3133 109.46 54.28 109.28 54.28C108.84 54.28 108.487 54.4833 108.22 54.89C107.953 55.29 107.823 55.9333 107.83 56.82L107.51 56.63C107.663 56.2833 107.893 56.0033 108.2 55.79C108.507 55.5767 108.87 55.47 109.29 55.47C109.737 55.47 110.13 55.5767 110.47 55.79C110.81 56.0033 111.077 56.29 111.27 56.65C111.463 57.01 111.56 57.4133 111.56 57.86L111.556 58H109.96ZM109.96 58V57.78C109.96 57.5867 109.917 57.4133 109.83 57.26C109.75 57.1067 109.637 56.9867 109.49 56.9C109.343 56.8067 109.18 56.76 109 56.76C108.813 56.76 108.643 56.8067 108.49 56.9C108.343 56.9867 108.227 57.1067 108.14 57.26C108.053 57.4133 108.01 57.5867 108.01 57.78C108.01 57.9667 108.01 58 108.01 58H109.96Z" fill="#64A69A" fill-opacity="0.25"/>
</g>
<g filter="url(#filter2_d_157_376)">
<rect y="37" width="94" height="42" rx="12" fill="white"/>
<path d="M29.2 56V54.58H31.28C31.5533 54.58 31.77 54.51 31.93 54.37C32.09 54.2233 32.17 54.0367 32.17 53.81C32.17 53.57 32.0867 53.38 31.92 53.24C31.7533 53.1 31.5233 53.0333 31.23 53.04H29.2V51.82L30.41 51.86C31.0833 51.86 31.6767 51.93 32.19 52.07C32.71 52.2033 33.1133 52.4233 33.4 52.73C33.6867 53.03 33.83 53.44 33.83 53.96C33.83 54.4 33.73 54.7733 33.53 55.08C33.33 55.38 33.0533 55.61 32.7 55.77C32.3467 55.9233 31.9333 56 31.46 56H29.2ZM28.68 56V49H30.25V56H28.68ZM29.14 53.14V51.75H31.08C31.3333 51.75 31.5367 51.6867 31.69 51.56C31.8433 51.4267 31.92 51.2433 31.92 51.01C31.92 50.77 31.8367 50.5833 31.67 50.45C31.51 50.3167 31.2933 50.2533 31.02 50.26H29.14V49.02L31.13 48.99C31.61 48.99 32.0333 49.0667 32.4 49.22C32.7667 49.3667 33.0533 49.59 33.26 49.89C33.4667 50.19 33.57 50.57 33.57 51.03C33.57 51.3833 33.4367 51.71 33.17 52.01C32.91 52.3033 32.5467 52.5433 32.08 52.73C31.6133 52.91 31.0733 53 30.46 53L29.14 53.14ZM37.8828 56L37.7928 55.08V51H39.3528V56H37.8828ZM34.5728 53.86V51H36.1328V53.56L34.5728 53.86ZM36.1328 53.56C36.1328 53.82 36.1628 54.03 36.2228 54.19C36.2828 54.35 36.3695 54.4667 36.4828 54.54C36.5961 54.6133 36.7295 54.6533 36.8828 54.66C37.1828 54.66 37.4095 54.5767 37.5628 54.41C37.7161 54.2367 37.7928 53.98 37.7928 53.64H38.2628C38.2628 54.1667 38.1828 54.6167 38.0228 54.99C37.8628 55.3567 37.6428 55.6367 37.3628 55.83C37.0895 56.0233 36.7728 56.12 36.4128 56.12C35.8061 56.12 35.3461 55.9367 35.0328 55.57C34.7261 55.1967 34.5728 54.6267 34.5728 53.86L36.1328 53.56ZM40.4652 56V51H42.0252V56H40.4652ZM41.2452 50.36C41.0119 50.36 40.8052 50.2733 40.6252 50.1C40.4519 49.92 40.3652 49.7133 40.3652 49.48C40.3652 49.2333 40.4519 49.0267 40.6252 48.86C40.8052 48.6867 41.0119 48.6 41.2452 48.6C41.4852 48.6 41.6919 48.6867 41.8652 48.86C42.0386 49.0267 42.1252 49.2333 42.1252 49.48C42.1252 49.7133 42.0386 49.92 41.8652 50.1C41.6919 50.2733 41.4852 50.36 41.2452 50.36ZM43.1389 56V49H44.6989V56H43.1389ZM49.207 56L49.137 55.07V49H50.697V56H49.207ZM47.717 56.12C47.2504 56.12 46.847 56.0167 46.507 55.81C46.1737 55.5967 45.9137 55.2933 45.727 54.9C45.547 54.5067 45.457 54.04 45.457 53.5C45.457 52.9533 45.547 52.4867 45.727 52.1C45.9137 51.7067 46.1737 51.4067 46.507 51.2C46.847 50.9867 47.2504 50.88 47.717 50.88C48.1304 50.88 48.477 50.9867 48.757 51.2C49.0437 51.4067 49.257 51.7067 49.397 52.1C49.537 52.4867 49.607 52.9533 49.607 53.5C49.607 54.04 49.537 54.5067 49.397 54.9C49.257 55.2933 49.0437 55.5967 48.757 55.81C48.477 56.0167 48.1304 56.12 47.717 56.12ZM48.127 54.68C48.3204 54.68 48.4937 54.63 48.647 54.53C48.8004 54.43 48.9204 54.2933 49.007 54.12C49.0937 53.94 49.137 53.7333 49.137 53.5C49.137 53.2667 49.0937 53.0633 49.007 52.89C48.9204 52.71 48.8004 52.57 48.647 52.47C48.4937 52.37 48.317 52.32 48.117 52.32C47.917 52.32 47.7404 52.37 47.587 52.47C47.4337 52.57 47.3104 52.71 47.217 52.89C47.1304 53.0633 47.0837 53.2667 47.077 53.5C47.0837 53.7333 47.1304 53.94 47.217 54.12C47.3104 54.2933 47.4337 54.43 47.587 54.53C47.747 54.63 47.927 54.68 48.127 54.68ZM51.8031 56V51H53.3631V56H51.8031ZM52.5831 50.36C52.3498 50.36 52.1431 50.2733 51.9631 50.1C51.7898 49.92 51.7031 49.7133 51.7031 49.48C51.7031 49.2333 51.7898 49.0267 51.9631 48.86C52.1431 48.6867 52.3498 48.6 52.5831 48.6C52.8231 48.6 53.0298 48.6867 53.2031 48.86C53.3765 49.0267 53.4631 49.2333 53.4631 49.48C53.4631 49.7133 53.3765 49.92 53.2031 50.1C53.0298 50.2733 52.8231 50.36 52.5831 50.36ZM54.4768 56V51H55.9468L56.0368 51.92V56H54.4768ZM57.6968 56V53.44L59.2568 53.14V56H57.6968ZM57.6968 53.44C57.6968 53.1733 57.6668 52.9633 57.6068 52.81C57.5468 52.65 57.4601 52.5333 57.3468 52.46C57.2401 52.3867 57.1068 52.3467 56.9468 52.34C56.6468 52.3333 56.4201 52.4167 56.2668 52.59C56.1135 52.7567 56.0368 53.0133 56.0368 53.36H55.5668C55.5668 52.8333 55.6468 52.3867 55.8068 52.02C55.9668 51.6467 56.1835 51.3633 56.4568 51.17C56.7368 50.9767 57.0601 50.88 57.4268 50.88C58.0335 50.88 58.4901 51.0633 58.7968 51.43C59.1035 51.7967 59.2568 52.3667 59.2568 53.14L57.6968 53.44ZM62.5692 58.14C62.1626 58.14 61.8059 58.1133 61.4992 58.06C61.1992 58.0067 60.9426 57.9367 60.7292 57.85C60.5159 57.7633 60.3392 57.6667 60.1992 57.56L60.8092 56.32C60.9159 56.3667 61.0426 56.4233 61.1892 56.49C61.3359 56.5633 61.5159 56.6267 61.7292 56.68C61.9426 56.7333 62.1992 56.76 62.4992 56.76C62.7326 56.76 62.9392 56.7133 63.1192 56.62C63.3059 56.5333 63.4492 56.3933 63.5492 56.2C63.6559 56.0133 63.7092 55.7767 63.7092 55.49V51H65.2692V55.43C65.2692 55.99 65.1626 56.4733 64.9492 56.88C64.7359 57.2867 64.4292 57.5967 64.0292 57.81C63.6292 58.03 63.1426 58.14 62.5692 58.14ZM62.2092 55.81C61.7426 55.81 61.3392 55.7167 60.9992 55.53C60.6659 55.3367 60.4059 55.0633 60.2192 54.71C60.0392 54.3567 59.9492 53.9367 59.9492 53.45C59.9492 52.9167 60.0392 52.46 60.2192 52.08C60.4059 51.7 60.6659 51.4067 60.9992 51.2C61.3392 50.9867 61.7426 50.88 62.2092 50.88C62.5959 50.88 62.9292 50.9867 63.2092 51.2C63.4959 51.4067 63.7159 51.7033 63.8692 52.09C64.0226 52.4767 64.0992 52.94 64.0992 53.48C64.0992 53.96 64.0226 54.3733 63.8692 54.72C63.7159 55.0667 63.4959 55.3367 63.2092 55.53C62.9292 55.7167 62.5959 55.81 62.2092 55.81ZM62.6692 54.51C62.8692 54.51 63.0392 54.4633 63.1792 54.37C63.3259 54.27 63.4359 54.1367 63.5092 53.97C63.5892 53.8033 63.6292 53.6133 63.6292 53.4C63.6292 53.1733 63.5892 52.9767 63.5092 52.81C63.4292 52.6433 63.3159 52.5133 63.1692 52.42C63.0292 52.3267 62.8592 52.28 62.6592 52.28C62.4659 52.28 62.2926 52.3267 62.1392 52.42C61.9926 52.5133 61.8759 52.6433 61.7892 52.81C61.7092 52.9767 61.6659 53.1733 61.6592 53.4C61.6659 53.6133 61.7092 53.8033 61.7892 53.97C61.8759 54.1367 61.9959 54.27 62.1492 54.37C62.3026 54.4633 62.4759 54.51 62.6692 54.51ZM71.5388 56L71.4988 53.51C71.4988 53.2433 71.4755 53.0133 71.4288 52.82C71.3822 52.62 71.2955 52.4667 71.1688 52.36C71.0422 52.2467 70.8555 52.19 70.6088 52.19C70.4355 52.19 70.2855 52.23 70.1588 52.31C70.0322 52.3833 69.9122 52.5033 69.7988 52.67L68.4088 52.22C68.5355 51.9733 68.6955 51.75 68.8888 51.55C69.0888 51.3433 69.3322 51.18 69.6188 51.06C69.9122 50.94 70.2555 50.88 70.6488 50.88C71.1622 50.88 71.5988 50.9733 71.9588 51.16C72.3188 51.3467 72.5888 51.6167 72.7688 51.97C72.9555 52.3167 73.0488 52.73 73.0488 53.21V56H71.5388ZM70.1988 56.12C69.6122 56.12 69.1555 55.99 68.8288 55.73C68.5022 55.4633 68.3388 55.0833 68.3388 54.59C68.3388 54.0633 68.5088 53.67 68.8488 53.41C69.1888 53.15 69.6655 53.02 70.2788 53.02H71.7288L71.7388 54.03H70.8488C70.5222 54.03 70.2855 54.0767 70.1388 54.17C69.9922 54.2567 69.9188 54.3833 69.9188 54.55C69.9188 54.67 69.9722 54.7667 70.0788 54.84C70.1855 54.9067 70.3355 54.94 70.5288 54.94C70.7155 54.94 70.8788 54.8967 71.0188 54.81C71.1588 54.7233 71.2688 54.61 71.3488 54.47C71.4288 54.33 71.4688 54.1767 71.4688 54.01L71.9188 53.91C71.9188 54.61 71.7755 55.1533 71.4888 55.54C71.2022 55.9267 70.7722 56.12 70.1988 56.12ZM30.08 65.65V64.17H31.38C31.5667 64.17 31.7333 64.1333 31.88 64.06C32.0267 63.9867 32.14 63.8867 32.22 63.76C32.3067 63.6267 32.35 63.48 32.35 63.32C32.35 63.0733 32.2567 62.87 32.07 62.71C31.89 62.55 31.65 62.47 31.35 62.47H30.08V61L31.43 60.99C31.9367 60.9833 32.3867 61.08 32.78 61.28C33.1733 61.48 33.48 61.7567 33.7 62.11C33.9267 62.4633 34.04 62.8667 34.04 63.32C34.04 63.7733 33.9267 64.1767 33.7 64.53C33.4733 64.8833 33.16 65.16 32.76 65.36C32.3667 65.5533 31.9133 65.65 31.4 65.65H30.08ZM28.68 68V61H30.29V68H28.68ZM32.48 68L30.9 65.22L32.11 64.33L34.32 68H32.48ZM35.223 68V61H36.833V68H35.223ZM36.393 68V66.52H39.833V68H36.393ZM36.393 65.19V63.76H39.303V65.19H36.393ZM36.393 62.48V61H39.783V62.48H36.393ZM43.4921 68.12C43.1521 68.12 42.8254 68.0767 42.5121 67.99C42.2054 67.8967 41.9254 67.7733 41.6721 67.62C41.4254 67.46 41.2221 67.2833 41.0621 67.09C40.9021 66.89 40.8021 66.6767 40.7621 66.45L42.3521 66C42.4254 66.1933 42.5521 66.3633 42.7321 66.51C42.9188 66.65 43.1521 66.7233 43.4321 66.73C43.7054 66.7367 43.9321 66.6733 44.1121 66.54C44.2988 66.4067 44.3921 66.2333 44.3921 66.02C44.3921 65.8533 44.3254 65.7067 44.1921 65.58C44.0654 65.4533 43.8821 65.3567 43.6421 65.29L42.6521 65.04C42.3054 64.9533 42.0021 64.8167 41.7421 64.63C41.4888 64.4433 41.2888 64.2167 41.1421 63.95C41.0021 63.6767 40.9321 63.3667 40.9321 63.02C40.9321 62.3467 41.1554 61.8233 41.6021 61.45C42.0488 61.07 42.6788 60.88 43.4921 60.88C43.9388 60.88 44.3288 60.9433 44.6621 61.07C44.9954 61.19 45.2788 61.37 45.5121 61.61C45.7521 61.85 45.9421 62.15 46.0821 62.51L44.5021 62.98C44.4488 62.8 44.3321 62.6367 44.1521 62.49C43.9788 62.3433 43.7521 62.27 43.4721 62.27C43.1921 62.27 42.9721 62.3333 42.8121 62.46C42.6588 62.5867 42.5821 62.77 42.5821 63.01C42.5821 63.1767 42.6454 63.3167 42.7721 63.43C42.8988 63.5367 43.0721 63.6167 43.2921 63.67L44.2821 63.92C44.8488 64.06 45.2888 64.3233 45.6021 64.71C45.9221 65.09 46.0821 65.5233 46.0821 66.01C46.0821 66.45 45.9788 66.8267 45.7721 67.14C45.5721 67.4533 45.2788 67.6967 44.8921 67.87C44.5054 68.0367 44.0388 68.12 43.4921 68.12ZM48.6375 68V61.58H50.2375V68H48.6375ZM46.5975 62.48V61H52.2775V62.48H46.5975ZM53.4338 68V62.54C53.4338 61.9933 53.5772 61.5633 53.8638 61.25C54.1505 60.9367 54.5905 60.78 55.1838 60.78C55.4038 60.78 55.6338 60.82 55.8738 60.9C56.1138 60.9733 56.3205 61.06 56.4938 61.16L55.9138 62.26C55.8338 62.2067 55.7538 62.17 55.6738 62.15C55.5938 62.1233 55.5205 62.11 55.4538 62.11C55.2938 62.11 55.1772 62.1667 55.1038 62.28C55.0305 62.3867 54.9938 62.5667 54.9938 62.82V68H53.4338ZM52.6438 64.23V63H56.1238V64.23H52.6438ZM60.2168 68L60.1268 67.08V63H61.6868V68H60.2168ZM56.9068 65.86V63H58.4668V65.56L56.9068 65.86ZM58.4668 65.56C58.4668 65.82 58.4968 66.03 58.5568 66.19C58.6168 66.35 58.7035 66.4667 58.8168 66.54C58.9301 66.6133 59.0635 66.6533 59.2168 66.66C59.5168 66.66 59.7435 66.5767 59.8968 66.41C60.0501 66.2367 60.1268 65.98 60.1268 65.64H60.5968C60.5968 66.1667 60.5168 66.6167 60.3568 66.99C60.1968 67.3567 59.9768 67.6367 59.6968 67.83C59.4235 68.0233 59.1068 68.12 58.7468 68.12C58.1401 68.12 57.6801 67.9367 57.3668 67.57C57.0601 67.1967 56.9068 66.6267 56.9068 65.86L58.4668 65.56ZM62.7092 68V61H64.2692V68H62.7092ZM72.6611 68L70.0411 61H71.6411L74.3611 68H72.6611ZM67.2011 68L69.9211 61H71.5211L68.9011 68H67.2011ZM68.4811 66.67V65.25H73.0911V66.67H68.4811ZM76.5253 65.79V64.31H77.8853C78.172 64.31 78.402 64.2267 78.5753 64.06C78.7486 63.8867 78.8353 63.6633 78.8353 63.39C78.8353 63.21 78.792 63.05 78.7053 62.91C78.6253 62.77 78.5086 62.6633 78.3553 62.59C78.2086 62.51 78.0353 62.47 77.8353 62.47H76.5253V61L77.8753 60.99C78.382 60.9833 78.832 61.0833 79.2253 61.29C79.6186 61.4967 79.9253 61.78 80.1453 62.14C80.372 62.5 80.4853 62.9167 80.4853 63.39C80.4853 63.85 80.3753 64.2633 80.1553 64.63C79.942 64.99 79.642 65.2733 79.2553 65.48C78.8686 65.6867 78.4253 65.79 77.9253 65.79H76.5253ZM75.1253 68V61H76.7353V68H75.1253ZM81.2679 68V61H82.8779V68H81.2679Z" fill="black"/>
<rect x="6" y="43" width="18" height="18" rx="6" fill="#64A69A" fill-opacity="0.1"/>
<g clip-path="url(#clip2_157_376)">
<path d="M17.4133 50.005C17.2282 49.2089 16.7569 48.5085 16.0892 48.0371C15.4215 47.5656 14.6038 47.356 13.7916 47.4479C12.9794 47.5399 12.2294 47.9271 11.6839 48.5359C11.1385 49.1447 10.8358 49.9326 10.8333 50.75C10.833 51.2827 10.9616 51.8075 11.2083 52.2796C10.7588 52.5205 10.4027 52.9047 10.1965 53.3712C9.99034 53.8377 9.94599 54.3596 10.0705 54.8542C10.195 55.3488 10.4812 55.7876 10.8836 56.1009C11.2861 56.4142 11.7817 56.584 12.2917 56.5833H16.6667C17.4829 56.5795 18.2695 56.2764 18.8771 55.7313C19.4847 55.1862 19.8712 54.4371 19.9633 53.626C20.0553 52.8149 19.8466 51.9982 19.3766 51.3308C18.9066 50.6634 18.208 50.1916 17.4133 50.005V50.005ZM16.6667 55.75H12.2917C11.9368 55.7511 11.5939 55.6224 11.3273 55.3882C11.0607 55.154 10.8889 54.8305 10.8443 54.4785C10.7996 54.1265 10.8852 53.7703 11.0848 53.477C11.2845 53.1836 11.5845 52.9734 11.9283 52.8858C11.9945 52.8688 12.0554 52.8358 12.1058 52.7897C12.1561 52.7436 12.1944 52.6858 12.2172 52.6214C12.24 52.5571 12.2466 52.4881 12.2365 52.4206C12.2264 52.353 12.1998 52.289 12.1592 52.2342C11.8388 51.8057 11.666 51.285 11.6667 50.75C11.6714 50.1192 11.9145 49.5134 12.3471 49.0543C12.7798 48.5952 13.37 48.3166 13.9995 48.2744C14.6289 48.2323 15.251 48.4296 15.7411 48.8269C16.2311 49.2242 16.5528 49.7921 16.6417 50.4167C16.6537 50.5074 16.6952 50.5916 16.7598 50.6563C16.8244 50.7211 16.9085 50.7628 16.9992 50.775C17.6237 50.8639 18.1915 51.1855 18.5888 51.6754C18.9861 52.1654 19.1835 52.7874 19.1415 53.4168C19.0994 54.0462 18.821 54.6364 18.362 55.0691C17.903 55.5018 17.2974 55.7451 16.6667 55.75V55.75Z" fill="#64A69A"/>
</g>
</g>
</g>
<defs>
<filter id="filter0_d_157_376" x="112" y="33" width="96" height="70" filterUnits="userSpaceOnUse" color-interpolation-filters="sRGB">
<feFlood flood-opacity="0" result="BackgroundImageFix"/>
<feColorMatrix in="SourceAlpha" type="matrix" values="0 0 0 0 0 0 0 0 0 0 0 0 0 0 0 0 0 0 127 0" result="hardAlpha"/>
<feOffset dx="5" dy="-5"/>
<feGaussianBlur stdDeviation="2.5"/>
<feComposite in2="hardAlpha" operator="out"/>
<feColorMatrix type="matrix" values="0 0 0 0 0 0 0 0 0 0 0 0 0 0 0 0 0 0 0.05 0"/>
<feBlend mode="normal" in2="BackgroundImageFix" result="effect1_dropShadow_157_376"/>
<feBlend mode="normal" in="SourceGraphic" in2="effect1_dropShadow_157_376" result="shape"/>
</filter>
<filter id="filter1_d_157_376" x="31" y="0" width="109" height="68" filterUnits="userSpaceOnUse" color-interpolation-filters="sRGB">
<feFlood flood-opacity="0" result="BackgroundImageFix"/>
<feColorMatrix in="SourceAlpha" type="matrix" values="0 0 0 0 0 0 0 0 0 0 0 0 0 0 0 0 0 0 127 0" result="hardAlpha"/>
<feOffset dx="5" dy="5"/>
<feGaussianBlur stdDeviation="2.5"/>
<feComposite in2="hardAlpha" operator="out"/>
<feColorMatrix type="matrix" values="0 0 0 0 0 0 0 0 0 0 0 0 0 0 0 0 0 0 0.05 0"/>
<feBlend mode="normal" in2="BackgroundImageFix" result="effect1_dropShadow_157_376"/>
<feBlend mode="normal" in="SourceGraphic" in2="effect1_dropShadow_157_376" result="shape"/>
</filter>
<filter id="filter2_d_157_376" x="0" y="27" width="104" height="52" filterUnits="userSpaceOnUse" color-interpolation-filters="sRGB">
<feFlood flood-opacity="0" result="BackgroundImageFix"/>
<feColorMatrix in="SourceAlpha" type="matrix" values="0 0 0 0 0 0 0 0 0 0 0 0 0 0 0 0 0 0 127 0" result="hardAlpha"/>
<feOffset dx="5" dy="-5"/>
<feGaussianBlur stdDeviation="2.5"/>
<feComposite in2="hardAlpha" operator="out"/>
<feColorMatrix type="matrix" values="0 0 0 0 0 0 0 0 0 0 0 0 0 0 0 0 0 0 0.05 0"/>
<feBlend mode="normal" in2="BackgroundImageFix" result="effect1_dropShadow_157_376"/>
<feBlend mode="normal" in="SourceGraphic" in2="effect1_dropShadow_157_376" result="shape"/>
</filter>
<clipPath id="clip0_157_376">
<rect width="198" height="103" fill="white"/>
</clipPath>
<clipPath id="clip1_157_376">
<rect width="15" height="15" fill="white" transform="translate(147 53)"/>
</clipPath>
<clipPath id="clip2_157_376">
<rect width="10" height="10" fill="white" transform="translate(10 47)"/>
</clipPath>
</defs>
</svg>
