<svg width="255" height="140" viewBox="0 0 255 140" fill="none" xmlns="http://www.w3.org/2000/svg">
<g clip-path="url(#clip0_156_278)">
<rect width="141" height="79" rx="12" fill="white"/>
<path d="M13 13L13 64" stroke="#DDE3ED" stroke-linecap="round" stroke-linejoin="round"/>
<path d="M13 18C15.7614 18 18 15.7614 18 13C18 10.2386 15.7614 8 13 8C10.2386 8 8 10.2386 8 13C8 15.7614 10.2386 18 13 18Z" fill="#DDE3ED"/>
<path d="M14.8301 11.1702L12.2546 14.83L10.9669 13.5185" stroke="#1E4388" stroke-linecap="round" stroke-linejoin="round"/>
<path d="M24.73 15.25V14.47H26.33C26.5833 14.47 26.81 14.4133 27.01 14.3C27.21 14.18 27.37 14.02 27.49 13.82C27.6167 13.6133 27.68 13.38 27.68 13.12C27.68 12.72 27.54 12.3967 27.26 12.15C26.9867 11.8967 26.63 11.77 26.19 11.77H24.73V11L26.21 10.99C26.6633 10.9833 27.0633 11.0733 27.41 11.26C27.7633 11.44 28.0367 11.6933 28.23 12.02C28.43 12.34 28.53 12.7067 28.53 13.12C28.53 13.5333 28.4233 13.9 28.21 14.22C27.9967 14.54 27.7067 14.7933 27.34 14.98C26.9733 15.16 26.56 15.25 26.1 15.25H24.73ZM23.93 18V11H24.78V18H23.93ZM27.88 18L26.2 15.13L26.87 14.69L28.81 18H27.88ZM32.1698 18.12C31.6831 18.12 31.2531 18.01 30.8798 17.79C30.5131 17.5633 30.2231 17.2533 30.0098 16.86C29.7964 16.4667 29.6898 16.0133 29.6898 15.5C29.6898 14.9867 29.7931 14.5333 29.9998 14.14C30.2131 13.7467 30.5064 13.44 30.8798 13.22C31.2531 12.9933 31.6764 12.88 32.1498 12.88C32.6164 12.88 33.0198 12.9967 33.3598 13.23C33.6998 13.4567 33.9631 13.7767 34.1498 14.19C34.3364 14.6033 34.4298 15.09 34.4298 15.65H33.6298C33.6298 15.2233 33.5731 14.86 33.4598 14.56C33.3464 14.2533 33.1798 14.0167 32.9598 13.85C32.7398 13.6833 32.4664 13.6 32.1398 13.6C31.8131 13.6 31.5264 13.68 31.2798 13.84C31.0398 13.9933 30.8531 14.2133 30.7198 14.5C30.5864 14.7867 30.5198 15.1233 30.5198 15.51C30.5198 15.89 30.5931 16.22 30.7398 16.5C30.8864 16.7733 31.0864 16.99 31.3398 17.15C31.5931 17.3033 31.8831 17.38 32.2098 17.38C32.5631 17.38 32.8598 17.2967 33.0998 17.13C33.3398 16.9633 33.5264 16.7467 33.6598 16.48L34.3698 16.83C34.2364 17.09 34.0631 17.3167 33.8498 17.51C33.6431 17.7033 33.3998 17.8533 33.1198 17.96C32.8398 18.0667 32.5231 18.12 32.1698 18.12ZM30.2298 15.65V14.96H33.9398V15.65H30.2298ZM37.6976 18.12C37.2042 18.12 36.7676 18.01 36.3876 17.79C36.0076 17.5633 35.7109 17.2533 35.4976 16.86C35.2842 16.4667 35.1776 16.0133 35.1776 15.5C35.1776 14.9867 35.2809 14.5333 35.4876 14.14C35.7009 13.7467 35.9976 13.44 36.3776 13.22C36.7576 12.9933 37.1909 12.88 37.6776 12.88C38.1576 12.88 38.5876 12.99 38.9676 13.21C39.3476 13.43 39.6376 13.74 39.8376 14.14L39.1076 14.47C38.9742 14.2033 38.7809 13.9967 38.5276 13.85C38.2742 13.6967 37.9842 13.62 37.6576 13.62C37.3309 13.62 37.0409 13.7 36.7876 13.86C36.5409 14.02 36.3442 14.2433 36.1976 14.53C36.0576 14.81 35.9876 15.1333 35.9876 15.5C35.9876 15.8667 36.0576 16.1933 36.1976 16.48C36.3442 16.76 36.5442 16.98 36.7976 17.14C37.0576 17.3 37.3509 17.38 37.6776 17.38C38.0042 17.38 38.2942 17.2967 38.5476 17.13C38.8076 16.9633 39.0042 16.73 39.1376 16.43L39.8676 16.76C39.6676 17.1867 39.3776 17.52 38.9976 17.76C38.6176 18 38.1842 18.12 37.6976 18.12ZM43.0877 18.12C42.6011 18.12 42.1711 18.01 41.7977 17.79C41.4311 17.5633 41.1411 17.2533 40.9277 16.86C40.7144 16.4667 40.6077 16.0133 40.6077 15.5C40.6077 14.9867 40.7111 14.5333 40.9177 14.14C41.1311 13.7467 41.4244 13.44 41.7977 13.22C42.1711 12.9933 42.5944 12.88 43.0677 12.88C43.5344 12.88 43.9377 12.9967 44.2777 13.23C44.6177 13.4567 44.8811 13.7767 45.0677 14.19C45.2544 14.6033 45.3477 15.09 45.3477 15.65H44.5477C44.5477 15.2233 44.4911 14.86 44.3777 14.56C44.2644 14.2533 44.0977 14.0167 43.8777 13.85C43.6577 13.6833 43.3844 13.6 43.0577 13.6C42.7311 13.6 42.4444 13.68 42.1977 13.84C41.9577 13.9933 41.7711 14.2133 41.6377 14.5C41.5044 14.7867 41.4377 15.1233 41.4377 15.51C41.4377 15.89 41.5111 16.22 41.6577 16.5C41.8044 16.7733 42.0044 16.99 42.2577 17.15C42.5111 17.3033 42.8011 17.38 43.1277 17.38C43.4811 17.38 43.7777 17.2967 44.0177 17.13C44.2577 16.9633 44.4444 16.7467 44.5777 16.48L45.2877 16.83C45.1544 17.09 44.9811 17.3167 44.7677 17.51C44.5611 17.7033 44.3177 17.8533 44.0377 17.96C43.7577 18.0667 43.4411 18.12 43.0877 18.12ZM41.1477 15.65V14.96H44.8577V15.65H41.1477ZM46.4355 18L46.4555 13H47.2555L47.2355 18H46.4355ZM46.8455 11.84C46.7122 11.84 46.5955 11.79 46.4955 11.69C46.3955 11.59 46.3455 11.4733 46.3455 11.34C46.3455 11.2 46.3955 11.0833 46.4955 10.99C46.5955 10.89 46.7122 10.84 46.8455 10.84C46.9855 10.84 47.1022 10.89 47.1955 10.99C47.2955 11.0833 47.3455 11.2 47.3455 11.34C47.3455 11.4733 47.2955 11.59 47.1955 11.69C47.1022 11.79 46.9855 11.84 46.8455 11.84ZM50.2398 18L52.2798 13H53.1198L51.0298 18H50.2398ZM50.1898 18L48.0998 13H48.9298L50.9698 18H50.1898ZM55.9979 18.12C55.5112 18.12 55.0812 18.01 54.7079 17.79C54.3412 17.5633 54.0512 17.2533 53.8379 16.86C53.6246 16.4667 53.5179 16.0133 53.5179 15.5C53.5179 14.9867 53.6212 14.5333 53.8279 14.14C54.0412 13.7467 54.3346 13.44 54.7079 13.22C55.0812 12.9933 55.5046 12.88 55.9779 12.88C56.4446 12.88 56.8479 12.9967 57.1879 13.23C57.5279 13.4567 57.7912 13.7767 57.9779 14.19C58.1646 14.6033 58.2579 15.09 58.2579 15.65H57.4579C57.4579 15.2233 57.4012 14.86 57.2879 14.56C57.1746 14.2533 57.0079 14.0167 56.7879 13.85C56.5679 13.6833 56.2946 13.6 55.9679 13.6C55.6412 13.6 55.3546 13.68 55.1079 13.84C54.8679 13.9933 54.6812 14.2133 54.5479 14.5C54.4146 14.7867 54.3479 15.1233 54.3479 15.51C54.3479 15.89 54.4212 16.22 54.5679 16.5C54.7146 16.7733 54.9146 16.99 55.1679 17.15C55.4212 17.3033 55.7112 17.38 56.0379 17.38C56.3912 17.38 56.6879 17.2967 56.9279 17.13C57.1679 16.9633 57.3546 16.7467 57.4879 16.48L58.1979 16.83C58.0646 17.09 57.8912 17.3167 57.6779 17.51C57.4712 17.7033 57.2279 17.8533 56.9479 17.96C56.6679 18.0667 56.3512 18.12 55.9979 18.12ZM54.0579 15.65V14.96H57.7679V15.65H54.0579ZM62.9957 18L62.9557 17.07V11H63.7557V18H62.9957ZM61.2657 18.12C60.819 18.12 60.4257 18.01 60.0857 17.79C59.7457 17.57 59.479 17.2633 59.2857 16.87C59.099 16.47 59.0057 16.0133 59.0057 15.5C59.0057 14.98 59.099 14.5233 59.2857 14.13C59.479 13.7367 59.7457 13.43 60.0857 13.21C60.4257 12.99 60.819 12.88 61.2657 12.88C61.6857 12.88 62.0524 12.99 62.3657 13.21C62.6857 13.43 62.9324 13.7367 63.1057 14.13C63.279 14.5233 63.3657 14.98 63.3657 15.5C63.3657 16.0133 63.279 16.47 63.1057 16.87C62.9324 17.2633 62.6857 17.57 62.3657 17.79C62.0524 18.01 61.6857 18.12 61.2657 18.12ZM61.4457 17.39C61.739 17.39 61.999 17.31 62.2257 17.15C62.4524 16.99 62.629 16.7667 62.7557 16.48C62.889 16.1933 62.9557 15.8667 62.9557 15.5C62.9557 15.1333 62.889 14.8067 62.7557 14.52C62.629 14.2333 62.4524 14.01 62.2257 13.85C61.999 13.69 61.7357 13.61 61.4357 13.61C61.1224 13.61 60.8424 13.69 60.5957 13.85C60.3557 14.01 60.1657 14.2333 60.0257 14.52C59.8857 14.8067 59.8157 15.1333 59.8157 15.5C59.8157 15.8667 59.8857 16.1933 60.0257 16.48C60.1657 16.7667 60.359 16.99 60.6057 17.15C60.8524 17.31 61.1324 17.39 61.4457 17.39Z" fill="black"/>
<path d="M13 36C15.7614 36 18 33.7614 18 31C18 28.2386 15.7614 26 13 26C10.2386 26 8 28.2386 8 31C8 33.7614 10.2386 36 13 36Z" fill="#DDE3ED"/>
<path d="M14.8301 29.1702L12.2546 32.83L10.9669 31.5185" stroke="#1E4388" stroke-linecap="round" stroke-linejoin="round"/>
<path d="M26.08 35L28.94 28H29.83L26.93 35H26.08ZM25.99 35L23.09 28H23.98L26.83 35H25.99ZM32.4432 35.12C31.9565 35.12 31.5265 35.01 31.1532 34.79C30.7865 34.5633 30.4965 34.2533 30.2832 33.86C30.0699 33.4667 29.9632 33.0133 29.9632 32.5C29.9632 31.9867 30.0665 31.5333 30.2732 31.14C30.4865 30.7467 30.7799 30.44 31.1532 30.22C31.5265 29.9933 31.9499 29.88 32.4232 29.88C32.8899 29.88 33.2932 29.9967 33.6332 30.23C33.9732 30.4567 34.2365 30.7767 34.4232 31.19C34.6099 31.6033 34.7032 32.09 34.7032 32.65H33.9032C33.9032 32.2233 33.8465 31.86 33.7332 31.56C33.6199 31.2533 33.4532 31.0167 33.2332 30.85C33.0132 30.6833 32.7399 30.6 32.4132 30.6C32.0865 30.6 31.7999 30.68 31.5532 30.84C31.3132 30.9933 31.1265 31.2133 30.9932 31.5C30.8599 31.7867 30.7932 32.1233 30.7932 32.51C30.7932 32.89 30.8665 33.22 31.0132 33.5C31.1599 33.7733 31.3599 33.99 31.6132 34.15C31.8665 34.3033 32.1565 34.38 32.4832 34.38C32.8365 34.38 33.1332 34.2967 33.3732 34.13C33.6132 33.9633 33.7999 33.7467 33.9332 33.48L34.6432 33.83C34.5099 34.09 34.3365 34.3167 34.1232 34.51C33.9165 34.7033 33.6732 34.8533 33.3932 34.96C33.1132 35.0667 32.7965 35.12 32.4432 35.12ZM30.5032 32.65V31.96H34.2132V32.65H30.5032ZM36.181 32.29C36.181 31.75 36.2843 31.3133 36.491 30.98C36.6977 30.64 36.961 30.39 37.281 30.23C37.6077 30.0633 37.951 29.98 38.311 29.98V30.73C38.0177 30.73 37.7343 30.78 37.461 30.88C37.1943 30.9733 36.9743 31.13 36.801 31.35C36.6277 31.57 36.541 31.87 36.541 32.25L36.181 32.29ZM35.741 35V30H36.541V35H35.741ZM39.1699 35L39.1899 30H39.9899L39.9699 35H39.1699ZM39.5799 28.84C39.4466 28.84 39.3299 28.79 39.2299 28.69C39.1299 28.59 39.0799 28.4733 39.0799 28.34C39.0799 28.2 39.1299 28.0833 39.2299 27.99C39.3299 27.89 39.4466 27.84 39.5799 27.84C39.7199 27.84 39.8366 27.89 39.9299 27.99C40.0299 28.0833 40.0799 28.2 40.0799 28.34C40.0799 28.4733 40.0299 28.59 39.9299 28.69C39.8366 28.79 39.7199 28.84 39.5799 28.84ZM41.9441 35V29.43C41.9441 28.91 42.0641 28.52 42.3041 28.26C42.5508 27.9933 42.9241 27.86 43.4241 27.86C43.5575 27.86 43.7075 27.8833 43.8741 27.93C44.0408 27.9767 44.2175 28.0433 44.4041 28.13L44.1041 28.76C43.9508 28.7 43.8208 28.6533 43.7141 28.62C43.6075 28.5867 43.5175 28.57 43.4441 28.57C43.2108 28.57 43.0341 28.6467 42.9141 28.8C42.8008 28.9467 42.7441 29.1767 42.7441 29.49V35H41.9441ZM41.0241 30.69V30H44.1941V30.69H41.0241ZM45.1855 35L45.2055 30H46.0055L45.9855 35H45.1855ZM45.5955 28.84C45.4622 28.84 45.3455 28.79 45.2455 28.69C45.1455 28.59 45.0955 28.4733 45.0955 28.34C45.0955 28.2 45.1455 28.0833 45.2455 27.99C45.3455 27.89 45.4622 27.84 45.5955 27.84C45.7355 27.84 45.8522 27.89 45.9455 27.99C46.0455 28.0833 46.0955 28.2 46.0955 28.34C46.0955 28.4733 46.0455 28.59 45.9455 28.69C45.8522 28.79 45.7355 28.84 45.5955 28.84ZM49.6698 35.12C49.1831 35.12 48.7531 35.01 48.3798 34.79C48.0131 34.5633 47.7231 34.2533 47.5098 33.86C47.2964 33.4667 47.1898 33.0133 47.1898 32.5C47.1898 31.9867 47.2931 31.5333 47.4998 31.14C47.7131 30.7467 48.0064 30.44 48.3798 30.22C48.7531 29.9933 49.1764 29.88 49.6498 29.88C50.1164 29.88 50.5198 29.9967 50.8598 30.23C51.1998 30.4567 51.4631 30.7767 51.6498 31.19C51.8364 31.6033 51.9298 32.09 51.9298 32.65H51.1298C51.1298 32.2233 51.0731 31.86 50.9598 31.56C50.8464 31.2533 50.6798 31.0167 50.4598 30.85C50.2398 30.6833 49.9664 30.6 49.6398 30.6C49.3131 30.6 49.0264 30.68 48.7798 30.84C48.5398 30.9933 48.3531 31.2133 48.2198 31.5C48.0864 31.7867 48.0198 32.1233 48.0198 32.51C48.0198 32.89 48.0931 33.22 48.2398 33.5C48.3864 33.7733 48.5864 33.99 48.8398 34.15C49.0931 34.3033 49.3831 34.38 49.7098 34.38C50.0631 34.38 50.3598 34.2967 50.5998 34.13C50.8398 33.9633 51.0264 33.7467 51.1598 33.48L51.8698 33.83C51.7364 34.09 51.5631 34.3167 51.3498 34.51C51.1431 34.7033 50.8998 34.8533 50.6198 34.96C50.3398 35.0667 50.0231 35.12 49.6698 35.12ZM47.7298 32.65V31.96H51.4398V32.65H47.7298ZM56.6676 35L56.6276 34.07V28H57.4276V35H56.6676ZM54.9376 35.12C54.4909 35.12 54.0976 35.01 53.7576 34.79C53.4176 34.57 53.1509 34.2633 52.9576 33.87C52.7709 33.47 52.6776 33.0133 52.6776 32.5C52.6776 31.98 52.7709 31.5233 52.9576 31.13C53.1509 30.7367 53.4176 30.43 53.7576 30.21C54.0976 29.99 54.4909 29.88 54.9376 29.88C55.3576 29.88 55.7242 29.99 56.0376 30.21C56.3576 30.43 56.6042 30.7367 56.7776 31.13C56.9509 31.5233 57.0376 31.98 57.0376 32.5C57.0376 33.0133 56.9509 33.47 56.7776 33.87C56.6042 34.2633 56.3576 34.57 56.0376 34.79C55.7242 35.01 55.3576 35.12 54.9376 35.12ZM55.1176 34.39C55.4109 34.39 55.6709 34.31 55.8976 34.15C56.1242 33.99 56.3009 33.7667 56.4276 33.48C56.5609 33.1933 56.6276 32.8667 56.6276 32.5C56.6276 32.1333 56.5609 31.8067 56.4276 31.52C56.3009 31.2333 56.1242 31.01 55.8976 30.85C55.6709 30.69 55.4076 30.61 55.1076 30.61C54.7942 30.61 54.5142 30.69 54.2676 30.85C54.0276 31.01 53.8376 31.2333 53.6976 31.52C53.5576 31.8067 53.4876 32.1333 53.4876 32.5C53.4876 32.8667 53.5576 33.1933 53.6976 33.48C53.8376 33.7667 54.0309 33.99 54.2776 34.15C54.5242 34.31 54.8042 34.39 55.1176 34.39Z" fill="black"/>
<path d="M13 53C15.7614 53 18 50.7614 18 48C18 45.2386 15.7614 43 13 43C10.2386 43 8 45.2386 8 48C8 50.7614 10.2386 53 13 53Z" fill="#DDE3ED"/>
<path d="M14.8301 46.1702L12.2546 49.83L10.9669 48.5185" stroke="#1E4388" stroke-linecap="round" stroke-linejoin="round"/>
<path d="M26.17 52.12C25.7833 52.12 25.44 52.08 25.14 52C24.84 51.9133 24.58 51.7967 24.36 51.65C24.14 51.4967 23.96 51.33 23.82 51.15C23.68 50.9633 23.5767 50.7667 23.51 50.56L24.32 50.28C24.42 50.5733 24.62 50.83 24.92 51.05C25.2267 51.2633 25.6 51.37 26.04 51.37C26.58 51.37 27.0033 51.2633 27.31 51.05C27.6167 50.8367 27.77 50.5533 27.77 50.2C27.77 49.8733 27.6333 49.61 27.36 49.41C27.0867 49.2033 26.7267 49.0433 26.28 48.93L25.51 48.73C25.1967 48.65 24.9067 48.5333 24.64 48.38C24.38 48.22 24.17 48.02 24.01 47.78C23.8567 47.5333 23.78 47.24 23.78 46.9C23.78 46.2667 23.9833 45.7733 24.39 45.42C24.8033 45.06 25.3967 44.88 26.17 44.88C26.63 44.88 27.0267 44.9567 27.36 45.11C27.6933 45.2567 27.9633 45.4467 28.17 45.68C28.3833 45.9067 28.5333 46.1533 28.62 46.42L27.82 46.7C27.6933 46.3667 27.48 46.1067 27.18 45.92C26.88 45.7267 26.5167 45.63 26.09 45.63C25.6433 45.63 25.2867 45.74 25.02 45.96C24.76 46.1733 24.63 46.4667 24.63 46.84C24.63 47.16 24.7333 47.4067 24.94 47.58C25.1467 47.7467 25.4167 47.87 25.75 47.95L26.52 48.14C27.2 48.3 27.72 48.5667 28.08 48.94C28.4467 49.3067 28.63 49.7033 28.63 50.13C28.63 50.4967 28.5367 50.8333 28.35 51.14C28.1633 51.44 27.8867 51.68 27.52 51.86C27.16 52.0333 26.71 52.12 26.17 52.12ZM33.2726 52L33.2226 51.08V47H34.0226V52H33.2726ZM29.7126 49.86V47H30.5126V49.56L29.7126 49.86ZM30.5126 49.56C30.5126 50.0533 30.5692 50.43 30.6826 50.69C30.7959 50.95 30.9526 51.13 31.1526 51.23C31.3592 51.3233 31.5892 51.37 31.8426 51.37C32.2759 51.37 32.6126 51.2133 32.8526 50.9C33.0992 50.5867 33.2226 50.15 33.2226 49.59H33.6126C33.6126 50.1167 33.5359 50.57 33.3826 50.95C33.2292 51.33 33.0059 51.62 32.7126 51.82C32.4259 52.02 32.0759 52.12 31.6626 52.12C31.0559 52.12 30.5759 51.9333 30.2226 51.56C29.8759 51.1867 29.7059 50.62 29.7126 49.86L30.5126 49.56ZM35.4188 52V45H36.2188V51.07L36.1788 52H35.4188ZM37.9088 52.12C37.4888 52.12 37.1188 52.01 36.7988 51.79C36.4854 51.57 36.2421 51.2633 36.0688 50.87C35.8954 50.47 35.8088 50.0133 35.8088 49.5C35.8088 48.98 35.8954 48.5233 36.0688 48.13C36.2421 47.7367 36.4854 47.43 36.7988 47.21C37.1188 46.99 37.4888 46.88 37.9088 46.88C38.3554 46.88 38.7488 46.99 39.0888 47.21C39.4288 47.43 39.6921 47.7367 39.8788 48.13C40.0721 48.5233 40.1688 48.98 40.1688 49.5C40.1688 50.0133 40.0721 50.47 39.8788 50.87C39.6921 51.2633 39.4288 51.57 39.0888 51.79C38.7488 52.01 38.3554 52.12 37.9088 52.12ZM37.7288 51.39C38.0421 51.39 38.3188 51.31 38.5588 51.15C38.8054 50.99 38.9988 50.7667 39.1388 50.48C39.2854 50.1933 39.3588 49.8667 39.3588 49.5C39.3588 49.1333 39.2888 48.8067 39.1488 48.52C39.0154 48.2333 38.8254 48.01 38.5788 47.85C38.3321 47.69 38.0521 47.61 37.7388 47.61C37.4454 47.61 37.1821 47.69 36.9488 47.85C36.7221 48.01 36.5421 48.2333 36.4088 48.52C36.2821 48.8067 36.2188 49.1333 36.2188 49.5C36.2188 49.8667 36.2821 50.1933 36.4088 50.48C36.5421 50.7667 36.7221 50.99 36.9488 51.15C37.1754 51.31 37.4354 51.39 37.7288 51.39ZM41.2781 52V47H42.0281L42.0781 47.92V52H41.2781ZM44.7881 52V49.44L45.5881 49.14V52H44.7881ZM48.3081 52V49.44L49.1081 49.14V52H48.3081ZM44.7881 49.44C44.7881 48.9467 44.7315 48.57 44.6181 48.31C44.5048 48.05 44.3481 47.8733 44.1481 47.78C43.9481 47.68 43.7215 47.63 43.4681 47.63C43.0281 47.63 42.6848 47.7867 42.4381 48.1C42.1981 48.4067 42.0781 48.8433 42.0781 49.41H41.6881C41.6881 48.8833 41.7648 48.43 41.9181 48.05C42.0715 47.67 42.2915 47.38 42.5781 47.18C42.8715 46.98 43.2248 46.88 43.6381 46.88C44.2448 46.88 44.7215 47.0667 45.0681 47.44C45.4215 47.8133 45.5948 48.38 45.5881 49.14L44.7881 49.44ZM48.3081 49.44C48.3081 48.9467 48.2481 48.57 48.1281 48.31C48.0148 48.05 47.8581 47.8733 47.6581 47.78C47.4581 47.68 47.2315 47.63 46.9781 47.63C46.5381 47.63 46.1948 47.7867 45.9481 48.1C45.7081 48.4067 45.5881 48.8433 45.5881 49.41H45.1981C45.1981 48.8833 45.2748 48.43 45.4281 48.05C45.5815 47.67 45.8048 47.38 46.0981 47.18C46.3915 46.98 46.7448 46.88 47.1581 46.88C47.7581 46.88 48.2315 47.0667 48.5781 47.44C48.9315 47.8133 49.1081 48.38 49.1081 49.14L48.3081 49.44ZM50.4199 52L50.4399 47H51.2399L51.2199 52H50.4199ZM50.8299 45.84C50.6966 45.84 50.5799 45.79 50.4799 45.69C50.3799 45.59 50.3299 45.4733 50.3299 45.34C50.3299 45.2 50.3799 45.0833 50.4799 44.99C50.5799 44.89 50.6966 44.84 50.8299 44.84C50.9699 44.84 51.0866 44.89 51.1799 44.99C51.2799 45.0833 51.3299 45.2 51.3299 45.34C51.3299 45.4733 51.2799 45.59 51.1799 45.69C51.0866 45.79 50.9699 45.84 50.8299 45.84ZM54.6741 52.12C54.1875 52.12 53.8108 51.9933 53.5441 51.74C53.2775 51.4867 53.1441 51.13 53.1441 50.67V45.44H53.9441V50.59C53.9441 50.8433 54.0108 51.04 54.1441 51.18C54.2841 51.3133 54.4775 51.38 54.7241 51.38C54.8041 51.38 54.8808 51.37 54.9541 51.35C55.0341 51.3233 55.1375 51.2633 55.2641 51.17L55.5741 51.82C55.4008 51.9333 55.2441 52.01 55.1041 52.05C54.9641 52.0967 54.8208 52.12 54.6741 52.12ZM52.2741 47.71V47H55.4441V47.71H52.2741ZM58.5218 52.12C58.0351 52.12 57.6585 51.9933 57.3918 51.74C57.1251 51.4867 56.9918 51.13 56.9918 50.67V45.44H57.7918V50.59C57.7918 50.8433 57.8585 51.04 57.9918 51.18C58.1318 51.3133 58.3251 51.38 58.5718 51.38C58.6518 51.38 58.7285 51.37 58.8018 51.35C58.8818 51.3233 58.9851 51.2633 59.1118 51.17L59.4218 51.82C59.2485 51.9333 59.0918 52.01 58.9518 52.05C58.8118 52.0967 58.6685 52.12 58.5218 52.12ZM56.1218 47.71V47H59.2918V47.71H56.1218ZM62.5995 52.12C62.1128 52.12 61.6828 52.01 61.3095 51.79C60.9428 51.5633 60.6528 51.2533 60.4395 50.86C60.2261 50.4667 60.1195 50.0133 60.1195 49.5C60.1195 48.9867 60.2228 48.5333 60.4295 48.14C60.6428 47.7467 60.9361 47.44 61.3095 47.22C61.6828 46.9933 62.1061 46.88 62.5795 46.88C63.0461 46.88 63.4495 46.9967 63.7895 47.23C64.1295 47.4567 64.3928 47.7767 64.5795 48.19C64.7661 48.6033 64.8595 49.09 64.8595 49.65H64.0595C64.0595 49.2233 64.0028 48.86 63.8895 48.56C63.7761 48.2533 63.6095 48.0167 63.3895 47.85C63.1695 47.6833 62.8961 47.6 62.5695 47.6C62.2428 47.6 61.9561 47.68 61.7095 47.84C61.4695 47.9933 61.2828 48.2133 61.1495 48.5C61.0161 48.7867 60.9495 49.1233 60.9495 49.51C60.9495 49.89 61.0228 50.22 61.1695 50.5C61.3161 50.7733 61.5161 50.99 61.7695 51.15C62.0228 51.3033 62.3128 51.38 62.6395 51.38C62.9928 51.38 63.2895 51.2967 63.5295 51.13C63.7695 50.9633 63.9561 50.7467 64.0895 50.48L64.7995 50.83C64.6661 51.09 64.4928 51.3167 64.2795 51.51C64.0728 51.7033 63.8295 51.8533 63.5495 51.96C63.2695 52.0667 62.9528 52.12 62.5995 52.12ZM60.6595 49.65V48.96H64.3695V49.65H60.6595ZM69.5973 52L69.5573 51.07V45H70.3573V52H69.5973ZM67.8673 52.12C67.4206 52.12 67.0273 52.01 66.6873 51.79C66.3473 51.57 66.0806 51.2633 65.8873 50.87C65.7006 50.47 65.6073 50.0133 65.6073 49.5C65.6073 48.98 65.7006 48.5233 65.8873 48.13C66.0806 47.7367 66.3473 47.43 66.6873 47.21C67.0273 46.99 67.4206 46.88 67.8673 46.88C68.2873 46.88 68.6539 46.99 68.9673 47.21C69.2873 47.43 69.5339 47.7367 69.7073 48.13C69.8806 48.5233 69.9673 48.98 69.9673 49.5C69.9673 50.0133 69.8806 50.47 69.7073 50.87C69.5339 51.2633 69.2873 51.57 68.9673 51.79C68.6539 52.01 68.2873 52.12 67.8673 52.12ZM68.0473 51.39C68.3406 51.39 68.6006 51.31 68.8273 51.15C69.0539 50.99 69.2306 50.7667 69.3573 50.48C69.4906 50.1933 69.5573 49.8667 69.5573 49.5C69.5573 49.1333 69.4906 48.8067 69.3573 48.52C69.2306 48.2333 69.0539 48.01 68.8273 47.85C68.6006 47.69 68.3373 47.61 68.0373 47.61C67.7239 47.61 67.4439 47.69 67.1973 47.85C66.9573 48.01 66.7673 48.2333 66.6273 48.52C66.4873 48.8067 66.4173 49.1333 66.4173 49.5C66.4173 49.8667 66.4873 50.1933 66.6273 50.48C66.7673 50.7667 66.9606 50.99 67.2073 51.15C67.4539 51.31 67.7339 51.39 68.0473 51.39Z" fill="black"/>
<path d="M13 70C15.7614 70 18 67.7614 18 65C18 62.2386 15.7614 60 13 60C10.2386 60 8 62.2386 8 65C8 67.7614 10.2386 70 13 70Z" fill="#DDE3ED"/>
<path d="M14.8301 63.1702L12.2546 66.83L10.9669 65.5185" stroke="#1E4388" stroke-linecap="round" stroke-linejoin="round"/>
<path d="M26.88 69.12C26.2133 69.12 25.6233 68.9667 25.11 68.66C24.5967 68.3467 24.1933 67.92 23.9 67.38C23.6067 66.8333 23.46 66.2067 23.46 65.5C23.46 64.7933 23.6033 64.17 23.89 63.63C24.1833 63.0833 24.5833 62.6567 25.09 62.35C25.6033 62.0367 26.19 61.88 26.85 61.88C27.27 61.88 27.6733 61.9567 28.06 62.11C28.4467 62.2567 28.7933 62.4667 29.1 62.74C29.4067 63.0067 29.6433 63.3167 29.81 63.67L29.08 64.04C28.9467 63.76 28.7633 63.5167 28.53 63.31C28.2967 63.1033 28.0367 62.9433 27.75 62.83C27.4633 62.71 27.1633 62.65 26.85 62.65C26.3633 62.65 25.9267 62.7733 25.54 63.02C25.1533 63.26 24.85 63.5933 24.63 64.02C24.4167 64.4467 24.31 64.94 24.31 65.5C24.31 66.06 24.42 66.5567 24.64 66.99C24.86 67.4233 25.1633 67.7633 25.55 68.01C25.9433 68.25 26.3867 68.37 26.88 68.37C27.2 68.37 27.5033 68.3067 27.79 68.18C28.0767 68.0467 28.3333 67.8667 28.56 67.64C28.7933 67.4133 28.9767 67.1533 29.11 66.86L29.85 67.23C29.6767 67.5967 29.4367 67.9233 29.13 68.21C28.83 68.4967 28.4833 68.72 28.09 68.88C27.7033 69.04 27.3 69.12 26.88 69.12ZM33.147 69.12C32.6604 69.12 32.227 69.01 31.847 68.79C31.467 68.5633 31.1704 68.2533 30.957 67.86C30.7437 67.4667 30.637 67.0133 30.637 66.5C30.637 65.9867 30.7404 65.5333 30.947 65.14C31.1604 64.7467 31.457 64.44 31.837 64.22C32.217 63.9933 32.647 63.88 33.127 63.88C33.6204 63.88 34.0537 63.9933 34.427 64.22C34.807 64.44 35.1004 64.7467 35.307 65.14C35.5204 65.5333 35.627 65.9867 35.627 66.5C35.627 67.0133 35.5204 67.4667 35.307 67.86C35.1004 68.2533 34.8104 68.5633 34.437 68.79C34.0637 69.01 33.6337 69.12 33.147 69.12ZM33.147 68.36C33.4737 68.36 33.7604 68.2833 34.007 68.13C34.2537 67.97 34.447 67.75 34.587 67.47C34.727 67.19 34.797 66.8667 34.797 66.5C34.797 66.1333 34.7237 65.81 34.577 65.53C34.437 65.25 34.2404 65.0333 33.987 64.88C33.7404 64.72 33.4537 64.64 33.127 64.64C32.8004 64.64 32.5137 64.72 32.267 64.88C32.0204 65.0333 31.8237 65.25 31.677 65.53C31.537 65.81 31.467 66.1333 31.467 66.5C31.467 66.8667 31.537 67.19 31.677 67.47C31.8237 67.75 32.0237 67.97 32.277 68.13C32.5304 68.2833 32.8204 68.36 33.147 68.36ZM36.7566 69V64H37.5066L37.5566 64.92V69H36.7566ZM40.2666 69V66.44L41.0666 66.14V69H40.2666ZM43.7866 69V66.44L44.5866 66.14V69H43.7866ZM40.2666 66.44C40.2666 65.9467 40.21 65.57 40.0966 65.31C39.9833 65.05 39.8266 64.8733 39.6266 64.78C39.4266 64.68 39.2 64.63 38.9466 64.63C38.5066 64.63 38.1633 64.7867 37.9166 65.1C37.6766 65.4067 37.5566 65.8433 37.5566 66.41H37.1666C37.1666 65.8833 37.2433 65.43 37.3966 65.05C37.55 64.67 37.77 64.38 38.0566 64.18C38.35 63.98 38.7033 63.88 39.1166 63.88C39.7233 63.88 40.2 64.0667 40.5466 64.44C40.9 64.8133 41.0733 65.38 41.0666 66.14L40.2666 66.44ZM43.7866 66.44C43.7866 65.9467 43.7266 65.57 43.6066 65.31C43.4933 65.05 43.3366 64.8733 43.1366 64.78C42.9366 64.68 42.71 64.63 42.4566 64.63C42.0166 64.63 41.6733 64.7867 41.4266 65.1C41.1866 65.4067 41.0666 65.8433 41.0666 66.41H40.6766C40.6766 65.8833 40.7533 65.43 40.9066 65.05C41.06 64.67 41.2833 64.38 41.5766 64.18C41.87 63.98 42.2233 63.88 42.6366 63.88C43.2366 63.88 43.71 64.0667 44.0566 64.44C44.41 64.8133 44.5866 65.38 44.5866 66.14L43.7866 66.44ZM45.8984 71V64H46.6484L46.6984 64.92V71H45.8984ZM48.3884 69.12C47.9684 69.12 47.5984 69.01 47.2784 68.79C46.9651 68.57 46.7218 68.2633 46.5484 67.87C46.3751 67.47 46.2884 67.0133 46.2884 66.5C46.2884 65.98 46.3751 65.5233 46.5484 65.13C46.7218 64.7367 46.9651 64.43 47.2784 64.21C47.5984 63.99 47.9684 63.88 48.3884 63.88C48.8351 63.88 49.2284 63.99 49.5684 64.21C49.9084 64.43 50.1718 64.7367 50.3584 65.13C50.5518 65.5233 50.6484 65.98 50.6484 66.5C50.6484 67.0133 50.5518 67.47 50.3584 67.87C50.1718 68.2633 49.9084 68.57 49.5684 68.79C49.2284 69.01 48.8351 69.12 48.3884 69.12ZM48.2084 68.39C48.5218 68.39 48.7984 68.31 49.0384 68.15C49.2851 67.99 49.4784 67.7667 49.6184 67.48C49.7651 67.1933 49.8384 66.8667 49.8384 66.5C49.8384 66.1333 49.7684 65.8067 49.6284 65.52C49.4951 65.2333 49.3051 65.01 49.0584 64.85C48.8118 64.69 48.5318 64.61 48.2184 64.61C47.9251 64.61 47.6618 64.69 47.4284 64.85C47.2018 65.01 47.0218 65.2333 46.8884 65.52C46.7618 65.8067 46.6984 66.1333 46.6984 66.5C46.6984 66.8667 46.7618 67.1933 46.8884 67.48C47.0218 67.7667 47.2018 67.99 47.4284 68.15C47.6551 68.31 47.9151 68.39 48.2084 68.39ZM51.7566 69L51.7766 62H52.5766L52.5566 69H51.7566ZM56.1834 69.12C55.6968 69.12 55.2668 69.01 54.8934 68.79C54.5268 68.5633 54.2368 68.2533 54.0234 67.86C53.8101 67.4667 53.7034 67.0133 53.7034 66.5C53.7034 65.9867 53.8068 65.5333 54.0134 65.14C54.2268 64.7467 54.5201 64.44 54.8934 64.22C55.2668 63.9933 55.6901 63.88 56.1634 63.88C56.6301 63.88 57.0334 63.9967 57.3734 64.23C57.7134 64.4567 57.9768 64.7767 58.1634 65.19C58.3501 65.6033 58.4434 66.09 58.4434 66.65H57.6434C57.6434 66.2233 57.5868 65.86 57.4734 65.56C57.3601 65.2533 57.1934 65.0167 56.9734 64.85C56.7534 64.6833 56.4801 64.6 56.1534 64.6C55.8268 64.6 55.5401 64.68 55.2934 64.84C55.0534 64.9933 54.8668 65.2133 54.7334 65.5C54.6001 65.7867 54.5334 66.1233 54.5334 66.51C54.5334 66.89 54.6068 67.22 54.7534 67.5C54.9001 67.7733 55.1001 67.99 55.3534 68.15C55.6068 68.3033 55.8968 68.38 56.2234 68.38C56.5768 68.38 56.8734 68.2967 57.1134 68.13C57.3534 67.9633 57.5401 67.7467 57.6734 67.48L58.3834 67.83C58.2501 68.09 58.0768 68.3167 57.8634 68.51C57.6568 68.7033 57.4134 68.8533 57.1334 68.96C56.8534 69.0667 56.5368 69.12 56.1834 69.12ZM54.2434 66.65V65.96H57.9534V66.65H54.2434ZM61.4613 69.12C60.9746 69.12 60.5979 68.9933 60.3313 68.74C60.0646 68.4867 59.9313 68.13 59.9313 67.67V62.44H60.7313V67.59C60.7313 67.8433 60.7979 68.04 60.9313 68.18C61.0713 68.3133 61.2646 68.38 61.5113 68.38C61.5913 68.38 61.6679 68.37 61.7413 68.35C61.8213 68.3233 61.9246 68.2633 62.0513 68.17L62.3613 68.82C62.1879 68.9333 62.0313 69.01 61.8913 69.05C61.7513 69.0967 61.6079 69.12 61.4613 69.12ZM59.0613 64.71V64H62.2313V64.71H59.0613ZM65.5389 69.12C65.0522 69.12 64.6222 69.01 64.2489 68.79C63.8822 68.5633 63.5922 68.2533 63.3789 67.86C63.1656 67.4667 63.0589 67.0133 63.0589 66.5C63.0589 65.9867 63.1622 65.5333 63.3689 65.14C63.5822 64.7467 63.8756 64.44 64.2489 64.22C64.6222 63.9933 65.0456 63.88 65.5189 63.88C65.9856 63.88 66.3889 63.9967 66.7289 64.23C67.0689 64.4567 67.3322 64.7767 67.5189 65.19C67.7056 65.6033 67.7989 66.09 67.7989 66.65H66.9989C66.9989 66.2233 66.9422 65.86 66.8289 65.56C66.7156 65.2533 66.5489 65.0167 66.3289 64.85C66.1089 64.6833 65.8356 64.6 65.5089 64.6C65.1822 64.6 64.8956 64.68 64.6489 64.84C64.4089 64.9933 64.2222 65.2133 64.0889 65.5C63.9556 65.7867 63.8889 66.1233 63.8889 66.51C63.8889 66.89 63.9622 67.22 64.1089 67.5C64.2556 67.7733 64.4556 67.99 64.7089 68.15C64.9622 68.3033 65.2522 68.38 65.5789 68.38C65.9322 68.38 66.2289 68.2967 66.4689 68.13C66.7089 67.9633 66.8956 67.7467 67.0289 67.48L67.7389 67.83C67.6056 68.09 67.4322 68.3167 67.2189 68.51C67.0122 68.7033 66.7689 68.8533 66.4889 68.96C66.2089 69.0667 65.8922 69.12 65.5389 69.12ZM63.5989 66.65V65.96H67.3089V66.65H63.5989ZM72.5367 69L72.4967 68.07V62H73.2967V69H72.5367ZM70.8067 69.12C70.3601 69.12 69.9667 69.01 69.6267 68.79C69.2867 68.57 69.0201 68.2633 68.8267 67.87C68.6401 67.47 68.5467 67.0133 68.5467 66.5C68.5467 65.98 68.6401 65.5233 68.8267 65.13C69.0201 64.7367 69.2867 64.43 69.6267 64.21C69.9667 63.99 70.3601 63.88 70.8067 63.88C71.2267 63.88 71.5934 63.99 71.9067 64.21C72.2267 64.43 72.4734 64.7367 72.6467 65.13C72.8201 65.5233 72.9067 65.98 72.9067 66.5C72.9067 67.0133 72.8201 67.47 72.6467 67.87C72.4734 68.2633 72.2267 68.57 71.9067 68.79C71.5934 69.01 71.2267 69.12 70.8067 69.12ZM70.9867 68.39C71.2801 68.39 71.5401 68.31 71.7667 68.15C71.9934 67.99 72.1701 67.7667 72.2967 67.48C72.4301 67.1933 72.4967 66.8667 72.4967 66.5C72.4967 66.1333 72.4301 65.8067 72.2967 65.52C72.1701 65.2333 71.9934 65.01 71.7667 64.85C71.5401 64.69 71.2767 64.61 70.9767 64.61C70.6634 64.61 70.3834 64.69 70.1367 64.85C69.8967 65.01 69.7067 65.2333 69.5667 65.52C69.4267 65.8067 69.3567 66.1333 69.3567 66.5C69.3567 66.8667 69.4267 67.1933 69.5667 67.48C69.7067 67.7667 69.9001 67.99 70.1467 68.15C70.3934 68.31 70.6734 68.39 70.9867 68.39Z" fill="black"/>
<g filter="url(#filter0_d_156_278)">
<rect x="121" y="56" width="134" height="84" rx="12" fill="white"/>
<path d="M144.792 128L142.112 121H143.482L146.242 128H144.792ZM139.262 128L142.022 121H143.392L140.712 128H139.262ZM140.562 126.46V125.25H144.952V126.46H140.562ZM148.13 128L150.03 123H151.39L149.34 128H148.13ZM148.02 128L145.97 123H147.33L149.23 128H148.02ZM154.121 130.13C153.741 130.13 153.404 130.103 153.111 130.05C152.817 129.997 152.571 129.927 152.371 129.84C152.171 129.753 152.007 129.667 151.881 129.58L152.401 128.52C152.494 128.573 152.617 128.633 152.771 128.7C152.924 128.773 153.107 128.833 153.321 128.88C153.534 128.933 153.781 128.96 154.061 128.96C154.327 128.96 154.561 128.907 154.761 128.8C154.967 128.7 155.127 128.54 155.241 128.32C155.361 128.107 155.421 127.833 155.421 127.5V123H156.741V127.46C156.741 128.02 156.634 128.5 156.421 128.9C156.207 129.307 155.904 129.613 155.511 129.82C155.124 130.027 154.661 130.13 154.121 130.13ZM153.861 127.86C153.401 127.86 153.001 127.76 152.661 127.56C152.327 127.36 152.067 127.08 151.881 126.72C151.694 126.36 151.601 125.933 151.601 125.44C151.601 124.92 151.694 124.47 151.881 124.09C152.067 123.703 152.327 123.407 152.661 123.2C153.001 122.987 153.401 122.88 153.861 122.88C154.261 122.88 154.607 122.987 154.901 123.2C155.194 123.407 155.421 123.703 155.581 124.09C155.741 124.477 155.821 124.937 155.821 125.47C155.821 125.95 155.741 126.37 155.581 126.73C155.421 127.09 155.194 127.37 154.901 127.57C154.607 127.763 154.261 127.86 153.861 127.86ZM154.241 126.75C154.467 126.75 154.664 126.693 154.831 126.58C155.004 126.46 155.137 126.3 155.231 126.1C155.324 125.893 155.371 125.66 155.371 125.4C155.371 125.133 155.321 124.9 155.221 124.7C155.127 124.5 154.994 124.343 154.821 124.23C154.654 124.117 154.457 124.06 154.231 124.06C153.997 124.06 153.791 124.117 153.611 124.23C153.431 124.343 153.291 124.5 153.191 124.7C153.091 124.9 153.037 125.133 153.031 125.4C153.037 125.66 153.091 125.893 153.191 126.1C153.291 126.3 153.431 126.46 153.611 126.58C153.797 126.693 154.007 126.75 154.241 126.75ZM158.459 128.15C158.239 128.15 158.049 128.07 157.889 127.91C157.735 127.75 157.659 127.56 157.659 127.34C157.659 127.127 157.735 126.94 157.889 126.78C158.049 126.62 158.239 126.54 158.459 126.54C158.679 126.54 158.865 126.62 159.019 126.78C159.179 126.94 159.259 127.127 159.259 127.34C159.259 127.56 159.179 127.75 159.019 127.91C158.865 128.07 158.679 128.15 158.459 128.15ZM165.932 128.12C165.252 128.12 164.649 127.967 164.122 127.66C163.595 127.347 163.182 126.92 162.882 126.38C162.582 125.833 162.432 125.207 162.432 124.5C162.432 123.793 162.582 123.17 162.882 122.63C163.182 122.083 163.592 121.657 164.112 121.35C164.639 121.037 165.242 120.88 165.922 120.88C166.402 120.88 166.849 120.967 167.262 121.14C167.675 121.307 168.035 121.543 168.342 121.85C168.655 122.15 168.895 122.497 169.062 122.89L167.792 123.36C167.679 123.113 167.529 122.9 167.342 122.72C167.155 122.533 166.942 122.39 166.702 122.29C166.462 122.183 166.202 122.13 165.922 122.13C165.515 122.13 165.152 122.233 164.832 122.44C164.519 122.64 164.272 122.917 164.092 123.27C163.919 123.623 163.832 124.033 163.832 124.5C163.832 124.967 163.922 125.38 164.102 125.74C164.282 126.093 164.532 126.373 164.852 126.58C165.172 126.78 165.539 126.88 165.952 126.88C166.239 126.88 166.499 126.827 166.732 126.72C166.972 126.607 167.182 126.453 167.362 126.26C167.549 126.067 167.699 125.843 167.812 125.59L169.082 126.05C168.915 126.457 168.675 126.817 168.362 127.13C168.055 127.443 167.695 127.687 167.282 127.86C166.869 128.033 166.419 128.12 165.932 128.12ZM172.948 128L172.918 125.47C172.918 125.17 172.885 124.917 172.818 124.71C172.758 124.497 172.658 124.337 172.518 124.23C172.385 124.117 172.205 124.06 171.978 124.06C171.778 124.06 171.598 124.103 171.438 124.19C171.278 124.277 171.141 124.417 171.028 124.61L169.848 124.21C169.941 123.997 170.075 123.79 170.248 123.59C170.428 123.383 170.661 123.213 170.948 123.08C171.241 122.947 171.595 122.88 172.008 122.88C172.508 122.88 172.925 122.97 173.258 123.15C173.591 123.33 173.841 123.597 174.008 123.95C174.175 124.297 174.258 124.723 174.258 125.23V128H172.948ZM171.598 128.12C170.998 128.12 170.531 127.987 170.198 127.72C169.871 127.453 169.708 127.077 169.708 126.59C169.708 126.057 169.885 125.657 170.238 125.39C170.598 125.117 171.101 124.98 171.748 124.98H173.188L173.208 125.96H172.208C171.775 125.96 171.475 126.013 171.308 126.12C171.141 126.22 171.058 126.363 171.058 126.55C171.058 126.697 171.125 126.813 171.258 126.9C171.391 126.98 171.578 127.02 171.818 127.02C172.031 127.02 172.218 126.97 172.378 126.87C172.545 126.763 172.675 126.63 172.768 126.47C172.861 126.303 172.908 126.133 172.908 125.96H173.278C173.278 126.64 173.145 127.17 172.878 127.55C172.618 127.93 172.191 128.12 171.598 128.12ZM177.178 128.12C176.858 128.12 176.558 128.073 176.278 127.98C175.998 127.88 175.752 127.74 175.538 127.56C175.325 127.373 175.158 127.147 175.038 126.88L176.168 126.36C176.268 126.513 176.405 126.647 176.578 126.76C176.752 126.873 176.952 126.93 177.178 126.93C177.392 126.93 177.558 126.9 177.678 126.84C177.798 126.78 177.858 126.693 177.858 126.58C177.858 126.46 177.808 126.373 177.708 126.32C177.615 126.26 177.488 126.21 177.328 126.17L176.868 126.05C176.382 125.923 175.998 125.723 175.718 125.45C175.445 125.17 175.308 124.85 175.308 124.49C175.308 123.977 175.475 123.58 175.808 123.3C176.142 123.02 176.612 122.88 177.218 122.88C177.532 122.88 177.822 122.927 178.088 123.02C178.362 123.113 178.595 123.243 178.788 123.41C178.982 123.577 179.115 123.77 179.188 123.99L178.098 124.49C178.052 124.357 177.938 124.253 177.758 124.18C177.578 124.1 177.398 124.06 177.218 124.06C177.045 124.06 176.908 124.097 176.808 124.17C176.715 124.243 176.668 124.343 176.668 124.47C176.668 124.557 176.715 124.63 176.808 124.69C176.902 124.743 177.032 124.79 177.198 124.83L177.848 124.99C178.175 125.07 178.438 125.2 178.638 125.38C178.838 125.553 178.982 125.75 179.068 125.97C179.162 126.183 179.208 126.393 179.208 126.6C179.208 126.9 179.118 127.167 178.938 127.4C178.765 127.627 178.525 127.803 178.218 127.93C177.918 128.057 177.572 128.12 177.178 128.12ZM182.306 128.12C181.813 128.12 181.376 128.01 180.996 127.79C180.616 127.563 180.316 127.253 180.096 126.86C179.883 126.467 179.776 126.013 179.776 125.5C179.776 124.987 179.886 124.533 180.106 124.14C180.333 123.747 180.64 123.44 181.026 123.22C181.42 122.993 181.87 122.88 182.376 122.88C182.81 122.88 183.21 122.997 183.576 123.23C183.95 123.457 184.25 123.793 184.476 124.24C184.703 124.68 184.816 125.217 184.816 125.85H183.476C183.483 125.41 183.436 125.06 183.336 124.8C183.243 124.533 183.11 124.343 182.936 124.23C182.763 124.11 182.56 124.05 182.326 124.05C182.08 124.05 181.87 124.103 181.696 124.21C181.53 124.317 181.403 124.48 181.316 124.7C181.23 124.913 181.186 125.193 181.186 125.54C181.186 125.84 181.243 126.09 181.356 126.29C181.47 126.49 181.623 126.643 181.816 126.75C182.01 126.85 182.22 126.9 182.446 126.9C182.706 126.9 182.916 126.843 183.076 126.73C183.243 126.617 183.37 126.47 183.456 126.29L184.696 126.77C184.55 127.05 184.366 127.293 184.146 127.5C183.926 127.7 183.663 127.853 183.356 127.96C183.05 128.067 182.7 128.12 182.306 128.12ZM180.636 125.85L180.646 124.82H184.166V125.85H180.636ZM189.452 125.52V124.27H190.852C191.059 124.27 191.242 124.227 191.402 124.14C191.569 124.053 191.699 123.933 191.792 123.78C191.892 123.627 191.942 123.453 191.942 123.26C191.942 122.96 191.832 122.717 191.612 122.53C191.399 122.343 191.122 122.25 190.782 122.25H189.452V121L190.842 120.99C191.336 120.983 191.772 121.08 192.152 121.28C192.532 121.473 192.829 121.74 193.042 122.08C193.256 122.42 193.362 122.813 193.362 123.26C193.362 123.7 193.249 124.093 193.022 124.44C192.802 124.78 192.499 125.047 192.112 125.24C191.726 125.427 191.286 125.52 190.792 125.52H189.452ZM188.242 128V121H189.612V128H188.242ZM192.092 128L190.472 125.19L191.522 124.44L193.642 128H192.092ZM196.838 128.12C196.344 128.12 195.908 128.01 195.528 127.79C195.148 127.563 194.848 127.253 194.628 126.86C194.414 126.467 194.308 126.013 194.308 125.5C194.308 124.987 194.418 124.533 194.638 124.14C194.864 123.747 195.171 123.44 195.558 123.22C195.951 122.993 196.401 122.88 196.908 122.88C197.341 122.88 197.741 122.997 198.108 123.23C198.481 123.457 198.781 123.793 199.008 124.24C199.234 124.68 199.348 125.217 199.348 125.85H198.008C198.014 125.41 197.968 125.06 197.868 124.8C197.774 124.533 197.641 124.343 197.468 124.23C197.294 124.11 197.091 124.05 196.858 124.05C196.611 124.05 196.401 124.103 196.228 124.21C196.061 124.317 195.934 124.48 195.848 124.7C195.761 124.913 195.718 125.193 195.718 125.54C195.718 125.84 195.774 126.09 195.888 126.29C196.001 126.49 196.154 126.643 196.348 126.75C196.541 126.85 196.751 126.9 196.978 126.9C197.238 126.9 197.448 126.843 197.608 126.73C197.774 126.617 197.901 126.47 197.988 126.29L199.228 126.77C199.081 127.05 198.898 127.293 198.678 127.5C198.458 127.7 198.194 127.853 197.888 127.96C197.581 128.067 197.231 128.12 196.838 128.12ZM195.168 125.85L195.178 124.82H198.698V125.85H195.168ZM202.071 128.12C201.751 128.12 201.451 128.073 201.171 127.98C200.891 127.88 200.644 127.74 200.431 127.56C200.218 127.373 200.051 127.147 199.931 126.88L201.061 126.36C201.161 126.513 201.298 126.647 201.471 126.76C201.644 126.873 201.844 126.93 202.071 126.93C202.284 126.93 202.451 126.9 202.571 126.84C202.691 126.78 202.751 126.693 202.751 126.58C202.751 126.46 202.701 126.373 202.601 126.32C202.508 126.26 202.381 126.21 202.221 126.17L201.761 126.05C201.274 125.923 200.891 125.723 200.611 125.45C200.338 125.17 200.201 124.85 200.201 124.49C200.201 123.977 200.368 123.58 200.701 123.3C201.034 123.02 201.504 122.88 202.111 122.88C202.424 122.88 202.714 122.927 202.981 123.02C203.254 123.113 203.488 123.243 203.681 123.41C203.874 123.577 204.008 123.77 204.081 123.99L202.991 124.49C202.944 124.357 202.831 124.253 202.651 124.18C202.471 124.1 202.291 124.06 202.111 124.06C201.938 124.06 201.801 124.097 201.701 124.17C201.608 124.243 201.561 124.343 201.561 124.47C201.561 124.557 201.608 124.63 201.701 124.69C201.794 124.743 201.924 124.79 202.091 124.83L202.741 124.99C203.068 125.07 203.331 125.2 203.531 125.38C203.731 125.553 203.874 125.75 203.961 125.97C204.054 126.183 204.101 126.393 204.101 126.6C204.101 126.9 204.011 127.167 203.831 127.4C203.658 127.627 203.418 127.803 203.111 127.93C202.811 128.057 202.464 128.12 202.071 128.12ZM207.309 128.12C206.796 128.12 206.339 128.01 205.939 127.79C205.546 127.563 205.236 127.253 205.009 126.86C204.782 126.467 204.669 126.013 204.669 125.5C204.669 124.987 204.779 124.533 204.999 124.14C205.226 123.747 205.536 123.44 205.929 123.22C206.329 122.993 206.782 122.88 207.289 122.88C207.809 122.88 208.266 122.993 208.659 123.22C209.052 123.44 209.359 123.747 209.579 124.14C209.806 124.533 209.919 124.987 209.919 125.5C209.919 126.013 209.806 126.467 209.579 126.86C209.359 127.253 209.052 127.563 208.659 127.79C208.272 128.01 207.822 128.12 207.309 128.12ZM207.309 126.83C207.542 126.83 207.746 126.773 207.919 126.66C208.099 126.547 208.239 126.39 208.339 126.19C208.439 125.99 208.489 125.76 208.489 125.5C208.489 125.24 208.436 125.01 208.329 124.81C208.229 124.61 208.089 124.453 207.909 124.34C207.729 124.227 207.522 124.17 207.289 124.17C207.062 124.17 206.859 124.227 206.679 124.34C206.499 124.453 206.359 124.61 206.259 124.81C206.159 125.01 206.109 125.24 206.109 125.5C206.109 125.76 206.159 125.99 206.259 126.19C206.359 126.39 206.499 126.547 206.679 126.66C206.866 126.773 207.076 126.83 207.309 126.83ZM210.865 128L210.875 121H212.195L212.185 128H210.865ZM216.636 128L216.556 127.08V123H217.876V128H216.636ZM213.246 125.86V123H214.566V125.56L213.246 125.86ZM214.566 125.56C214.566 125.893 214.602 126.157 214.676 126.35C214.756 126.537 214.866 126.673 215.006 126.76C215.152 126.84 215.316 126.88 215.496 126.88C215.842 126.887 216.106 126.783 216.286 126.57C216.466 126.35 216.556 126.033 216.556 125.62H217.006C217.006 126.153 216.926 126.607 216.766 126.98C216.612 127.347 216.392 127.63 216.106 127.83C215.826 128.023 215.496 128.12 215.116 128.12C214.516 128.12 214.052 127.937 213.726 127.57C213.406 127.197 213.246 126.627 213.246 125.86L214.566 125.56ZM221.179 128.12C220.626 128.12 220.206 127.983 219.919 127.71C219.639 127.437 219.499 127.047 219.499 126.54V121.44H220.819V126.25C220.819 126.463 220.866 126.627 220.959 126.74C221.053 126.847 221.189 126.9 221.369 126.9C221.436 126.9 221.509 126.887 221.589 126.86C221.669 126.827 221.753 126.78 221.839 126.72L222.299 127.71C222.139 127.83 221.959 127.927 221.759 128C221.566 128.08 221.373 128.12 221.179 128.12ZM218.689 124.12V123H222.069V124.12H218.689ZM223.162 128V123H224.482V128H223.162ZM223.822 122.19C223.622 122.19 223.445 122.117 223.292 121.97C223.138 121.817 223.062 121.637 223.062 121.43C223.062 121.223 223.138 121.047 223.292 120.9C223.445 120.747 223.622 120.67 223.822 120.67C224.028 120.67 224.205 120.747 224.352 120.9C224.505 121.047 224.582 121.223 224.582 121.43C224.582 121.637 224.505 121.817 224.352 121.97C224.205 122.117 224.028 122.19 223.822 122.19ZM228.149 128.12C227.636 128.12 227.179 128.01 226.779 127.79C226.386 127.563 226.076 127.253 225.849 126.86C225.622 126.467 225.509 126.013 225.509 125.5C225.509 124.987 225.619 124.533 225.839 124.14C226.066 123.747 226.376 123.44 226.769 123.22C227.169 122.993 227.622 122.88 228.129 122.88C228.649 122.88 229.106 122.993 229.499 123.22C229.892 123.44 230.199 123.747 230.419 124.14C230.646 124.533 230.759 124.987 230.759 125.5C230.759 126.013 230.646 126.467 230.419 126.86C230.199 127.253 229.892 127.563 229.499 127.79C229.112 128.01 228.662 128.12 228.149 128.12ZM228.149 126.83C228.382 126.83 228.586 126.773 228.759 126.66C228.939 126.547 229.079 126.39 229.179 126.19C229.279 125.99 229.329 125.76 229.329 125.5C229.329 125.24 229.276 125.01 229.169 124.81C229.069 124.61 228.929 124.453 228.749 124.34C228.569 124.227 228.362 124.17 228.129 124.17C227.902 124.17 227.699 124.227 227.519 124.34C227.339 124.453 227.199 124.61 227.099 124.81C226.999 125.01 226.949 125.24 226.949 125.5C226.949 125.76 226.999 125.99 227.099 126.19C227.199 126.39 227.339 126.547 227.519 126.66C227.706 126.773 227.916 126.83 228.149 126.83ZM231.705 128V123H232.945L233.025 123.92V128H231.705ZM235.015 128V125.44L236.335 125.14V128H235.015ZM235.015 125.44C235.015 125.1 234.975 124.837 234.895 124.65C234.821 124.463 234.715 124.33 234.575 124.25C234.435 124.163 234.271 124.12 234.085 124.12C233.745 124.113 233.481 124.217 233.295 124.43C233.115 124.643 233.025 124.96 233.025 125.38H232.585C232.585 124.847 232.661 124.397 232.815 124.03C232.975 123.657 233.195 123.373 233.475 123.18C233.755 122.98 234.085 122.88 234.465 122.88C235.071 122.88 235.535 123.067 235.855 123.44C236.181 123.807 236.341 124.373 236.335 125.14L235.015 125.44Z" fill="black"/>
<path d="M136 106C157.667 59.3333 218.333 59.3333 240 106" stroke="#1E4388" stroke-opacity="0.15" stroke-width="7" stroke-linecap="round" stroke-linejoin="round"/>
<path d="M136 106C143 91.028 154 80.5096 167.5 75" stroke="#1E4388" stroke-width="5" stroke-linecap="round" stroke-linejoin="round"/>
<path d="M176.885 98.716L179.969 95.632L180.941 96.568L177.605 99.988L176.885 98.716ZM176.933 92.428H178.289V99.028H176.933V92.428ZM174.305 96.532L175.289 95.596L178.349 98.728L177.605 99.988L174.305 96.532ZM185.362 91.468C185.93 91.468 186.41 91.572 186.802 91.78C187.202 91.98 187.526 92.26 187.774 92.62C188.03 92.98 188.214 93.4 188.326 93.88C188.446 94.352 188.506 94.86 188.506 95.404C188.506 96.052 188.438 96.664 188.302 97.24C188.166 97.808 187.958 98.312 187.678 98.752C187.406 99.184 187.054 99.528 186.622 99.784C186.19 100.032 185.67 100.156 185.062 100.156C184.622 100.156 184.19 100.092 183.766 99.964C183.35 99.828 182.974 99.644 182.638 99.412L183.442 98.212C183.698 98.38 183.966 98.508 184.246 98.596C184.534 98.676 184.794 98.716 185.026 98.716C185.65 98.716 186.138 98.444 186.49 97.9C186.85 97.348 187.014 96.488 186.982 95.32L187.318 95.536C187.134 95.976 186.85 96.332 186.466 96.604C186.082 96.868 185.622 97 185.086 97C184.558 97 184.086 96.876 183.67 96.628C183.254 96.372 182.93 96.032 182.698 95.608C182.466 95.184 182.35 94.704 182.35 94.168C182.35 93.64 182.474 93.176 182.722 92.776C182.97 92.368 183.318 92.048 183.766 91.816C184.222 91.584 184.754 91.468 185.362 91.468ZM185.362 92.848C185.098 92.848 184.862 92.908 184.654 93.028C184.446 93.148 184.282 93.312 184.162 93.52C184.042 93.728 183.982 93.968 183.982 94.24C183.982 94.512 184.042 94.756 184.162 94.972C184.282 95.188 184.446 95.356 184.654 95.476C184.862 95.596 185.098 95.656 185.362 95.656C185.626 95.656 185.862 95.596 186.07 95.476C186.278 95.356 186.442 95.188 186.562 94.972C186.69 94.756 186.754 94.512 186.754 94.24C186.754 93.968 186.69 93.728 186.562 93.52C186.442 93.312 186.278 93.148 186.07 93.028C185.862 92.908 185.626 92.848 185.362 92.848ZM191.291 100V92.476L191.447 91.6H192.863L192.851 100H191.291ZM189.515 94.252V92.764C189.715 92.78 189.931 92.732 190.163 92.62C190.395 92.5 190.623 92.348 190.847 92.164C191.079 91.972 191.279 91.78 191.447 91.588L192.491 92.608C192.203 92.928 191.899 93.22 191.579 93.484C191.259 93.74 190.927 93.94 190.583 94.084C190.247 94.228 189.891 94.284 189.515 94.252ZM195.094 100L201.058 91.6H202.642L196.642 100H195.094ZM201.322 100.18C200.946 100.18 200.61 100.092 200.314 99.916C200.018 99.74 199.786 99.496 199.618 99.184C199.458 98.864 199.378 98.504 199.378 98.104C199.378 97.696 199.458 97.336 199.618 97.024C199.786 96.712 200.018 96.468 200.314 96.292C200.61 96.116 200.946 96.028 201.322 96.028C201.706 96.028 202.042 96.12 202.33 96.304C202.626 96.48 202.858 96.724 203.026 97.036C203.194 97.34 203.278 97.696 203.278 98.104C203.278 98.504 203.194 98.864 203.026 99.184C202.858 99.496 202.626 99.74 202.33 99.916C202.042 100.092 201.706 100.18 201.322 100.18ZM201.322 99.052C201.586 99.052 201.802 98.964 201.97 98.788C202.138 98.604 202.222 98.376 202.222 98.104C202.222 97.84 202.138 97.62 201.97 97.444C201.802 97.26 201.586 97.168 201.322 97.168C201.058 97.168 200.842 97.26 200.674 97.444C200.514 97.62 200.434 97.84 200.434 98.104C200.434 98.376 200.514 98.604 200.674 98.788C200.842 98.964 201.058 99.052 201.322 99.052ZM196.462 95.56C196.078 95.56 195.738 95.472 195.442 95.296C195.154 95.12 194.926 94.876 194.758 94.564C194.59 94.244 194.506 93.884 194.506 93.484C194.506 93.076 194.586 92.716 194.746 92.404C194.914 92.092 195.146 91.848 195.442 91.672C195.738 91.496 196.078 91.408 196.462 91.408C196.846 91.408 197.182 91.5 197.47 91.684C197.766 91.86 197.994 92.104 198.154 92.416C198.322 92.72 198.406 93.076 198.406 93.484C198.406 93.884 198.322 94.244 198.154 94.564C197.994 94.876 197.766 95.12 197.47 95.296C197.174 95.472 196.838 95.56 196.462 95.56ZM196.45 94.432C196.722 94.432 196.938 94.344 197.098 94.168C197.266 93.984 197.35 93.756 197.35 93.484C197.35 93.22 197.266 93 197.098 92.824C196.938 92.64 196.726 92.548 196.462 92.548C196.198 92.548 195.982 92.64 195.814 92.824C195.646 93 195.562 93.22 195.562 93.484C195.562 93.756 195.646 93.984 195.814 94.168C195.982 94.344 196.194 94.432 196.45 94.432Z" fill="#1E4388"/>
</g>
</g>
<defs>
<filter id="filter0_d_156_278" x="111" y="46" width="144" height="94" filterUnits="userSpaceOnUse" color-interpolation-filters="sRGB">
<feFlood flood-opacity="0" result="BackgroundImageFix"/>
<feColorMatrix in="SourceAlpha" type="matrix" values="0 0 0 0 0 0 0 0 0 0 0 0 0 0 0 0 0 0 127 0" result="hardAlpha"/>
<feOffset dx="-5" dy="-5"/>
<feGaussianBlur stdDeviation="2.5"/>
<feComposite in2="hardAlpha" operator="out"/>
<feColorMatrix type="matrix" values="0 0 0 0 0 0 0 0 0 0 0 0 0 0 0 0 0 0 0.05 0"/>
<feBlend mode="normal" in2="BackgroundImageFix" result="effect1_dropShadow_156_278"/>
<feBlend mode="normal" in="SourceGraphic" in2="effect1_dropShadow_156_278" result="shape"/>
</filter>
<clipPath id="clip0_156_278">
<rect width="255" height="140" fill="white"/>
</clipPath>
</defs>
</svg>
