<svg width="243" height="151" viewBox="0 0 243 151" fill="none" xmlns="http://www.w3.org/2000/svg">
<g clip-path="url(#clip0_156_278)">
<rect y="36" width="141" height="79" rx="12" fill="white"/>
<path d="M13 49L13 100" stroke="#DDE3ED" stroke-linecap="round" stroke-linejoin="round"/>
<path d="M13 54C15.7614 54 18 51.7614 18 49C18 46.2386 15.7614 44 13 44C10.2386 44 8 46.2386 8 49C8 51.7614 10.2386 54 13 54Z" fill="#DDE3ED"/>
<path d="M14.8301 47.1702L12.2546 50.83L10.9669 49.5185" stroke="#1E4388" stroke-linecap="round" stroke-linejoin="round"/>
<path d="M24.73 51.25V50.47H26.33C26.5833 50.47 26.81 50.4133 27.01 50.3C27.21 50.18 27.37 50.02 27.49 49.82C27.6167 49.6133 27.68 49.38 27.68 49.12C27.68 48.72 27.54 48.3967 27.26 48.15C26.9867 47.8967 26.63 47.77 26.19 47.77H24.73V47L26.21 46.99C26.6633 46.9833 27.0633 47.0733 27.41 47.26C27.7633 47.44 28.0367 47.6933 28.23 48.02C28.43 48.34 28.53 48.7067 28.53 49.12C28.53 49.5333 28.4233 49.9 28.21 50.22C27.9967 50.54 27.7067 50.7933 27.34 50.98C26.9733 51.16 26.56 51.25 26.1 51.25H24.73ZM23.93 54V47H24.78V54H23.93ZM27.88 54L26.2 51.13L26.87 50.69L28.81 54H27.88ZM32.1698 54.12C31.6831 54.12 31.2531 54.01 30.8798 53.79C30.5131 53.5633 30.2231 53.2533 30.0098 52.86C29.7964 52.4667 29.6898 52.0133 29.6898 51.5C29.6898 50.9867 29.7931 50.5333 29.9998 50.14C30.2131 49.7467 30.5064 49.44 30.8798 49.22C31.2531 48.9933 31.6764 48.88 32.1498 48.88C32.6164 48.88 33.0198 48.9967 33.3598 49.23C33.6998 49.4567 33.9631 49.7767 34.1498 50.19C34.3364 50.6033 34.4298 51.09 34.4298 51.65H33.6298C33.6298 51.2233 33.5731 50.86 33.4598 50.56C33.3464 50.2533 33.1798 50.0167 32.9598 49.85C32.7398 49.6833 32.4664 49.6 32.1398 49.6C31.8131 49.6 31.5264 49.68 31.2798 49.84C31.0398 49.9933 30.8531 50.2133 30.7198 50.5C30.5864 50.7867 30.5198 51.1233 30.5198 51.51C30.5198 51.89 30.5931 52.22 30.7398 52.5C30.8864 52.7733 31.0864 52.99 31.3398 53.15C31.5931 53.3033 31.8831 53.38 32.2098 53.38C32.5631 53.38 32.8598 53.2967 33.0998 53.13C33.3398 52.9633 33.5264 52.7467 33.6598 52.48L34.3698 52.83C34.2364 53.09 34.0631 53.3167 33.8498 53.51C33.6431 53.7033 33.3998 53.8533 33.1198 53.96C32.8398 54.0667 32.5231 54.12 32.1698 54.12ZM30.2298 51.65V50.96H33.9398V51.65H30.2298ZM37.6976 54.12C37.2042 54.12 36.7676 54.01 36.3876 53.79C36.0076 53.5633 35.7109 53.2533 35.4976 52.86C35.2842 52.4667 35.1776 52.0133 35.1776 51.5C35.1776 50.9867 35.2809 50.5333 35.4876 50.14C35.7009 49.7467 35.9976 49.44 36.3776 49.22C36.7576 48.9933 37.1909 48.88 37.6776 48.88C38.1576 48.88 38.5876 48.99 38.9676 49.21C39.3476 49.43 39.6376 49.74 39.8376 50.14L39.1076 50.47C38.9742 50.2033 38.7809 49.9967 38.5276 49.85C38.2742 49.6967 37.9842 49.62 37.6576 49.62C37.3309 49.62 37.0409 49.7 36.7876 49.86C36.5409 50.02 36.3442 50.2433 36.1976 50.53C36.0576 50.81 35.9876 51.1333 35.9876 51.5C35.9876 51.8667 36.0576 52.1933 36.1976 52.48C36.3442 52.76 36.5442 52.98 36.7976 53.14C37.0576 53.3 37.3509 53.38 37.6776 53.38C38.0042 53.38 38.2942 53.2967 38.5476 53.13C38.8076 52.9633 39.0042 52.73 39.1376 52.43L39.8676 52.76C39.6676 53.1867 39.3776 53.52 38.9976 53.76C38.6176 54 38.1842 54.12 37.6976 54.12ZM43.0877 54.12C42.6011 54.12 42.1711 54.01 41.7977 53.79C41.4311 53.5633 41.1411 53.2533 40.9277 52.86C40.7144 52.4667 40.6077 52.0133 40.6077 51.5C40.6077 50.9867 40.7111 50.5333 40.9177 50.14C41.1311 49.7467 41.4244 49.44 41.7977 49.22C42.1711 48.9933 42.5944 48.88 43.0677 48.88C43.5344 48.88 43.9377 48.9967 44.2777 49.23C44.6177 49.4567 44.8811 49.7767 45.0677 50.19C45.2544 50.6033 45.3477 51.09 45.3477 51.65H44.5477C44.5477 51.2233 44.4911 50.86 44.3777 50.56C44.2644 50.2533 44.0977 50.0167 43.8777 49.85C43.6577 49.6833 43.3844 49.6 43.0577 49.6C42.7311 49.6 42.4444 49.68 42.1977 49.84C41.9577 49.9933 41.7711 50.2133 41.6377 50.5C41.5044 50.7867 41.4377 51.1233 41.4377 51.51C41.4377 51.89 41.5111 52.22 41.6577 52.5C41.8044 52.7733 42.0044 52.99 42.2577 53.15C42.5111 53.3033 42.8011 53.38 43.1277 53.38C43.4811 53.38 43.7777 53.2967 44.0177 53.13C44.2577 52.9633 44.4444 52.7467 44.5777 52.48L45.2877 52.83C45.1544 53.09 44.9811 53.3167 44.7677 53.51C44.5611 53.7033 44.3177 53.8533 44.0377 53.96C43.7577 54.0667 43.4411 54.12 43.0877 54.12ZM41.1477 51.65V50.96H44.8577V51.65H41.1477ZM46.4355 54L46.4555 49H47.2555L47.2355 54H46.4355ZM46.8455 47.84C46.7122 47.84 46.5955 47.79 46.4955 47.69C46.3955 47.59 46.3455 47.4733 46.3455 47.34C46.3455 47.2 46.3955 47.0833 46.4955 46.99C46.5955 46.89 46.7122 46.84 46.8455 46.84C46.9855 46.84 47.1022 46.89 47.1955 46.99C47.2955 47.0833 47.3455 47.2 47.3455 47.34C47.3455 47.4733 47.2955 47.59 47.1955 47.69C47.1022 47.79 46.9855 47.84 46.8455 47.84ZM50.2398 54L52.2798 49H53.1198L51.0298 54H50.2398ZM50.1898 54L48.0998 49H48.9298L50.9698 54H50.1898ZM55.9979 54.12C55.5112 54.12 55.0812 54.01 54.7079 53.79C54.3412 53.5633 54.0512 53.2533 53.8379 52.86C53.6246 52.4667 53.5179 52.0133 53.5179 51.5C53.5179 50.9867 53.6212 50.5333 53.8279 50.14C54.0412 49.7467 54.3346 49.44 54.7079 49.22C55.0812 48.9933 55.5046 48.88 55.9779 48.88C56.4446 48.88 56.8479 48.9967 57.1879 49.23C57.5279 49.4567 57.7912 49.7767 57.9779 50.19C58.1646 50.6033 58.2579 51.09 58.2579 51.65H57.4579C57.4579 51.2233 57.4012 50.86 57.2879 50.56C57.1746 50.2533 57.0079 50.0167 56.7879 49.85C56.5679 49.6833 56.2946 49.6 55.9679 49.6C55.6412 49.6 55.3546 49.68 55.1079 49.84C54.8679 49.9933 54.6812 50.2133 54.5479 50.5C54.4146 50.7867 54.3479 51.1233 54.3479 51.51C54.3479 51.89 54.4212 52.22 54.5679 52.5C54.7146 52.7733 54.9146 52.99 55.1679 53.15C55.4212 53.3033 55.7112 53.38 56.0379 53.38C56.3912 53.38 56.6879 53.2967 56.9279 53.13C57.1679 52.9633 57.3546 52.7467 57.4879 52.48L58.1979 52.83C58.0646 53.09 57.8912 53.3167 57.6779 53.51C57.4712 53.7033 57.2279 53.8533 56.9479 53.96C56.6679 54.0667 56.3512 54.12 55.9979 54.12ZM54.0579 51.65V50.96H57.7679V51.65H54.0579ZM62.9957 54L62.9557 53.07V47H63.7557V54H62.9957ZM61.2657 54.12C60.819 54.12 60.4257 54.01 60.0857 53.79C59.7457 53.57 59.479 53.2633 59.2857 52.87C59.099 52.47 59.0057 52.0133 59.0057 51.5C59.0057 50.98 59.099 50.5233 59.2857 50.13C59.479 49.7367 59.7457 49.43 60.0857 49.21C60.4257 48.99 60.819 48.88 61.2657 48.88C61.6857 48.88 62.0524 48.99 62.3657 49.21C62.6857 49.43 62.9324 49.7367 63.1057 50.13C63.279 50.5233 63.3657 50.98 63.3657 51.5C63.3657 52.0133 63.279 52.47 63.1057 52.87C62.9324 53.2633 62.6857 53.57 62.3657 53.79C62.0524 54.01 61.6857 54.12 61.2657 54.12ZM61.4457 53.39C61.739 53.39 61.999 53.31 62.2257 53.15C62.4524 52.99 62.629 52.7667 62.7557 52.48C62.889 52.1933 62.9557 51.8667 62.9557 51.5C62.9557 51.1333 62.889 50.8067 62.7557 50.52C62.629 50.2333 62.4524 50.01 62.2257 49.85C61.999 49.69 61.7357 49.61 61.4357 49.61C61.1224 49.61 60.8424 49.69 60.5957 49.85C60.3557 50.01 60.1657 50.2333 60.0257 50.52C59.8857 50.8067 59.8157 51.1333 59.8157 51.5C59.8157 51.8667 59.8857 52.1933 60.0257 52.48C60.1657 52.7667 60.359 52.99 60.6057 53.15C60.8524 53.31 61.1324 53.39 61.4457 53.39Z" fill="black"/>
<path d="M13 72C15.7614 72 18 69.7614 18 67C18 64.2386 15.7614 62 13 62C10.2386 62 8 64.2386 8 67C8 69.7614 10.2386 72 13 72Z" fill="#DDE3ED"/>
<path d="M14.8301 65.1702L12.2546 68.83L10.9669 67.5185" stroke="#1E4388" stroke-linecap="round" stroke-linejoin="round"/>
<path d="M26.08 71L28.94 64H29.83L26.93 71H26.08ZM25.99 71L23.09 64H23.98L26.83 71H25.99ZM32.4432 71.12C31.9565 71.12 31.5265 71.01 31.1532 70.79C30.7865 70.5633 30.4965 70.2533 30.2832 69.86C30.0699 69.4667 29.9632 69.0133 29.9632 68.5C29.9632 67.9867 30.0665 67.5333 30.2732 67.14C30.4865 66.7467 30.7799 66.44 31.1532 66.22C31.5265 65.9933 31.9499 65.88 32.4232 65.88C32.8899 65.88 33.2932 65.9967 33.6332 66.23C33.9732 66.4567 34.2365 66.7767 34.4232 67.19C34.6099 67.6033 34.7032 68.09 34.7032 68.65H33.9032C33.9032 68.2233 33.8465 67.86 33.7332 67.56C33.6199 67.2533 33.4532 67.0167 33.2332 66.85C33.0132 66.6833 32.7399 66.6 32.4132 66.6C32.0865 66.6 31.7999 66.68 31.5532 66.84C31.3132 66.9933 31.1265 67.2133 30.9932 67.5C30.8599 67.7867 30.7932 68.1233 30.7932 68.51C30.7932 68.89 30.8665 69.22 31.0132 69.5C31.1599 69.7733 31.3599 69.99 31.6132 70.15C31.8665 70.3033 32.1565 70.38 32.4832 70.38C32.8365 70.38 33.1332 70.2967 33.3732 70.13C33.6132 69.9633 33.7999 69.7467 33.9332 69.48L34.6432 69.83C34.5099 70.09 34.3365 70.3167 34.1232 70.51C33.9165 70.7033 33.6732 70.8533 33.3932 70.96C33.1132 71.0667 32.7965 71.12 32.4432 71.12ZM30.5032 68.65V67.96H34.2132V68.65H30.5032ZM36.181 68.29C36.181 67.75 36.2843 67.3133 36.491 66.98C36.6977 66.64 36.961 66.39 37.281 66.23C37.6077 66.0633 37.951 65.98 38.311 65.98V66.73C38.0177 66.73 37.7343 66.78 37.461 66.88C37.1943 66.9733 36.9743 67.13 36.801 67.35C36.6277 67.57 36.541 67.87 36.541 68.25L36.181 68.29ZM35.741 71V66H36.541V71H35.741ZM39.1699 71L39.1899 66H39.9899L39.9699 71H39.1699ZM39.5799 64.84C39.4466 64.84 39.3299 64.79 39.2299 64.69C39.1299 64.59 39.0799 64.4733 39.0799 64.34C39.0799 64.2 39.1299 64.0833 39.2299 63.99C39.3299 63.89 39.4466 63.84 39.5799 63.84C39.7199 63.84 39.8366 63.89 39.9299 63.99C40.0299 64.0833 40.0799 64.2 40.0799 64.34C40.0799 64.4733 40.0299 64.59 39.9299 64.69C39.8366 64.79 39.7199 64.84 39.5799 64.84ZM41.9441 71V65.43C41.9441 64.91 42.0641 64.52 42.3041 64.26C42.5508 63.9933 42.9241 63.86 43.4241 63.86C43.5575 63.86 43.7075 63.8833 43.8741 63.93C44.0408 63.9767 44.2175 64.0433 44.4041 64.13L44.1041 64.76C43.9508 64.7 43.8208 64.6533 43.7141 64.62C43.6075 64.5867 43.5175 64.57 43.4441 64.57C43.2108 64.57 43.0341 64.6467 42.9141 64.8C42.8008 64.9467 42.7441 65.1767 42.7441 65.49V71H41.9441ZM41.0241 66.69V66H44.1941V66.69H41.0241ZM45.1855 71L45.2055 66H46.0055L45.9855 71H45.1855ZM45.5955 64.84C45.4622 64.84 45.3455 64.79 45.2455 64.69C45.1455 64.59 45.0955 64.4733 45.0955 64.34C45.0955 64.2 45.1455 64.0833 45.2455 63.99C45.3455 63.89 45.4622 63.84 45.5955 63.84C45.7355 63.84 45.8522 63.89 45.9455 63.99C46.0455 64.0833 46.0955 64.2 46.0955 64.34C46.0955 64.4733 46.0455 64.59 45.9455 64.69C45.8522 64.79 45.7355 64.84 45.5955 64.84ZM49.6698 71.12C49.1831 71.12 48.7531 71.01 48.3798 70.79C48.0131 70.5633 47.7231 70.2533 47.5098 69.86C47.2964 69.4667 47.1898 69.0133 47.1898 68.5C47.1898 67.9867 47.2931 67.5333 47.4998 67.14C47.7131 66.7467 48.0064 66.44 48.3798 66.22C48.7531 65.9933 49.1764 65.88 49.6498 65.88C50.1164 65.88 50.5198 65.9967 50.8598 66.23C51.1998 66.4567 51.4631 66.7767 51.6498 67.19C51.8364 67.6033 51.9298 68.09 51.9298 68.65H51.1298C51.1298 68.2233 51.0731 67.86 50.9598 67.56C50.8464 67.2533 50.6798 67.0167 50.4598 66.85C50.2398 66.6833 49.9664 66.6 49.6398 66.6C49.3131 66.6 49.0264 66.68 48.7798 66.84C48.5398 66.9933 48.3531 67.2133 48.2198 67.5C48.0864 67.7867 48.0198 68.1233 48.0198 68.51C48.0198 68.89 48.0931 69.22 48.2398 69.5C48.3864 69.7733 48.5864 69.99 48.8398 70.15C49.0931 70.3033 49.3831 70.38 49.7098 70.38C50.0631 70.38 50.3598 70.2967 50.5998 70.13C50.8398 69.9633 51.0264 69.7467 51.1598 69.48L51.8698 69.83C51.7364 70.09 51.5631 70.3167 51.3498 70.51C51.1431 70.7033 50.8998 70.8533 50.6198 70.96C50.3398 71.0667 50.0231 71.12 49.6698 71.12ZM47.7298 68.65V67.96H51.4398V68.65H47.7298ZM56.6676 71L56.6276 70.07V64H57.4276V71H56.6676ZM54.9376 71.12C54.4909 71.12 54.0976 71.01 53.7576 70.79C53.4176 70.57 53.1509 70.2633 52.9576 69.87C52.7709 69.47 52.6776 69.0133 52.6776 68.5C52.6776 67.98 52.7709 67.5233 52.9576 67.13C53.1509 66.7367 53.4176 66.43 53.7576 66.21C54.0976 65.99 54.4909 65.88 54.9376 65.88C55.3576 65.88 55.7242 65.99 56.0376 66.21C56.3576 66.43 56.6042 66.7367 56.7776 67.13C56.9509 67.5233 57.0376 67.98 57.0376 68.5C57.0376 69.0133 56.9509 69.47 56.7776 69.87C56.6042 70.2633 56.3576 70.57 56.0376 70.79C55.7242 71.01 55.3576 71.12 54.9376 71.12ZM55.1176 70.39C55.4109 70.39 55.6709 70.31 55.8976 70.15C56.1242 69.99 56.3009 69.7667 56.4276 69.48C56.5609 69.1933 56.6276 68.8667 56.6276 68.5C56.6276 68.1333 56.5609 67.8067 56.4276 67.52C56.3009 67.2333 56.1242 67.01 55.8976 66.85C55.6709 66.69 55.4076 66.61 55.1076 66.61C54.7942 66.61 54.5142 66.69 54.2676 66.85C54.0276 67.01 53.8376 67.2333 53.6976 67.52C53.5576 67.8067 53.4876 68.1333 53.4876 68.5C53.4876 68.8667 53.5576 69.1933 53.6976 69.48C53.8376 69.7667 54.0309 69.99 54.2776 70.15C54.5242 70.31 54.8042 70.39 55.1176 70.39Z" fill="black"/>
<path d="M13 89C15.7614 89 18 86.7614 18 84C18 81.2386 15.7614 79 13 79C10.2386 79 8 81.2386 8 84C8 86.7614 10.2386 89 13 89Z" fill="#DDE3ED"/>
<path d="M14.8301 82.1702L12.2546 85.83L10.9669 84.5185" stroke="#1E4388" stroke-linecap="round" stroke-linejoin="round"/>
<path d="M26.17 88.12C25.7833 88.12 25.44 88.08 25.14 88C24.84 87.9133 24.58 87.7967 24.36 87.65C24.14 87.4967 23.96 87.33 23.82 87.15C23.68 86.9633 23.5767 86.7667 23.51 86.56L24.32 86.28C24.42 86.5733 24.62 86.83 24.92 87.05C25.2267 87.2633 25.6 87.37 26.04 87.37C26.58 87.37 27.0033 87.2633 27.31 87.05C27.6167 86.8367 27.77 86.5533 27.77 86.2C27.77 85.8733 27.6333 85.61 27.36 85.41C27.0867 85.2033 26.7267 85.0433 26.28 84.93L25.51 84.73C25.1967 84.65 24.9067 84.5333 24.64 84.38C24.38 84.22 24.17 84.02 24.01 83.78C23.8567 83.5333 23.78 83.24 23.78 82.9C23.78 82.2667 23.9833 81.7733 24.39 81.42C24.8033 81.06 25.3967 80.88 26.17 80.88C26.63 80.88 27.0267 80.9567 27.36 81.11C27.6933 81.2567 27.9633 81.4467 28.17 81.68C28.3833 81.9067 28.5333 82.1533 28.62 82.42L27.82 82.7C27.6933 82.3667 27.48 82.1067 27.18 81.92C26.88 81.7267 26.5167 81.63 26.09 81.63C25.6433 81.63 25.2867 81.74 25.02 81.96C24.76 82.1733 24.63 82.4667 24.63 82.84C24.63 83.16 24.7333 83.4067 24.94 83.58C25.1467 83.7467 25.4167 83.87 25.75 83.95L26.52 84.14C27.2 84.3 27.72 84.5667 28.08 84.94C28.4467 85.3067 28.63 85.7033 28.63 86.13C28.63 86.4967 28.5367 86.8333 28.35 87.14C28.1633 87.44 27.8867 87.68 27.52 87.86C27.16 88.0333 26.71 88.12 26.17 88.12ZM33.2726 88L33.2226 87.08V83H34.0226V88H33.2726ZM29.7126 85.86V83H30.5126V85.56L29.7126 85.86ZM30.5126 85.56C30.5126 86.0533 30.5692 86.43 30.6826 86.69C30.7959 86.95 30.9526 87.13 31.1526 87.23C31.3592 87.3233 31.5892 87.37 31.8426 87.37C32.2759 87.37 32.6126 87.2133 32.8526 86.9C33.0992 86.5867 33.2226 86.15 33.2226 85.59H33.6126C33.6126 86.1167 33.5359 86.57 33.3826 86.95C33.2292 87.33 33.0059 87.62 32.7126 87.82C32.4259 88.02 32.0759 88.12 31.6626 88.12C31.0559 88.12 30.5759 87.9333 30.2226 87.56C29.8759 87.1867 29.7059 86.62 29.7126 85.86L30.5126 85.56ZM35.4188 88V81H36.2188V87.07L36.1788 88H35.4188ZM37.9088 88.12C37.4888 88.12 37.1188 88.01 36.7988 87.79C36.4854 87.57 36.2421 87.2633 36.0688 86.87C35.8954 86.47 35.8088 86.0133 35.8088 85.5C35.8088 84.98 35.8954 84.5233 36.0688 84.13C36.2421 83.7367 36.4854 83.43 36.7988 83.21C37.1188 82.99 37.4888 82.88 37.9088 82.88C38.3554 82.88 38.7488 82.99 39.0888 83.21C39.4288 83.43 39.6921 83.7367 39.8788 84.13C40.0721 84.5233 40.1688 84.98 40.1688 85.5C40.1688 86.0133 40.0721 86.47 39.8788 86.87C39.6921 87.2633 39.4288 87.57 39.0888 87.79C38.7488 88.01 38.3554 88.12 37.9088 88.12ZM37.7288 87.39C38.0421 87.39 38.3188 87.31 38.5588 87.15C38.8054 86.99 38.9988 86.7667 39.1388 86.48C39.2854 86.1933 39.3588 85.8667 39.3588 85.5C39.3588 85.1333 39.2888 84.8067 39.1488 84.52C39.0154 84.2333 38.8254 84.01 38.5788 83.85C38.3321 83.69 38.0521 83.61 37.7388 83.61C37.4454 83.61 37.1821 83.69 36.9488 83.85C36.7221 84.01 36.5421 84.2333 36.4088 84.52C36.2821 84.8067 36.2188 85.1333 36.2188 85.5C36.2188 85.8667 36.2821 86.1933 36.4088 86.48C36.5421 86.7667 36.7221 86.99 36.9488 87.15C37.1754 87.31 37.4354 87.39 37.7288 87.39ZM41.2781 88V83H42.0281L42.0781 83.92V88H41.2781ZM44.7881 88V85.44L45.5881 85.14V88H44.7881ZM48.3081 88V85.44L49.1081 85.14V88H48.3081ZM44.7881 85.44C44.7881 84.9467 44.7315 84.57 44.6181 84.31C44.5048 84.05 44.3481 83.8733 44.1481 83.78C43.9481 83.68 43.7215 83.63 43.4681 83.63C43.0281 83.63 42.6848 83.7867 42.4381 84.1C42.1981 84.4067 42.0781 84.8433 42.0781 85.41H41.6881C41.6881 84.8833 41.7648 84.43 41.9181 84.05C42.0715 83.67 42.2915 83.38 42.5781 83.18C42.8715 82.98 43.2248 82.88 43.6381 82.88C44.2448 82.88 44.7215 83.0667 45.0681 83.44C45.4215 83.8133 45.5948 84.38 45.5881 85.14L44.7881 85.44ZM48.3081 85.44C48.3081 84.9467 48.2481 84.57 48.1281 84.31C48.0148 84.05 47.8581 83.8733 47.6581 83.78C47.4581 83.68 47.2315 83.63 46.9781 83.63C46.5381 83.63 46.1948 83.7867 45.9481 84.1C45.7081 84.4067 45.5881 84.8433 45.5881 85.41H45.1981C45.1981 84.8833 45.2748 84.43 45.4281 84.05C45.5815 83.67 45.8048 83.38 46.0981 83.18C46.3915 82.98 46.7448 82.88 47.1581 82.88C47.7581 82.88 48.2315 83.0667 48.5781 83.44C48.9315 83.8133 49.1081 84.38 49.1081 85.14L48.3081 85.44ZM50.4199 88L50.4399 83H51.2399L51.2199 88H50.4199ZM50.8299 81.84C50.6966 81.84 50.5799 81.79 50.4799 81.69C50.3799 81.59 50.3299 81.4733 50.3299 81.34C50.3299 81.2 50.3799 81.0833 50.4799 80.99C50.5799 80.89 50.6966 80.84 50.8299 80.84C50.9699 80.84 51.0866 80.89 51.1799 80.99C51.2799 81.0833 51.3299 81.2 51.3299 81.34C51.3299 81.4733 51.2799 81.59 51.1799 81.69C51.0866 81.79 50.9699 81.84 50.8299 81.84ZM54.6741 88.12C54.1875 88.12 53.8108 87.9933 53.5441 87.74C53.2775 87.4867 53.1441 87.13 53.1441 86.67V81.44H53.9441V86.59C53.9441 86.8433 54.0108 87.04 54.1441 87.18C54.2841 87.3133 54.4775 87.38 54.7241 87.38C54.8041 87.38 54.8808 87.37 54.9541 87.35C55.0341 87.3233 55.1375 87.2633 55.2641 87.17L55.5741 87.82C55.4008 87.9333 55.2441 88.01 55.1041 88.05C54.9641 88.0967 54.8208 88.12 54.6741 88.12ZM52.2741 83.71V83H55.4441V83.71H52.2741ZM58.5218 88.12C58.0351 88.12 57.6585 87.9933 57.3918 87.74C57.1251 87.4867 56.9918 87.13 56.9918 86.67V81.44H57.7918V86.59C57.7918 86.8433 57.8585 87.04 57.9918 87.18C58.1318 87.3133 58.3251 87.38 58.5718 87.38C58.6518 87.38 58.7285 87.37 58.8018 87.35C58.8818 87.3233 58.9851 87.2633 59.1118 87.17L59.4218 87.82C59.2485 87.9333 59.0918 88.01 58.9518 88.05C58.8118 88.0967 58.6685 88.12 58.5218 88.12ZM56.1218 83.71V83H59.2918V83.71H56.1218ZM62.5995 88.12C62.1128 88.12 61.6828 88.01 61.3095 87.79C60.9428 87.5633 60.6528 87.2533 60.4395 86.86C60.2261 86.4667 60.1195 86.0133 60.1195 85.5C60.1195 84.9867 60.2228 84.5333 60.4295 84.14C60.6428 83.7467 60.9361 83.44 61.3095 83.22C61.6828 82.9933 62.1061 82.88 62.5795 82.88C63.0461 82.88 63.4495 82.9967 63.7895 83.23C64.1295 83.4567 64.3928 83.7767 64.5795 84.19C64.7661 84.6033 64.8595 85.09 64.8595 85.65H64.0595C64.0595 85.2233 64.0028 84.86 63.8895 84.56C63.7761 84.2533 63.6095 84.0167 63.3895 83.85C63.1695 83.6833 62.8961 83.6 62.5695 83.6C62.2428 83.6 61.9561 83.68 61.7095 83.84C61.4695 83.9933 61.2828 84.2133 61.1495 84.5C61.0161 84.7867 60.9495 85.1233 60.9495 85.51C60.9495 85.89 61.0228 86.22 61.1695 86.5C61.3161 86.7733 61.5161 86.99 61.7695 87.15C62.0228 87.3033 62.3128 87.38 62.6395 87.38C62.9928 87.38 63.2895 87.2967 63.5295 87.13C63.7695 86.9633 63.9561 86.7467 64.0895 86.48L64.7995 86.83C64.6661 87.09 64.4928 87.3167 64.2795 87.51C64.0728 87.7033 63.8295 87.8533 63.5495 87.96C63.2695 88.0667 62.9528 88.12 62.5995 88.12ZM60.6595 85.65V84.96H64.3695V85.65H60.6595ZM69.5973 88L69.5573 87.07V81H70.3573V88H69.5973ZM67.8673 88.12C67.4206 88.12 67.0273 88.01 66.6873 87.79C66.3473 87.57 66.0806 87.2633 65.8873 86.87C65.7006 86.47 65.6073 86.0133 65.6073 85.5C65.6073 84.98 65.7006 84.5233 65.8873 84.13C66.0806 83.7367 66.3473 83.43 66.6873 83.21C67.0273 82.99 67.4206 82.88 67.8673 82.88C68.2873 82.88 68.6539 82.99 68.9673 83.21C69.2873 83.43 69.5339 83.7367 69.7073 84.13C69.8806 84.5233 69.9673 84.98 69.9673 85.5C69.9673 86.0133 69.8806 86.47 69.7073 86.87C69.5339 87.2633 69.2873 87.57 68.9673 87.79C68.6539 88.01 68.2873 88.12 67.8673 88.12ZM68.0473 87.39C68.3406 87.39 68.6006 87.31 68.8273 87.15C69.0539 86.99 69.2306 86.7667 69.3573 86.48C69.4906 86.1933 69.5573 85.8667 69.5573 85.5C69.5573 85.1333 69.4906 84.8067 69.3573 84.52C69.2306 84.2333 69.0539 84.01 68.8273 83.85C68.6006 83.69 68.3373 83.61 68.0373 83.61C67.7239 83.61 67.4439 83.69 67.1973 83.85C66.9573 84.01 66.7673 84.2333 66.6273 84.52C66.4873 84.8067 66.4173 85.1333 66.4173 85.5C66.4173 85.8667 66.4873 86.1933 66.6273 86.48C66.7673 86.7667 66.9606 86.99 67.2073 87.15C67.4539 87.31 67.7339 87.39 68.0473 87.39Z" fill="black"/>
<path d="M13 106C15.7614 106 18 103.761 18 101C18 98.2386 15.7614 96 13 96C10.2386 96 8 98.2386 8 101C8 103.761 10.2386 106 13 106Z" fill="#DDE3ED"/>
<path d="M14.8301 99.1702L12.2546 102.83L10.9669 101.518" stroke="#1E4388" stroke-linecap="round" stroke-linejoin="round"/>
<path d="M26.88 105.12C26.2133 105.12 25.6233 104.967 25.11 104.66C24.5967 104.347 24.1933 103.92 23.9 103.38C23.6067 102.833 23.46 102.207 23.46 101.5C23.46 100.793 23.6033 100.17 23.89 99.63C24.1833 99.0833 24.5833 98.6567 25.09 98.35C25.6033 98.0367 26.19 97.88 26.85 97.88C27.27 97.88 27.6733 97.9567 28.06 98.11C28.4467 98.2567 28.7933 98.4667 29.1 98.74C29.4067 99.0067 29.6433 99.3167 29.81 99.67L29.08 100.04C28.9467 99.76 28.7633 99.5167 28.53 99.31C28.2967 99.1033 28.0367 98.9433 27.75 98.83C27.4633 98.71 27.1633 98.65 26.85 98.65C26.3633 98.65 25.9267 98.7733 25.54 99.02C25.1533 99.26 24.85 99.5933 24.63 100.02C24.4167 100.447 24.31 100.94 24.31 101.5C24.31 102.06 24.42 102.557 24.64 102.99C24.86 103.423 25.1633 103.763 25.55 104.01C25.9433 104.25 26.3867 104.37 26.88 104.37C27.2 104.37 27.5033 104.307 27.79 104.18C28.0767 104.047 28.3333 103.867 28.56 103.64C28.7933 103.413 28.9767 103.153 29.11 102.86L29.85 103.23C29.6767 103.597 29.4367 103.923 29.13 104.21C28.83 104.497 28.4833 104.72 28.09 104.88C27.7033 105.04 27.3 105.12 26.88 105.12ZM33.147 105.12C32.6604 105.12 32.227 105.01 31.847 104.79C31.467 104.563 31.1704 104.253 30.957 103.86C30.7437 103.467 30.637 103.013 30.637 102.5C30.637 101.987 30.7404 101.533 30.947 101.14C31.1604 100.747 31.457 100.44 31.837 100.22C32.217 99.9933 32.647 99.88 33.127 99.88C33.6204 99.88 34.0537 99.9933 34.427 100.22C34.807 100.44 35.1004 100.747 35.307 101.14C35.5204 101.533 35.627 101.987 35.627 102.5C35.627 103.013 35.5204 103.467 35.307 103.86C35.1004 104.253 34.8104 104.563 34.437 104.79C34.0637 105.01 33.6337 105.12 33.147 105.12ZM33.147 104.36C33.4737 104.36 33.7604 104.283 34.007 104.13C34.2537 103.97 34.447 103.75 34.587 103.47C34.727 103.19 34.797 102.867 34.797 102.5C34.797 102.133 34.7237 101.81 34.577 101.53C34.437 101.25 34.2404 101.033 33.987 100.88C33.7404 100.72 33.4537 100.64 33.127 100.64C32.8004 100.64 32.5137 100.72 32.267 100.88C32.0204 101.033 31.8237 101.25 31.677 101.53C31.537 101.81 31.467 102.133 31.467 102.5C31.467 102.867 31.537 103.19 31.677 103.47C31.8237 103.75 32.0237 103.97 32.277 104.13C32.5304 104.283 32.8204 104.36 33.147 104.36ZM36.7566 105V100H37.5066L37.5566 100.92V105H36.7566ZM40.2666 105V102.44L41.0666 102.14V105H40.2666ZM43.7866 105V102.44L44.5866 102.14V105H43.7866ZM40.2666 102.44C40.2666 101.947 40.21 101.57 40.0966 101.31C39.9833 101.05 39.8266 100.873 39.6266 100.78C39.4266 100.68 39.2 100.63 38.9466 100.63C38.5066 100.63 38.1633 100.787 37.9166 101.1C37.6766 101.407 37.5566 101.843 37.5566 102.41H37.1666C37.1666 101.883 37.2433 101.43 37.3966 101.05C37.55 100.67 37.77 100.38 38.0566 100.18C38.35 99.98 38.7033 99.88 39.1166 99.88C39.7233 99.88 40.2 100.067 40.5466 100.44C40.9 100.813 41.0733 101.38 41.0666 102.14L40.2666 102.44ZM43.7866 102.44C43.7866 101.947 43.7266 101.57 43.6066 101.31C43.4933 101.05 43.3366 100.873 43.1366 100.78C42.9366 100.68 42.71 100.63 42.4566 100.63C42.0166 100.63 41.6733 100.787 41.4266 101.1C41.1866 101.407 41.0666 101.843 41.0666 102.41H40.6766C40.6766 101.883 40.7533 101.43 40.9066 101.05C41.06 100.67 41.2833 100.38 41.5766 100.18C41.87 99.98 42.2233 99.88 42.6366 99.88C43.2366 99.88 43.71 100.067 44.0566 100.44C44.41 100.813 44.5866 101.38 44.5866 102.14L43.7866 102.44ZM45.8984 107V100H46.6484L46.6984 100.92V107H45.8984ZM48.3884 105.12C47.9684 105.12 47.5984 105.01 47.2784 104.79C46.9651 104.57 46.7218 104.263 46.5484 103.87C46.3751 103.47 46.2884 103.013 46.2884 102.5C46.2884 101.98 46.3751 101.523 46.5484 101.13C46.7218 100.737 46.9651 100.43 47.2784 100.21C47.5984 99.99 47.9684 99.88 48.3884 99.88C48.8351 99.88 49.2284 99.99 49.5684 100.21C49.9084 100.43 50.1718 100.737 50.3584 101.13C50.5518 101.523 50.6484 101.98 50.6484 102.5C50.6484 103.013 50.5518 103.47 50.3584 103.87C50.1718 104.263 49.9084 104.57 49.5684 104.79C49.2284 105.01 48.8351 105.12 48.3884 105.12ZM48.2084 104.39C48.5218 104.39 48.7984 104.31 49.0384 104.15C49.2851 103.99 49.4784 103.767 49.6184 103.48C49.7651 103.193 49.8384 102.867 49.8384 102.5C49.8384 102.133 49.7684 101.807 49.6284 101.52C49.4951 101.233 49.3051 101.01 49.0584 100.85C48.8118 100.69 48.5318 100.61 48.2184 100.61C47.9251 100.61 47.6618 100.69 47.4284 100.85C47.2018 101.01 47.0218 101.233 46.8884 101.52C46.7618 101.807 46.6984 102.133 46.6984 102.5C46.6984 102.867 46.7618 103.193 46.8884 103.48C47.0218 103.767 47.2018 103.99 47.4284 104.15C47.6551 104.31 47.9151 104.39 48.2084 104.39ZM51.7566 105L51.7766 98H52.5766L52.5566 105H51.7566ZM56.1834 105.12C55.6968 105.12 55.2668 105.01 54.8934 104.79C54.5268 104.563 54.2368 104.253 54.0234 103.86C53.8101 103.467 53.7034 103.013 53.7034 102.5C53.7034 101.987 53.8068 101.533 54.0134 101.14C54.2268 100.747 54.5201 100.44 54.8934 100.22C55.2668 99.9933 55.6901 99.88 56.1634 99.88C56.6301 99.88 57.0334 99.9967 57.3734 100.23C57.7134 100.457 57.9768 100.777 58.1634 101.19C58.3501 101.603 58.4434 102.09 58.4434 102.65H57.6434C57.6434 102.223 57.5868 101.86 57.4734 101.56C57.3601 101.253 57.1934 101.017 56.9734 100.85C56.7534 100.683 56.4801 100.6 56.1534 100.6C55.8268 100.6 55.5401 100.68 55.2934 100.84C55.0534 100.993 54.8668 101.213 54.7334 101.5C54.6001 101.787 54.5334 102.123 54.5334 102.51C54.5334 102.89 54.6068 103.22 54.7534 103.5C54.9001 103.773 55.1001 103.99 55.3534 104.15C55.6068 104.303 55.8968 104.38 56.2234 104.38C56.5768 104.38 56.8734 104.297 57.1134 104.13C57.3534 103.963 57.5401 103.747 57.6734 103.48L58.3834 103.83C58.2501 104.09 58.0768 104.317 57.8634 104.51C57.6568 104.703 57.4134 104.853 57.1334 104.96C56.8534 105.067 56.5368 105.12 56.1834 105.12ZM54.2434 102.65V101.96H57.9534V102.65H54.2434ZM61.4613 105.12C60.9746 105.12 60.5979 104.993 60.3313 104.74C60.0646 104.487 59.9313 104.13 59.9313 103.67V98.44H60.7313V103.59C60.7313 103.843 60.7979 104.04 60.9313 104.18C61.0713 104.313 61.2646 104.38 61.5113 104.38C61.5913 104.38 61.6679 104.37 61.7413 104.35C61.8213 104.323 61.9246 104.263 62.0513 104.17L62.3613 104.82C62.1879 104.933 62.0313 105.01 61.8913 105.05C61.7513 105.097 61.6079 105.12 61.4613 105.12ZM59.0613 100.71V100H62.2313V100.71H59.0613ZM65.5389 105.12C65.0522 105.12 64.6222 105.01 64.2489 104.79C63.8822 104.563 63.5922 104.253 63.3789 103.86C63.1656 103.467 63.0589 103.013 63.0589 102.5C63.0589 101.987 63.1622 101.533 63.3689 101.14C63.5822 100.747 63.8756 100.44 64.2489 100.22C64.6222 99.9933 65.0456 99.88 65.5189 99.88C65.9856 99.88 66.3889 99.9967 66.7289 100.23C67.0689 100.457 67.3322 100.777 67.5189 101.19C67.7056 101.603 67.7989 102.09 67.7989 102.65H66.9989C66.9989 102.223 66.9422 101.86 66.8289 101.56C66.7156 101.253 66.5489 101.017 66.3289 100.85C66.1089 100.683 65.8356 100.6 65.5089 100.6C65.1822 100.6 64.8956 100.68 64.6489 100.84C64.4089 100.993 64.2222 101.213 64.0889 101.5C63.9556 101.787 63.8889 102.123 63.8889 102.51C63.8889 102.89 63.9622 103.22 64.1089 103.5C64.2556 103.773 64.4556 103.99 64.7089 104.15C64.9622 104.303 65.2522 104.38 65.5789 104.38C65.9322 104.38 66.2289 104.297 66.4689 104.13C66.7089 103.963 66.8956 103.747 67.0289 103.48L67.7389 103.83C67.6056 104.09 67.4322 104.317 67.2189 104.51C67.0122 104.703 66.7689 104.853 66.4889 104.96C66.2089 105.067 65.8922 105.12 65.5389 105.12ZM63.5989 102.65V101.96H67.3089V102.65H63.5989ZM72.5367 105L72.4967 104.07V98H73.2967V105H72.5367ZM70.8067 105.12C70.3601 105.12 69.9667 105.01 69.6267 104.79C69.2867 104.57 69.0201 104.263 68.8267 103.87C68.6401 103.47 68.5467 103.013 68.5467 102.5C68.5467 101.98 68.6401 101.523 68.8267 101.13C69.0201 100.737 69.2867 100.43 69.6267 100.21C69.9667 99.99 70.3601 99.88 70.8067 99.88C71.2267 99.88 71.5934 99.99 71.9067 100.21C72.2267 100.43 72.4734 100.737 72.6467 101.13C72.8201 101.523 72.9067 101.98 72.9067 102.5C72.9067 103.013 72.8201 103.47 72.6467 103.87C72.4734 104.263 72.2267 104.57 71.9067 104.79C71.5934 105.01 71.2267 105.12 70.8067 105.12ZM70.9867 104.39C71.2801 104.39 71.5401 104.31 71.7667 104.15C71.9934 103.99 72.1701 103.767 72.2967 103.48C72.4301 103.193 72.4967 102.867 72.4967 102.5C72.4967 102.133 72.4301 101.807 72.2967 101.52C72.1701 101.233 71.9934 101.01 71.7667 100.85C71.5401 100.69 71.2767 100.61 70.9767 100.61C70.6634 100.61 70.3834 100.69 70.1367 100.85C69.8967 101.01 69.7067 101.233 69.5667 101.52C69.4267 101.807 69.3567 102.133 69.3567 102.5C69.3567 102.867 69.4267 103.193 69.5667 103.48C69.7067 103.767 69.9001 103.99 70.1467 104.15C70.3934 104.31 70.6734 104.39 70.9867 104.39Z" fill="black"/>
<g filter="url(#filter0_d_156_278)">
<rect x="111" y="86" width="132" height="65" rx="12" fill="white"/>
<path d="M125 136C146.667 89.3333 207.333 89.3333 229 136" stroke="#1E4388" stroke-opacity="0.1" stroke-width="7" stroke-linecap="round" stroke-linejoin="round"/>
<path d="M125 136C132 121.028 143 110.51 156.5 105" stroke="#1E4388" stroke-width="5" stroke-linecap="round" stroke-linejoin="round"/>
<path d="M165.885 128.716L168.969 125.632L169.941 126.568L166.605 129.988L165.885 128.716ZM165.933 122.428H167.289V129.028H165.933V122.428ZM163.305 126.532L164.289 125.596L167.349 128.728L166.605 129.988L163.305 126.532ZM174.362 121.468C174.93 121.468 175.41 121.572 175.802 121.78C176.202 121.98 176.526 122.26 176.774 122.62C177.03 122.98 177.214 123.4 177.326 123.88C177.446 124.352 177.506 124.86 177.506 125.404C177.506 126.052 177.438 126.664 177.302 127.24C177.166 127.808 176.958 128.312 176.678 128.752C176.406 129.184 176.054 129.528 175.622 129.784C175.19 130.032 174.67 130.156 174.062 130.156C173.622 130.156 173.19 130.092 172.766 129.964C172.35 129.828 171.974 129.644 171.638 129.412L172.442 128.212C172.698 128.38 172.966 128.508 173.246 128.596C173.534 128.676 173.794 128.716 174.026 128.716C174.65 128.716 175.138 128.444 175.49 127.9C175.85 127.348 176.014 126.488 175.982 125.32L176.318 125.536C176.134 125.976 175.85 126.332 175.466 126.604C175.082 126.868 174.622 127 174.086 127C173.558 127 173.086 126.876 172.67 126.628C172.254 126.372 171.93 126.032 171.698 125.608C171.466 125.184 171.35 124.704 171.35 124.168C171.35 123.64 171.474 123.176 171.722 122.776C171.97 122.368 172.318 122.048 172.766 121.816C173.222 121.584 173.754 121.468 174.362 121.468ZM174.362 122.848C174.098 122.848 173.862 122.908 173.654 123.028C173.446 123.148 173.282 123.312 173.162 123.52C173.042 123.728 172.982 123.968 172.982 124.24C172.982 124.512 173.042 124.756 173.162 124.972C173.282 125.188 173.446 125.356 173.654 125.476C173.862 125.596 174.098 125.656 174.362 125.656C174.626 125.656 174.862 125.596 175.07 125.476C175.278 125.356 175.442 125.188 175.562 124.972C175.69 124.756 175.754 124.512 175.754 124.24C175.754 123.968 175.69 123.728 175.562 123.52C175.442 123.312 175.278 123.148 175.07 123.028C174.862 122.908 174.626 122.848 174.362 122.848ZM180.291 130V122.476L180.447 121.6H181.863L181.851 130H180.291ZM178.515 124.252V122.764C178.715 122.78 178.931 122.732 179.163 122.62C179.395 122.5 179.623 122.348 179.847 122.164C180.079 121.972 180.279 121.78 180.447 121.588L181.491 122.608C181.203 122.928 180.899 123.22 180.579 123.484C180.259 123.74 179.927 123.94 179.583 124.084C179.247 124.228 178.891 124.284 178.515 124.252ZM184.094 130L190.058 121.6H191.642L185.642 130H184.094ZM190.322 130.18C189.946 130.18 189.61 130.092 189.314 129.916C189.018 129.74 188.786 129.496 188.618 129.184C188.458 128.864 188.378 128.504 188.378 128.104C188.378 127.696 188.458 127.336 188.618 127.024C188.786 126.712 189.018 126.468 189.314 126.292C189.61 126.116 189.946 126.028 190.322 126.028C190.706 126.028 191.042 126.12 191.33 126.304C191.626 126.48 191.858 126.724 192.026 127.036C192.194 127.34 192.278 127.696 192.278 128.104C192.278 128.504 192.194 128.864 192.026 129.184C191.858 129.496 191.626 129.74 191.33 129.916C191.042 130.092 190.706 130.18 190.322 130.18ZM190.322 129.052C190.586 129.052 190.802 128.964 190.97 128.788C191.138 128.604 191.222 128.376 191.222 128.104C191.222 127.84 191.138 127.62 190.97 127.444C190.802 127.26 190.586 127.168 190.322 127.168C190.058 127.168 189.842 127.26 189.674 127.444C189.514 127.62 189.434 127.84 189.434 128.104C189.434 128.376 189.514 128.604 189.674 128.788C189.842 128.964 190.058 129.052 190.322 129.052ZM185.462 125.56C185.078 125.56 184.738 125.472 184.442 125.296C184.154 125.12 183.926 124.876 183.758 124.564C183.59 124.244 183.506 123.884 183.506 123.484C183.506 123.076 183.586 122.716 183.746 122.404C183.914 122.092 184.146 121.848 184.442 121.672C184.738 121.496 185.078 121.408 185.462 121.408C185.846 121.408 186.182 121.5 186.47 121.684C186.766 121.86 186.994 122.104 187.154 122.416C187.322 122.72 187.406 123.076 187.406 123.484C187.406 123.884 187.322 124.244 187.154 124.564C186.994 124.876 186.766 125.12 186.47 125.296C186.174 125.472 185.838 125.56 185.462 125.56ZM185.45 124.432C185.722 124.432 185.938 124.344 186.098 124.168C186.266 123.984 186.35 123.756 186.35 123.484C186.35 123.22 186.266 123 186.098 122.824C185.938 122.64 185.726 122.548 185.462 122.548C185.198 122.548 184.982 122.64 184.814 122.824C184.646 123 184.562 123.22 184.562 123.484C184.562 123.756 184.646 123.984 184.814 124.168C184.982 124.344 185.194 124.432 185.45 124.432Z" fill="#1E4388"/>
</g>
<g filter="url(#filter1_d_156_278)">
<rect x="111" width="132" height="76" rx="12" fill="white"/>
</g>
<rect x="117" y="40" width="36" height="30" rx="6" fill="#1E4388" fill-opacity="0.1"/>
<path fill-rule="evenodd" clip-rule="evenodd" d="M135.333 47.9722C133.109 47.9722 131.306 49.7755 131.306 52C131.306 53.8365 132.535 55.386 134.215 55.8706C132.889 56.0322 131.751 56.5015 130.893 57.3463C129.802 58.4216 129.25 60.0222 129.25 62.111C129.25 62.4026 129.486 62.6388 129.778 62.6388C130.069 62.6388 130.306 62.4026 130.306 62.111C130.306 60.1999 130.809 58.9118 131.634 58.0981C132.461 57.2829 133.696 56.8611 135.333 56.8611C136.97 56.8611 138.205 57.2829 139.032 58.0981C139.858 58.9118 140.361 60.1999 140.361 62.111C140.361 62.4026 140.597 62.6388 140.889 62.6388C141.18 62.6389 141.417 62.4026 141.417 62.1111C141.417 60.0222 140.864 58.4216 139.773 57.3463C138.916 56.5015 137.778 56.0323 136.451 55.8706C138.132 55.386 139.361 53.8366 139.361 52C139.361 49.7755 137.558 47.9722 135.333 47.9722ZM132.361 52C132.361 50.3585 133.692 49.0278 135.333 49.0278C136.975 49.0278 138.306 50.3585 138.306 52C138.306 53.6415 136.975 54.9722 135.333 54.9722C133.692 54.9722 132.361 53.6415 132.361 52Z" fill="#1E4388"/>
<rect x="159" y="40" width="36" height="30" rx="6" fill="#1E4388" fill-opacity="0.1"/>
<path fill-rule="evenodd" clip-rule="evenodd" d="M177.333 47.9722C175.109 47.9722 173.306 49.7755 173.306 52C173.306 53.8365 174.535 55.386 176.215 55.8706C174.889 56.0322 173.751 56.5015 172.893 57.3463C171.802 58.4216 171.25 60.0222 171.25 62.111C171.25 62.4026 171.486 62.6388 171.778 62.6388C172.069 62.6388 172.306 62.4026 172.306 62.111C172.306 60.1999 172.809 58.9118 173.634 58.0981C174.461 57.2829 175.696 56.8611 177.333 56.8611C178.97 56.8611 180.205 57.2829 181.032 58.0981C181.858 58.9118 182.361 60.1999 182.361 62.111C182.361 62.4026 182.597 62.6388 182.889 62.6388C183.18 62.6389 183.417 62.4026 183.417 62.1111C183.417 60.0222 182.864 58.4216 181.773 57.3463C180.916 56.5015 179.778 56.0323 178.451 55.8706C180.132 55.386 181.361 53.8366 181.361 52C181.361 49.7755 179.558 47.9722 177.333 47.9722ZM174.361 52C174.361 50.3585 175.692 49.0278 177.333 49.0278C178.975 49.0278 180.306 50.3585 180.306 52C180.306 53.6415 178.975 54.9722 177.333 54.9722C175.692 54.9722 174.361 53.6415 174.361 52Z" fill="#1E4388"/>
<rect x="201" y="40" width="36" height="30.8571" rx="6" fill="#1E4388" fill-opacity="0.1"/>
<path fill-rule="evenodd" clip-rule="evenodd" d="M219.333 47.9722C217.109 47.9722 215.306 49.7755 215.306 52C215.306 53.8365 216.535 55.386 218.215 55.8706C216.889 56.0322 215.751 56.5015 214.893 57.3463C213.802 58.4216 213.25 60.0222 213.25 62.111C213.25 62.4026 213.486 62.6388 213.778 62.6388C214.069 62.6388 214.306 62.4026 214.306 62.111C214.306 60.1999 214.809 58.9118 215.634 58.0981C216.461 57.2829 217.696 56.8611 219.333 56.8611C220.97 56.8611 222.205 57.2829 223.032 58.0981C223.858 58.9118 224.361 60.1999 224.361 62.111C224.361 62.4026 224.597 62.6388 224.889 62.6388C225.18 62.6389 225.417 62.4026 225.417 62.1111C225.417 60.0222 224.864 58.4216 223.773 57.3463C222.916 56.5015 221.778 56.0323 220.451 55.8706C222.132 55.386 223.361 53.8366 223.361 52C223.361 49.7755 221.558 47.9722 219.333 47.9722ZM216.361 52C216.361 50.3585 217.692 49.0278 219.333 49.0278C220.975 49.0278 222.306 50.3585 222.306 52C222.306 53.6415 220.975 54.9722 219.333 54.9722C217.692 54.9722 216.361 53.6415 216.361 52Z" fill="#1E4388"/>
<path d="M153.685 18.12C153.005 18.12 152.402 17.9667 151.875 17.66C151.348 17.3467 150.935 16.92 150.635 16.38C150.335 15.8333 150.185 15.2067 150.185 14.5C150.185 13.7933 150.335 13.17 150.635 12.63C150.935 12.0833 151.345 11.6567 151.865 11.35C152.392 11.0367 152.995 10.88 153.675 10.88C154.155 10.88 154.602 10.9667 155.015 11.14C155.428 11.3067 155.788 11.5433 156.095 11.85C156.408 12.15 156.648 12.4967 156.815 12.89L155.545 13.36C155.432 13.1133 155.282 12.9 155.095 12.72C154.908 12.5333 154.695 12.39 154.455 12.29C154.215 12.1833 153.955 12.13 153.675 12.13C153.268 12.13 152.905 12.2333 152.585 12.44C152.272 12.64 152.025 12.9167 151.845 13.27C151.672 13.6233 151.585 14.0333 151.585 14.5C151.585 14.9667 151.675 15.38 151.855 15.74C152.035 16.0933 152.285 16.3733 152.605 16.58C152.925 16.78 153.292 16.88 153.705 16.88C153.992 16.88 154.252 16.8267 154.485 16.72C154.725 16.6067 154.935 16.4533 155.115 16.26C155.302 16.0667 155.452 15.8433 155.565 15.59L156.835 16.05C156.668 16.4567 156.428 16.8167 156.115 17.13C155.808 17.4433 155.448 17.6867 155.035 17.86C154.622 18.0333 154.172 18.12 153.685 18.12ZM157.661 18L157.651 10.94H158.971L158.981 18H157.661ZM160.981 18V15.44L162.301 15.14V18H160.981ZM160.981 15.44C160.981 15.1 160.941 14.8367 160.861 14.65C160.781 14.4633 160.671 14.33 160.531 14.25C160.391 14.1633 160.228 14.12 160.041 14.12C159.701 14.1133 159.438 14.2167 159.251 14.43C159.071 14.6433 158.981 14.96 158.981 15.38H158.541C158.541 14.8467 158.618 14.3967 158.771 14.03C158.931 13.6567 159.151 13.3733 159.431 13.18C159.718 12.98 160.048 12.88 160.421 12.88C161.034 12.88 161.501 13.0667 161.821 13.44C162.141 13.8067 162.301 14.3733 162.301 15.14L160.981 15.44ZM166.404 18L166.374 15.47C166.374 15.17 166.341 14.9167 166.274 14.71C166.214 14.4967 166.114 14.3367 165.974 14.23C165.841 14.1167 165.661 14.06 165.434 14.06C165.234 14.06 165.054 14.1033 164.894 14.19C164.734 14.2767 164.598 14.4167 164.484 14.61L163.304 14.21C163.398 13.9967 163.531 13.79 163.704 13.59C163.884 13.3833 164.118 13.2133 164.404 13.08C164.698 12.9467 165.051 12.88 165.464 12.88C165.964 12.88 166.381 12.97 166.714 13.15C167.048 13.33 167.298 13.5967 167.464 13.95C167.631 14.2967 167.714 14.7233 167.714 15.23V18H166.404ZM165.054 18.12C164.454 18.12 163.988 17.9867 163.654 17.72C163.328 17.4533 163.164 17.0767 163.164 16.59C163.164 16.0567 163.341 15.6567 163.694 15.39C164.054 15.1167 164.558 14.98 165.204 14.98H166.644L166.664 15.96H165.664C165.231 15.96 164.931 16.0133 164.764 16.12C164.598 16.22 164.514 16.3633 164.514 16.55C164.514 16.6967 164.581 16.8133 164.714 16.9C164.848 16.98 165.034 17.02 165.274 17.02C165.488 17.02 165.674 16.97 165.834 16.87C166.001 16.7633 166.131 16.63 166.224 16.47C166.318 16.3033 166.364 16.1333 166.364 15.96H166.734C166.734 16.64 166.601 17.17 166.334 17.55C166.074 17.93 165.648 18.12 165.054 18.12ZM170.924 18.12C170.371 18.12 169.951 17.9833 169.664 17.71C169.384 17.4367 169.244 17.0467 169.244 16.54V11.44H170.564V16.25C170.564 16.4633 170.611 16.6267 170.704 16.74C170.798 16.8467 170.934 16.9 171.114 16.9C171.181 16.9 171.254 16.8867 171.334 16.86C171.414 16.8267 171.498 16.78 171.584 16.72L172.044 17.71C171.884 17.83 171.704 17.9267 171.504 18C171.311 18.08 171.118 18.12 170.924 18.12ZM168.434 14.12V13H171.814V14.12H168.434ZM179.89 18L181.55 13H182.89L181.19 18H179.89ZM176.57 18L178.17 13H179.32L177.74 18H176.57ZM176.44 18L174.74 13H176.08L177.67 18H176.44ZM179.89 18L178.33 13H179.47L181.06 18H179.89ZM183.639 18V13H184.959V18H183.639ZM184.299 12.19C184.099 12.19 183.923 12.1167 183.769 11.97C183.616 11.8167 183.539 11.6367 183.539 11.43C183.539 11.2233 183.616 11.0467 183.769 10.9C183.923 10.7467 184.099 10.67 184.299 10.67C184.506 10.67 184.683 10.7467 184.829 10.9C184.983 11.0467 185.059 11.2233 185.059 11.43C185.059 11.6367 184.983 11.8167 184.829 11.97C184.683 12.1167 184.506 12.19 184.299 12.19ZM188.336 18.12C187.783 18.12 187.363 17.9833 187.076 17.71C186.796 17.4367 186.656 17.0467 186.656 16.54V11.44H187.976V16.25C187.976 16.4633 188.023 16.6267 188.116 16.74C188.21 16.8467 188.346 16.9 188.526 16.9C188.593 16.9 188.666 16.8867 188.746 16.86C188.826 16.8267 188.91 16.78 188.996 16.72L189.456 17.71C189.296 17.83 189.116 17.9267 188.916 18C188.723 18.08 188.53 18.12 188.336 18.12ZM185.846 14.12V13H189.226V14.12H185.846ZM190.249 18L190.239 10.94H191.559L191.569 18H190.249ZM193.569 18V15.44L194.889 15.14V18H193.569ZM193.569 15.44C193.569 15.1 193.529 14.8367 193.449 14.65C193.369 14.4633 193.259 14.33 193.119 14.25C192.979 14.1633 192.816 14.12 192.629 14.12C192.289 14.1133 192.026 14.2167 191.839 14.43C191.659 14.6433 191.569 14.96 191.569 15.38H191.129C191.129 14.8467 191.206 14.3967 191.359 14.03C191.519 13.6567 191.739 13.3733 192.019 13.18C192.306 12.98 192.636 12.88 193.009 12.88C193.622 12.88 194.089 13.0667 194.409 13.44C194.729 13.8067 194.889 14.3733 194.889 15.14L193.569 15.44ZM201.375 18L201.345 15.47C201.345 15.17 201.312 14.9167 201.245 14.71C201.185 14.4967 201.085 14.3367 200.945 14.23C200.812 14.1167 200.632 14.06 200.405 14.06C200.205 14.06 200.025 14.1033 199.865 14.19C199.705 14.2767 199.568 14.4167 199.455 14.61L198.275 14.21C198.368 13.9967 198.502 13.79 198.675 13.59C198.855 13.3833 199.088 13.2133 199.375 13.08C199.668 12.9467 200.022 12.88 200.435 12.88C200.935 12.88 201.352 12.97 201.685 13.15C202.018 13.33 202.268 13.5967 202.435 13.95C202.602 14.2967 202.685 14.7233 202.685 15.23V18H201.375ZM200.025 18.12C199.425 18.12 198.958 17.9867 198.625 17.72C198.298 17.4533 198.135 17.0767 198.135 16.59C198.135 16.0567 198.312 15.6567 198.665 15.39C199.025 15.1167 199.528 14.98 200.175 14.98H201.615L201.635 15.96H200.635C200.202 15.96 199.902 16.0133 199.735 16.12C199.568 16.22 199.485 16.3633 199.485 16.55C199.485 16.6967 199.552 16.8133 199.685 16.9C199.818 16.98 200.005 17.02 200.245 17.02C200.458 17.02 200.645 16.97 200.805 16.87C200.972 16.7633 201.102 16.63 201.195 16.47C201.288 16.3033 201.335 16.1333 201.335 15.96H201.705C201.705 16.64 201.572 17.17 201.305 17.55C201.045 17.93 200.618 18.12 200.025 18.12ZM137.822 30V23H139.192V30H137.822ZM138.922 27.18V25.93H141.792V27.18H138.922ZM138.922 24.25V23H142.312V24.25H138.922ZM143.249 30V25H144.569V30H143.249ZM143.909 24.19C143.709 24.19 143.532 24.1167 143.379 23.97C143.225 23.8167 143.149 23.6367 143.149 23.43C143.149 23.2233 143.225 23.0467 143.379 22.9C143.532 22.7467 143.709 22.67 143.909 22.67C144.115 22.67 144.292 22.7467 144.439 22.9C144.592 23.0467 144.669 23.2233 144.669 23.43C144.669 23.6367 144.592 23.8167 144.439 23.97C144.292 24.1167 144.115 24.19 143.909 24.19ZM145.786 30V25H147.026L147.106 25.92V30H145.786ZM149.096 30V27.44L150.416 27.14V30H149.096ZM149.096 27.44C149.096 27.1 149.056 26.8367 148.976 26.65C148.902 26.4633 148.796 26.33 148.656 26.25C148.516 26.1633 148.352 26.12 148.166 26.12C147.826 26.1133 147.562 26.2167 147.376 26.43C147.196 26.6433 147.106 26.96 147.106 27.38H146.666C146.666 26.8467 146.742 26.3967 146.896 26.03C147.056 25.6567 147.276 25.3733 147.556 25.18C147.836 24.98 148.166 24.88 148.546 24.88C149.152 24.88 149.616 25.0667 149.936 25.44C150.262 25.8067 150.422 26.3733 150.416 27.14L149.096 27.44ZM154.519 30L154.489 27.47C154.489 27.17 154.456 26.9167 154.389 26.71C154.329 26.4967 154.229 26.3367 154.089 26.23C153.956 26.1167 153.776 26.06 153.549 26.06C153.349 26.06 153.169 26.1033 153.009 26.19C152.849 26.2767 152.713 26.4167 152.599 26.61L151.419 26.21C151.513 25.9967 151.646 25.79 151.819 25.59C151.999 25.3833 152.233 25.2133 152.519 25.08C152.813 24.9467 153.166 24.88 153.579 24.88C154.079 24.88 154.496 24.97 154.829 25.15C155.163 25.33 155.413 25.5967 155.579 25.95C155.746 26.2967 155.829 26.7233 155.829 27.23V30H154.519ZM153.169 30.12C152.569 30.12 152.103 29.9867 151.769 29.72C151.443 29.4533 151.279 29.0767 151.279 28.59C151.279 28.0567 151.456 27.6567 151.809 27.39C152.169 27.1167 152.673 26.98 153.319 26.98H154.759L154.779 27.96H153.779C153.346 27.96 153.046 28.0133 152.879 28.12C152.713 28.22 152.629 28.3633 152.629 28.55C152.629 28.6967 152.696 28.8133 152.829 28.9C152.963 28.98 153.149 29.02 153.389 29.02C153.603 29.02 153.789 28.97 153.949 28.87C154.116 28.7633 154.246 28.63 154.339 28.47C154.433 28.3033 154.479 28.1333 154.479 27.96H154.849C154.849 28.64 154.716 29.17 154.449 29.55C154.189 29.93 153.763 30.12 153.169 30.12ZM156.88 30V25H158.12L158.2 25.92V30H156.88ZM160.19 30V27.44L161.51 27.14V30H160.19ZM160.19 27.44C160.19 27.1 160.15 26.8367 160.07 26.65C159.996 26.4633 159.89 26.33 159.75 26.25C159.61 26.1633 159.446 26.12 159.26 26.12C158.92 26.1133 158.656 26.2167 158.47 26.43C158.29 26.6433 158.2 26.96 158.2 27.38H157.76C157.76 26.8467 157.836 26.3967 157.99 26.03C158.15 25.6567 158.37 25.3733 158.65 25.18C158.93 24.98 159.26 24.88 159.64 24.88C160.246 24.88 160.71 25.0667 161.03 25.44C161.356 25.8067 161.516 26.3733 161.51 27.14L160.19 27.44ZM164.973 30.12C164.453 30.12 163.99 30.01 163.583 29.79C163.176 29.5633 162.86 29.2533 162.633 28.86C162.406 28.46 162.293 28.0067 162.293 27.5C162.293 26.9867 162.406 26.5333 162.633 26.14C162.86 25.7467 163.173 25.44 163.573 25.22C163.973 24.9933 164.433 24.88 164.953 24.88C165.453 24.88 165.91 25.0033 166.323 25.25C166.736 25.4967 167.036 25.8533 167.223 26.32L165.983 26.76C165.89 26.5667 165.743 26.4133 165.543 26.3C165.35 26.18 165.133 26.12 164.893 26.12C164.646 26.12 164.43 26.18 164.243 26.3C164.056 26.4133 163.91 26.5733 163.803 26.78C163.696 26.9867 163.643 27.2267 163.643 27.5C163.643 27.7733 163.696 28.0133 163.803 28.22C163.91 28.42 164.06 28.58 164.253 28.7C164.446 28.82 164.666 28.88 164.913 28.88C165.153 28.88 165.37 28.8167 165.563 28.69C165.763 28.5633 165.91 28.3967 166.003 28.19L167.253 28.63C167.06 29.1033 166.756 29.47 166.343 29.73C165.936 29.99 165.48 30.12 164.973 30.12ZM168.102 30V25H169.422V30H168.102ZM168.762 24.19C168.562 24.19 168.385 24.1167 168.232 23.97C168.079 23.8167 168.002 23.6367 168.002 23.43C168.002 23.2233 168.079 23.0467 168.232 22.9C168.385 22.7467 168.562 22.67 168.762 22.67C168.969 22.67 169.145 22.7467 169.292 22.9C169.445 23.0467 169.522 23.2233 169.522 23.43C169.522 23.6367 169.445 23.8167 169.292 23.97C169.145 24.1167 168.969 24.19 168.762 24.19ZM173.689 30L173.659 27.47C173.659 27.17 173.626 26.9167 173.559 26.71C173.499 26.4967 173.399 26.3367 173.259 26.23C173.126 26.1167 172.946 26.06 172.719 26.06C172.519 26.06 172.339 26.1033 172.179 26.19C172.019 26.2767 171.883 26.4167 171.769 26.61L170.589 26.21C170.683 25.9967 170.816 25.79 170.989 25.59C171.169 25.3833 171.403 25.2133 171.689 25.08C171.983 24.9467 172.336 24.88 172.749 24.88C173.249 24.88 173.666 24.97 173.999 25.15C174.333 25.33 174.583 25.5967 174.749 25.95C174.916 26.2967 174.999 26.7233 174.999 27.23V30H173.689ZM172.339 30.12C171.739 30.12 171.273 29.9867 170.939 29.72C170.613 29.4533 170.449 29.0767 170.449 28.59C170.449 28.0567 170.626 27.6567 170.979 27.39C171.339 27.1167 171.843 26.98 172.489 26.98H173.929L173.949 27.96H172.949C172.516 27.96 172.216 28.0133 172.049 28.12C171.883 28.22 171.799 28.3633 171.799 28.55C171.799 28.6967 171.866 28.8133 171.999 28.9C172.133 28.98 172.319 29.02 172.559 29.02C172.773 29.02 172.959 28.97 173.119 28.87C173.286 28.7633 173.416 28.63 173.509 28.47C173.603 28.3033 173.649 28.1333 173.649 27.96H174.019C174.019 28.64 173.886 29.17 173.619 29.55C173.359 29.93 172.933 30.12 172.339 30.12ZM176.049 30L176.059 23H177.379L177.369 30H176.049ZM185.943 30L183.263 23H184.633L187.393 30H185.943ZM180.413 30L183.173 23H184.543L181.863 30H180.413ZM181.713 28.46V27.25H186.103V28.46H181.713ZM191.494 30L191.424 29.07V23H192.744V30H191.494ZM189.924 30.12C189.464 30.12 189.064 30.0133 188.724 29.8C188.391 29.5867 188.131 29.2833 187.944 28.89C187.758 28.4967 187.664 28.0333 187.664 27.5C187.664 26.96 187.758 26.4967 187.944 26.11C188.131 25.7167 188.391 25.4133 188.724 25.2C189.064 24.9867 189.464 24.88 189.924 24.88C190.344 24.88 190.698 24.9867 190.984 25.2C191.278 25.4133 191.501 25.7167 191.654 26.11C191.808 26.4967 191.884 26.96 191.884 27.5C191.884 28.0333 191.808 28.4967 191.654 28.89C191.501 29.2833 191.278 29.5867 190.984 29.8C190.698 30.0133 190.344 30.12 189.924 30.12ZM190.264 28.91C190.491 28.91 190.691 28.85 190.864 28.73C191.044 28.61 191.184 28.4433 191.284 28.23C191.384 28.0167 191.434 27.7733 191.434 27.5C191.434 27.2267 191.384 26.9833 191.284 26.77C191.184 26.5567 191.044 26.3933 190.864 26.28C190.691 26.16 190.488 26.1 190.254 26.1C190.014 26.1 189.804 26.16 189.624 26.28C189.444 26.3933 189.301 26.5567 189.194 26.77C189.088 26.9833 189.034 27.2267 189.034 27.5C189.034 27.7733 189.088 28.0167 189.194 28.23C189.301 28.4433 189.444 28.61 189.624 28.73C189.811 28.85 190.024 28.91 190.264 28.91ZM195.542 30L197.442 25H198.802L196.752 30H195.542ZM195.432 30L193.382 25H194.742L196.642 30H195.432ZM199.518 30V25H200.838V30H199.518ZM200.178 24.19C199.978 24.19 199.801 24.1167 199.648 23.97C199.495 23.8167 199.418 23.6367 199.418 23.43C199.418 23.2233 199.495 23.0467 199.648 22.9C199.801 22.7467 199.978 22.67 200.178 22.67C200.385 22.67 200.561 22.7467 200.708 22.9C200.861 23.0467 200.938 23.2233 200.938 23.43C200.938 23.6367 200.861 23.8167 200.708 23.97C200.561 24.1167 200.385 24.19 200.178 24.19ZM203.925 30.12C203.605 30.12 203.305 30.0733 203.025 29.98C202.745 29.88 202.499 29.74 202.285 29.56C202.072 29.3733 201.905 29.1467 201.785 28.88L202.915 28.36C203.015 28.5133 203.152 28.6467 203.325 28.76C203.499 28.8733 203.699 28.93 203.925 28.93C204.139 28.93 204.305 28.9 204.425 28.84C204.545 28.78 204.605 28.6933 204.605 28.58C204.605 28.46 204.555 28.3733 204.455 28.32C204.362 28.26 204.235 28.21 204.075 28.17L203.615 28.05C203.129 27.9233 202.745 27.7233 202.465 27.45C202.192 27.17 202.055 26.85 202.055 26.49C202.055 25.9767 202.222 25.58 202.555 25.3C202.889 25.02 203.359 24.88 203.965 24.88C204.279 24.88 204.569 24.9267 204.835 25.02C205.109 25.1133 205.342 25.2433 205.535 25.41C205.729 25.5767 205.862 25.77 205.935 25.99L204.845 26.49C204.799 26.3567 204.685 26.2533 204.505 26.18C204.325 26.1 204.145 26.06 203.965 26.06C203.792 26.06 203.655 26.0967 203.555 26.17C203.462 26.2433 203.415 26.3433 203.415 26.47C203.415 26.5567 203.462 26.63 203.555 26.69C203.649 26.7433 203.779 26.79 203.945 26.83L204.595 26.99C204.922 27.07 205.185 27.2 205.385 27.38C205.585 27.5533 205.729 27.75 205.815 27.97C205.909 28.1833 205.955 28.3933 205.955 28.6C205.955 28.9 205.865 29.1667 205.685 29.4C205.512 29.6267 205.272 29.8033 204.965 29.93C204.665 30.0567 204.319 30.12 203.925 30.12ZM209.164 30.12C208.65 30.12 208.194 30.01 207.794 29.79C207.4 29.5633 207.09 29.2533 206.864 28.86C206.637 28.4667 206.524 28.0133 206.524 27.5C206.524 26.9867 206.634 26.5333 206.854 26.14C207.08 25.7467 207.39 25.44 207.784 25.22C208.184 24.9933 208.637 24.88 209.144 24.88C209.664 24.88 210.12 24.9933 210.514 25.22C210.907 25.44 211.214 25.7467 211.434 26.14C211.66 26.5333 211.774 26.9867 211.774 27.5C211.774 28.0133 211.66 28.4667 211.434 28.86C211.214 29.2533 210.907 29.5633 210.514 29.79C210.127 30.01 209.677 30.12 209.164 30.12ZM209.164 28.83C209.397 28.83 209.6 28.7733 209.774 28.66C209.954 28.5467 210.094 28.39 210.194 28.19C210.294 27.99 210.344 27.76 210.344 27.5C210.344 27.24 210.29 27.01 210.184 26.81C210.084 26.61 209.944 26.4533 209.764 26.34C209.584 26.2267 209.377 26.17 209.144 26.17C208.917 26.17 208.714 26.2267 208.534 26.34C208.354 26.4533 208.214 26.61 208.114 26.81C208.014 27.01 207.964 27.24 207.964 27.5C207.964 27.76 208.014 27.99 208.114 28.19C208.214 28.39 208.354 28.5467 208.534 28.66C208.72 28.7733 208.93 28.83 209.164 28.83ZM213.649 27.37C213.649 26.83 213.753 26.3833 213.959 26.03C214.173 25.6767 214.443 25.4133 214.769 25.24C215.103 25.0667 215.449 24.98 215.809 24.98V26.26C215.503 26.26 215.213 26.2967 214.939 26.37C214.673 26.4433 214.456 26.5633 214.289 26.73C214.123 26.8967 214.039 27.11 214.039 27.37H213.649ZM212.719 30V25H214.039V30H212.719Z" fill="#1E4388"/>
</g>
<defs>
<filter id="filter0_d_156_278" x="101" y="76" width="142" height="75" filterUnits="userSpaceOnUse" color-interpolation-filters="sRGB">
<feFlood flood-opacity="0" result="BackgroundImageFix"/>
<feColorMatrix in="SourceAlpha" type="matrix" values="0 0 0 0 0 0 0 0 0 0 0 0 0 0 0 0 0 0 127 0" result="hardAlpha"/>
<feOffset dx="-5" dy="-5"/>
<feGaussianBlur stdDeviation="2.5"/>
<feComposite in2="hardAlpha" operator="out"/>
<feColorMatrix type="matrix" values="0 0 0 0 0 0 0 0 0 0 0 0 0 0 0 0 0 0 0.05 0"/>
<feBlend mode="normal" in2="BackgroundImageFix" result="effect1_dropShadow_156_278"/>
<feBlend mode="normal" in="SourceGraphic" in2="effect1_dropShadow_156_278" result="shape"/>
</filter>
<filter id="filter1_d_156_278" x="101" y="0" width="142" height="86" filterUnits="userSpaceOnUse" color-interpolation-filters="sRGB">
<feFlood flood-opacity="0" result="BackgroundImageFix"/>
<feColorMatrix in="SourceAlpha" type="matrix" values="0 0 0 0 0 0 0 0 0 0 0 0 0 0 0 0 0 0 127 0" result="hardAlpha"/>
<feOffset dx="-5" dy="5"/>
<feGaussianBlur stdDeviation="2.5"/>
<feComposite in2="hardAlpha" operator="out"/>
<feColorMatrix type="matrix" values="0 0 0 0 0 0 0 0 0 0 0 0 0 0 0 0 0 0 0.05 0"/>
<feBlend mode="normal" in2="BackgroundImageFix" result="effect1_dropShadow_156_278"/>
<feBlend mode="normal" in="SourceGraphic" in2="effect1_dropShadow_156_278" result="shape"/>
</filter>
<clipPath id="clip0_156_278">
<rect width="243" height="151" fill="white"/>
</clipPath>
</defs>
</svg>
