<svg width="162" height="50" viewBox="0 0 162 50" fill="none" xmlns="http://www.w3.org/2000/svg">
<g clip-path="url(#clip0_320_929)">
<path d="M1.46436 21.0601H9.08372C13.521 21.0601 16.3236 18.8676 16.3236 15.4922C16.3236 12.9823 15.2142 11.1936 11.8862 10.4147C14.3968 9.49148 15.185 8.10671 15.185 6.17379C15.185 3.0292 12.7912 0.865482 8.35389 0.865482H1.46436V21.0601ZM5.55137 17.4251V12.4918H8.70419C10.9228 12.4918 12.1781 13.3862 12.1781 14.8575C12.1781 16.6173 10.9228 17.4251 8.70419 17.4251H5.55137ZM5.55137 9.20299V4.47168H7.97436C10.193 4.47168 11.0396 5.42369 11.0396 6.80849C11.0396 8.42406 10.193 9.20299 7.97436 9.20299H5.55137Z" fill="#95AAB7"/>
<path d="M24.7115 21.4352C27.4265 21.4352 28.7985 20.3101 29.616 18.6079V21.0601H33.4402V6.05839H29.5284V8.42406C28.711 6.80849 27.3389 5.74104 24.7115 5.74104C20.537 5.74104 17.209 9.28953 17.209 13.617C17.209 17.9444 20.537 21.4352 24.7115 21.4352ZM21.15 13.5881C21.15 11.2513 22.8432 9.2607 25.3538 9.2607C27.952 9.2607 29.616 11.2802 29.616 13.617C29.616 15.9538 27.952 17.9155 25.3538 17.9155C22.8432 17.9155 21.15 15.8672 21.15 13.5881Z" fill="#95AAB7"/>
<path d="M37.3293 27.0897C40.8907 27.0897 42.7884 25.0414 44.0729 22.0122L50.7873 6.05839H46.1162L43.1679 14.6267C42.9051 15.348 42.6716 16.2423 42.5256 17.0212C42.3796 16.2423 42.1461 15.348 41.8833 14.6267L38.935 6.05839H34.1763L40.19 20.3677L39.9857 21.0024C39.5481 22.3295 38.5847 23.2815 37.0665 23.2815C36.4243 23.2815 35.8696 23.2239 35.2857 23.0796L34.7018 26.8012C35.49 27.032 36.541 27.0897 37.3293 27.0897Z" fill="#95AAB7"/>
<path d="M58.4669 21.4352C63.1085 21.4352 65.94 18.9541 65.94 15.2902C65.94 10.6743 61.7364 9.63574 59.3424 8.88564C57.5619 8.33752 56.1021 7.84708 56.1021 6.34688C56.1021 4.99097 57.2991 4.12547 58.934 4.12547C60.4518 4.12547 61.386 4.84671 62.3786 6.4046L65.8817 4.26973C64.3639 1.90407 62.3202 0.519291 59.1384 0.519291C54.8176 0.519291 51.9276 2.9138 51.9276 6.54882C51.9276 9.60688 53.9417 11.4244 57.0947 12.2322C59.6051 12.8669 61.7656 13.5016 61.7656 15.521C61.7656 16.9058 60.5978 17.829 58.7004 17.829C56.9196 17.829 55.2263 16.9347 54.1753 14.8575L50.6431 17.0789C52.4239 20.1658 55.2263 21.4352 58.4669 21.4352Z" fill="#95AAB7"/>
<path d="M79.3039 26.83H83.2449V6.05839H79.3623V8.48174C78.5449 6.83731 77.1727 5.74104 74.5164 5.74104C70.3415 5.74104 67.0137 9.28953 67.0137 13.617C67.0137 17.9444 70.3415 21.4352 74.5164 21.4352C77.1143 21.4352 78.4865 20.3966 79.3039 18.8387V26.83ZM70.9546 13.5881C70.9546 11.2513 72.6479 9.2607 75.1586 9.2607C77.7566 9.2607 79.4207 11.2802 79.4207 13.617C79.4207 15.9538 77.7566 17.9155 75.1586 17.9155C72.6479 17.9155 70.9546 15.8672 70.9546 13.5881Z" fill="#95AAB7"/>
<path d="M91.2209 21.4063C93.5856 21.4063 94.9578 20.5408 95.6873 18.8099V21.0601H99.5118V6.05839H95.5705V14.2805C95.5705 16.8769 94.0819 18.0021 92.4179 18.0021C90.4618 18.0021 89.3819 16.8769 89.3819 14.2805V6.05839H85.4407V15.2325C85.4407 19.0118 87.9514 21.4063 91.2209 21.4063Z" fill="#95AAB7"/>
<path d="M108.755 21.4352C111.47 21.4352 112.842 20.3101 113.66 18.6079V21.0601H117.484V6.05839H113.572V8.42406C112.755 6.80849 111.383 5.74104 108.755 5.74104C104.581 5.74104 101.253 9.28953 101.253 13.617C101.253 17.9444 104.581 21.4352 108.755 21.4352ZM105.194 13.5881C105.194 11.2513 106.887 9.2607 109.398 9.2607C111.996 9.2607 113.66 11.2802 113.66 13.617C113.66 15.9538 111.996 17.9155 109.398 17.9155C106.887 17.9155 105.194 15.8672 105.194 13.5881Z" fill="#95AAB7"/>
<path d="M119.825 21.0601H123.767V13.3862C123.767 10.8763 125.518 9.37607 127.795 9.37607H128.35V5.71222C125.722 5.56795 124.175 6.75077 123.65 8.9145V6.05839H119.825V21.0601Z" fill="#95AAB7"/>
<path d="M136.189 21.4352C139.196 21.4352 141.736 20.1081 142.962 18.2329L139.896 15.9538C139.196 17.1078 137.882 17.9733 136.189 17.9733C134.204 17.9733 132.861 16.7327 132.423 14.9729H143.779C143.867 14.4825 143.896 14.0209 143.896 13.5881C143.896 9.26071 140.743 5.68336 136.189 5.68336C131.635 5.68336 128.336 9.26071 128.336 13.5881C128.336 17.9155 131.489 21.4352 136.189 21.4352ZM132.423 12.0591C132.861 10.2704 134.262 9.0299 136.131 9.0299C138.057 9.0299 139.488 10.3858 139.926 12.0591H132.423Z" fill="#95AAB7"/>
<path d="M152.345 21.4352C155.06 21.4352 156.432 20.3101 157.25 18.6079V21.0601H161.074V0H157.133V8.36634C156.315 6.77963 154.943 5.74104 152.345 5.74104C148.17 5.74104 144.843 9.28953 144.843 13.617C144.843 17.9444 148.17 21.4352 152.345 21.4352ZM148.783 13.5881C148.783 11.2513 150.477 9.2607 152.987 9.2607C155.585 9.2607 157.25 11.2802 157.25 13.617C157.25 15.9538 155.585 17.9155 152.987 17.9155C150.477 17.9155 148.783 15.8672 148.783 13.5881Z" fill="#95AAB7"/>
<path d="M7.13627 45.9044C9.52158 45.9044 11.2812 44.9923 12.3174 43.75L10.3232 42.0611C9.52158 42.9346 8.52443 43.3812 7.19493 43.3812C4.49685 43.3812 2.83496 41.3624 2.83496 38.8779C2.83496 36.3933 4.49685 34.3359 7.13627 34.3359C8.36802 34.3359 9.3847 34.7631 10.2059 35.6171L12.1414 33.9477C10.9097 32.4919 9.36513 31.8126 7.13627 31.8126C2.91317 31.8126 0 34.9765 0 38.8779C0 42.7601 3.06958 45.9044 7.13627 45.9044Z" fill="#95AAB7"/>
<path d="M17.6904 45.9044C20.8382 45.9044 23.1062 43.5362 23.1062 40.6248C23.1062 37.7134 20.8382 35.3258 17.6904 35.3258C14.5426 35.3258 12.2747 37.7134 12.2747 40.6248C12.2747 43.5362 14.5426 45.9044 17.6904 45.9044ZM14.9141 40.6248C14.9141 39.0527 16.009 37.7134 17.6904 37.7134C19.3718 37.7134 20.4667 39.0527 20.4667 40.6248C20.4667 42.197 19.3718 43.5171 17.6904 43.5171C16.009 43.5171 14.9141 42.197 14.9141 40.6248Z" fill="#95AAB7"/>
<path d="M24.2744 45.652H26.9138V40.1201C26.9138 38.3732 27.911 37.6161 29.0254 37.6161C30.3354 37.6161 31.2152 38.3732 31.2152 40.1201V45.652H33.8547V39.4795C33.8547 36.9369 32.1732 35.3258 29.9834 35.3258C28.4193 35.3258 27.4026 35.9081 26.8747 37.0339V35.5587H24.2744V45.652Z" fill="#95AAB7"/>
<path d="M38.8093 45.9044C41.058 45.9044 42.759 44.5067 42.759 42.6436C42.759 41.1295 42.0744 40.0426 39.1224 39.2856C37.91 38.9748 37.7536 38.6644 37.7536 38.3151C37.7536 37.694 38.3009 37.4221 39.0244 37.4221C39.7087 37.4221 40.3345 37.7326 40.8231 38.5091L42.7392 37.0534C41.703 35.7141 40.6083 35.3064 38.9657 35.3064C36.5805 35.3064 35.1728 36.6262 35.1728 38.3926C35.1728 39.6738 35.5835 40.8966 38.3009 41.5372C39.9043 41.906 40.1583 42.197 40.1583 42.7211C40.1583 43.3228 39.6503 43.7691 38.7509 43.7691C37.8905 43.7691 37.1083 43.3617 36.3654 42.5272L34.5862 44.1379C35.7006 45.3221 37.0889 45.9044 38.8093 45.9044Z" fill="#95AAB7"/>
<path d="M47.5611 45.8849C49.1446 45.8849 50.0638 45.3027 50.5524 44.1379V45.652H53.1138V35.5587H50.4742V41.0906C50.4742 42.8376 49.4772 43.5946 48.3628 43.5946C47.0527 43.5946 46.3292 42.8376 46.3292 41.0906V35.5587H43.6899V41.7312C43.6899 44.2738 45.3711 45.8849 47.5611 45.8849Z" fill="#95AAB7"/>
<path d="M54.6709 45.652H57.3102V31.4826H54.6709V45.652Z" fill="#95AAB7"/>
<path d="M62.7229 45.652H64.1699V43.3228H63.0749C62.5665 43.3228 62.2538 43.0315 62.2538 42.3913V37.7909H64.4045V35.5587H62.2538V33.2489L59.6142 33.5207V35.5587H58.187V37.7909H59.6142V42.5272C59.6142 44.7205 60.7092 45.652 62.7229 45.652Z" fill="#95AAB7"/>
<path d="M65.2865 45.652H67.9261V35.5587H65.2865V45.652ZM65.0127 33.1713C65.0127 34.0255 65.6973 34.7242 66.5966 34.7242C67.5154 34.7242 68.1801 34.0446 68.1801 33.1713C68.1801 32.3367 67.5154 31.6379 66.5966 31.6379C65.6973 31.6379 65.0127 32.3367 65.0127 33.1713Z" fill="#95AAB7"/>
<path d="M69.4873 45.652H72.1266V40.1201C72.1266 38.3732 73.1239 37.6161 74.2383 37.6161C75.548 37.6161 76.4279 38.3732 76.4279 40.1201V45.652H79.0675V39.4795C79.0675 36.9369 77.386 35.3258 75.1964 35.3258C73.6319 35.3258 72.6155 35.9081 72.0876 37.0339V35.5587H69.4873V45.652Z" fill="#95AAB7"/>
<path d="M85.4887 49.7866C88.5974 49.7866 90.787 47.8648 90.787 44.7591V35.5587H88.1867V36.9369C87.6588 35.947 86.7595 35.3064 85.0783 35.3064C82.2823 35.3064 80.1511 37.597 80.1511 40.5084C80.1511 43.4198 82.2823 45.7104 85.0783 45.7104C86.7206 45.7104 87.6004 45.0893 88.1478 44.1574V44.604C88.1478 46.2151 86.9159 47.3601 85.5082 47.3601C84.2374 47.3601 83.2209 47.0497 82.2629 45.9627L80.6206 47.8842C81.8327 49.3013 83.4357 49.7866 85.4887 49.7866ZM82.7907 40.5084C82.7907 38.9362 83.7877 37.694 85.5082 37.694C87.2484 37.694 88.2649 38.9362 88.2649 40.5084C88.2649 42.0805 87.2484 43.3228 85.5082 43.3228C83.7877 43.3228 82.7907 42.0416 82.7907 40.5084Z" fill="#95AAB7"/>
</g>
<defs>
<clipPath id="clip0_320_929">
<rect width="161.074" height="50" fill="white"/>
</clipPath>
</defs>
</svg>
