<svg width="100" height="45" viewBox="0 0 100 45" fill="none" xmlns="http://www.w3.org/2000/svg">
<path d="M95.9913 25.8123C95.4457 25.8123 95.0021 25.3417 95.0021 24.7632C95.0021 24.1831 95.4457 23.7154 95.9913 23.7154C96.5381 23.7154 96.9814 24.1831 96.9814 24.7632C96.9814 25.3417 96.5381 25.8123 95.9913 25.8123ZM95.9913 23.461C95.3134 23.461 94.7615 24.0416 94.7615 24.7632C94.7615 25.483 95.3134 26.0687 95.9913 26.0687C96.6712 26.0687 97.2244 25.483 97.2244 24.7632C97.2244 24.0416 96.6712 23.461 95.9913 23.461Z" fill="#95AAB7"/>
<path d="M95.7844 24.9702H95.8624L95.9399 24.9741C95.9942 24.978 96.0369 24.9828 96.0629 24.9963C96.1093 25.014 96.1467 25.0489 96.1631 25.0948C96.1758 25.1264 96.1829 25.1803 96.1829 25.2601C96.187 25.3419 96.1948 25.405 96.2077 25.447H96.5504L96.538 25.4093C96.5347 25.3964 96.53 25.3839 96.53 25.3695C96.53 25.357 96.5261 25.3451 96.5261 25.3305V25.2109C96.5261 25.0698 96.4888 24.9702 96.4055 24.9089C96.3609 24.8705 96.2947 24.847 96.209 24.8277C96.3042 24.819 96.3841 24.7867 96.4488 24.7371C96.5149 24.6878 96.5459 24.6034 96.5459 24.4909C96.5459 24.3408 96.4837 24.2338 96.3609 24.1685C96.2902 24.1299 96.2012 24.1043 96.0888 24.0978C96.0711 24.0978 95.977 24.0978 95.8074 24.0957H95.4233V25.447H95.7844V24.9702ZM96.1213 24.6766C96.0757 24.7098 96.0076 24.7275 95.9233 24.7275H95.7844V24.3328H95.871C95.9615 24.3328 96.03 24.3408 96.0806 24.3601C96.1547 24.3919 96.1907 24.4409 96.1907 24.5155C96.1907 24.5917 96.1696 24.6427 96.1213 24.6766Z" fill="#95AAB7"/>
<path d="M47.5123 30.5708C48.3286 30.5708 48.5227 31.3878 48.4843 31.8452C48.3226 33.7333 45.7678 35.2689 45.1207 35.3453C45.4671 31.4412 46.6108 30.6155 47.5123 30.5708ZM22.0546 30.9875C21.5388 31.7734 20.8877 32.6403 20.0893 33.6025C20.1321 33.2072 20.1743 32.8317 20.2204 32.4699C20.8614 27.324 21.809 25.5959 23.0425 25.8141C23.4443 25.8989 23.6084 26.3347 23.6185 26.6874C23.709 27.8068 23.2357 29.1851 22.0546 30.9875ZM91.8745 35.7846C91.25 34.8412 90.6769 33.8298 90.1823 32.8048C89.3547 33.9795 88.4352 35.1605 87.4893 36.2841C88.8092 36.2507 90.3206 36.1154 91.8745 35.7846ZM90.5972 28.1189C91.1132 27.1394 91.438 26.2863 91.48 25.6523C91.5266 25.2753 91.4632 24.624 90.9301 24.624C90.0087 24.624 90.0087 26.1116 90.5972 28.1189ZM74.373 34.3311C76.6168 31.7134 77.7644 27.7872 77.4996 26.1775C77.4419 25.8403 77.315 25.5814 76.9826 25.6223C75.9348 25.7568 73.491 30.5011 74.373 34.3311ZM61.4326 37.7428C60.5492 37.4574 59.8152 36.9556 59.3846 36.4162C59.3525 36.4425 59.323 36.4657 59.2905 36.4891C59.2868 36.5301 59.2784 36.5726 59.2668 36.6131C59.2435 39.9033 60.3637 42.9453 61.6056 42.7992C62.9143 42.5698 62.2969 39.7486 61.4326 37.7428ZM59.4665 33.7283C62.016 31.19 64.0016 27.5741 63.9884 25.6383C63.9884 25.2656 63.9055 24.9375 63.5546 24.9375C62.7571 24.9375 60.1552 27.6068 59.4665 33.7283ZM52.0266 36.2415C51.0022 36.335 50.7765 38.6738 48.7317 38.7863C47.3359 38.8639 46.6963 37.117 46.6963 37.117C46.6963 37.117 50.6459 35.2904 50.6168 31.3462C50.5533 30.2158 49.9912 28.4057 47.9018 28.4057C46.9992 28.4057 46.0001 28.9901 45.4072 29.6342C45.6086 28.5672 45.7986 27.1971 45.888 25.3352C45.9464 24.1234 45.1002 24.0065 44.7724 24.0247C44.5287 24.037 43.8195 24.224 43.7232 25.3201C43.4001 28.9759 43.3512 29.5187 43.0587 31.8442C42.5225 36.1154 39.555 37.6008 37.6224 37.4883C36.8002 37.4397 35.5136 36.9931 35.5136 34.7342C35.5136 32.3108 37.0307 30.517 37.8359 30.6271C38.4029 30.704 38.6955 31.3033 38.1924 32.1631C37.7855 32.8759 37.3592 33.8679 38.4092 34.2757C39.656 34.7088 40.578 32.8731 40.6117 31.1724C40.6117 29.8472 39.793 28.2999 37.7855 28.1997C35.6726 28.0939 33.1487 31.0158 33.1487 34.9436C33.1487 35.2708 33.1711 35.5774 33.2123 35.8692C33.0597 36.757 32.3126 37.667 31.5688 37.667C30.7607 37.667 30.0789 36.4522 30.1642 34.902C30.2545 33.3033 30.736 32.2389 30.9389 31.6023C31.3566 30.2799 30.8615 30.0129 30.2732 29.8983C29.8109 29.8102 29.0768 29.9323 28.6903 31.2471C28.3391 32.4399 27.8822 34.07 27.4846 35.2689C27.2375 36.0142 26.9219 36.8645 26.5061 37.4459C26.141 37.8619 25.7459 38.1357 25.376 38.1357C24.0703 38.148 25.1765 35.4628 25.1765 33.6215C25.1638 33.101 24.7728 32.151 23.4725 32.4143C24.9122 30.2353 25.6403 28.3712 25.5948 26.4662C25.5078 24.3748 24.0416 23.7673 22.9348 23.7893C19.9698 23.8529 18.4188 27.2898 17.8556 35.3258C15.1838 37.9907 11.9291 39.5995 8.82496 39.335C4.43485 38.9597 2.17205 34.4151 2.46516 28.9655C2.87748 21.319 8.59086 12.0941 14.0371 12.6607C15.946 12.8606 17.2625 14.6409 17.0593 18.4993C16.8222 22.9724 13.7709 29.4955 10.5492 29.3041C9.06184 29.2159 8.59734 27.6068 8.71079 26.1838C8.95607 23.1021 10.4364 22.2566 10.5353 21.0071C10.5928 20.2725 9.88063 19.9515 9.35831 20.1264C8.46169 20.4291 6.67578 22.7775 6.45807 26.1178C6.19191 30.1987 8.73703 31.4722 10.2458 31.5612C14.7094 31.8264 19.0656 25.2314 19.4324 18.3033C19.668 13.8193 17.8205 10.9242 14.3227 10.5265C7.5219 9.75549 0.377554 19.1788 0.0123427 29.0493C-0.207037 34.9511 2.48957 41.1286 8.77869 41.5986C11.7831 41.8026 14.9269 40.5515 17.6776 38.3068C17.6725 38.8096 17.6776 39.257 17.6761 39.5931C17.7011 40.4199 17.9816 41.1334 18.842 41.1058C19.6631 41.0756 19.8794 40.4483 19.86 39.696C19.8495 39.2592 19.8527 38.8352 19.8624 38.4229C20.042 34.8288 21.7392 34.3089 22.4262 34.4373C23.3736 34.6478 22.6185 35.5573 22.7129 38.1368C22.7799 39.9852 24.2105 40.478 24.8678 40.478C26.4216 40.478 27.7711 39.2921 28.5617 37.5254L28.5892 37.5043C29.2756 39.3151 30.44 39.9636 31.3695 39.9636C32.4598 39.9636 33.4919 39.1217 34.1371 38.1875C35.0195 39.3522 36.3176 39.8652 37.2866 39.9125C39.251 40.0071 40.9204 39.0605 42.1741 37.7903C42.0283 38.79 41.8521 40.1336 41.8521 40.3525C41.8521 40.9461 42.1153 41.366 42.6705 41.4308C43.5843 41.5368 44.2515 40.8912 44.5367 37.7232C44.5367 37.7232 45.8282 40.8507 48.6955 40.8507C51.5692 40.8507 52.812 37.9429 52.812 37.0558C52.812 36.7984 52.7202 36.1762 52.0266 36.2415ZM24.4061 19.5082C24.4061 18.5797 22.0022 16.8216 20.3043 16.6566C20.3243 17.1579 20.3205 17.6734 20.2925 18.2092C20.2259 19.4752 20.0441 20.7529 19.7631 22.0073C22.8829 19.7208 24.4061 20.349 24.4061 19.5082ZM98.2157 40.8612C96.5238 40.7693 94.7698 39.4585 93.2095 37.5881C90.4529 38.2523 87.6278 38.3837 85.6582 38.3677C84.024 40.1439 82.4602 41.6237 81.3426 42.4646C81.3426 42.4646 79.8366 43.6666 79.1056 42.6458C78.6782 41.9606 78.8958 41.2223 80.0705 40.4375C80.804 39.9453 81.7256 39.1519 82.723 38.1734C81.0373 37.6872 81.4522 35.8365 83.0998 36.0495C83.2196 36.0659 83.7657 36.1477 84.6078 36.2118C86.2416 34.4136 87.9021 32.3431 89.183 30.4464C88.5793 28.7827 88.2273 27.2018 88.2273 25.9621C88.2273 24.335 89.1063 22.4931 90.8956 22.4931C92.6276 22.4931 93.5141 24.0179 93.5141 25.5941C93.5141 26.9347 92.7396 28.7488 91.5587 30.7049C92.2355 32.2311 93.111 33.8159 94.0951 35.1708C95.156 34.8057 96.2013 34.3255 97.1836 33.7064C98.507 32.8688 99.6459 34.4819 98.256 35.5151C97.4204 36.0691 96.4956 36.5193 95.5268 36.8843C96.5462 37.9246 97.6209 38.6241 98.6539 38.7184C100.423 38.8778 100.496 41.0561 98.2157 40.8612ZM80.9538 36.0175C80.7465 36.877 79.6791 39.3578 76.957 39.4229H76.8975C75.6349 39.4431 74.3995 38.7986 73.4895 37.6127C72.2097 38.4675 70.9768 38.8793 70.0908 38.738C68.1713 38.4302 67.5964 36.8263 67.4318 35.7803C66.3316 37.1575 64.8687 37.8119 63.4617 37.9472C63.9637 38.9849 64.2174 40.2318 64.2174 41.3789C64.2174 43.1691 63.2362 45 61.4602 45C58.9777 45 57.4899 41.3078 57.2963 37.7128C56.8719 37.8796 56.1715 38.011 55.8463 37.2924C55.4535 36.4289 56.4273 35.6318 57.2493 35.1394C57.3928 27.9752 60.3534 22.9071 63.5546 22.9071C64.6308 22.9071 65.927 23.6004 65.927 25.6821C65.927 27.8632 64.7049 30.6568 62.734 33.1506C62.466 33.489 61.843 34.1512 61.15 34.8303C63.9484 36.9276 65.6453 34.6676 66.3445 33.2798C66.5111 32.908 66.6507 32.5407 66.7569 32.2183C67.1539 31.0224 67.0399 31.3016 67.4137 30.1161C67.9469 28.427 68.8118 28.5008 69.203 28.5672C70.5966 28.8124 69.7616 30.4472 69.4206 31.8849L69.4049 31.9199C68.8809 34.3699 69.1246 36.3143 70.5697 36.6153C71.0311 36.6874 71.8271 36.402 72.6414 35.7889C70.7364 30.5653 73.6455 24.3813 76.6563 23.7852C77.6616 23.5864 78.9835 23.9768 79.3165 25.8593C79.6623 27.8346 78.968 30.5868 77.5246 33.2072C77.1989 33.8018 76.259 35.1394 75.1455 36.1553C75.1522 36.165 75.1569 36.1747 75.1563 36.1762C76.0001 37.3492 77.0673 37.3208 77.0673 37.3208C78.6485 37.3113 79.125 36.0288 79.3198 35.4981C79.5434 34.8893 80.0024 34.6877 80.488 34.8509C81.0164 35.0301 81.0548 35.6043 80.9538 36.0175ZM69.7392 25.1395C69.0684 25.1395 68.5248 25.7122 68.5248 26.4242C68.5248 27.1329 69.0684 27.7083 69.7392 27.7083C70.4089 27.7083 70.9501 27.1329 70.9501 26.4242C70.9501 25.7122 70.4089 25.1395 69.7392 25.1395ZM83.404 33.2072C84.952 33.2072 85.5522 32.567 85.5522 31.9087C85.5522 31.0633 84.5949 30.6558 83.4055 30.6676C82.1888 30.6809 81.3236 31.1579 81.3236 31.9199C81.3236 32.5407 81.856 33.2072 83.404 33.2072ZM53.9333 33.2124C55.4859 33.2124 56.0916 32.5687 56.0916 31.9087C56.0916 31.059 55.1302 30.6511 53.9333 30.6631C52.7118 30.6766 51.8447 31.1558 51.8447 31.9199C51.8447 32.5444 52.3803 33.2124 53.9333 33.2124ZM30.8928 26.4228C30.1866 26.4228 29.6155 27.0271 29.6155 27.7755C29.6155 28.5209 30.1866 29.1252 30.8928 29.1252C31.5961 29.1252 32.1685 28.5209 32.1685 27.7755C32.1685 27.0271 31.5961 26.4228 30.8928 26.4228ZM4.19209 7.60663C3.61229 8.32938 3.79219 9.50301 4.84491 10.4545C5.89696 11.4089 7.35807 11.718 7.94013 10.9963C8.52203 10.2742 8.00325 8.79254 6.95161 7.84079C5.89933 6.88689 4.77675 6.88495 4.19209 7.60663ZM8.35609 2.44312C7.22511 2.99245 6.82345 4.62817 7.65596 6.55212C8.48711 8.47651 10.1857 9.83907 11.3158 9.29297C12.4476 8.74299 12.5834 6.48793 11.7515 4.56311C10.9195 2.64088 9.48681 1.89551 8.35609 2.44312ZM16.9697 0.0557846C15.4669 -0.292341 13.9277 1.00301 13.4072 3.54652C12.8839 6.08896 13.6123 8.76195 15.1156 9.10663C16.6173 9.45281 18.3291 7.34273 18.8496 4.79965C19.3718 2.25678 18.473 0.399817 16.9697 0.0557846ZM27.8232 4.19086C26.6759 2.55686 24.1927 2.45712 21.6838 4.43235C19.175 6.40822 17.7443 9.58853 18.8913 11.2266C20.0386 12.8606 23.3288 12.3315 25.8396 10.3554C28.3473 8.37936 28.9697 5.82873 27.8232 4.19086ZM15.7238 16.8563C15.6957 18.184 14.1673 19.804 13.4372 18.5562C13.0395 17.601 14.0396 15.863 14.9657 15.8335C15.7122 15.8335 15.7299 16.5394 15.7238 16.8563Z" fill="#95AAB7"/>
</svg>
