<svg width="160" height="45" viewBox="0 0 160 45" fill="none" xmlns="http://www.w3.org/2000/svg">
<path d="M7.90219 12.7399V6.12039L34.407 31.2232H35.2301V8.80886C35.2301 3.76325 36.9176 2.10916 40.2925 0.827311V2.73159e-06H29.2214V0.827311C32.596 2.10916 34.2836 3.76325 34.2836 8.80886V23.6137L10.8653 1.11671C9.79546 0.124257 9.5073 2.73159e-06 8.80757 2.73159e-06H0V0.827311C1.93438 1.03388 3.08706 1.57126 5.88534 4.30115L6.95576 5.33502V12.7399H7.90219Z" fill="#95AAB7"/>
<path d="M5.77491 15.0882C5.99375 15.0763 6.10355 15.0704 6.32239 15.0589C6.39922 15.0548 6.44027 15.0935 6.44229 15.1729C6.44333 15.2259 6.44369 15.2522 6.44535 15.3052C6.44675 15.3845 6.40792 15.4273 6.33005 15.4314C5.99478 15.4494 5.82653 15.4583 5.49079 15.4763C5.41293 15.4804 5.37249 15.4413 5.37249 15.3621C5.37187 14.7849 5.37187 14.4963 5.37291 13.9192C5.37291 13.84 5.41194 13.797 5.48717 13.7929C5.55286 13.7892 5.58522 13.7872 5.65097 13.7841C5.7264 13.7799 5.76523 13.8182 5.76585 13.898C5.76885 14.3737 5.77087 14.6119 5.77491 15.0882" fill="#95AAB7"/>
<path d="M7.52749 15.4195C7.46542 15.4199 7.43405 15.4201 7.37177 15.4207C7.28241 15.4213 7.24498 15.395 7.212 15.3086C6.99156 14.7216 6.88501 14.4284 6.67813 13.8415C6.65649 13.7815 6.6933 13.7282 6.75253 13.7276C6.82775 13.7271 6.86581 13.7271 6.94103 13.7266C7.02759 13.7256 7.06336 13.752 7.09267 13.8384C7.23726 14.2552 7.31109 14.4637 7.46236 14.8807C7.61002 14.4615 7.68218 14.252 7.82378 13.8333C7.85205 13.7463 7.88849 13.7194 7.97443 13.7188C8.04075 13.7183 8.07409 13.7183 8.14026 13.7178C8.19948 13.7173 8.23691 13.7701 8.21507 13.8301C8.01041 14.4202 7.90465 14.7153 7.68684 15.3052C7.65449 15.3924 7.61706 15.4188 7.52749 15.4195" fill="#95AAB7"/>
<path d="M8.86173 15.4239C8.77516 15.4195 8.73173 15.4175 8.64537 15.4132C8.59319 15.4108 8.56383 15.3541 8.59319 15.3099C8.79541 15.0086 8.8945 14.8579 9.08967 14.5565C8.91836 14.2662 8.83382 14.1209 8.66758 13.8301C8.64134 13.783 8.67204 13.7297 8.72158 13.7323C8.81259 13.7364 8.8581 13.7385 8.94911 13.7432C9.04215 13.7483 9.07409 13.7691 9.12099 13.855C9.21667 14.0279 9.26518 14.1139 9.36225 14.2861C9.46077 14.1236 9.5099 14.0424 9.60635 13.8798C9.6545 13.798 9.68623 13.7799 9.77926 13.7851C9.86422 13.7892 9.90667 13.7913 9.99122 13.7955C10.0417 13.798 10.0715 13.855 10.0448 13.899C9.8739 14.1723 9.78693 14.3088 9.61039 14.582C9.80313 14.9024 9.90062 15.0624 10.0988 15.3827C10.1277 15.4298 10.0974 15.4836 10.0452 15.481C9.95114 15.4765 9.90362 15.4743 9.8096 15.4696C9.71253 15.4648 9.67976 15.4442 9.63022 15.3576C9.5129 15.1548 9.45528 15.0532 9.34004 14.8504C9.2221 15.0417 9.16246 15.1376 9.04215 15.3291C8.99157 15.4108 8.95823 15.4284 8.86173 15.4239" fill="#95AAB7"/>
<path d="M2.65516 18.7844C2.58983 18.7931 2.55747 18.7973 2.49234 18.8062C2.39833 18.8185 2.35784 18.7975 2.32046 18.7162C2.06663 18.1642 1.94367 17.8883 1.70666 17.3362C1.6814 17.2796 1.71919 17.2219 1.78152 17.2134C1.86136 17.2025 1.90081 17.1971 1.98069 17.1864C2.0717 17.174 2.11053 17.1948 2.14392 17.2765C2.30871 17.6693 2.39367 17.8661 2.56715 18.259C2.70709 17.8238 2.77646 17.6064 2.91236 17.1714C2.94027 17.0812 2.97708 17.0498 3.06768 17.0373C3.13746 17.0278 3.17184 17.023 3.24163 17.0134C3.30329 17.0047 3.34413 17.0523 3.32291 17.115C3.12535 17.7291 3.02419 18.0361 2.81793 18.6503C2.78697 18.7407 2.74856 18.7721 2.65516 18.7844" fill="#95AAB7"/>
<path d="M4.08207 18.6092C4.00079 18.6159 3.9587 18.5785 3.95772 18.4992C3.95063 17.9235 3.94757 17.6355 3.94312 17.0598C3.94255 16.9805 3.98299 16.9364 4.06142 16.9297C4.44106 16.898 4.63074 16.882 5.00992 16.8499C5.08778 16.8432 5.1292 16.8808 5.13163 16.9599C5.13329 17.0078 5.13427 17.0319 5.13567 17.08C5.13774 17.1591 5.09891 17.2031 5.02043 17.2098C4.75608 17.2319 4.62365 17.243 4.3591 17.2652C4.36076 17.3813 4.36174 17.4394 4.36376 17.5554C4.54719 17.5399 4.63923 17.5324 4.82287 17.5172C4.90171 17.5108 4.9436 17.5481 4.94619 17.6272C4.94722 17.6693 4.94821 17.6905 4.94924 17.7326C4.95167 17.8119 4.91181 17.856 4.83193 17.8626C4.64731 17.878 4.5549 17.8855 4.37023 17.9007C4.37287 18.0305 4.37391 18.0952 4.37634 18.2248C4.64628 18.2026 4.78078 18.1914 5.05035 18.1694C5.13065 18.1629 5.1731 18.2001 5.17615 18.2794C5.17776 18.3273 5.17879 18.3514 5.18019 18.3996C5.18319 18.4786 5.14276 18.5225 5.06247 18.5294C4.67056 18.5614 4.4744 18.5773 4.08207 18.6092Z" fill="#95AAB7"/>
<path d="M6.49008 17.1164C6.38954 17.1192 6.33901 17.121 6.2379 17.1245C6.23832 17.2766 6.23889 17.3526 6.2393 17.5049C6.34103 17.5017 6.39197 17.4998 6.4937 17.4964C6.59927 17.4932 6.67511 17.4139 6.67309 17.3029C6.67206 17.1874 6.59481 17.1127 6.49008 17.1164V17.1164ZM6.12162 18.4744C6.05122 18.4762 6.01643 18.4776 5.94566 18.4796C5.86479 18.4823 5.82332 18.4426 5.82373 18.3633C5.82534 17.7854 5.82674 17.4964 5.82938 16.9186C5.82979 16.8393 5.87022 16.797 5.94809 16.7943C6.16749 16.7872 6.2773 16.7837 6.49676 16.7762C6.85367 16.7647 7.08462 16.969 7.0913 17.2822C7.09534 17.4818 6.99563 17.6418 6.81867 17.7293C6.95178 17.9718 7.01892 18.0928 7.15539 18.3352C7.1833 18.3848 7.15037 18.4414 7.09233 18.4432C7.00577 18.4459 6.96291 18.4475 6.87691 18.4503C6.77927 18.4534 6.7449 18.4325 6.69939 18.3474C6.59015 18.1399 6.53616 18.0361 6.42899 17.8286C6.35356 17.8309 6.31613 17.8323 6.24091 17.8345C6.24194 18.0408 6.24236 18.1439 6.24334 18.35C6.24396 18.4293 6.20249 18.4715 6.12162 18.4744Z" fill="#95AAB7"/>
<path d="M7.87714 18.4438C7.79622 18.4432 7.75537 18.402 7.75537 18.3225C7.75843 17.7447 7.75941 17.4557 7.76184 16.878C7.76246 16.7985 7.80228 16.7581 7.88014 16.7586C7.94951 16.759 7.98389 16.7595 8.05264 16.7597C8.13051 16.7604 8.17094 16.8015 8.17135 16.8808C8.17337 17.4586 8.17503 17.7476 8.17705 18.3253C8.17705 18.4048 8.13599 18.4454 8.05507 18.445C7.98389 18.4445 7.94853 18.4442 7.87714 18.4438" fill="#95AAB7"/>
<path d="M9.33819 18.4788C9.25795 18.475 9.21689 18.4323 9.21788 18.3528C9.22559 17.877 9.22901 17.6387 9.23506 17.1629C9.08503 17.1556 9.0096 17.1522 8.85952 17.1451C8.78067 17.1413 8.74122 17.0986 8.74324 17.0193C8.74427 16.9663 8.74469 16.9398 8.74629 16.8871C8.74769 16.8076 8.78874 16.7688 8.86661 16.7722C9.32872 16.794 9.56024 16.805 10.0228 16.8266C10.1012 16.83 10.1417 16.8731 10.1421 16.9522C10.1421 17.0054 10.1421 17.0317 10.1427 17.0846C10.1431 17.1639 10.1026 17.2029 10.0238 17.1991C9.87309 17.1924 9.79787 17.1888 9.64721 17.1817C9.64519 17.6579 9.64359 17.8958 9.64012 18.3722C9.63955 18.4515 9.59767 18.4905 9.5168 18.4867C9.44541 18.4837 9.40958 18.482 9.33819 18.4788" fill="#95AAB7"/>
<path d="M11.3803 17.9674C11.3051 17.7435 11.2676 17.6313 11.1932 17.4072C11.1099 17.6169 11.0678 17.7215 10.9825 17.931C11.1417 17.9457 11.2211 17.953 11.3803 17.9674V17.9674ZM10.6017 18.5486C10.5299 18.5421 10.4945 18.5387 10.4227 18.5322C10.359 18.5266 10.3222 18.4703 10.3489 18.4123C10.6043 17.8471 10.7281 17.5646 10.9677 16.9991C11.0027 16.9158 11.0415 16.8931 11.1315 16.9014C11.1993 16.9077 11.2326 16.9107 11.3004 16.9172C11.3904 16.9255 11.4284 16.9554 11.4608 17.045C11.6771 17.6521 11.7884 17.956 12.0153 18.5634C12.0395 18.6257 11.9997 18.6748 11.9354 18.6689C11.8541 18.6616 11.813 18.658 11.7317 18.6507C11.6377 18.642 11.5987 18.6123 11.5684 18.5231C11.5386 18.4356 11.5235 18.3919 11.4935 18.3047C11.2377 18.2814 11.1099 18.2697 10.8545 18.2465C10.8207 18.3282 10.8035 18.3688 10.7695 18.4505C10.7352 18.5342 10.6947 18.5569 10.6017 18.5486" fill="#95AAB7"/>
<path d="M3.50418 21.6935C3.43704 21.7003 3.4037 21.7036 3.33634 21.7103C3.23989 21.7198 3.19842 21.6976 3.16001 21.6148C2.90115 21.0536 2.77514 20.7731 2.53249 20.2119C2.50676 20.1549 2.54523 20.0981 2.60932 20.0914C2.69122 20.0829 2.73228 20.0789 2.81418 20.0706C2.90819 20.0609 2.94806 20.0829 2.98243 20.1661C3.15188 20.5654 3.23824 20.7651 3.41519 21.1643C3.56144 20.7327 3.63263 20.5167 3.77417 20.0849C3.80306 19.9956 3.8409 19.9652 3.93456 19.9555C4.00631 19.9483 4.04214 19.9446 4.11353 19.9371C4.17762 19.9307 4.21909 19.9794 4.19745 20.0417C3.99218 20.6506 3.88703 20.9552 3.67203 21.5639C3.64029 21.6537 3.60027 21.684 3.50418 21.6935" fill="#95AAB7"/>
<path d="M4.98136 21.5641C4.89806 21.5693 4.85395 21.5311 4.85256 21.4516C4.84184 20.8744 4.83677 20.5859 4.82765 20.0087C4.82667 19.9294 4.86772 19.8859 4.94859 19.8809C5.0204 19.8765 5.05622 19.8742 5.12756 19.8696C5.20848 19.8647 5.25093 19.9032 5.25295 19.9824C5.26652 20.5596 5.27361 20.848 5.28935 21.4251C5.29137 21.5044 5.24933 21.5479 5.16639 21.5534C5.0922 21.5576 5.05519 21.5598 4.98136 21.5641" fill="#95AAB7"/>
<path d="M6.7013 20.1444C6.59673 20.1472 6.54459 20.1485 6.44043 20.1511C6.44105 20.3031 6.44141 20.3794 6.44203 20.5315C6.54718 20.529 6.59978 20.5274 6.70493 20.525C6.81354 20.5223 6.89198 20.4433 6.89099 20.3324C6.88939 20.2172 6.8095 20.142 6.7013 20.1444ZM6.32011 21.4999C6.24789 21.5017 6.2115 21.5024 6.13871 21.5044C6.05515 21.5062 6.0127 21.4664 6.0127 21.3869C6.01471 20.8092 6.01575 20.5203 6.01777 19.9426C6.01834 19.8631 6.06022 19.8208 6.14072 19.8192C6.36764 19.8133 6.48148 19.8105 6.70798 19.8046C7.07706 19.7955 7.31609 20.0016 7.32276 20.3147C7.3268 20.5145 7.22305 20.6736 7.04066 20.76C7.17755 21.0033 7.24733 21.1248 7.38748 21.3679C7.41678 21.418 7.3824 21.4741 7.32173 21.4757C7.23315 21.4777 7.18868 21.4789 7.1003 21.4811C6.99919 21.4836 6.96316 21.4626 6.91729 21.377C6.80443 21.1687 6.74842 21.0645 6.63819 20.8563C6.56033 20.8583 6.5213 20.8593 6.44343 20.8611C6.44447 21.0674 6.44509 21.1703 6.44607 21.3766C6.44649 21.4559 6.40362 21.4979 6.32011 21.4999" fill="#95AAB7"/>
<path d="M8.36652 21.4848C8.28317 21.4836 8.24072 21.4417 8.24113 21.362C8.24517 20.8854 8.24719 20.6474 8.25081 20.1705C8.0955 20.1677 8.01769 20.1663 7.86196 20.1634C7.78104 20.162 7.74019 20.1201 7.74123 20.0409C7.74221 19.9879 7.74263 19.9614 7.74366 19.9086C7.74465 19.8289 7.7871 19.7889 7.8676 19.7903C8.3453 19.799 8.58453 19.8032 9.06279 19.8121C9.14309 19.8133 9.18554 19.855 9.18616 19.9347C9.18658 19.9874 9.18715 20.014 9.18756 20.0671C9.1886 20.1464 9.14713 20.1867 9.06585 20.1853C8.91012 20.1824 8.83226 20.1808 8.67694 20.178C8.67694 20.6548 8.67694 20.8933 8.67694 21.3697C8.67694 21.4494 8.63407 21.4894 8.55057 21.488C8.47674 21.4868 8.44035 21.486 8.36652 21.4848" fill="#95AAB7"/>
<path d="M10.4817 21.5809C10.415 21.5768 10.3817 21.5746 10.3145 21.5706C10.2184 21.5644 10.1784 21.5354 10.1456 21.4466C9.92219 20.8447 9.81337 20.5438 9.60064 19.942C9.57776 19.8801 9.61881 19.8298 9.68254 19.834C9.76382 19.839 9.80488 19.8419 9.88574 19.8471C9.97878 19.853 10.0176 19.8821 10.0475 19.9705C10.1956 20.3978 10.271 20.6113 10.4241 21.0385C10.5926 20.6316 10.6749 20.4283 10.8363 20.0215C10.869 19.9369 10.9084 19.9128 11.0015 19.9189C11.0733 19.9236 11.1093 19.9258 11.1811 19.9307C11.2447 19.9347 11.2842 19.9901 11.2593 20.0485C11.0253 20.6205 10.905 20.9066 10.6557 21.4787C10.6189 21.5628 10.5778 21.5865 10.4817 21.5809" fill="#95AAB7"/>
<path d="M13.0494 18.5085C13.1541 18.5191 13.2269 18.4758 13.2304 18.4018C13.233 18.3443 13.1986 18.2999 13.1303 18.2497C13.0652 18.2008 12.874 18.0669 12.8087 18.0178C12.6358 17.892 12.5474 17.7338 12.5569 17.5544C12.5717 17.2745 12.8128 17.0802 13.1313 17.1125C13.285 17.1281 13.4413 17.1922 13.557 17.3002C13.6055 17.3461 13.6031 17.4104 13.555 17.4634C13.5404 17.4796 13.4959 17.5312 13.4811 17.5472C13.4302 17.607 13.3745 17.6037 13.3118 17.5542C13.2415 17.4988 13.1754 17.4683 13.1151 17.462C13.019 17.4523 12.961 17.5017 12.9574 17.5686C12.9543 17.6307 12.9816 17.6697 13.0565 17.7229C13.1217 17.772 13.3129 17.9061 13.378 17.9551C13.5545 18.0835 13.6425 18.2438 13.6348 18.4135C13.6213 18.7223 13.3655 18.8914 13.0342 18.858C12.8046 18.835 12.6293 18.7357 12.507 18.6103C12.4467 18.5488 12.4473 18.4912 12.5044 18.4343C12.5216 18.4184 12.5721 18.3674 12.5893 18.3514C12.6435 18.2968 12.6965 18.3021 12.7572 18.3565C12.867 18.4541 12.9574 18.4992 13.0494 18.5085" fill="#95AAB7"/>
<path d="M12.1912 21.4008C12.2949 21.4102 12.3671 21.3663 12.3712 21.2919C12.3748 21.2344 12.3409 21.1906 12.2737 21.141C12.2059 21.0939 12.024 20.9586 11.9566 20.9119C11.7857 20.7879 11.6994 20.6303 11.7105 20.4506C11.7271 20.1701 11.9667 19.9727 12.2822 20.0023C12.4339 20.016 12.5882 20.0785 12.7024 20.1855C12.7504 20.2308 12.7469 20.2955 12.6988 20.3487C12.6842 20.3654 12.6402 20.417 12.6256 20.4336C12.5744 20.4939 12.5194 20.4912 12.4571 20.4423C12.3884 20.3877 12.3233 20.3576 12.2636 20.3521C12.1686 20.3434 12.1109 20.3933 12.1069 20.4605C12.1039 20.5228 12.1301 20.5616 12.2039 20.6142C12.2707 20.6609 12.4531 20.7962 12.5204 20.8429C12.6944 20.9697 12.7803 21.1293 12.7716 21.2997C12.756 21.609 12.5022 21.7811 12.174 21.7511C11.9475 21.7305 11.7742 21.6328 11.6532 21.5084C11.5942 21.4476 11.5956 21.3899 11.6523 21.3323C11.6694 21.3159 11.7196 21.2647 11.7368 21.2484C11.7908 21.1934 11.844 21.198 11.903 21.2516C12.0108 21.3483 12.1002 21.3924 12.1912 21.4008" fill="#95AAB7"/>
<path d="M7.91001 22.7694H6.94681C6.82303 27.3772 5.13886 28.9562 1.89307 30.1888V31.0162H12.9642V30.1888C9.71838 28.9562 8.03442 27.3772 7.91001 22.7694" fill="#95AAB7"/>
<path d="M110.079 12.1911L110.085 15.2702C110.088 17.2614 111.127 18.6453 113.745 18.6406C116.361 18.6358 117.396 17.2484 117.393 15.2983L117.388 12.8248C117.386 11.6242 117.724 11.3156 118.308 11.15L118.308 10.8321L115.824 10.8362L115.825 11.1546C116.41 11.3177 116.749 11.6252 116.752 12.8263L116.756 15.2996C116.759 17.0339 115.847 17.8364 114.123 17.8394C112.409 17.8424 111.484 17.0432 111.481 15.3088L111.475 12.1885C111.474 11.4088 111.7 11.2747 112.346 11.1815L112.345 10.8424L109.225 10.8476L109.226 11.1867C109.872 11.2778 110.078 11.4109 110.079 12.1911M121.277 18.2062C120.692 18.1251 120.599 17.9817 120.598 17.4171L120.594 15.0461C121.106 14.5837 121.526 14.3572 121.896 14.3564C122.399 14.3553 122.543 14.6117 122.544 15.0738L122.548 17.4139C122.549 17.9783 122.457 18.1221 121.872 18.2054L121.873 18.5235L124.511 18.5189L124.51 18.2006C123.924 18.1196 123.832 17.9761 123.831 17.4117L123.827 14.9586C123.825 14.1375 123.476 13.5532 122.439 13.5547C121.802 13.5563 121.177 13.9472 120.562 14.4716L120.56 13.4864L120.088 13.4869L118.602 14.4648L118.602 14.6904L119.311 14.6892L119.315 17.4193C119.316 17.9842 119.224 18.1279 118.639 18.2111L118.64 18.5292L121.277 18.5245L121.277 18.2062ZM126.45 12.7062C126.881 12.7052 127.23 12.3557 127.229 11.9146C127.228 11.5243 126.93 11.2064 126.529 11.2074C126.078 11.2085 125.74 11.5579 125.741 11.9892C125.741 12.3894 126.039 12.7067 126.45 12.7062M127.917 18.1947C127.28 18.1035 127.188 17.9702 127.187 17.4056L127.18 13.4745L126.677 13.4755L125.17 14.4635L125.171 14.6892L125.899 14.688L125.904 17.4078C125.905 17.9723 125.803 18.1059 125.177 18.1995L125.177 18.5175L127.918 18.5126L127.917 18.1947ZM132.602 15.0559C132.98 14.2136 133.102 14.0284 133.503 13.9254L133.502 13.6376L131.48 13.6417L131.481 13.929C132.148 14.0714 132.221 14.4099 131.914 15.1289L131.137 16.9882L130.169 14.8035C129.963 14.3214 129.993 14.0445 130.701 13.9611L130.701 13.6427L128.001 13.6474L128.002 13.9658C128.32 14.0476 128.454 14.1804 128.721 14.7547L130.483 18.5595L131.017 18.5587L132.602 15.0559ZM137.984 17.5714L137.706 17.3562C137.43 17.6749 137.01 17.8911 136.527 17.8922C135.583 17.8936 135.048 17.1763 134.851 16.2424L137.929 15.2108C137.865 14.1228 137.063 13.5288 136.047 13.5309C134.621 13.5335 133.576 14.6848 133.578 16.1113C133.581 17.5275 134.486 18.6038 136.077 18.601C137.052 18.5992 137.636 18.1672 137.984 17.5714ZM134.767 15.3907C134.766 14.5594 135.114 14.0662 135.792 14.0647C136.264 14.0642 136.562 14.4025 136.686 15.0692L134.779 15.7295C134.768 15.6165 134.768 15.5038 134.767 15.3907ZM141.197 18.1712C140.53 18.0695 140.437 17.9261 140.436 17.2897L140.433 15.1754C140.637 14.8055 140.832 14.5384 141.037 14.3533C141.037 14.7535 141.315 15.0095 141.664 15.0091C142.013 15.0086 142.351 14.7307 142.35 14.1972C142.349 13.7452 142.093 13.4688 141.641 13.4693C141.138 13.4703 140.749 13.8923 140.38 14.4878L140.378 13.4512L139.927 13.4522L138.44 14.4298L138.441 14.6554L139.149 14.6545L139.153 17.3845C139.155 17.949 139.062 18.0928 138.477 18.1759L138.478 18.494L141.198 18.4891L141.197 18.1712ZM146.542 16.971C146.54 16.0164 145.75 15.7204 145.01 15.4856C144.281 15.2508 143.778 15.0977 143.777 14.5639C143.777 14.2765 143.992 14.0093 144.412 14.0088C144.936 14.0077 145.398 14.325 145.954 14.9501L146.22 14.8265L145.828 13.5547H145.664L145.479 13.709C145.192 13.5863 144.863 13.5149 144.514 13.5159C143.427 13.5175 142.719 14.145 142.721 15.0892C142.723 16.0438 143.514 16.3196 144.252 16.5645C144.982 16.8096 145.485 16.9526 145.486 17.4964C145.487 17.8349 145.23 18.092 144.738 18.0932C144.051 18.0944 143.526 17.6436 142.899 16.844L142.622 16.9471L143.024 18.5476L143.199 18.5474L143.497 18.3312C143.836 18.495 144.215 18.5866 144.636 18.5858C145.683 18.584 146.544 17.9666 146.542 16.971M148.33 12.6674C148.762 12.6669 149.11 12.3169 149.109 11.8758C149.109 11.4854 148.81 11.1681 148.41 11.1686C147.959 11.1696 147.62 11.5191 147.621 11.9498C147.622 12.3505 147.92 12.6684 148.33 12.6674M149.798 18.156C149.161 18.0649 149.069 17.9314 149.068 17.3667L149.061 13.4362L148.558 13.4367L147.051 14.4249V14.6506L147.78 14.6494L147.785 17.3692C147.786 17.9336 147.683 18.0673 147.057 18.1607L147.058 18.4788L149.798 18.474L149.798 18.156ZM153.698 18.0054L153.543 17.6772C153.266 17.8007 153.02 17.8628 152.804 17.8632C152.321 17.8641 152.198 17.6177 152.198 17.2794L152.192 14.1897L153.496 14.1875L153.495 13.6029L152.191 13.6049L152.189 12.6503H152.005L150.16 13.8648L150.161 14.1935L150.91 14.1919L150.915 17.5484C150.917 18.2155 151.297 18.5741 152.046 18.5729C152.631 18.5717 153.205 18.3757 153.698 18.0054M156.44 19.2938L158.372 15.0104C158.75 14.1681 158.874 13.9829 159.273 13.8798L159.273 13.592L157.251 13.5961L157.252 13.883C157.919 14.0258 157.991 14.3644 157.685 15.0834L156.908 16.9423L155.939 14.758C155.733 14.2758 155.764 13.9989 156.471 13.9156L156.471 13.5972L153.772 13.6018L153.772 13.9202C154.091 14.0015 154.214 14.1349 154.492 14.7092L156.213 18.4012L155.926 19.0176C155.763 19.3769 155.609 19.6443 155.435 19.7984C155.311 19.3777 155.075 19.1525 154.706 19.1531C154.336 19.1539 154.018 19.4006 154.019 19.8831C154.02 20.3654 154.41 20.7238 154.872 20.7232C155.529 20.7222 155.939 20.3928 156.44 19.2938" fill="#95AAB7"/>
<path d="M49.9069 12.9469C49.9048 11.7458 50.2434 11.4373 50.8279 11.2721L50.8274 10.9537L48.3439 10.9584L48.3444 11.2763C48.9294 11.4394 49.2691 11.7474 49.2711 12.948L49.2773 16.5607L44.0334 11.284C43.7461 10.9972 43.6327 10.9667 43.4484 10.9672L41.5081 10.9708L41.5086 11.2887C41.93 11.3291 42.1764 11.4927 42.6594 11.9534C42.8137 12.0974 42.9576 12.2713 42.9582 12.5586L42.9654 16.6745C42.968 17.8754 42.6294 18.1838 42.0449 18.3492L42.0454 18.6671L44.5289 18.6628L44.5284 18.3445C43.9434 18.1816 43.6037 17.8741 43.6017 16.6735L43.5949 12.7937L49.4963 18.7053L49.9178 18.7045L49.9069 12.9469ZM56.6045 16.1473C56.6024 14.8027 55.697 13.6753 54.0444 13.6785C52.3816 13.6816 51.3881 14.8839 51.3907 16.2797C51.3932 17.6244 52.2982 18.7518 53.9512 18.7488C55.6136 18.7458 56.6071 17.5433 56.6045 16.1473ZM52.673 15.6927C52.6715 14.7687 53.0701 14.183 53.9119 14.1814C55.0001 14.1796 55.3206 15.5133 55.3227 16.7346C55.3242 17.6586 54.9245 18.2443 54.0833 18.2459C52.9956 18.2475 52.6751 16.9137 52.673 15.6927ZM60.0877 18.317C59.4204 18.2157 59.3272 18.0721 59.3261 17.4359L59.323 15.3216C59.5275 14.9517 59.7217 14.6846 59.9272 14.4995C59.9277 14.8995 60.2052 15.1557 60.5541 15.1552C60.9026 15.1543 61.2411 14.8769 61.2406 14.343C61.2396 13.8912 60.9823 13.6148 60.5308 13.6158C60.0281 13.6163 59.6388 14.0377 59.2702 14.6338L59.2681 13.5972L58.8167 13.5982L57.3304 14.5758L57.3309 14.8015L58.0391 14.8002L58.0438 17.5303C58.0448 18.0948 57.9526 18.239 57.3676 18.3219L57.3681 18.64L60.0882 18.6353L60.0877 18.317ZM65.1157 18.1645L64.9614 17.8366C64.6844 17.9601 64.438 18.022 64.2226 18.0226C63.7407 18.0232 63.6169 17.7771 63.6164 17.4385L63.6107 14.349L64.9138 14.3468L64.9128 13.7618L63.6097 13.7639L63.6081 12.8092L63.4238 12.8097L61.5782 14.0243L61.5787 14.3529L62.3278 14.3513L62.334 17.7075C62.3351 18.3747 62.7151 18.7334 63.4647 18.7318C64.0492 18.7308 64.6239 18.5351 65.1157 18.1645M68.0615 18.3031C67.477 18.222 67.3838 18.0784 67.3828 17.514L67.3786 15.1327C67.8704 14.6801 68.2499 14.4536 68.6812 14.4528C69.1839 14.4522 69.3283 14.7084 69.3288 15.1703L69.333 17.5103C69.334 18.0748 69.2419 18.2189 68.6568 18.3019L68.6579 18.6202L71.2956 18.6155L71.2946 18.2972C70.7096 18.2161 70.6169 18.0727 70.6159 17.5081L70.6112 15.0551C70.6097 14.234 70.2602 13.6495 69.2237 13.6515C68.5978 13.6526 67.9823 14.0233 67.3776 14.5373L67.3708 10.4728L66.9908 10.4738L65.3404 11.5543L65.3409 11.78L66.09 11.779L66.0999 17.5162C66.1009 18.0806 66.0093 18.2246 65.4243 18.3077L65.4248 18.6261L68.062 18.6212L68.0615 18.3031ZM76.2304 17.6831L75.9529 17.4678C75.676 17.7868 75.2561 18.0027 74.7736 18.0038C73.8293 18.0054 73.2945 17.2879 73.0978 16.3544L76.1745 15.3224C76.1114 14.2346 75.3094 13.6407 74.2942 13.6422C72.8674 13.6453 71.8221 14.7964 71.8247 16.2231C71.8273 17.6396 72.7323 18.7156 74.3232 18.713C75.298 18.7112 75.8825 18.2788 76.2304 17.6831M73.0144 15.5026C73.0129 14.671 73.3608 14.178 74.0379 14.1765C74.5106 14.176 74.8088 14.5141 74.9331 15.1811L73.0248 15.8413C73.0144 15.7283 73.0144 15.6154 73.0144 15.5026ZM80.296 18.661C80.7376 18.6604 81.2093 18.4543 81.5168 18.2381L81.4236 17.951C80.9209 18.0442 80.7361 17.9728 80.7356 17.6341L80.7309 14.8935C80.7294 14.0724 80.3695 13.6319 79.2099 13.6339C77.9063 13.636 76.9526 14.3359 76.9537 14.9926C76.9547 15.3109 77.1706 15.5774 77.5403 15.5766C77.9612 15.5758 78.1656 15.2985 78.2267 15.0213C78.2873 14.703 78.1848 14.4672 78.0305 14.3339C78.2868 14.2104 78.5436 14.1482 78.8102 14.1479C79.2518 14.147 79.4677 14.3005 79.4682 14.7009L79.4703 15.7272C77.6334 16.1821 76.7927 16.5839 76.7947 17.5589C76.7958 18.3081 77.2788 18.7076 78.0383 18.7063C78.5208 18.7053 79.0747 18.499 79.5459 18.1288C79.6183 18.4675 79.8549 18.6618 80.296 18.661M78.0357 17.2897C78.0347 16.7666 78.2702 16.5196 79.4708 16.1891L79.4729 17.6772C79.1866 17.9037 78.9303 18.0066 78.6735 18.0072C78.2728 18.0078 78.0367 17.7929 78.0357 17.2897M85.938 17.081C85.9365 16.1265 85.1454 15.8302 84.4061 15.5952C83.6772 15.3604 83.174 15.2075 83.1729 14.6739C83.1724 14.3865 83.3873 14.1193 83.8082 14.1185C84.3316 14.1175 84.7944 14.4348 85.3494 15.0599L85.616 14.9361L85.2241 13.6645H85.0595L84.8752 13.8188C84.5873 13.6961 84.2591 13.6251 83.9102 13.6257C82.8219 13.6277 82.1153 14.2546 82.1168 15.199C82.1184 16.1538 82.9089 16.4292 83.6487 16.6745C84.3777 16.9194 84.8809 17.0622 84.8819 17.6062C84.8824 17.9449 84.6267 18.202 84.1333 18.2028C83.4458 18.204 82.9219 17.7532 82.2944 16.9538L82.0179 17.0569L82.4207 18.6572L82.5952 18.657L82.8924 18.441C83.2309 18.6048 83.6115 18.6964 84.0318 18.6958C85.0792 18.6936 85.9401 18.0764 85.938 17.081M89.8193 18.1209L89.6651 17.7929C89.3881 17.9164 89.1416 17.9783 88.9263 17.9789C88.4443 17.9795 88.32 17.7336 88.3195 17.3948L88.3143 14.3054L89.6174 14.303L89.6164 13.7183L88.3133 13.7204L88.3118 12.7657L88.1264 12.7663L86.2818 13.9803L86.2823 14.309L87.0315 14.3076L87.0371 17.6638C87.0387 18.331 87.4187 18.6895 88.1678 18.6883C88.7528 18.6873 89.3275 18.4912 89.8193 18.1209M94.56 17.6507L94.2825 17.4355C94.0061 17.7544 93.5857 17.9704 93.1037 17.9714C92.1589 17.973 91.6241 17.2555 91.4273 16.3218L94.5046 15.29C94.4415 14.2022 93.6395 13.608 92.6238 13.6101C91.197 13.6127 90.1517 14.764 90.1543 16.1906C90.1569 17.607 91.0618 18.6831 92.6528 18.6802C93.6276 18.6784 94.2121 18.2465 94.56 17.6507M91.344 15.4703C91.3424 14.6387 91.6903 14.1456 92.368 14.1442C92.8402 14.1436 93.1384 14.4817 93.2626 15.1487L91.3549 15.8089C91.344 15.6959 91.344 15.5831 91.344 15.4703M97.7734 18.2505C97.1061 18.149 97.0134 18.0056 97.0124 17.3692L97.0088 15.2548C97.2133 14.885 97.408 14.6178 97.613 14.4328C97.614 14.8328 97.8915 15.089 98.2399 15.0884C98.5888 15.088 98.9274 14.8102 98.9264 14.2765C98.9259 13.8245 98.6686 13.548 98.2171 13.549C97.7139 13.5495 97.3246 13.9715 96.9565 14.5671L96.9544 13.5309L96.503 13.5314L95.0166 14.509V14.7347L95.7249 14.7337L95.73 17.4638C95.7311 18.0285 95.6384 18.1722 95.0539 18.2553L95.0544 18.5733L97.774 18.5686L97.7734 18.2505ZM101.858 18.2432C101.273 18.1621 101.18 18.0187 101.179 17.4543L101.175 15.0832C101.688 14.6204 102.108 14.3939 102.477 14.3934C102.981 14.3923 103.125 14.6487 103.125 15.1107L103.129 17.4507C103.13 18.0153 103.038 18.1591 102.453 18.2422L102.454 18.5605L105.092 18.5557L105.091 18.2378C104.506 18.1565 104.413 18.0129 104.412 17.4484L104.408 14.9954C104.406 14.1743 104.056 13.5899 103.02 13.5915C102.383 13.593 101.758 13.9839 101.143 14.5086L101.142 13.5231L100.67 13.5242L99.1832 14.5017L99.1837 14.7274L99.8914 14.7262L99.8966 17.4566C99.8976 18.021 99.8055 18.1649 99.2204 18.2481L99.221 18.566L101.859 18.5615L101.858 18.2432" fill="#95AAB7"/>
<path d="M44.6529 27.8887L43.8556 28.7691V30.9435H42.0327V23.6944H43.8556V26.6461L46.3515 23.6944H48.4953L45.9062 26.6461L48.6915 30.9435H46.5275L44.6529 27.8887Z" fill="#95AAB7"/>
<path d="M50.8008 26.0767C51.2145 25.5377 51.7223 25.2477 52.4471 25.2477C53.628 25.2477 54.3011 26.0036 54.3011 27.3295V30.9435H52.561V27.7954C52.561 27.0706 52.3752 26.7082 51.7948 26.7082C51.2046 26.7082 50.8008 27.1948 50.8008 27.9301V30.9435H49.0608V23.6944H50.8008V26.0767" fill="#95AAB7"/>
<path d="M56.7865 28.1475C56.7865 29.2042 57.2219 29.7322 57.957 29.7322C58.6818 29.7322 59.1167 29.2042 59.1167 28.1475C59.1167 27.0706 58.6611 26.6047 57.957 26.6047C57.242 26.6047 56.7865 27.0706 56.7865 28.1475ZM60.9499 28.1681C60.9499 29.9186 59.7902 31.0891 57.957 31.0891C56.0617 31.0891 54.9641 29.8772 54.9641 28.1681C54.9641 26.4494 56.0824 25.2477 57.957 25.2477C59.8001 25.2477 60.9499 26.5005 60.9499 28.1681Z" fill="#95AAB7"/>
<path d="M66.789 30.9435H65.1219V30.2705C64.6969 30.8194 64.1585 31.0891 63.4445 31.0891C62.419 31.0891 61.6113 30.4984 61.6113 29.1524V25.403H63.3508V28.7279C63.3508 29.3698 63.5895 29.5975 64.0756 29.5975C64.6663 29.5975 65.0495 29.1415 65.0495 28.4684V25.403H66.789V30.9435" fill="#95AAB7"/>
<path d="M71.3619 25.2788V26.9359C71.1657 26.9256 71.0932 26.9256 71.0202 26.9256C70.1815 26.9256 69.5188 27.2777 69.5188 28.7894V30.9435H67.7793V25.403H69.4458V26.2941C69.8294 25.5274 70.3575 25.2477 70.9373 25.2477C71.0823 25.2477 71.2169 25.258 71.3619 25.2788" fill="#95AAB7"/>
<path d="M75.5481 31.058C75.2173 32.1866 74.7301 32.9321 73.2288 32.9321C72.8871 32.9321 72.6075 32.9011 72.3901 32.8494V31.6792C72.6795 31.7001 72.7939 31.7001 72.9176 31.7001C73.6636 31.7001 73.8604 31.5654 73.9639 30.9435H73.2805L71.4893 25.403H73.4566L74.4092 29.7528L75.2893 25.403H77.2058L75.5481 31.058" fill="#95AAB7"/>
<path d="M86.2763 25.6619L84.5161 26.1076C84.2158 25.3721 83.7804 25.0097 83.0039 25.0097C81.9477 25.0097 81.2949 25.8275 81.2949 27.2983C81.2949 28.7691 81.9063 29.6286 83.0344 29.6286C83.9156 29.6286 84.3913 29.1833 84.702 28.3649L86.4316 28.8826C85.8518 30.3637 84.5259 31.13 82.9723 31.13C81.1396 31.13 79.4099 30.0222 79.4099 27.3088C79.4099 24.6473 81.1396 23.5079 82.993 23.5079C84.381 23.5079 85.6649 24.0776 86.2763 25.6619" fill="#95AAB7"/>
<path d="M88.6798 28.1475C88.6798 29.2042 89.1152 29.7322 89.8498 29.7322C90.5751 29.7322 91.01 29.2042 91.01 28.1475C91.01 27.0706 90.5544 26.6047 89.8498 26.6047C89.1354 26.6047 88.6798 27.0706 88.6798 28.1475ZM92.8432 28.1681C92.8432 29.9186 91.683 31.0891 89.8498 31.0891C87.9545 31.0891 86.8569 29.8772 86.8569 28.1681C86.8569 26.4494 87.9752 25.2477 89.8498 25.2477C91.6934 25.2477 92.8432 26.5005 92.8432 28.1681Z" fill="#95AAB7"/>
<path d="M95.2998 30.9435H93.5598V23.6944H95.2998V30.9435Z" fill="#95AAB7"/>
<path d="M98.0179 30.9435H96.2778V23.6944H98.0179V30.9435Z" fill="#95AAB7"/>
<path d="M100.508 27.5572H102.548C102.507 26.7911 102.124 26.47 101.522 26.47C100.984 26.47 100.56 26.7806 100.508 27.5572ZM104.309 28.282V28.5926H100.518C100.57 29.3904 101.036 29.7839 101.73 29.7839C102.31 29.7839 102.652 29.4939 102.9 29.1006L104.267 29.7528C103.729 30.602 102.869 31.0891 101.637 31.0891C99.8347 31.0891 98.7263 29.8669 98.7263 28.1681C98.7263 26.4597 99.7623 25.2477 101.533 25.2477C103.252 25.2477 104.309 26.4079 104.309 28.282Z" fill="#95AAB7"/>
<path d="M106.527 27.0809C106.527 27.5054 106.838 27.7851 107.387 27.7851C107.936 27.7851 108.257 27.5159 108.257 27.0706C108.257 26.6253 107.946 26.3458 107.398 26.3458C106.838 26.3458 106.527 26.6358 106.527 27.0809V27.0809ZM106.351 30.7779C106.155 30.9126 106.072 31.0683 106.072 31.2548C106.072 31.586 106.3 31.7828 107.304 31.7828C108.174 31.7828 108.506 31.586 108.506 31.2445C108.506 30.8917 108.236 30.7779 107.563 30.7779H106.351ZM110.473 26.2107C110.101 26.2107 109.914 26.2314 109.696 26.3043C109.883 26.5529 109.955 26.8429 109.955 27.1535C109.955 28.1578 109.148 28.9556 107.47 28.9556C107.056 28.9556 106.714 28.8935 106.403 28.7894C106.32 28.8826 106.258 28.9868 106.258 29.1006C106.258 29.3283 106.414 29.463 106.952 29.463H107.853C109.5 29.463 110.287 30.1669 110.287 31.1506C110.287 32.2487 109.324 32.9321 107.366 32.9321C105.264 32.9321 104.632 32.3316 104.632 31.5239C104.632 31.058 104.912 30.6744 105.43 30.4467C105.036 30.2187 104.881 29.8669 104.881 29.5148C104.881 29.1212 105.161 28.7382 105.585 28.4684C105.099 28.1681 104.798 27.6816 104.798 27.1121C104.798 26.0663 105.637 25.2477 107.345 25.2477C107.957 25.2477 108.454 25.3721 108.837 25.548C109.199 25.1132 109.717 24.8335 110.473 24.8232V26.2107" fill="#95AAB7"/>
<path d="M112.403 27.5572H114.442C114.401 26.7911 114.018 26.47 113.417 26.47C112.879 26.47 112.454 26.7806 112.403 27.5572ZM116.204 28.282V28.5926H112.412C112.465 29.3904 112.931 29.7839 113.624 29.7839C114.204 29.7839 114.546 29.4939 114.795 29.1006L116.162 29.7528C115.624 30.602 114.763 31.0891 113.532 31.0891C111.729 31.0891 110.622 29.8669 110.622 28.1681C110.622 26.4597 111.657 25.2477 113.428 25.2477C115.147 25.2477 116.204 26.4079 116.204 28.282" fill="#95AAB7"/>
<path d="M120.531 28.1475C120.531 29.2042 120.965 29.7322 121.701 29.7322C122.426 29.7322 122.861 29.2042 122.861 28.1475C122.861 27.0706 122.405 26.6047 121.701 26.6047C120.986 26.6047 120.531 27.0706 120.531 28.1475ZM124.694 28.1681C124.694 29.9186 123.534 31.0891 121.701 31.0891C119.806 31.0891 118.708 29.8772 118.708 28.1681C118.708 26.4494 119.826 25.2477 121.701 25.2477C123.544 25.2477 124.694 26.5005 124.694 28.1681Z" fill="#95AAB7"/>
<path d="M128.902 23.7152V24.9268C128.622 24.8438 128.26 24.7715 127.939 24.7715C127.534 24.7715 127.369 24.875 127.369 25.227V25.5377H128.684V26.76H127.369V30.9435H125.629V26.76H124.883V25.5377H125.629V25.0924C125.629 24.1399 126.199 23.4974 127.555 23.4974C128.063 23.4974 128.539 23.6011 128.902 23.7152" fill="#95AAB7"/>
<path d="M48.5881 37.9575L46.8278 38.4032C46.5276 37.6677 46.0927 37.3053 45.3156 37.3053C44.2595 37.3053 43.6066 38.1231 43.6066 39.594C43.6066 41.0648 44.2181 41.9243 45.3472 41.9243C46.2273 41.9243 46.7036 41.4789 47.0142 40.6605L48.7439 41.1783C48.1641 42.6594 46.8382 43.4256 45.2845 43.4256C43.4513 43.4256 41.7222 42.3178 41.7222 39.6045C41.7222 36.9429 43.4513 35.8034 45.3052 35.8034C46.6932 35.8034 47.9777 36.3734 48.5881 37.9575" fill="#95AAB7"/>
<path d="M50.9913 40.4432C50.9913 41.4998 51.4262 42.0278 52.1614 42.0278C52.8862 42.0278 53.3216 41.4998 53.3216 40.4432C53.3216 39.3663 52.8655 38.9003 52.1614 38.9003C51.4469 38.9003 50.9913 39.3663 50.9913 40.4432ZM55.1543 40.4638C55.1543 42.2143 53.9946 43.3848 52.1614 43.3848C50.266 43.3848 49.168 42.1728 49.168 40.4638C49.168 38.745 50.2867 37.5433 52.1614 37.5433C54.0049 37.5433 55.1543 38.7962 55.1543 40.4638" fill="#95AAB7"/>
<path d="M64.1238 39.6562V43.2392H62.3843V40.1946C62.3843 39.3351 62.2389 39.0039 61.7108 39.0039C61.2138 39.0039 60.8612 39.4491 60.8612 40.1531V43.2392H59.1217V40.1946C59.1217 39.3351 59.0182 39.0039 58.4487 39.0039C57.962 39.0039 57.5996 39.4491 57.5996 40.1531V43.2392H55.8596V37.6987H57.5266V38.3411C57.9512 37.7919 58.428 37.5434 59.1321 37.5434C59.8776 37.5434 60.3958 37.8748 60.6438 38.4443C61.0585 37.8333 61.6487 37.5434 62.3942 37.5434C63.5331 37.5434 64.1238 38.289 64.1238 39.6562" fill="#95AAB7"/>
<path d="M66.7196 40.4535C66.7196 41.5413 67.1752 42.0278 67.8172 42.0278C68.5213 42.0278 68.9458 41.4895 68.9458 40.4535C68.9458 39.4283 68.542 38.9003 67.8172 38.9003C67.1545 38.9003 66.7196 39.4077 66.7196 40.4535V40.4535ZM70.779 40.4638C70.779 42.2037 69.7534 43.3848 68.2935 43.3848C67.6619 43.3848 67.1752 43.1668 66.833 42.7941V45H65.0935V37.6987H66.7605V38.2578C67.1436 37.7607 67.6826 37.5434 68.3142 37.5434C69.785 37.5434 70.779 38.7553 70.779 40.4638" fill="#95AAB7"/>
<path d="M76.6376 43.2392H74.9701V42.5661C74.5456 43.115 74.0071 43.3848 73.2922 43.3848C72.2671 43.3848 71.4595 42.7941 71.4595 41.448V37.6987H73.199V41.0236C73.199 41.6654 73.4371 41.8931 73.9243 41.8931C74.514 41.8931 74.8976 41.4371 74.8976 40.7641V37.6987H76.6376V43.2392" fill="#95AAB7"/>
<path d="M79.6584 37.8333H80.9527V39.0556H79.6584V41.3342C79.6584 41.7896 79.793 41.9966 80.2797 41.9966C80.5592 41.9966 80.7767 41.9554 81.0355 41.8931V43.1979C80.6731 43.3122 80.2486 43.3848 79.7821 43.3848C78.3843 43.3848 77.9184 42.7214 77.9184 41.6033V39.0556H77.1724V37.8333H77.9184V36.4044H79.6584V37.8333" fill="#95AAB7"/>
<path d="M83.1201 39.8528H85.1604C85.1189 39.0867 84.7358 38.7656 84.1348 38.7656C83.5964 38.7656 83.1718 39.0762 83.1201 39.8528V39.8528ZM86.9206 40.5776V40.8882H83.1304C83.1827 41.686 83.6481 42.0796 84.3424 42.0796C84.9222 42.0796 85.2639 41.7896 85.5124 41.3963L86.8797 42.0484C86.3408 42.8976 85.4813 43.3848 84.2492 43.3848C82.447 43.3848 81.3386 42.1625 81.3386 40.4638C81.3386 38.7553 82.3746 37.5433 84.1457 37.5433C85.8645 37.5433 86.9206 38.7035 86.9206 40.5776Z" fill="#95AAB7"/>
<path d="M91.2332 37.5745V39.2316C91.036 39.2213 90.964 39.2213 90.8916 39.2213C90.0524 39.2213 89.3897 39.5733 89.3897 41.085V43.2392H87.6497V37.6987H89.3172V38.5897C89.7003 37.823 90.2289 37.5434 90.8087 37.5434C90.9537 37.5434 91.0883 37.5537 91.2332 37.5745Z" fill="#95AAB7"/>
<path d="M93.386 42.0796L94.5353 40.9924C95.1467 41.5825 95.8203 41.9449 96.7936 41.9449C97.5391 41.9449 98.0464 41.6654 98.0464 41.2098C98.0464 40.7541 97.7979 40.5467 96.3685 40.2775C94.5974 39.9357 93.7489 39.3351 93.7489 37.9783C93.7489 36.6218 94.9293 35.793 96.6797 35.793C98.1298 35.793 99.1445 36.332 99.817 37.0877L98.6159 38.0926C98.2017 37.6469 97.6426 37.2845 96.7102 37.2845C95.9963 37.2845 95.623 37.5227 95.623 37.9369C95.623 38.362 95.8922 38.5581 97.2388 38.7859C99.1026 39.1074 99.9418 39.739 99.9418 41.085C99.9418 42.6076 98.6475 43.4359 96.7516 43.4359C95.3124 43.4359 94.1626 42.9182 93.386 42.0796" fill="#95AAB7"/>
<path d="M105.852 39.0762L104.34 39.6666C104.164 39.1695 103.801 38.9003 103.315 38.9003C102.62 38.9003 102.154 39.3766 102.154 40.4535C102.154 41.5101 102.61 42.0278 103.325 42.0278C103.936 42.0278 104.236 41.6448 104.402 41.1679L105.893 41.7484C105.427 42.7214 104.558 43.3848 103.221 43.3848C101.419 43.3848 100.332 42.1728 100.332 40.4741C100.332 38.7656 101.45 37.5433 103.221 37.5433C104.526 37.5433 105.376 38.1128 105.852 39.0762" fill="#95AAB7"/>
<path d="M108.154 43.2392H106.414V37.6987H108.154V43.2392ZM108.278 36.0213C108.278 36.5494 107.813 36.9636 107.284 36.9636C106.756 36.9636 106.29 36.5494 106.29 36.0213C106.29 35.4927 106.756 35.0786 107.284 35.0786C107.813 35.0786 108.278 35.4927 108.278 36.0213Z" fill="#95AAB7"/>
<path d="M110.614 39.8528H112.654C112.613 39.0867 112.23 38.7656 111.629 38.7656C111.091 38.7656 110.666 39.0762 110.614 39.8528V39.8528ZM114.415 40.5776V40.8882H110.624C110.677 41.686 111.143 42.0796 111.836 42.0796C112.416 42.0796 112.758 41.7896 113.007 41.3963L114.374 42.0484C113.836 42.8976 112.975 43.3848 111.743 43.3848C109.941 43.3848 108.833 42.1625 108.833 40.4638C108.833 38.7553 109.868 37.5433 111.64 37.5433C113.359 37.5433 114.415 38.7035 114.415 40.5776" fill="#95AAB7"/>
<path d="M120.384 39.6251V43.2392H118.645V40.1222C118.645 39.3663 118.458 39.0039 117.878 39.0039C117.288 39.0039 116.884 39.4904 116.884 40.2257V43.2392H115.144V37.6987H116.811V38.4443C117.226 37.8125 117.826 37.5434 118.561 37.5434C119.711 37.5434 120.384 38.289 120.384 39.6251" fill="#95AAB7"/>
<path d="M126.566 39.0762L125.054 39.6666C124.879 39.1695 124.516 38.9003 124.029 38.9003C123.335 38.9003 122.869 39.3766 122.869 40.4535C122.869 41.5101 123.325 42.0278 124.04 42.0278C124.65 42.0278 124.951 41.6448 125.117 41.1679L126.608 41.7484C126.142 42.7214 125.272 43.3848 123.936 43.3848C122.134 43.3848 121.047 42.1728 121.047 40.4741C121.047 38.7656 122.165 37.5433 123.936 37.5433C125.241 37.5433 126.09 38.1128 126.566 39.0762" fill="#95AAB7"/>
<path d="M128.621 39.8528H130.661C130.619 39.0867 130.236 38.7656 129.635 38.7656C129.097 38.7656 128.672 39.0762 128.621 39.8528V39.8528ZM132.422 40.5776V40.8882H128.631C128.683 41.686 129.149 42.0796 129.842 42.0796C130.423 42.0796 130.764 41.7896 131.013 41.3963L132.38 42.0484C131.842 42.8976 130.982 43.3848 129.75 43.3848C127.947 43.3848 126.84 42.1625 126.84 40.4638C126.84 38.7553 127.875 37.5433 129.646 37.5433C131.365 37.5433 132.422 38.7035 132.422 40.5776" fill="#95AAB7"/>
<path d="M137.866 38.3826L137.017 39.3351C136.53 38.9624 136.075 38.7756 135.526 38.7756C134.976 38.7756 134.759 38.9418 134.759 39.2006C134.759 39.4904 134.935 39.5836 136.054 39.801C137.369 40.0496 137.99 40.5881 137.99 41.593C137.99 42.6491 137.048 43.3848 135.401 43.3848C134.117 43.3848 133.309 43.0121 132.657 42.442L133.486 41.448C134.066 41.9449 134.646 42.1211 135.194 42.1211C135.857 42.1211 136.158 41.9449 136.158 41.6654C136.158 41.386 136.054 41.2616 134.915 41.0442C133.599 40.7952 132.957 40.2878 132.957 39.3145C132.957 38.1749 134.045 37.5433 135.453 37.5433C136.52 37.5433 137.327 37.8954 137.866 38.3826Z" fill="#95AAB7"/>
</svg>
