<svg width="119" height="45" viewBox="0 0 119 45" fill="none" xmlns="http://www.w3.org/2000/svg">
<g clip-path="url(#clip0_167_726)">
<path d="M87.3229 1.52975C87.8265 2.53378 89.5768 3.27188 90.5103 3.88869C92.7615 5.37615 95.4137 6.99053 96.8838 9.30595C92.8015 9.30595 88.9655 9.45896 85.0282 10.5987C83.2012 11.1276 80.922 12.3491 80.3115 14.2776C85.946 13.8174 93.6329 10.2512 98.6685 14.5326C97.1066 15.3792 95.8174 17.5616 94.8066 18.9943C91.3268 23.9266 89.1801 30.2738 89.1081 36.3314C89.0772 38.9251 88.9469 45.9602 93.185 44.9322C96.1288 44.218 95.1297 39.9423 95.3905 37.7337C95.9709 32.8165 96.5592 27.9113 98.1686 23.2011C99.0214 20.7052 100.311 18.4634 101.346 16.0623L104.797 22.6912L106.445 27.5354C109.538 25.5883 107.305 20.5793 107.082 17.847C109.856 19.4257 112.428 21.0281 114.858 23.1278C116.221 24.3054 117.316 25.8886 118.81 26.898C118.807 22.2022 116.132 16.0356 111.926 13.6962C109.846 12.5388 107.751 12.3654 105.425 12.3654C107.135 10.7948 109.649 10.256 111.926 10.2002C113.111 10.1711 114.482 10.4082 115.623 10.0708C112.631 6.8721 105.984 5.91386 102.238 8.28612C101.954 7.19585 100.884 6.14124 100.105 5.35411C96.4232 1.63439 92.1758 1.52975 87.3229 1.52975Z" fill="#95AAB7"/>
<path d="M61.6997 13.3139C59.3574 13.6949 58.6146 16.7038 59.922 18.4622C60.7224 19.5391 62.09 19.8164 63.3569 19.5898C65.4549 19.2142 66.4149 16.4819 65.3662 14.7335C64.5785 13.4203 63.1367 13.0801 61.6997 13.3139Z" fill="#95AAB7"/>
<path d="M47.5496 25.5503C45.9752 25.7758 44.4191 26.1423 43.2536 27.3187C40.7727 29.8229 41.8007 34.0231 44.4901 35.8539C45.837 36.7709 47.4067 37.1845 48.8239 37.961C49.2964 38.2199 49.9971 38.6388 50.0038 39.2635C50.0127 40.0684 49.0524 40.28 48.4419 40.2832C47.3231 40.2891 46.2891 39.9326 45.255 39.528C44.7689 39.3378 44.1604 38.9547 43.6397 39.2672C43.154 39.5584 42.9036 40.305 42.6768 40.7932C42.4383 41.3072 41.8777 41.9752 42.0027 42.5729C42.1578 43.3131 43.1168 43.6931 43.7252 43.9623C45.5308 44.7614 47.7494 45.0776 49.7167 44.8361C51.588 44.6062 53.3741 44.0168 54.6648 42.576C56.9463 40.0292 55.8717 36.2 53.2861 34.3901C51.9206 33.4341 50.3276 32.9406 48.8244 32.2642C48.2866 32.0222 47.4813 31.7978 47.379 31.1044C47.2691 30.3592 48.2408 30.0144 48.8244 30.0342C50.028 30.0753 52.3929 31.5894 53.3967 30.8827C53.839 30.5713 54.084 29.9236 54.3024 29.4476C54.5387 28.9326 55.0165 28.2538 54.8724 27.663C54.6878 26.9071 53.9146 26.6325 53.2861 26.3491C51.6035 25.5906 49.3857 25.2874 47.5496 25.5503ZM75.2125 25.5503C73.5593 25.787 71.9638 26.143 70.7725 27.4314C68.4227 29.9729 69.3902 33.9731 72.0477 35.8214C73.3795 36.7477 74.9614 37.133 76.3598 37.9173C76.8576 38.1965 77.5469 38.6187 77.5802 39.2633C77.6249 40.1289 76.6145 40.2828 75.9774 40.283C74.8952 40.2835 73.7784 39.9466 72.7904 39.5146C72.3209 39.3093 71.7022 38.932 71.1932 39.267C70.7365 39.5676 70.5259 40.326 70.2916 40.7932C70.0267 41.3213 69.5107 41.9478 69.6463 42.5774C69.809 43.3332 70.7496 43.7469 71.3881 44.0145C73.197 44.7722 75.4316 45.0753 77.3796 44.8361C79.0305 44.6331 80.7191 44.1083 81.9325 42.9221C84.6248 40.2904 83.658 36.1766 80.6941 34.2464C79.3094 33.3447 77.7188 32.8542 76.2323 32.1639C75.7381 31.9344 74.9559 31.6416 74.9388 30.9823C74.9198 30.2496 75.9228 29.9844 76.4873 30.0237C77.6388 30.1036 80.093 31.5904 81.0478 30.8827C81.4354 30.5955 81.6425 29.9943 81.8545 29.5751C82.1507 28.9896 82.6634 28.0966 82.3841 27.4297C82.1028 26.7582 81.3036 26.5295 80.6941 26.2783C79.0558 25.6032 76.9777 25.2975 75.2125 25.5503Z" fill="#95AAB7"/>
<path d="M60.5529 25.9512C58.9797 26.4089 59.66 30.4359 59.66 31.7422V40.7932C59.66 41.7216 59.339 43.4245 60.0194 44.1696C60.6461 44.8561 63.7781 44.6689 64.6298 44.417C66.1979 43.9534 65.524 39.9133 65.524 38.6261V29.7025C65.524 28.7632 65.855 27.0453 65.196 26.2897C64.5232 25.5182 61.4892 25.6788 60.5529 25.9512Z" fill="#95AAB7"/>
<path fill-rule="evenodd" clip-rule="evenodd" d="M9.30589 25.5503C5.67509 26.0703 2.32785 28.4698 1.24728 32.1246C-0.649011 38.5386 4.36182 45.7432 11.3455 44.8357C12.8611 44.6387 14.2823 44.1306 15.5523 43.2765C23.3855 38.0086 19.1511 24.1405 9.30589 25.5503ZM33.0169 33.1445C29.7103 31.904 24.3015 32.671 22.7165 36.2045C20.5628 41.006 24.9786 45.6513 29.83 44.7941C31.3113 44.5324 32.3555 43.8624 33.5332 43.1067L33.5342 43.106C33.7392 42.9745 33.9482 42.8404 34.1642 42.7054L34.1747 42.7438C34.3071 43.2287 34.4699 43.825 34.8519 44.1696C35.4259 44.6877 37.5028 44.7594 37.8746 43.9515C38.2256 43.1893 38.132 41.9694 38.0508 40.912C38.0187 40.4943 37.9886 40.1021 37.9886 39.7734C37.9886 38.9874 38.0398 38.0985 38.0938 37.1586C38.2826 33.8779 38.5071 29.9761 36.7171 27.6634C34.5263 24.8326 30.0271 25.337 26.898 25.8259C26.7939 25.8422 26.6823 25.8581 26.5654 25.8747L26.5644 25.8749H26.5642C25.7921 25.9849 24.7934 26.1271 24.2614 26.618C23.5473 27.2769 24.0839 29.8707 24.5851 30.576C24.9845 31.1378 25.7576 30.931 26.4393 30.7487C26.699 30.6793 26.9455 30.6134 27.1529 30.5949C27.4783 30.5659 27.8602 30.4971 28.2695 30.4234C29.669 30.1714 31.389 29.8617 32.2642 30.8849C32.7211 31.4191 32.8386 32.1092 32.9531 32.782C32.9738 32.9037 32.9944 33.0249 33.0169 33.1445ZM9.56084 30.6611C3.92887 31.8822 5.65298 40.8359 11.3455 39.5962C16.4922 38.4753 14.7949 29.5261 9.56084 30.6611ZM30.3399 40.706C27.3528 41.4069 26.4567 36.9832 29.4475 36.2718C30.2787 36.0742 32.1786 36.0214 32.7584 36.803C33.9952 38.4703 31.7594 40.373 30.3399 40.706Z" fill="#95AAB7"/>
</g>
<defs>
<clipPath id="clip0_167_726">
<rect width="118.938" height="45" fill="white"/>
</clipPath>
</defs>
</svg>
