<svg width="144" height="45" viewBox="0 0 144 45" fill="none" xmlns="http://www.w3.org/2000/svg">
<path d="M4.80113 4.23081C4.82019 4.89783 4.83924 5.58391 4.83924 6.25093C4.83924 8.4235 4.80113 10.6723 4.62966 12.8258C4.57251 13.6834 4.38199 14.522 4.26767 15.3605C4.24862 15.3986 4.22957 15.4558 4.22957 15.513C4.22957 15.5892 4.26767 15.6273 4.34388 15.6273C4.43914 15.6273 4.64872 15.532 4.74398 15.4939C5.39175 15.208 6.11573 15.0746 6.78255 14.846V8.49974C6.78255 7.05135 6.78255 5.69825 6.85876 4.15458C7.27791 4.17364 10.6882 4.21175 10.7454 4.21175C10.7835 4.21175 10.8026 4.21175 10.8216 4.13552C10.974 3.62096 11.4503 2.62996 11.4503 2.17258C11.4503 2.09635 11.3741 2.03917 11.2979 2.03917C11.2407 2.03917 11.2026 2.05823 11.1455 2.07729C10.3262 2.36316 9.31649 2.43939 8.40198 2.43939C7.58274 2.43939 7.06834 2.45844 5.90616 2.45844C3.86758 2.45844 3.08644 2.45844 2.17194 2.40127L1.23839 2.3441C0.952606 2.3441 0.914502 2.38221 0.819241 2.64902L0.533459 3.44944C0.381042 3.84966 0.0952606 4.30704 0 4.72631C0.0190521 4.76443 0.0762085 4.78348 0.114313 4.78348C0.171469 4.78348 0.26673 4.74537 0.304834 4.72631C0.743033 4.55479 1.16218 4.4595 1.63848 4.40233C2.68635 4.28798 3.75327 4.26893 4.80113 4.23081Z" fill="#95AAB7"/>
<path d="M13.9136 7.90895C14.4661 7.50873 16.3332 6.6702 17.019 6.6702C17.5335 6.6702 17.6668 6.87983 17.724 7.37533C17.7621 7.71837 17.7811 8.09952 17.7811 13.1689C17.7811 13.8359 17.7811 14.5601 17.6859 15.2843C17.6859 15.3605 17.7049 15.4558 17.8192 15.4558C17.8573 15.4558 17.9907 15.3986 18.0288 15.3796C18.3717 15.2271 18.7337 15.1318 19.0957 15.0365C19.3053 14.9794 20.5056 14.7888 20.5056 14.4648C20.5056 14.3123 20.4103 14.2933 20.277 14.2742C19.6101 14.198 19.5911 12.9592 19.5911 11.6252C19.5911 9.70037 19.6863 7.75649 19.6863 5.73637C19.6863 5.35521 19.572 4.85971 19.1148 4.85971C17.8192 4.85971 15.3806 6.38433 13.9136 6.97512V5.69825C13.9136 3.79248 13.9517 0.400212 14.0279 0.0952884C14.0279 0.038116 14.0279 0 13.9707 0C13.7802 0 12.2179 0.647963 11.875 0.762308C11.8178 0.781366 11.7226 0.876654 11.7226 0.933828C11.7226 0.952885 11.7607 1.02912 11.7797 1.04817C12.0846 1.58179 12.1036 3.56379 12.1036 4.19269V7.54685C12.1036 9.73849 12.0655 11.9492 12.0083 14.1408C11.9893 14.5601 11.9131 14.9984 11.9131 15.4177C11.9131 15.4939 11.9702 15.532 12.0464 15.532C12.1798 15.532 12.6561 15.3224 12.8085 15.2652C13.1515 15.1318 13.4944 15.0175 13.8564 14.9412C13.9517 14.9222 14.0088 14.9031 14.0088 14.8078C14.0088 14.5601 13.9136 14.2933 13.9136 14.0265C13.8945 13.1879 13.8564 12.3684 13.8564 11.5299C13.8564 10.3293 13.8945 9.10958 13.9136 7.90895Z" fill="#95AAB7"/>
<path d="M26.3102 10.1196C26.939 9.26204 27.5486 8.36633 28.3869 7.60402C28.5203 7.48968 28.6346 7.37533 28.6346 7.22287C28.6346 7.07041 28.2345 6.68925 28.1202 6.55585C27.2628 5.62202 26.0244 5.06935 24.748 5.06935C24.5193 5.06935 24.2526 5.06935 24.043 5.16464C23.7763 5.27898 22.9761 6.46056 22.8046 6.68925L21.7758 8.13764C21.2805 8.84277 21.2614 8.84277 21.2614 9.75754C21.2614 11.9492 22.576 15.3605 25.2052 15.3605C25.9863 15.3605 26.7675 14.198 27.5105 13.6072C27.6629 13.4738 28.044 13.226 28.044 12.9783C28.044 12.8639 27.9487 12.7687 27.8344 12.7687C27.5486 12.7687 27.1485 13.226 26.3674 13.226C25.6434 13.226 24.8813 12.9592 24.3098 12.4828C23.5286 11.8158 23.3762 11.1106 23.2428 10.1387C23.7954 10.1196 24.3479 10.1006 24.9004 10.1006C25.3767 10.1006 25.8339 10.1006 26.3102 10.1196ZM23.5477 8.89995C23.2047 8.89995 23.1285 8.86183 23.1285 8.49974C23.1285 7.7946 23.2619 6.91795 24.1383 6.91795C24.8432 6.91795 26.5008 7.68025 26.5008 8.46162C26.5008 8.86183 25.7577 8.93806 25.1862 8.93806C24.9004 8.93806 24.6527 8.91901 24.5574 8.91901L23.5477 8.89995Z" fill="#95AAB7"/>
<path d="M5.67515 32.6125C12.9197 32.6125 14.4367 31.2189 17.4398 24.7774C17.4398 23.2909 16.6968 21.8354 15.7061 20.7515C14.2819 19.203 12.3315 18.5217 10.3501 18.5217C10.2572 18.5217 10.1953 18.5217 2.57918 18.7695C2.20766 19.5127 1.80519 20.194 1.30983 20.8753C2.30054 20.9373 2.42438 21.3089 2.45534 22.238C2.51726 23.5696 2.57918 24.9322 2.57918 26.2639V27.1001C2.57918 29.8872 2.57918 32.7364 2.3315 35.4926C2.23862 36.6384 1.92903 38.4966 1.92903 39.6424C1.92903 39.7663 1.99095 39.8282 2.11479 39.8282C2.39342 39.8282 5.58227 39.1159 5.64419 39.054C5.70611 38.9611 5.73707 38.7443 5.73707 38.6514C5.73707 38.6514 5.61323 35.9881 5.61323 35.5545C5.61323 34.5635 5.64419 33.6035 5.67515 32.6125ZM5.64419 26.0781C5.64419 24.4987 5.73707 22.9502 5.76803 21.3708C7.00642 21.3089 7.65657 21.247 8.33768 21.247C10.6287 21.247 12.0528 22.0521 13.3841 23.9103C13.9414 24.6845 14.3748 25.5826 14.3748 26.5426C14.3748 29.144 11.7433 29.3917 9.63799 29.3917H8.5544C7.56369 29.3917 6.6349 29.3608 5.67515 29.2059L5.64419 26.0781Z" fill="#95AAB7"/>
<path d="M22.1634 26.202C22.1943 25.7684 22.3182 23.4457 22.3182 23.1051C22.3182 22.9502 22.3182 22.8264 22.1014 22.8264C22.0395 22.8264 21.9466 22.8573 21.8847 22.8883C21.2036 23.1361 20.5535 23.3219 19.8414 23.5077C19.6556 23.5696 18.7268 23.6935 18.7268 23.9103C19.2841 25.5516 19.2841 28.5866 19.2841 30.2279V32.7054C19.2841 33.9442 19.2532 35.2139 19.0984 36.3907C19.0364 36.7313 18.634 39.1779 18.634 39.6734C18.634 39.7663 18.6649 39.8282 18.7578 39.8282C18.8197 39.8282 21.9466 38.7443 22.0086 38.7133C22.1324 38.6514 22.1634 38.5585 22.1634 38.4346C22.1014 38.0011 22.0705 34.7184 22.0705 34.7184C22.0705 34.13 22.0395 33.2628 22.0395 32.2718C22.0395 30.4137 22.1634 28.2149 22.9374 27.3168C23.5256 26.6355 24.2067 26.6046 25.0736 26.6046C25.3832 26.6046 25.7856 26.6665 26.0024 26.6665C26.2191 26.6665 26.281 26.5426 26.281 26.3258V25.149C26.281 24.5606 26.281 23.9722 26.4048 22.9502C26.4048 22.8883 26.3429 22.8264 26.281 22.8264C24.0829 23.2599 23.216 24.3748 22.1634 26.202Z" fill="#95AAB7"/>
<path d="M28.3543 30.2279C28.3543 35.059 28.1995 36.3287 28.1376 39.054V39.4256C28.1376 39.5805 28.1376 39.7663 28.3543 39.7663C28.5091 39.7663 31.5432 38.7443 32.1005 38.5895C32.3172 38.5275 32.5958 38.4346 32.5958 38.1559C32.5958 37.6914 31.8218 37.8152 31.5432 37.4746C31.2026 37.041 31.2026 35.2448 31.2026 34.5016V34.3777C31.2026 31.8383 31.2026 29.3298 31.2336 26.7904C31.2645 25.6445 31.3265 24.5296 31.3265 23.3838C31.3265 23.167 31.3265 22.9502 31.0478 22.9502C30.7382 22.9502 28.0447 23.9103 27.7351 23.9722C27.5184 24.0032 27.2398 24.0341 27.2398 24.3129C27.2398 24.4367 27.3946 24.4987 27.4875 24.5296C28.1376 24.8084 28.2305 25.3658 28.2615 26.0161C28.3234 27.4097 28.3543 28.8343 28.3543 30.2279ZM32.1005 19.4198C32.1624 18.7385 32.1933 17.9952 32.1933 17.283C32.1933 17.1281 32.1624 16.9733 31.9766 16.9733C31.7909 16.9733 31.5432 17.283 31.4193 17.4068C30.4286 18.4288 29.1902 19.203 27.9828 19.9463L27.859 21.6495C27.859 21.7425 27.859 21.8973 27.9828 21.8973C28.1067 21.8973 28.633 21.5876 28.7878 21.5257C29.9642 20.9992 31.1717 20.3489 32.1005 19.4198Z" fill="#95AAB7"/>
<path d="M41.2921 39.7972C43.3664 39.7972 44.6667 38.5585 45.998 37.103C47.9794 34.9661 49.1249 32.5506 49.1249 29.6085C49.1249 25.8303 47.2364 22.7335 43.1497 22.7335C37.515 22.7335 33.8618 26.7594 33.8618 32.3028C33.8618 36.7933 36.772 39.7972 41.2921 39.7972ZM36.2147 29.8253C36.2147 27.2549 37.7008 25.5206 40.3323 25.5206C44.2023 25.5206 46.6481 28.3698 46.6481 32.148C46.6481 34.5016 44.6977 36.6694 42.2828 36.6694C38.7844 36.6694 36.2147 33.108 36.2147 29.8253Z" fill="#95AAB7"/>
<path d="M54.5743 26.202C54.6053 25.7684 54.7291 23.4457 54.7291 23.1051C54.7291 22.9502 54.7291 22.8264 54.5124 22.8264C54.4505 22.8264 54.3576 22.8573 54.2957 22.8883C53.6145 23.1361 52.9644 23.3219 52.2523 23.5077C52.0666 23.5696 51.1378 23.6935 51.1378 23.9103C51.695 25.5516 51.695 28.5866 51.695 30.2279V32.7054C51.695 33.9442 51.6641 35.2139 51.5093 36.3907C51.4474 36.7313 51.0449 39.1779 51.0449 39.6734C51.0449 39.7663 51.0758 39.8282 51.1687 39.8282C51.2306 39.8282 54.3576 38.7443 54.4195 38.7133C54.5433 38.6514 54.5743 38.5585 54.5743 38.4346C54.5124 38.0011 54.4814 34.7184 54.4814 34.7184C54.4814 34.13 54.4505 33.2628 54.4505 32.2718C54.4505 30.4137 54.5743 28.2149 55.3483 27.3168C55.9365 26.6355 56.6176 26.6046 57.4845 26.6046C57.7941 26.6046 58.1966 26.6665 58.4133 26.6665C58.63 26.6665 58.6919 26.5426 58.6919 26.3258V25.149C58.6919 24.5606 58.6919 23.9722 58.8158 22.9502C58.8158 22.8883 58.7538 22.8264 58.6919 22.8264C56.4938 23.2599 55.6269 24.3748 54.5743 26.202Z" fill="#95AAB7"/>
<path d="M65.595 38.9611C64.7281 40.8502 63.7993 42.6464 62.3752 44.1948C62.2513 44.3187 61.9108 44.6593 61.9108 44.8142C61.9108 44.969 62.0346 45 62.1584 45C63.0872 45 64.0779 44.7832 64.9758 44.6284C65.8736 43.2348 66.4928 40.6334 67.112 38.9611C68.8767 34.3158 70.982 28.7104 72.9943 23.4767C73.0563 23.3528 73.0872 23.2599 73.1182 23.1361C73.0872 23.0741 72.9634 23.0431 72.9015 23.0431L71.1368 23.1051C70.8272 23.1051 70.7033 24.5606 70.6104 24.9013C69.7126 28.153 68.6909 31.5286 67.3287 34.5945C66.6476 33.9132 64.2637 28.5246 63.7683 27.3788C63.242 26.171 62.7157 24.9013 62.1275 23.7245C62.0346 23.5696 61.756 22.7335 61.5702 22.7335C61.4464 22.7335 58.8458 24.9942 58.8148 25.18C59.1554 25.5516 59.7126 26.3568 60.0222 26.8833C60.7343 28.0601 61.3225 29.2988 61.9108 30.5376C63.273 33.3248 64.5423 36.05 65.595 38.9611Z" fill="#95AAB7"/>
<path d="M85.4629 32.6125C92.7074 32.6125 94.2245 31.2189 97.2276 24.7774C97.2276 23.2909 96.4845 21.8354 95.4938 20.7515C94.0697 19.203 92.1192 18.5217 90.1378 18.5217C90.0449 18.5217 89.983 18.5217 82.3669 18.7695C81.9954 19.5127 81.5929 20.194 81.0976 20.8753C82.0883 20.9373 82.2121 21.3089 82.2431 22.238C82.305 23.5696 82.3669 24.9322 82.3669 26.2639V27.1001C82.3669 29.8872 82.3669 32.7364 82.1192 35.4926C82.0263 36.6384 81.7167 38.4966 81.7167 39.6424C81.7167 39.7663 81.7787 39.8282 81.9025 39.8282C82.1811 39.8282 85.37 39.1159 85.4319 39.054C85.4938 38.9611 85.5248 38.7443 85.5248 38.6514C85.5248 38.6514 85.401 35.9881 85.401 35.5545C85.401 34.5635 85.4319 33.6035 85.4629 32.6125ZM85.4319 26.0781C85.4319 24.4987 85.5248 22.9502 85.5558 21.3708C86.7941 21.3089 87.4443 21.247 88.1254 21.247C90.4164 21.247 91.8406 22.0521 93.1718 23.9103C93.7291 24.6845 94.1625 25.5826 94.1625 26.5426C94.1625 29.144 91.531 29.3917 89.4257 29.3917H88.3421C87.3514 29.3917 86.4226 29.3608 85.4629 29.2059L85.4319 26.0781Z" fill="#95AAB7"/>
<path d="M101.951 26.202C101.982 25.7684 102.106 23.4457 102.106 23.1051C102.106 22.9502 102.106 22.8264 101.889 22.8264C101.827 22.8264 101.734 22.8573 101.672 22.8883C100.991 23.1361 100.341 23.3219 99.6291 23.5077C99.4434 23.5696 98.5146 23.6935 98.5146 23.9103C99.0718 25.5516 99.0718 28.5866 99.0718 30.2279V32.7054C99.0718 33.9442 99.0409 35.2139 98.8861 36.3907C98.8242 36.7313 98.4217 39.1779 98.4217 39.6734C98.4217 39.7663 98.4526 39.8282 98.5455 39.8282C98.6074 39.8282 101.734 38.7443 101.796 38.7133C101.92 38.6514 101.951 38.5585 101.951 38.4346C101.889 38.0011 101.858 34.7184 101.858 34.7184C101.858 34.13 101.827 33.2628 101.827 32.2718C101.827 30.4137 101.951 28.2149 102.725 27.3168C103.313 26.6355 103.994 26.6046 104.861 26.6046C105.171 26.6046 105.573 26.6665 105.79 26.6665C106.007 26.6665 106.069 26.5426 106.069 26.3258V25.149C106.069 24.5606 106.069 23.9722 106.193 22.9502C106.193 22.8883 106.131 22.8264 106.069 22.8264C103.871 23.2599 103.004 24.3748 101.951 26.202Z" fill="#95AAB7"/>
<path d="M114.93 31.2499C115.952 29.8563 116.943 28.4007 118.305 27.162C118.522 26.9762 118.707 26.7904 118.707 26.5426C118.707 26.2949 118.057 25.6755 117.871 25.4587C116.478 23.9412 114.466 23.0431 112.392 23.0431C112.02 23.0431 111.587 23.0431 111.246 23.198C110.813 23.3838 109.512 25.3039 109.234 25.6755L107.562 28.0291C106.757 29.175 106.726 29.175 106.726 30.6615C106.726 34.2229 108.862 39.7663 113.135 39.7663C114.404 39.7663 115.673 37.8772 116.881 36.9172C117.128 36.7004 117.748 36.2978 117.748 35.8952C117.748 35.7094 117.593 35.5545 117.407 35.5545C116.943 35.5545 116.292 36.2978 115.023 36.2978C113.847 36.2978 112.608 35.8642 111.679 35.09C110.41 34.0061 110.162 32.8602 109.946 31.2808C110.844 31.2499 111.741 31.2189 112.639 31.2189C113.413 31.2189 114.156 31.2189 114.93 31.2499ZM110.441 29.2679C109.884 29.2679 109.76 29.2059 109.76 28.6175C109.76 27.4717 109.977 26.0471 111.401 26.0471C112.546 26.0471 115.24 27.2859 115.24 28.5556C115.24 29.2059 114.032 29.3298 113.104 29.3298C112.639 29.3298 112.237 29.2988 112.082 29.2988L110.441 29.2679Z" fill="#95AAB7"/>
<path d="M124.99 39.8902C128.024 39.8902 128.024 38.6824 129.603 36.2358C130.161 35.3687 131.182 34.3467 131.182 33.2319C131.182 32.5506 130.625 31.9312 130.13 31.5286C127.932 29.6395 122.576 29.3917 122.576 27.4717C122.576 26.4497 123.659 26.1091 124.495 26.1091C125.517 26.1091 127.127 26.2949 128.086 26.6355C128.52 26.7904 128.953 26.8833 129.356 27.1001C129.418 27.131 129.48 27.193 129.572 27.193C129.789 27.193 129.882 26.9762 129.944 26.7904C130.068 26.2639 130.594 24.4987 130.594 24.1271C130.594 23.4148 126.693 23.0431 125.95 23.0431C125.393 23.0431 124.247 23.167 123.752 23.4148C123.195 23.7245 119.882 29.113 119.882 29.7943C119.882 33.0461 128.582 32.5815 128.582 35.4926C128.582 36.6694 126.569 37.103 125.672 37.103C124.588 37.103 122.823 36.6075 121.833 36.1739C121.306 35.9571 120.966 35.6474 120.501 35.3377C120.285 35.5545 119.387 37.7843 119.387 38.032C119.387 38.3107 120.223 38.6514 120.408 38.7443C121.802 39.3947 123.442 39.8902 124.99 39.8902Z" fill="#95AAB7"/>
<path d="M137.719 39.8902C140.753 39.8902 140.753 38.6824 142.332 36.2358C142.889 35.3687 143.911 34.3467 143.911 33.2319C143.911 32.5506 143.354 31.9312 142.858 31.5286C140.66 29.6395 135.304 29.3917 135.304 27.4717C135.304 26.4497 136.388 26.1091 137.224 26.1091C138.245 26.1091 139.855 26.2949 140.815 26.6355C141.248 26.7904 141.682 26.8833 142.084 27.1001C142.146 27.131 142.208 27.193 142.301 27.193C142.518 27.193 142.611 26.9762 142.673 26.7904C142.796 26.2639 143.323 24.4987 143.323 24.1271C143.323 23.4148 139.422 23.0431 138.679 23.0431C138.121 23.0431 136.976 23.167 136.481 23.4148C135.923 23.7245 132.611 29.113 132.611 29.7943C132.611 33.0461 141.31 32.5815 141.31 35.4926C141.31 36.6694 139.298 37.103 138.4 37.103C137.316 37.103 135.552 36.6075 134.561 36.1739C134.035 35.9571 133.694 35.6474 133.23 35.3377C133.013 35.5545 132.115 37.7843 132.115 38.032C132.115 38.3107 132.951 38.6514 133.137 38.7443C134.53 39.3947 136.171 39.8902 137.719 39.8902Z" fill="#95AAB7"/>
</svg>
