<svg width="203" height="45" viewBox="0 0 203 45" fill="none" xmlns="http://www.w3.org/2000/svg">
<path d="M8.07683 23.0288C6.87491 23.0288 5.86529 22.8365 4.85568 22.5L4.1826 18.2212H0.576834L0.384521 23.3654C2.49991 24.6635 5.52875 25.1442 8.07683 25.1442C14.3268 25.1442 17.3076 22.1635 17.3076 18.125C17.3076 14.5673 15.5287 12.7404 11.2018 10.7212L9.51914 9.90384C7.69221 9.03846 6.73068 8.22115 6.73068 6.53846C6.73068 4.95192 8.12491 3.75 9.8076 3.75C10.5768 3.75 11.2499 3.89423 11.923 4.13461L12.548 8.17308H16.1057L16.3941 3.26923C14.6634 2.16346 12.1153 1.58654 9.6153 1.58654C4.13453 1.58654 0.865291 4.08654 0.865291 8.26923C0.865291 12.1635 3.12491 14.1827 7.35567 16.2019L8.84606 16.9231C10.5288 17.7404 11.2499 18.5096 11.2499 20.0962C11.2018 21.6827 10.1922 23.0288 8.07683 23.0288ZM19.9038 13.9423C19.9038 16.7308 19.9037 19.5192 19.8557 22.2596L17.4999 22.5V24.5192H29.6634V22.5L26.6345 22.2115C26.5864 20.0481 26.5864 17.9327 26.5864 16.1538H27.2114C34.7595 16.1538 37.2114 12.9808 37.2114 9.03846C37.2114 4.95192 34.423 2.35577 26.7788 2.35577H17.4999V4.375L19.8557 4.61538C19.9037 7.35577 19.9038 10.1442 19.9038 12.9327V13.9423ZM26.9711 4.42308C29.4711 4.42308 31.1057 5.91346 31.1057 8.99038C31.1057 12.0673 29.6634 14.0865 27.1153 14.0865H26.6345V12.8846C26.6345 10.0481 26.6345 7.21154 26.6826 4.47115H26.9711V4.42308ZM50.3364 23.125C47.1634 23.125 44.2307 20.4808 44.2307 13.4615C44.2307 6.39423 47.2114 3.65385 50.4807 3.65385C51.2018 3.65385 51.8268 3.79808 52.4999 4.08654L53.6057 8.75H56.3941L56.2499 3.36538C54.3268 2.35577 52.4038 1.68269 49.5672 1.68269C43.2691 1.68269 37.3076 4.90385 37.3076 13.4615C37.3076 21.7788 42.8364 25.2404 49.2307 25.2404C52.3557 25.2404 54.7595 24.4231 56.4903 23.4615L56.6345 18.125H53.8461L52.7884 22.6442C51.9711 22.9327 51.1537 23.125 50.3364 23.125ZM65.7691 13.9423C65.7691 16.7308 65.7691 19.5192 65.721 22.2596L63.3653 22.5V24.5192H75.5287V22.5L72.4999 22.2115C72.4518 19.6154 72.4518 17.0192 72.4518 14.1346H75.5768L76.0095 16.875H78.173V9.47115H76.0095L75.6249 11.9231H72.4518C72.4518 9.375 72.4518 6.82692 72.4999 4.32692H77.548L78.173 8.07692H81.346L81.1057 2.30769H63.2691V4.32692L65.6249 4.56731C65.673 7.30769 65.673 10.0962 65.673 12.8846V13.9423H65.7691ZM85.1441 6.34615C86.8749 6.34615 88.2691 5.14423 88.2691 3.41346C88.2691 1.68269 86.8749 0.480769 85.1441 0.480769C83.4134 0.480769 82.0191 1.68269 82.0191 3.41346C82.0191 5.14423 83.4134 6.34615 85.1441 6.34615ZM89.9037 22.7404L88.4614 22.4519C88.4134 20.8173 88.4134 18.7981 88.4134 17.3558V12.8365L88.5095 7.78846L87.8845 7.40384L79.9999 9.75961V11.1538L81.8268 11.4423C81.8749 12.7885 81.923 13.8462 81.923 15.7212V17.3558C81.923 18.75 81.923 20.7692 81.8749 22.4038L80.3364 22.7404V24.4712H89.8076V22.7404H89.9037ZM103.317 7.40384C101.394 7.40384 99.9999 7.93269 98.173 10.0962L97.9807 7.78846L97.3557 7.40384L89.8557 9.75961V11.1538L91.6826 11.4423C91.7307 12.7885 91.7787 13.3654 91.7787 15.2404V17.3558C91.7787 18.75 91.7787 20.7692 91.7307 22.4038L90.1441 22.7885V24.5192H99.5191V22.7404L98.221 22.4519C98.2691 20.8173 98.2691 18.75 98.2691 17.3558V11.9231C99.0864 11.3942 99.9037 11.0577 100.481 11.0577C101.586 11.0577 102.019 11.7308 102.019 13.5577V17.4038C102.019 18.8462 102.019 20.8173 101.971 22.4519L100.529 22.7885V24.5192H109.952V22.7404L108.51 22.4519C108.461 20.8173 108.461 18.7981 108.461 17.3558V13.0769C108.461 9.375 106.298 7.40384 103.317 7.40384ZM122.644 25.0481C125.048 25.0481 126.394 24.2308 127.211 22.1635L126.25 21.6346C125.865 22.2596 125.625 22.4038 125.336 22.4038C124.952 22.4038 124.76 22.1635 124.76 21.8269V13.9904C124.76 9.32692 123.029 7.40384 118.317 7.40384C112.836 7.40384 110.048 9.42308 110.048 12.3558C110.385 13.5577 111.298 14.1827 112.644 14.1827C114.086 14.1827 115.433 13.125 115.433 10.3846V9.23077C115.625 9.23077 115.769 9.23077 115.961 9.23077C118.125 9.23077 118.558 10.1442 118.558 13.0288V14.2308C117.788 14.4231 117.019 14.6154 116.49 14.7596C110.961 16.2019 109.519 17.9808 109.519 20.625C109.519 23.4135 111.25 25 113.942 25C116.394 25 117.452 24.0385 118.75 22.5961C119.231 24.1827 120.481 25.0481 122.644 25.0481ZM115.288 19.5673C115.288 17.7404 116.538 16.6346 117.5 16.2019C117.788 16.0577 118.125 15.9135 118.51 15.8173V21.4423C117.981 21.8269 117.5 22.0192 117.067 22.0192C116.058 22.0673 115.288 21.25 115.288 19.5673ZM139.952 7.40384C138.029 7.40384 136.635 7.93269 134.808 10.0962L134.615 7.78846L133.99 7.40384L126.49 9.75961V11.1538L128.317 11.4423C128.365 12.7885 128.413 13.3654 128.413 15.2404V17.3558C128.413 18.75 128.413 20.7692 128.365 22.4038L126.779 22.7885V24.5192H136.154V22.7404L134.856 22.4519C134.808 20.7692 134.808 18.75 134.808 17.3077V11.9231C135.625 11.3942 136.442 11.0577 137.019 11.0577C138.125 11.0577 138.558 11.7308 138.558 13.5577V17.4038C138.558 18.8462 138.558 20.8173 138.51 22.4519L137.067 22.7885V24.5192H146.49V22.7404L145.048 22.4519C145 20.8173 145 18.7981 145 17.3558V13.0769C145.096 9.375 142.933 7.40384 139.952 7.40384ZM156.106 9.23077H156.25L156.298 10.6731C156.442 13.6538 157.788 14.5673 159.231 14.5673C160.577 14.5673 161.394 13.9423 161.827 12.5962C161.635 9.80769 159.135 7.45192 155.336 7.45192C149.856 7.45192 145.625 10.6731 145.625 16.3462C145.625 22.2596 149.808 25.0962 154.423 25.0962C157.644 25.0962 160.192 23.8942 161.683 21.1058L160.336 19.8077C159.375 20.7212 158.365 21.3942 156.875 21.3942C154.134 21.3942 152.404 19.3269 152.404 15.5288C152.404 10.8173 154.519 9.23077 156.106 9.23077ZM167.163 6.34615C168.894 6.34615 170.288 5.14423 170.288 3.41346C170.288 1.68269 168.894 0.480769 167.163 0.480769C165.433 0.480769 164.038 1.68269 164.038 3.41346C164.038 5.14423 165.433 6.34615 167.163 6.34615ZM171.923 22.7404L170.481 22.4519C170.433 20.8173 170.433 18.7981 170.433 17.3558V12.8365L170.529 7.78846L169.904 7.40384L162.019 9.75961V11.1538L163.846 11.4423C163.894 12.7885 163.942 13.8462 163.942 15.7212V17.3558C163.942 18.75 163.942 20.7692 163.894 22.4038L162.356 22.7404V24.4712H171.827V22.7404H171.923ZM185.096 25.0481C187.5 25.0481 188.846 24.2308 189.663 22.1635L188.702 21.6346C188.317 22.2596 188.077 22.4038 187.788 22.4038C187.404 22.4038 187.211 22.1635 187.211 21.8269V13.9904C187.211 9.32692 185.481 7.40384 180.769 7.40384C175.288 7.40384 172.5 9.42308 172.5 12.3558C172.836 13.5577 173.75 14.1827 175.096 14.1827C176.538 14.1827 177.884 13.125 177.884 10.3846V9.23077C178.077 9.23077 178.221 9.23077 178.413 9.23077C180.577 9.23077 181.009 10.1442 181.009 13.0288V14.2308C180.24 14.4231 179.471 14.6154 178.942 14.7596C173.413 16.2019 171.971 17.9808 171.971 20.625C171.971 23.4135 173.702 25 176.394 25C178.846 25 179.904 24.0385 181.202 22.5961C181.683 24.1827 182.933 25.0481 185.096 25.0481ZM177.692 19.5673C177.692 17.7404 178.942 16.6346 179.904 16.2019C180.192 16.0577 180.529 15.9135 180.913 15.8173V21.4423C180.385 21.8269 179.904 22.0192 179.471 22.0192C178.51 22.0673 177.692 21.25 177.692 19.5673ZM189.375 1.49038V3.02885L191.202 3.36538V17.3558C191.202 19.0385 191.154 20.7212 191.154 22.4038L189.615 22.7404V24.4712H199.279V22.7404L197.74 22.4519C197.692 20.7692 197.692 19.0385 197.692 17.3558V5.09615L197.836 0.384615L197.26 0L189.375 1.49038Z" fill="#95AAB7"/>
<path d="M1.63461 38.8942C1.63461 40.4808 1.63461 42.0673 1.58653 43.6058L0 43.75V44.6154H5.72115V43.75L4.03846 43.5577C3.99038 42.0673 3.99038 40.5288 3.99038 38.75H6.49038L6.73077 40.5288H7.69231V36.2019H6.73077L6.49038 37.8365H4.03846C4.03846 36.4904 4.03846 34.8558 4.08654 33.3173H7.93269L8.3173 35.5769H9.61538L9.47115 32.3077H0V33.1731L1.58653 33.3173C1.63461 34.9038 1.63461 36.4904 1.63461 38.0288V38.8942ZM11.7788 33.75C12.5481 33.75 13.1731 33.1731 13.1731 32.4038C13.1731 31.5865 12.5481 31.0577 11.7788 31.0577C10.9615 31.0577 10.3846 31.5865 10.3846 32.4038C10.3365 33.1731 10.9615 33.75 11.7788 33.75ZM14.0385 43.8942L12.8846 43.6538C12.8846 42.7404 12.8846 41.5385 12.8846 40.7212V38.2692L12.9327 35.625L12.6442 35.4327L9.27884 36.5865V37.3077L10.625 37.4519C10.6731 38.2212 10.6731 38.7981 10.6731 39.8077V40.6731C10.6731 41.4904 10.6731 42.6442 10.6731 43.5577L9.42307 43.7981V44.5673H14.0385V43.8942ZM20.7692 35.4808C19.6635 35.4808 18.5577 36.0096 17.5961 37.1154L17.4519 35.6731L17.1635 35.4808L14.0385 36.6346V37.3558L15.3365 37.5C15.3846 38.2692 15.3846 38.7019 15.3846 39.7596V40.7692C15.3846 41.5865 15.3846 42.7404 15.3846 43.6538L14.1827 43.8942V44.6635H18.7981V43.8942L17.6923 43.6538C17.6923 42.7404 17.6923 41.5385 17.6923 40.7212V37.9327C18.4135 37.3077 19.1346 37.0192 19.7596 37.0192C20.6731 37.0192 21.0577 37.5 21.0577 38.9423V40.7212C21.0577 41.5385 21.0577 42.6923 21.0577 43.6058L19.8558 43.8462V44.6154H24.4712V43.8942L23.3173 43.6538C23.3173 42.7404 23.3173 41.5865 23.3173 40.7212V38.7981C23.3173 36.4904 22.4038 35.4808 20.7692 35.4808ZM31.5865 44.9038C32.5 44.9038 33.0769 44.5673 33.5096 43.75L33.0769 43.3654C32.8846 43.6538 32.6923 43.7981 32.4038 43.7981C32.0673 43.7981 31.875 43.5577 31.875 42.9808V38.8942C31.875 36.4904 30.9135 35.5288 28.75 35.5288C26.4904 35.5288 25.0481 36.4904 24.8077 37.9808C24.9038 38.5096 25.2885 38.7981 25.8654 38.7981C26.4904 38.7981 26.9231 38.3654 27.0192 37.5L27.2596 36.4904C27.5481 36.4423 27.7885 36.3942 28.0288 36.3942C29.2308 36.3942 29.6635 36.875 29.6635 38.6058V39.1346C28.9904 39.2788 28.3654 39.4712 27.8846 39.6635C25.1923 40.5288 24.5673 41.3942 24.5673 42.5962C24.5673 44.1346 25.625 44.9519 27.0673 44.9519C28.2692 44.9519 28.8462 44.4712 29.7596 43.5096C30 44.375 30.625 44.9038 31.5865 44.9038ZM26.7788 42.1635C26.7788 41.4423 27.1635 40.7692 28.4135 40.2885C28.75 40.1442 29.2308 40 29.7596 39.8558V42.8365C28.9423 43.4135 28.6538 43.6058 28.125 43.6058C27.3558 43.5577 26.7788 43.1731 26.7788 42.1635ZM40.0481 35.4808C38.9423 35.4808 37.8365 36.0096 36.875 37.1154L36.7308 35.6731L36.4423 35.4808L33.3173 36.6346V37.3558L34.6154 37.5C34.6635 38.2692 34.6635 38.7019 34.6635 39.7596V40.7692C34.6635 41.5865 34.6635 42.7404 34.6635 43.6538L33.4615 43.8942V44.6635H38.0769V43.8942L36.9711 43.6538C36.9711 42.7404 36.9711 41.5385 36.9711 40.7212V37.9327C37.6923 37.3077 38.4135 37.0192 39.0385 37.0192C39.9519 37.0192 40.3365 37.5 40.3365 38.9423V40.7212C40.3365 41.5385 40.3365 42.6923 40.3365 43.6058L39.1346 43.8942V44.6635H43.75V43.8942L42.5962 43.6538C42.5962 42.7404 42.5962 41.5865 42.5962 40.7212V38.7981C42.5962 36.4904 41.6827 35.4808 40.0481 35.4808ZM48.3654 36.3942C48.6058 36.3942 48.7981 36.3942 49.0385 36.4904L49.2788 37.5962C49.375 38.5096 49.8077 38.8942 50.4808 38.8942C51.0577 38.8942 51.3942 38.6538 51.5385 38.0769C51.3461 36.6346 49.9519 35.5288 48.125 35.5288C45.625 35.5288 43.4615 37.2596 43.4615 40.2885C43.4615 43.3173 45.3365 45 47.8846 45C49.6154 45 50.9135 44.2308 51.5385 42.6923L50.9615 42.2596C50.3846 43.0288 49.6154 43.5096 48.6058 43.5096C46.9231 43.5096 45.8173 42.2596 45.8173 40.0481C45.8654 37.5 47.0192 36.3942 48.3654 36.3942ZM56.0577 36.3942C56.9712 36.3942 57.7404 37.2115 57.7404 38.3173C57.7404 38.9904 57.5 39.375 56.6346 39.375H54.0385C54.1827 37.1635 55.1442 36.3942 56.0577 36.3942ZM56.1538 35.4808C53.7981 35.4808 51.6346 37.2596 51.6346 40.2404C51.6346 43.1731 53.4135 44.9038 56.0096 44.9038C57.7404 44.9038 58.9904 44.1346 59.7596 42.7404L59.2308 42.2596C58.6058 42.9327 57.8846 43.4135 56.8269 43.4135C55.2404 43.4135 54.1346 42.3558 54.0385 40.1923H59.7596C59.8558 39.9038 59.8558 39.6154 59.8558 39.1827C59.8077 36.9712 58.3654 35.4808 56.1538 35.4808ZM68.0288 44.9038C70.5288 44.9038 72.5481 43.1731 72.5481 40.1923C72.5481 37.2115 70.4327 35.4808 68.0288 35.4808C65.625 35.4808 63.5577 37.2115 63.5577 40.1923C63.5096 43.1731 65.4808 44.9038 68.0288 44.9038ZM68.0288 43.9904C66.6827 43.9904 65.9615 42.7885 65.9615 40.1923C65.9615 37.5962 66.6827 36.3462 68.0288 36.3462C69.375 36.3462 70.0961 37.5962 70.0961 40.1923C70.0961 42.7885 69.3269 43.9904 68.0288 43.9904ZM79.0865 35.4808C77.9808 35.4808 76.875 36.0096 75.9135 37.1154L75.7692 35.6731L75.4808 35.4808L72.3558 36.6346V37.3558L73.6538 37.5C73.7019 38.2692 73.7019 38.7019 73.7019 39.7596V40.7692C73.7019 41.5865 73.7019 42.7404 73.7019 43.6538L72.5 43.8942V44.6635H77.1154V43.8942L76.0096 43.6538C76.0096 42.7404 76.0096 41.5385 76.0096 40.7212V37.9327C76.7308 37.3077 77.4519 37.0192 78.0769 37.0192C78.9904 37.0192 79.375 37.5 79.375 38.9423V40.7212C79.375 41.5385 79.375 42.6923 79.375 43.6058L78.1731 43.8462V44.6154H82.7885V43.8942L81.6346 43.6538C81.6346 42.7404 81.6346 41.5865 81.6346 40.7212V38.7981C81.6346 36.4904 80.7212 35.4808 79.0865 35.4808ZM93.2692 44.9038C94.1827 44.9038 94.7596 44.5673 95.1923 43.75L94.7596 43.3654C94.5673 43.6538 94.375 43.7981 94.0865 43.7981C93.75 43.7981 93.5577 43.5577 93.5577 42.9808V38.8942C93.5577 36.4904 92.5962 35.5288 90.4327 35.5288C88.1731 35.5288 86.7308 36.4904 86.4904 37.9808C86.5865 38.5096 86.9712 38.7981 87.5481 38.7981C88.1731 38.7981 88.6058 38.3654 88.7019 37.5L88.9423 36.4904C89.2308 36.4423 89.4712 36.3942 89.7115 36.3942C90.9135 36.3942 91.3462 36.875 91.3462 38.6058V39.1346C90.6731 39.2788 90.0481 39.4712 89.5673 39.6635C86.875 40.5288 86.25 41.3942 86.25 42.5962C86.25 44.1346 87.3077 44.9519 88.75 44.9519C89.9519 44.9519 90.5288 44.4712 91.4423 43.5096C91.6346 44.375 92.2596 44.9038 93.2692 44.9038ZM88.4135 42.1635C88.4135 41.4423 88.7981 40.7692 90.0481 40.2885C90.3846 40.1442 90.8654 40 91.3942 39.8558V42.8365C90.5769 43.4135 90.2885 43.6058 89.7596 43.6058C88.9904 43.5577 88.4135 43.1731 88.4135 42.1635ZM99.8077 38.8942C99.8077 40.4808 99.8077 42.0673 99.7596 43.6058L98.2211 43.75V44.6154H103.798V43.75L102.26 43.6058C102.212 42.1154 102.212 40.5769 102.212 38.7981H107.26C107.26 40.4327 107.26 42.0192 107.212 43.6058L105.721 43.75V44.6154H111.25V43.75L109.712 43.6058C109.663 42.0192 109.663 40.4327 109.663 38.8942V38.0769C109.663 36.4904 109.663 34.9038 109.712 33.3654L111.25 33.2212V32.3558H105.673V33.2212L107.163 33.3654C107.212 34.8558 107.212 36.3462 107.212 37.8365H102.163C102.163 36.4904 102.163 34.9038 102.212 33.3654L103.75 33.2212V32.3558H98.1731V33.2212L99.7115 33.3654C99.7596 34.9519 99.7596 36.5385 99.7596 38.0769V38.8942H99.8077ZM120.962 44.6635V43.8942L119.808 43.6538V38.4135L119.856 35.8173L119.615 35.625L116.442 36.0577V36.7308L117.596 36.9712L117.548 42.3077C116.875 42.9327 116.106 43.3654 115.433 43.3654C114.615 43.3654 114.183 42.8846 114.183 41.4904V38.4135L114.279 35.8173L114.038 35.625L110.769 36.0096V36.7308L111.971 36.9712L111.875 41.5865C111.875 44.0385 112.885 44.9519 114.423 44.9519C115.577 44.9519 116.683 44.375 117.596 43.2212L117.74 44.8558L120.962 44.6635ZM133.173 35.4808C132.019 35.4808 130.962 35.9615 129.952 37.2115C129.615 36.0577 128.846 35.4808 127.644 35.4808C126.49 35.4808 125.433 36.1058 124.567 37.1154L124.423 35.6731L124.135 35.4808L121.01 36.6346V37.3558L122.308 37.5C122.356 38.2692 122.356 38.7019 122.356 39.7596V40.7692C122.356 41.5865 122.356 42.7404 122.356 43.6538L121.154 43.8942V44.6635H125.769V43.8942L124.663 43.6538C124.663 42.7404 124.663 41.5385 124.663 40.7212V37.9327C125.337 37.3558 126.01 37.0192 126.683 37.0192C127.644 37.0192 127.981 37.5481 127.981 39.0385V40.7212C127.981 41.5385 127.981 42.6923 127.981 43.6058L126.779 43.8462V44.6154H131.346V43.8942L130.24 43.6538C130.24 42.7404 130.24 41.5865 130.24 40.7212V38.7981C130.24 38.5096 130.24 38.2212 130.192 37.9808C130.913 37.3558 131.587 37.0192 132.26 37.0192C133.173 37.0192 133.606 37.4519 133.606 38.9904V40.7212C133.606 41.5385 133.606 42.6923 133.606 43.6058L132.452 43.8462V44.6154H137.019V43.8942L135.865 43.6538C135.865 42.7404 135.865 41.5865 135.865 40.7212V38.75C135.721 36.4904 134.856 35.4808 133.173 35.4808ZM144.038 44.9038C144.952 44.9038 145.529 44.5673 145.962 43.75L145.529 43.3654C145.337 43.6538 145.144 43.7981 144.856 43.7981C144.519 43.7981 144.327 43.5577 144.327 42.9808V38.8942C144.327 36.4904 143.365 35.5288 141.202 35.5288C138.942 35.5288 137.5 36.4904 137.26 37.9808C137.356 38.5096 137.74 38.7981 138.317 38.7981C138.942 38.7981 139.375 38.3654 139.471 37.5L139.712 36.4904C140 36.4423 140.24 36.3942 140.481 36.3942C141.683 36.3942 142.115 36.875 142.115 38.6058V39.1346C141.442 39.2788 140.817 39.4712 140.337 39.6635C137.644 40.5288 137.019 41.3942 137.019 42.5962C137.019 44.1346 138.077 44.9519 139.519 44.9519C140.721 44.9519 141.298 44.4712 142.212 43.5096C142.404 44.375 143.029 44.9038 144.038 44.9038ZM139.183 42.1635C139.183 41.4423 139.567 40.7692 140.817 40.2885C141.154 40.1442 141.635 40 142.163 39.8558V42.8365C141.346 43.4135 141.058 43.6058 140.529 43.6058C139.76 43.5577 139.183 43.1731 139.183 42.1635ZM152.452 35.4808C151.346 35.4808 150.24 36.0096 149.279 37.1154L149.135 35.6731L148.846 35.4808L145.721 36.6346V37.3558L147.019 37.5C147.067 38.2692 147.067 38.7019 147.067 39.7596V40.7692C147.067 41.5865 147.067 42.7404 147.067 43.6538L145.865 43.8942V44.6635H150.481V43.8942L149.375 43.6538C149.375 42.7404 149.375 41.5385 149.375 40.7212V37.9327C150.096 37.3077 150.817 37.0192 151.442 37.0192C152.356 37.0192 152.74 37.5 152.74 38.9423V40.7212C152.74 41.5385 152.74 42.6923 152.74 43.6058L151.538 43.8462V44.6154H156.154V43.8942L155 43.6538C155 42.7404 155 41.5865 155 40.7212V38.7981C155 36.4904 154.087 35.4808 152.452 35.4808ZM161.25 38.0769V39.0865C161.25 40.4808 161.25 42.0673 161.202 43.6058L159.615 43.75V44.6154H169.087L169.279 41.0577H167.981L167.452 43.6058H163.702C163.654 42.0192 163.654 40.4808 163.654 39.1827V38.0288C163.654 36.4423 163.654 34.8558 163.702 33.3173L165.337 33.125V32.2596H159.663V33.125L161.25 33.2692C161.25 34.9038 161.25 36.4904 161.25 38.0769ZM173.942 36.3942C174.856 36.3942 175.625 37.2115 175.625 38.3173C175.625 38.9904 175.385 39.375 174.519 39.375H171.971C172.067 37.1635 173.029 36.3942 173.942 36.3942ZM174.087 35.4808C171.731 35.4808 169.567 37.2596 169.567 40.2404C169.567 43.1731 171.346 44.9038 173.942 44.9038C175.673 44.9038 176.923 44.1346 177.692 42.7404L177.163 42.2596C176.538 42.9327 175.817 43.4135 174.76 43.4135C173.173 43.4135 172.067 42.3558 171.971 40.1923H177.692C177.788 39.9038 177.788 39.6154 177.788 39.1827C177.74 36.9712 176.298 35.4808 174.087 35.4808ZM183.317 36.5385L184.663 36.7788L182.788 42.1635L180.769 36.7788L182.212 36.5385V35.7212H177.308V36.4904L178.269 36.6346L181.635 44.6635H182.74L185.817 36.6827L186.875 36.4423V35.7212H183.317V36.5385V36.5385ZM190.625 36.3942C191.538 36.3942 192.308 37.2115 192.308 38.3173C192.308 38.9904 192.067 39.375 191.202 39.375H188.654C188.75 37.1635 189.712 36.3942 190.625 36.3942ZM190.769 35.4808C188.413 35.4808 186.25 37.2596 186.25 40.2404C186.25 43.1731 188.029 44.9038 190.625 44.9038C192.356 44.9038 193.606 44.1346 194.375 42.7404L193.846 42.2596C193.221 42.9327 192.5 43.4135 191.442 43.4135C189.856 43.4135 188.75 42.3558 188.654 40.1923H194.375C194.471 39.9038 194.471 39.6154 194.471 39.1827C194.423 36.9712 192.933 35.4808 190.769 35.4808ZM194.231 31.8269V32.5481L195.577 32.7404V40.7212C195.577 41.6827 195.577 42.6442 195.529 43.6058L194.279 43.8462V44.6154H199.135V43.8942L197.885 43.6538C197.885 42.6923 197.837 41.7308 197.837 40.7692V33.7981L197.933 31.1538L197.644 31.0096L194.231 31.8269Z" fill="#95AAB7"/>
<path d="M198.654 2.35576C198.654 1.20192 199.519 0.432684 200.529 0.432684C201.587 0.432684 202.452 1.15384 202.452 2.35576C202.452 3.55768 201.587 4.27884 200.529 4.27884C199.519 4.27884 198.654 3.50961 198.654 2.35576ZM198.221 2.35576C198.221 3.79807 199.231 4.66345 200.529 4.66345C201.779 4.66345 202.837 3.79807 202.837 2.35576C202.837 0.913454 201.779 0.0961456 200.529 0.0961456C199.279 0.0961456 198.221 0.913454 198.221 2.35576ZM201.779 3.26922L201.49 3.22115L201.394 2.74038C201.346 2.49999 201.154 2.35576 200.865 2.30768C201.298 2.21153 201.442 1.97115 201.442 1.73076C201.442 1.39422 201.106 1.15384 200.577 1.15384H199.471V1.34615L199.808 1.39422V3.26922L199.471 3.3173V3.50961H200.625V3.3173L200.288 3.26922V2.45191H200.433C200.673 2.45191 200.817 2.54807 200.817 2.74038L200.913 3.22115C200.962 3.46153 201.058 3.50961 201.346 3.50961C201.49 3.50961 201.538 3.50961 201.683 3.46153V3.26922H201.779ZM200.433 1.34615C200.721 1.34615 200.913 1.49038 200.913 1.77884C200.913 2.01922 200.769 2.25961 200.433 2.25961H200.288V1.34615H200.433Z" fill="#95AAB7"/>
<path d="M199.087 32.6923C199.087 31.8269 199.712 31.25 200.529 31.25C201.298 31.25 201.971 31.7788 201.971 32.6923C201.971 33.6058 201.346 34.1346 200.529 34.1346C199.76 34.1827 199.087 33.6058 199.087 32.6923ZM198.798 32.6923C198.798 33.75 199.567 34.4231 200.529 34.4231C201.442 34.4231 202.26 33.75 202.26 32.6923C202.26 31.6346 201.442 31.0096 200.529 31.0096C199.615 31.0096 198.798 31.6346 198.798 32.6923ZM201.442 33.4135L201.25 33.3654L201.202 33.0288C201.154 32.8365 201.01 32.7404 200.817 32.6923C201.106 32.5962 201.25 32.4038 201.25 32.2596C201.25 32.0192 201.01 31.8269 200.577 31.8269H199.712V31.9712L199.952 32.0192V33.4615L199.712 33.5096V33.6538H200.577V33.5096L200.337 33.4615V32.8365H200.481C200.625 32.8365 200.769 32.8846 200.769 33.0288L200.865 33.4135C200.914 33.6058 201.01 33.6538 201.202 33.6538C201.298 33.6538 201.346 33.6538 201.442 33.6058V33.4135ZM200.481 31.9712C200.721 31.9712 200.817 32.0673 200.817 32.3077C200.817 32.5 200.721 32.6442 200.481 32.6442H200.385V31.9712H200.481Z" fill="#95AAB7"/>
</svg>
