<svg width="181" height="45" viewBox="0 0 181 45" fill="none" xmlns="http://www.w3.org/2000/svg">
<path d="M22.4621 16.3224V34.0848C21.6873 34.7585 20.6514 35.3229 19.3543 35.7778C18.0573 36.2325 16.4823 36.46 14.6294 36.46C12.7766 36.46 11.2016 36.0472 9.90457 35.2218C8.4391 34.3291 7.70635 33.0658 7.70635 31.4318V15.16H1.81921C0.606403 13.4251 0 11.5301 0 9.47503C0 8.07693 0.218978 6.86413 0.656935 5.83662C1.11174 4.79226 1.66761 3.98373 2.32455 3.41102H28.4504C28.9389 4.16901 29.3432 5.08705 29.6632 6.16509C29.9833 7.24314 30.1432 8.31275 30.1432 9.37397C30.1432 11.3616 29.7052 12.8271 28.8293 13.7704C27.9535 14.6968 26.7743 15.16 25.292 15.16H17.8888C17.8383 15.278 17.8131 15.4043 17.8131 15.5391C17.8131 15.8423 17.9899 16.0444 18.3437 16.1455C18.7142 16.2634 19.5059 16.3224 20.7188 16.3224H22.4621ZM53.8889 23.498C53.8889 24.7108 54.0238 25.6879 54.2932 26.4289C54.5628 27.1701 55.0344 27.7512 55.7081 28.1724C55.725 28.2566 55.7335 28.4167 55.7335 28.6525V29.1073C55.7335 31.4992 55.009 33.3605 53.5605 34.6913C52.2803 35.8704 50.6968 36.46 48.8103 36.46C47.5301 36.46 46.3594 36.1567 45.2983 35.5503C44.237 34.944 43.4791 34.0681 43.0242 32.9226C42.4516 32.9226 42.1652 33.2005 42.1652 33.7564C42.1652 34.228 42.46 34.7585 43.0494 35.3481C41.9546 36.0893 40.3039 36.46 38.0973 36.46C34.9809 36.46 32.488 35.6177 30.6182 33.9332C28.7654 32.2319 27.8389 29.8652 27.8389 26.8333C27.8389 23.7844 28.8243 21.4263 30.7952 19.7587C32.5975 18.2594 34.9304 17.5098 37.7941 17.5098C38.771 17.5098 39.7144 17.5772 40.6239 17.7119C41.2304 17.8299 41.5588 17.8974 41.6093 17.9141C41.6598 17.7457 41.685 17.6026 41.685 17.4846C41.685 17.0467 41.3145 16.7519 40.5733 16.6003C39.8322 16.4486 38.8636 16.3729 37.6676 16.3729C35.1241 16.3729 32.9513 16.8866 31.1488 17.9141C30.3234 16.5161 29.9108 14.7474 29.9108 12.6081C29.9108 11.3953 30.0623 10.4941 30.3655 9.90456C31.5785 9.3487 33.1196 8.86021 34.9894 8.43908C36.8592 8.00114 38.83 7.78217 40.9018 7.78217C45.1803 7.78217 48.4145 8.71703 50.6042 10.5868C52.7941 12.4565 53.8889 15.1095 53.8889 18.5457V23.498ZM40.7755 24.7361C40.068 24.7361 39.7144 25.0561 39.7144 25.6962C39.7144 26.3027 40.1269 26.6059 40.9523 26.6059C41.5251 26.6059 41.9462 26.4712 42.2156 26.2016C42.4852 25.9153 42.6199 25.4268 42.6199 24.7361C42.6199 24.7361 42.0052 24.7361 40.7755 24.7361ZM69.4987 18.0911C69.3303 17.9225 69.1282 17.8384 68.8924 17.8384C68.5217 17.8384 68.269 18.1078 68.1343 18.6468C67.9996 19.1691 67.9321 20.2387 67.9321 21.8558V24.4329C67.9321 24.8878 67.9911 25.2077 68.1091 25.3932C68.2269 25.5784 68.4206 25.671 68.6902 25.671C68.9596 25.671 69.1533 25.612 69.2713 25.4941V22.1085C69.2713 20.4576 69.347 19.1186 69.4987 18.0911ZM67.6794 3.15834C68.5722 2.11398 69.5577 1.33071 70.6357 0.808541C71.7137 0.269512 73.0866 0 74.7542 0C76.7756 0 78.4178 0.56429 79.6813 1.69287C80.9782 2.90568 81.6268 4.53959 81.6268 6.59462V23.2707C81.6268 25.7806 82.2331 27.4144 83.446 28.1724C83.4627 28.2566 83.4712 28.4167 83.4712 28.6525V29.1073C83.4712 31.4992 82.7469 33.3605 81.2984 34.6913C80.0182 35.8704 78.4347 36.46 76.5481 36.46C75.2342 36.46 74.0972 36.1819 73.1371 35.6262C72.0085 34.9861 71.2168 34.1102 70.7621 32.9983C70.1893 32.9983 69.903 33.2764 69.903 33.8321C69.903 34.0848 69.9956 34.3796 70.1809 34.7165C70.383 35.0366 70.6526 35.3229 70.9895 35.5756C69.9956 36.1652 68.7069 36.46 67.1237 36.46C64.9843 36.46 62.9798 35.9715 61.1101 34.9945C59.2572 34.0006 57.7833 32.5098 56.6885 30.5222C55.4252 28.2482 54.7934 25.4941 54.7934 22.2599C54.7934 17.9477 55.9979 14.5621 58.4067 12.1028C60.8322 9.64348 63.9232 8.41383 67.6794 8.41383C69.903 8.41383 71.8402 8.83494 73.4909 9.67717C73.6761 9.49188 73.7688 9.29816 73.7688 9.09602C73.7688 8.5907 73.1708 8.16115 71.9749 7.80742C70.7789 7.4537 69.5746 7.27683 68.3618 7.27683C68.3618 5.55868 68.1343 4.18585 67.6794 3.15834ZM96.6049 22.361V25.7468C96.7227 25.8647 96.9164 25.9237 97.186 25.9237C97.4555 25.9237 97.6492 25.8311 97.7671 25.6457C97.8851 25.4604 97.9439 25.1405 97.9439 24.6856V22.1085C97.9439 20.4914 97.8767 19.4216 97.742 18.8995C97.6071 18.3605 97.3544 18.0911 96.9839 18.0911C96.7481 18.0911 96.5459 18.1752 96.3774 18.3436C96.529 20.0112 96.6049 21.3504 96.6049 22.361ZM88.5448 11.4711C88.5448 11.9764 88.8395 12.2291 89.4291 12.2291C90.4399 10.6457 91.6273 9.47503 92.9917 8.71703C94.3562 7.94218 95.9985 7.55476 97.9188 7.55476C99.8391 7.55476 101.591 7.85796 103.174 8.46435C105.347 9.32343 107.065 10.7047 108.329 12.6081C109.912 15.0169 110.704 18.1752 110.704 22.0831C110.704 26.4795 109.525 29.899 107.166 32.3415C104.825 34.767 101.574 35.9799 97.4134 35.9799C95.0889 35.9799 93.2782 35.6934 91.981 35.1208C91.8632 35.1882 91.8042 35.3314 91.8042 35.5503C91.8042 36.0557 92.1917 36.4179 92.9665 36.6368C93.7582 36.8558 95.1141 37.0157 97.0344 37.1168V43.8378C95.2994 44.6126 93.396 45 91.3242 45C88.8816 45 87.0372 44.5538 85.7906 43.661C84.3757 42.7007 83.6684 41.2268 83.6684 39.2393V18.8995C82.6745 17.5015 82.1775 15.7664 82.1775 13.6946C82.1775 12.8524 82.3123 11.9343 82.5819 10.9405C82.8513 9.94668 83.2135 9.09602 83.6684 8.38856H87.2563C88.7217 8.38856 89.8419 8.5907 90.6167 8.99496C89.2354 10.0225 88.5448 10.8479 88.5448 11.4711ZM124.014 21.9315V26.3532C124.132 26.4712 124.326 26.53 124.595 26.53C124.865 26.53 125.059 26.4374 125.176 26.2521C125.294 26.0669 125.353 25.7468 125.353 25.2921V21.6788C125.353 20.0617 125.286 18.9921 125.151 18.47C125.017 17.931 124.764 17.6614 124.393 17.6614C124.157 17.6614 123.955 17.7457 123.787 17.9141C123.939 19.5817 124.014 20.9209 124.014 21.9315ZM114.565 33.1247C111.802 30.4633 110.421 26.8586 110.421 22.3105C110.421 17.7457 111.718 14.1494 114.312 11.5216C116.923 8.87705 120.342 7.55476 124.57 7.55476C128.798 7.55476 132.218 8.92759 134.828 11.6732C137.422 14.4189 138.72 17.9983 138.72 22.4115C138.72 26.8081 137.465 30.3032 134.955 32.8972C132.462 35.4913 129.068 36.7884 124.772 36.7884C120.477 36.7884 117.074 35.5672 114.565 33.1247ZM151.727 5.50816V23.2707C151.727 25.7806 152.333 27.4144 153.546 28.1724C153.563 28.2566 153.571 28.4167 153.571 28.6525V29.1073C153.571 31.5161 152.956 33.3436 151.727 34.5902C150.514 35.8366 148.787 36.46 146.547 36.46C144.307 36.46 142.53 35.8366 141.216 34.5902C139.649 33.1078 138.866 30.8676 138.866 27.8692V1.61708C140.635 0.539024 142.656 0 144.93 0C147.221 0 148.922 0.48849 150.034 1.46548C151.163 2.42561 151.727 3.77317 151.727 5.50816ZM167.791 36.7884C163.125 36.7884 159.445 35.4913 156.75 32.8972C153.987 30.2865 152.606 26.7154 152.606 22.1842C152.606 17.6362 154.03 14.0315 156.876 11.37C159.504 8.8939 162.831 7.65582 166.857 7.65582C170.882 7.65582 174.108 8.76755 176.533 10.991C178.976 13.1977 180.197 15.918 180.197 19.1522C180.197 22.0326 179.195 24.2056 177.19 25.671C175.338 27.0523 172.811 27.743 169.611 27.743C167.219 27.743 165.197 27.246 163.547 26.2521C163.412 26.3532 163.345 26.5385 163.345 26.8081C163.345 27.3133 164.01 27.7766 165.341 28.1976C166.671 28.6525 168.179 28.8798 169.863 28.8798C171.565 28.8798 173.106 28.6694 174.488 28.2482C175.885 27.8102 177.006 27.2966 177.848 26.707C178.251 27.0608 178.572 27.7176 178.808 28.6778C179.06 29.621 179.186 30.4886 179.186 31.2802C179.186 32.0551 179.11 32.7458 178.958 33.3521C177.646 34.4638 176.299 35.2555 174.917 35.7272C172.963 36.4346 170.588 36.7884 167.791 36.7884ZM167.463 19.6828C168.305 19.6828 168.726 19.3628 168.726 18.7227C168.726 18.1162 168.28 17.813 167.387 17.813C166.494 17.813 165.981 18.293 165.846 19.2533C166.318 19.5396 166.857 19.6828 167.463 19.6828Z" fill="#95AAB7"/>
</svg>
