<svg width="244" height="45" viewBox="0 0 244 45" fill="none" xmlns="http://www.w3.org/2000/svg">
<path d="M0 5.57388V11.1478H6.24275H12.4855L12.5301 27.6911L12.597 44.2566L19.3302 44.3235L26.0858 44.3681L26.1304 27.8248L26.1973 11.2592L32.3954 11.1924L38.5713 11.1478V5.57388V-3.00258e-06H19.2856H0V5.57388Z" fill="#95AAB7"/>
<path d="M40.8008 22.1841V44.3681H59.4176H78.0343V38.6828V32.9974H66.2177H54.4011V30.2105V27.4235H66.2177H78.0343V22.0726V16.7217H66.2177H54.4011V13.9347V11.1478H66.2177H78.0343V5.57388V-3.00258e-06H59.4176H40.8008V22.1841Z" fill="#95AAB7"/>
<path d="M80.4868 22.1841V44.3681H89.6949C104.655 44.3681 107.866 43.9891 112.592 41.6481C114.644 40.6225 115.179 40.2434 117.051 38.3706C120.217 35.1824 121.711 32.0164 122.514 26.8438C122.982 23.9454 122.871 18.26 122.291 15.7184C120.663 8.42771 116.985 3.65647 111.21 1.36002C107.91 0.0445881 107.375 -3.00258e-06 93.3067 -3.00258e-06H80.4868V22.1841ZM102.493 11.772C105.257 12.6416 106.974 14.0908 108.133 16.5433C109.672 19.7984 109.56 25.0825 107.866 28.4045C107.13 29.8537 105.569 31.3252 104.075 31.9941C102.47 32.7076 100.597 32.9751 96.8294 32.9974H94.0871V22.028V11.0809L97.6098 11.2147C100.151 11.3038 101.489 11.4599 102.493 11.772Z" fill="#95AAB7"/>
<path d="M125.211 0.601977C125.412 0.958705 127.441 3.90172 129.693 7.20146C131.922 10.4789 133.773 13.2213 133.773 13.2881C133.773 13.355 131.945 16.0974 129.715 19.3525C127.486 22.63 125.39 25.729 125.033 26.2418L124.386 27.2006H129.358H134.33L136.292 23.8562C137.385 22.0057 138.343 20.5119 138.41 20.5119C138.5 20.5342 139.458 22.028 140.551 23.8562L142.557 27.2006H147.529H152.501L150.651 24.4582C144.965 16.1197 143.137 13.3996 143.137 13.2658C143.137 13.1767 143.895 11.995 144.854 10.635C145.79 9.25265 147.797 6.30963 149.313 4.05779L152.078 -2.87592e-06H147.106H142.134L140.528 2.85383C139.637 4.41451 138.789 5.86372 138.633 6.08668C138.343 6.4657 138.143 6.17586 136.56 3.25515L134.776 -2.87592e-06H129.782H124.81L125.211 0.601977Z" fill="#95AAB7"/>
<path d="M167.217 22.7414V44.3681H169.223H171.23V26.3087C171.23 16.3649 171.297 8.24934 171.408 8.24934C171.498 8.27164 177.294 16.3872 184.273 26.3087L196.981 44.3458L198.943 44.3681H200.883V22.7414V1.11477H198.876H196.87L196.825 19.1965L196.758 37.3004L184.028 19.2633L171.275 1.22625L169.246 1.15936L167.217 1.09247V22.7414Z" fill="#95AAB7"/>
<path d="M210.515 16.7662C210.604 33.9784 210.559 33.3764 212.008 36.4532C213.814 40.3103 217.493 43.2979 221.952 44.5019C224.048 45.0593 228.507 45.1708 230.781 44.7249C235.731 43.7216 239.655 40.8454 241.684 36.7208C243.244 33.5548 243.244 33.6217 243.244 16.4318V1.11478H241.238H239.254L239.187 16.6548C239.12 32.1056 239.12 32.2171 238.629 33.5325C237.202 37.2781 234.349 39.7975 230.425 40.8008C223.535 42.5622 216.847 39.1287 214.996 32.8636C214.662 31.682 214.595 29.9875 214.528 16.3203L214.461 1.11478H212.454H210.448L210.515 16.7662Z" fill="#95AAB7"/>
</svg>
