<svg width="541" height="45" viewBox="0 0 541 45" fill="none" xmlns="http://www.w3.org/2000/svg">
<path d="M0.155001 0.199278C0.0664289 0.265707 0 2.81215 0 5.84573V11.3372H6.20003H12.4001L12.4443 27.7673L12.5108 44.2195L19.1979 44.2859L25.9073 44.3302L25.9515 27.9001L26.018 11.4479L32.1737 11.3815L38.3073 11.3372V5.69073V0.044277H19.3087C8.85718 0.044277 0.22143 0.110706 0.155001 0.199278Z" fill="#95AAB7"/>
<path d="M40.5217 22.1872V44.3302H59.0111H77.5005V38.6837V33.0373H65.7647H54.0289V30.2694V27.5015H65.7647H77.5005V22.1872V16.8729H65.7647H54.0289V14.1051V11.3372H65.7647H77.5005V5.69073V0.044277H59.0111H40.5217V22.1872Z" fill="#95AAB7"/>
<path d="M79.936 22.1651V44.3302H89.1918C104.05 44.3081 107.083 43.9538 111.822 41.6288C113.881 40.6102 114.39 40.2338 116.25 38.3737C119.395 35.2073 120.878 32.063 121.676 26.9258C122.141 24.0472 122.03 18.4008 121.454 15.8765C119.572 7.3736 114.855 2.34714 107.172 0.597851C105.733 0.265707 103.74 0.199278 92.7347 0.110706L79.936 -8.9705e-06V22.1651ZM101.946 11.9793C104.692 12.9315 106.264 14.3043 107.393 16.6958C108.235 18.4672 108.589 20.7037 108.434 23.1837C108.124 27.7008 106.419 30.6458 103.23 32.0851C101.791 32.7494 99.8426 33.0151 96.1668 33.0373H93.4432V22.143V11.2708L97.0525 11.4036C99.8426 11.5143 100.928 11.625 101.946 11.9793Z" fill="#95AAB7"/>
<path d="M124.134 0.531456C124.222 0.686457 126.237 3.63147 128.584 7.08577C130.931 10.5179 132.858 13.3965 132.858 13.4629C132.858 13.5294 131.175 16.0315 129.138 19.043C127.079 22.0544 124.997 25.1323 124.466 25.8851L123.536 27.2802H128.474H133.411L135.36 23.9587C136.445 22.1208 137.397 20.6373 137.464 20.6373C137.552 20.6594 138.504 22.143 139.589 23.9587L141.582 27.2802H146.52H151.458L149.62 24.5566C143.951 16.2308 142.158 13.5737 142.158 13.4408C142.158 13.3522 143.132 11.8687 144.306 10.1415C145.479 8.43649 147.472 5.49148 148.734 3.63147L151.037 0.26574H146.099H141.161L139.567 3.10004C138.681 4.65005 137.818 6.11148 137.663 6.33291C137.419 6.6872 137.176 6.35505 135.626 3.49861L133.854 0.26574H128.916C125.019 0.26574 124.001 0.332169 124.134 0.531456Z" fill="#95AAB7"/>
<path d="M166.227 1.52786C166.139 1.59428 166.072 11.2708 166.072 23.0065V44.3302H168.065H170.058V26.3944C170.058 16.5186 170.124 8.4586 170.235 8.4586C170.324 8.48075 176.081 16.5408 183.012 26.3944L195.633 44.3302H197.582H199.508V22.8515V1.37285H197.626H195.744V19.2865C195.744 29.1623 195.677 37.2666 195.567 37.333C195.478 37.3773 189.876 29.6051 183.122 20.0394C176.369 10.4515 170.589 2.34714 170.324 1.99286C169.837 1.41714 169.704 1.37285 168.087 1.37285C167.135 1.37285 166.294 1.43928 166.227 1.52786Z" fill="#95AAB7"/>
<path d="M279.887 22.8515V44.3302H281.747H283.629L283.696 33.0816C283.762 21.9437 283.762 21.8551 284.271 20.5929C285.002 18.7994 286.663 17.0501 288.478 16.1644C289.896 15.4558 290.051 15.4336 292.619 15.4336C295.077 15.4336 295.365 15.4779 296.383 16.0094C298.553 17.1608 299.926 19.0208 300.458 21.4787C300.613 22.2537 300.701 26.3058 300.701 33.4801V44.3302H302.583H304.488L304.421 32.1959C304.355 20.6594 304.333 20.0172 303.89 18.8437C302.141 14.0165 298.199 11.5586 292.73 11.8465C288.545 12.0679 286.906 13.0422 284.05 16.9172C283.696 17.4044 283.673 17.0279 283.651 9.38861V1.37285H281.769H279.887V22.8515Z" fill="#95AAB7"/>
<path d="M508.491 1.68287C508.424 1.83787 508.402 8.85719 508.447 17.2272C508.535 34.1445 508.491 33.5023 510.063 36.6909C511.901 40.4331 515.2 43.1124 519.629 44.3745C521.112 44.8174 521.887 44.8838 524.899 44.8838C527.999 44.8838 528.641 44.8174 530.102 44.3745C533.49 43.3116 536.214 41.4295 538.118 38.8609C539.247 37.3109 539.956 35.7609 540.51 33.5909C540.93 31.9523 540.952 31.133 540.952 16.6072V1.35073L539.026 1.41716L537.077 1.48358L536.967 17.0944C536.856 32.4616 536.856 32.7273 536.369 33.8787C534.42 38.6616 530.302 41.2523 524.722 41.2523C520.825 41.2523 518.212 40.2559 515.776 37.8645C514.536 36.6466 513.562 34.9859 512.92 33.0373C512.543 31.908 512.499 30.6016 512.432 16.5851L512.366 1.37287H510.484C509.089 1.37287 508.579 1.46144 508.491 1.68287Z" fill="#95AAB7"/>
<path d="M262.77 4.62788C262.682 4.69431 262.615 6.4436 262.615 8.5029V12.2229H260.29H257.965V13.8836V15.5444H260.29H262.615V26.2173C262.615 32.528 262.704 37.488 262.837 38.3295C263.28 40.9645 264.675 42.7581 267.221 43.9538C268.616 44.6181 268.86 44.6624 271.163 44.6624C274.351 44.6624 274.418 44.6181 273.908 42.4923C273.643 41.3409 273.443 40.9202 273.222 40.9866C273.045 41.0309 272.225 41.0752 271.362 41.0752C268.483 41.0752 266.955 39.7466 266.579 36.868C266.49 36.0487 266.402 30.9116 266.38 25.4423V15.5444H269.812H273.244V13.8836V12.2229H269.812H266.38V8.3479V4.47288H264.653C263.7 4.47288 262.837 4.53931 262.77 4.62788Z" fill="#95AAB7"/>
<path d="M406.545 8.34789V12.2229H404.109H401.673V13.8836V15.5444H404.109H406.523L406.589 27.4351L406.656 39.348L407.209 40.433C407.94 41.8723 409.8 43.5109 411.372 44.1309C413.719 45.0388 418.081 44.9059 418.037 43.9316C418.037 43.7323 417.86 42.9573 417.638 42.2266C417.373 41.2745 417.173 40.9202 416.93 40.9866C416.775 41.0309 415.978 41.0752 415.181 41.0752C412.878 41.0752 411.593 40.3223 410.73 38.4623C410.353 37.643 410.309 36.8237 410.309 26.5715V15.5665L413.697 15.5001L417.063 15.4336L417.129 13.8172L417.196 12.2229H413.741H410.309V8.34789V4.47287H408.427H406.545V8.34789Z" fill="#95AAB7"/>
<path d="M217.555 12.09C214.72 12.7765 211.93 14.6143 210.203 16.9393C207.524 20.5486 206.328 25.4422 206.837 30.7565C207.458 37.3994 211.089 42.5145 216.47 44.3302C219.725 45.4152 223.821 45.1273 226.943 43.5995C229.158 42.5366 231.748 39.8573 232.9 37.4437C234.494 34.1444 234.826 32.5944 234.804 28.2765C234.804 23.9587 234.45 22.2758 233.01 19.3308C231.638 16.5851 228.471 13.64 225.836 12.6657C223.378 11.78 219.858 11.5365 217.555 12.09ZM222.958 15.4336C225.393 15.7658 228.073 18.0022 229.512 20.9251C230.752 23.4715 231.062 24.9551 231.062 28.498C231.062 33.2587 230.043 36.2037 227.541 38.7059C225.327 40.9202 222.648 41.8059 219.282 41.4073C215.185 40.9423 211.864 37.2223 210.801 31.8416C210.38 29.7823 210.491 25.9072 211 23.8922C212.218 19.1758 215.407 15.9208 219.326 15.345C220.633 15.1679 221.009 15.1679 222.958 15.4336Z" fill="#95AAB7"/>
<path d="M250.636 12.2893C248.311 13.0865 246.562 14.5258 245.499 16.5408C245.145 17.1829 245.145 17.1165 245.122 14.7029V12.2229H243.24H241.358V28.2766V44.3302H243.24H245.1L245.167 32.8601L245.233 21.4122L245.831 20.1944C247.403 17.0058 251.19 14.9908 254.777 15.4558L255.973 15.5886V13.6843V11.78H254.046C252.607 11.78 251.699 11.9351 250.636 12.2893Z" fill="#95AAB7"/>
<path d="M321.073 12.2893C318.836 12.9758 317.486 13.7951 315.736 15.5444C313.655 17.6037 312.349 19.9951 311.396 23.5158C311.086 24.623 311.02 25.7744 311.02 28.6087C311.042 32.7937 311.396 34.543 312.814 37.4437C313.921 39.658 316.556 42.3595 318.637 43.4002C324.173 46.1459 331.214 45.2824 335.134 41.3852C336.529 39.9902 337.879 37.7759 337.525 37.4659C337.392 37.3109 334.514 36.3587 334.248 36.3587C334.204 36.3587 333.916 36.8016 333.628 37.3109C331.325 41.2302 325.258 42.7138 320.719 40.4773C317.397 38.8166 315.316 35.4287 314.762 30.7566L314.607 29.4944H326.609H338.632L338.499 26.6601C338.278 21.6337 337.038 18.4008 334.27 15.6329C331.702 13.0643 329.177 12.0015 325.28 11.8686C323.088 11.7801 322.512 11.8465 321.073 12.2893ZM328.048 15.6994C329.509 16.2086 330.705 17.0279 331.812 18.2458C333.473 20.0837 334.469 22.4751 334.624 24.9551L334.691 26.0623L324.682 26.1287C315.05 26.173 314.651 26.1508 314.651 25.7744C314.651 24.9551 315.515 21.988 316.069 20.8808C316.954 19.1537 319.058 17.0501 320.719 16.2308C322.955 15.1236 325.812 14.9244 328.048 15.6994Z" fill="#95AAB7"/>
<path d="M352.472 12.2229C349.062 13.0644 346.36 14.9908 345.009 17.5372C344.611 18.2901 344.323 18.9322 344.367 18.9544C344.389 18.9987 345.187 19.2865 346.094 19.6187C347.622 20.1722 347.777 20.1944 347.977 19.8622C349.814 16.7622 352.649 15.2122 356.502 15.2122C361.285 15.2122 363.742 17.4044 363.986 21.8994C364.075 23.6044 364.052 23.7373 363.521 24.2466C362.812 24.9773 361.971 25.1987 357.83 25.7523C350.235 26.7487 347.445 27.6787 345.408 29.8709C343.858 31.5316 343.371 33.0152 343.482 35.9159C343.592 38.7945 344.146 40.2116 345.962 42.0274C347.999 44.0645 350.634 44.9945 354.265 44.9945C358.207 44.9945 361.395 43.2895 363.388 40.1231L364.03 39.1266V41.7173V44.3302H365.912H367.795V32.3066C367.795 19.2422 367.75 18.7551 366.532 16.6737C364.23 12.7544 358.162 10.8279 352.472 12.2229ZM363.787 34.4323C362.812 39.0823 357.875 42.2931 352.892 41.4738C349.239 40.8759 347.224 38.7502 347.202 35.5173C347.202 33.7237 347.556 32.9045 348.818 31.7752C350.213 30.5573 352.361 29.893 357.166 29.1844C361.262 28.5644 363.499 28.0551 363.765 27.6344C364.052 27.1916 364.075 33.0816 363.787 34.4323Z" fill="#95AAB7"/>
<path d="M383.405 12.0458C381.678 12.3779 379.154 13.6844 377.936 14.9022C377.338 15.5001 376.585 16.5629 376.253 17.2715C375.722 18.3787 375.655 18.7994 375.655 20.8587C375.655 23.6708 376.054 24.7337 377.715 26.3501C379.265 27.878 381.102 28.653 385.841 29.8487C388.166 30.4244 390.447 31.0666 390.956 31.3102C394.167 32.7937 395.097 36.4252 392.882 38.9938C390.89 41.3409 385.819 42.3152 382.365 41.0088C380.66 40.3666 379.641 39.3923 378.733 37.5545C378.268 36.6466 377.847 35.9159 377.781 35.9159C377.715 35.9159 376.917 36.0709 376.032 36.2923L374.393 36.6688L374.526 37.3552C374.814 38.7059 375.921 40.6988 377.05 41.7838C379.154 43.8431 382.387 44.9945 386.04 44.9945C393.68 44.9724 398.662 40.4995 397.865 34.3216C397.532 31.6866 395.827 29.583 392.971 28.2766C392.085 27.878 389.738 27.1251 387.723 26.638C383.317 25.5308 382.055 25.0437 380.903 24.0473C378.445 21.9658 378.888 18.1572 381.767 16.4079C384.07 14.9687 388.077 14.7029 390.27 15.7879C391.51 16.4079 393.347 18.3344 393.724 19.4194C393.879 19.8401 394.1 20.1944 394.211 20.1944C394.787 20.1944 397.466 19.2644 397.466 19.0651C397.466 18.423 396.093 16.1644 394.986 14.9908C393.591 13.4851 392.063 12.6215 389.893 12.1122C388.343 11.7579 385.132 11.7136 383.405 12.0458Z" fill="#95AAB7"/>
<path d="M432.806 12.1122C429.108 13.0422 425.964 15.6772 424.193 19.3087C422.598 22.5194 422.2 24.313 422.178 28.2766C422.156 32.3066 422.532 34.233 423.927 37.1338C426.186 41.8502 430.393 44.6181 435.796 44.9281C440.401 45.1938 444.099 43.8652 446.756 40.9424C447.996 39.5916 449.015 37.7759 448.705 37.4659C448.594 37.3773 447.819 37.0673 447 36.8016C445.538 36.3366 445.472 36.3366 445.184 36.7131C445.007 36.9566 444.852 37.2223 444.852 37.3109C444.852 37.3995 444.387 37.9973 443.811 38.5952C442.394 40.1009 440.202 41.2081 438.165 41.4295C431.433 42.1381 426.85 38.1302 425.92 30.6459L425.765 29.4944H437.744H449.724V27.4352C449.724 19.9065 446.557 14.7251 440.645 12.5551C438.563 11.8022 434.888 11.5808 432.806 12.1122ZM437.633 15.323C441.996 15.9651 445.251 19.7515 445.848 24.9109L446.003 26.173L435.973 26.1287L425.92 26.0623L425.986 25.0659C426.341 20.4601 430.326 15.9651 434.622 15.3451C435.308 15.2344 435.928 15.1458 435.995 15.1237C436.061 15.1237 436.792 15.2122 437.633 15.323Z" fill="#95AAB7"/>
<path d="M466.331 11.9351C466.021 12.0015 465.157 12.3336 464.382 12.6879C462.854 13.3743 460.839 15.2344 460.374 16.4079C460.197 16.7844 459.998 17.0944 459.887 17.0944C459.776 17.0944 459.688 15.9872 459.688 14.6586V12.2229H457.916H456.145V28.2766V44.3302H458.027H459.887L459.954 32.8601L460.02 21.4122L460.596 20.1944C462.079 17.0279 465.932 14.9908 469.564 15.4558L470.759 15.5886V13.6843V11.78L468.833 11.8022C467.748 11.8243 466.641 11.8908 466.331 11.9351Z" fill="#95AAB7"/>
<path d="M485.595 12.1122C483.049 12.8429 481.299 14.0608 480.037 15.9872C479.639 16.6072 479.24 17.0944 479.129 17.0944C479.041 17.0944 478.952 15.9872 478.952 14.6586V12.2229H477.181H475.409V28.2766V44.3302H477.292H479.174V33.5909C479.174 26.6158 479.262 22.4751 479.417 21.7001C479.927 19.2422 481.654 17.1165 484.023 16.0315C485.794 15.2122 489.138 15.0794 490.932 15.7436C493.589 16.7401 495.36 19.1758 495.781 22.4087C495.892 23.3165 496.002 28.6308 496.002 34.1887V44.3302H497.907H499.789L499.722 32.528C499.634 22.3201 499.567 20.5708 499.257 19.4637C498.217 15.8986 496.113 13.5958 492.792 12.4222C490.998 11.8022 487.3 11.6472 485.595 12.1122Z" fill="#95AAB7"/>
</svg>
